<svg enable-background="new 0 0 3600 1800" height="1800" viewBox="0 0 3600 1800" width="3600" xmlns="http://www.w3.org/2000/svg" xmlns:xlink="http://www.w3.org/1999/xlink"><symbol id="a" viewBox="-25.002 -562.5 200.002 700"><path d="m74.999 37.5-.001-350-99.998 50-.001 350z" fill="#b3813b"/><path d="m74.999 37.5v-50l-50 25v50z" fill="#b49355"/><path d="m24.999 12.5v-50l-50 25v50z" fill="#b49355"/><path d="m74.999-62.5v-50l-50 25v50z" fill="#b49355"/><path d="m24.999-87.5v-50l-50 25v50z" fill="#b49355"/><path d="m175 87.5-100.001-50-100 50 100.002 50z" fill="#7ee05b"/><path d="m75 37.5-.002-350 100 50 .002 350z" fill="#9c7125"/><path d="m75 87.5-50-25-50 25 50 25z" fill="#64d13f"/><path d="m74.998 37.5v-50l50 25v50z" fill="#8f6027"/><path d="m124.998 12.5v-50l50 25v50z" fill="#8f6027"/><path d="m74.998-62.5v-50l50 25v50z" fill="#8f6027"/><path d="m175 87.5-50-25-50 25 50 25z" fill="#64d13f"/><path d="m124.998-87.5v-50l50 25v50z" fill="#8f6027"/><path d="m-25.001 37.5 50-25" fill="#b3813b"/><path d="m74.999-162.5v-50l-50 25v50z" fill="#b49355"/><path d="m24.999-187.5v-50l-50 25v50z" fill="#b49355"/><path d="m74.999-262.5v-50l-50 25v50z" fill="#b49355"/><path d="m74.998-162.5v-50l50 25v50z" fill="#8f6027"/><path d="m124.998-187.5v-50l50 25v50z" fill="#8f6027"/><path d="m74.998-262.5v-50l50 25v50z" fill="#8f6027"/><path d="m-25.001-162.5 50-25" fill="#b3813b"/><path d="m74.998-512.5-100 50v-50l100-50 100.001 50v50z" fill="#4f441d"/><path d="m74.998-462.5-100 50v-50l100-50 100.001 50v50z" fill="#614f1f"/><path d="m74.998-412.5-100 50v-50l100-50 100.001 50v50z" fill="#705821"/><path d="m74.998-362.5-100 50v-50l100-50 100 50v50z" fill="#7e6022"/><path d="m74.998-312.5-100 50v-50l100-50 100 50v50z" fill="#8d6924"/></symbol><symbol id="b" viewBox="-25.002 -562.5 200.002 700"><path d="m74.999 37.5-.001-350-99.998 50-.001 350z" fill="#b49355"/><path d="m74.999 37.5v-50l-50 25v50z" fill="#b3813b"/><path d="m24.999 12.5v-50l-50 25v50z" fill="#b3813b"/><path d="m74.999-62.5v-50l-50 25v50z" fill="#b3813b"/><path d="m24.999-87.5v-50l-50 25v50z" fill="#b3813b"/><path d="m175 87.5-100.001-50-100 50 100.002 50z" fill="#64d13f"/><path d="m75 37.5-.002-350 100 50 .002 350z" fill="#8f6027"/><path d="m75 87.5-50-25-50 25 50 25z" fill="#7ee05b"/><path d="m74.998 37.5v-50l50 25v50z" fill="#9c7125"/><path d="m124.998 12.5v-50l50 25v50z" fill="#9c7125"/><path d="m74.998-62.5v-50l50 25v50z" fill="#9c7125"/><path d="m175 87.5-50-25-50 25 50 25z" fill="#7ee05b"/><path d="m124.998-87.5v-50l50 25v50z" fill="#9c7125"/><path d="m-25.001 37.5 50-25" fill="#b49355"/><path d="m74.999-162.5v-50l-50 25v50z" fill="#b3813b"/><path d="m24.999-187.5v-50l-50 25v50z" fill="#b3813b"/><path d="m74.999-262.5v-50l-50 25v50z" fill="#b3813b"/><path d="m74.998-162.5v-50l50 25v50z" fill="#9c7125"/><path d="m124.998-187.5v-50l50 25v50z" fill="#9c7125"/><path d="m74.998-262.5v-50l50 25v50z" fill="#9c7125"/><path d="m-25.001-162.5 50-25" fill="#b49355"/><path d="m74.998-512.5-100 50v-50l100-50 100.001 50v50z" fill="#4f441d"/><path d="m74.998-462.5-100 50v-50l100-50 100.001 50v50z" fill="#614f1f"/><path d="m74.998-412.5-100 50v-50l100-50 100.001 50v50z" fill="#705821"/><path d="m74.998-362.5-100 50v-50l100-50 100 50v50z" fill="#7e6022"/><path d="m74.998-312.5-100 50v-50l100-50 100 50v50z" fill="#8d6924"/></symbol><symbol id="c" viewBox="-150.001 -600 300.001 750"><path d="m-.001 0v-350l150 75 .001 350z" fill="#9c7125"/><path d="m-.001 0v-350l-149.999 75v350z" fill="#b49355"/><path d="m150 75-150-75-150 75 150.001 75z" fill="#7ee05b"/><path d="m-.001 0v-50l-50 25v50z" fill="#b3813b"/><path d="m-50.001-25v-50l-50 25v50z" fill="#b3813b"/><path d="m-.001-50v-50l50 25v50z" fill="#8f6027"/><path d="m49.999 25v-50l50 25v50z" fill="#8f6027"/><path d="m99.999 0v-50l50 25v50z" fill="#8f6027"/><path d="m-.001-100v-50l-50 25v50z" fill="#b3813b"/><path d="m-50.001-125v-50l-50 25v50z" fill="#b3813b"/><path d="m-.001-150v-50l50 25v50z" fill="#8f6027"/><path d="m49.999-75v-50l50 25v50z" fill="#8f6027"/><path d="m-100 50v-50l-50 25v50z" fill="#b3813b"/><path d="m-100-50v-50l-50 25v50z" fill="#b3813b"/><path d="m99.999-100v-50l50 25v50z" fill="#8f6027"/><path d="m-.001-200v-50l-50 25v50z" fill="#b3813b"/><path d="m-50.001-225v-50l-50 25v50z" fill="#b3813b"/><path d="m-.001-250v-50l50 25v50z" fill="#8f6027"/><path d="m49.999-175v-50l50 25v50z" fill="#8f6027"/><path d="m99.999-200v-50l50 25v50z" fill="#8f6027"/><path d="m-.001-300v-50l-50 25v50z" fill="#b3813b"/><path d="m49.999-275v-50l50 25v50z" fill="#8f6027"/><path d="m-100-150v-50l-50 25v50z" fill="#b3813b"/><path d="m-100-250v-50l-50 25v50z" fill="#b3813b"/><path d="m50 75-50-25-50 25 50 25z" fill="#64d13f"/><path d="m50 25-50-25-50 25 50 25z" fill="#64d13f"/><path d="m-49.999 75-50-25-50 25 50 25z" fill="#64d13f"/><path d="m50.001 125-50-25-50 25 50 25z" fill="#64d13f"/><path d="m150 75-50-25-50 25 50 25z" fill="#64d13f"/><path d="m-.001-550-150 75v-50l150-75 150 75v50z" fill="#4f441d"/><path d="m-.001-500-150 75v-50l150-75 150 75v50z" fill="#614f1f"/><path d="m-.001-450-150 75v-50l150-75 150 75v50z" fill="#705821"/><path d="m-.001-400-150 75v-50l150-75 150 75v50z" fill="#7e6022"/><path d="m-.001-350-150 75v-50l150-75 150 75v50z" fill="#8d6924"/></symbol><symbol id="d" viewBox="-150.001 -600 300.002 750"><path d="m-.001 0v-350l150 75 .001 350z" fill="#8f6027"/><path d="m-.001 0v-350l-149.999 75v350z" fill="#b3813b"/><path d="m150 75-150-75-150 75 150.001 75z" fill="#64d13f"/><path d="m50 75-50-25-50 25 50 25z" fill="#7ee05b"/><path d="m50 25-50-25-50 25 50 25z" fill="#7ee05b"/><path d="m-.001-50v-50l50 25v50z" fill="#9c7125"/><path d="m49.999 25v-50l50 25v50z" fill="#9c7125"/><path d="m99.999 0v-50l50 25v50z" fill="#9c7125"/><path d="m-.001-150v-50l50 25v50z" fill="#9c7125"/><path d="m49.999-75v-50l50 25v50z" fill="#9c7125"/><path d="m-49.999 75-50-25-50 25 50 25z" fill="#7ee05b"/><path d="m50.001 125-50-25-50 25 50 25z" fill="#7ee05b"/><path d="m150 75-50-25-50 25 50 25z" fill="#7ee05b"/><path d="m99.999-100v-50l50 25v50z" fill="#9c7125"/><path d="m-.001 0v-50l-50 25v50z" fill="#b49355"/><path d="m-50.001-25v-50l-50 25v50z" fill="#b49355"/><path d="m-.001-100v-50l-50 25v50z" fill="#b49355"/><path d="m-50.001-125v-50l-50 25v50z" fill="#b49355"/><path d="m-100 50v-50l-50 25v50z" fill="#b49355"/><path d="m-100-50v-50l-50 25v50z" fill="#b49355"/><path d="m-.001-250v-50l50 25v50z" fill="#9c7125"/><path d="m49.999-175v-50l50 25v50z" fill="#9c7125"/><path d="m99.999-200v-50l50 25v50z" fill="#9c7125"/><path d="m49.999-275v-50l50 25v50z" fill="#9c7125"/><path d="m-.001-200v-50l-50 25v50z" fill="#b49355"/><path d="m-50.001-225v-50l-50 25v50z" fill="#b49355"/><path d="m-.001-300v-50l-50 25v50z" fill="#b49355"/><path d="m-100-150v-50l-50 25v50z" fill="#b49355"/><path d="m-100-250v-50l-50 25v50z" fill="#b49355"/><path d="m-.001-550-150 75v-50l150-75 150 75v50z" fill="#4f441d"/><path d="m-.001-500-150 75v-50l150-75 150 75v50z" fill="#614f1f"/><path d="m-.001-450-150 75v-50l150-75 150 75v50z" fill="#705821"/><path d="m-.001-400-150 75v-50l150-75 150 75v50z" fill="#7e6022"/><path d="m-.001-350-150 75v-50l150-75 150 75v50z" fill="#8d6924"/></symbol><symbol id="e" viewBox="-144.728 -76.769 289.456 153.537"><path d="m-42.019 61.524 164.244-82.122" style="fill:none;stroke:#57492d;stroke-width:4;stroke-linecap:round;stroke-linejoin:round;stroke-miterlimit:10"/><path d="m-116.788 18.423 164.244-82.122" style="fill:none;stroke:#57492d;stroke-width:4;stroke-linecap:round;stroke-linejoin:round;stroke-miterlimit:10"/><path d="m4.747-60.838-22.066 10.989-.035 4.594 130.204 43.08.035-4.594z" fill="#8e6211"/><path d="m4.712-56.244-22.066 10.989 108.138 54.069 22.066-10.989z" fill="#ad7d2a"/><path d="m-58.941-28.977-22.065 10.989-.035 4.594 130.204 43.08.034-4.594z" fill="#8e6211"/><path d="m-58.975-24.383-22.066 10.989 108.138 54.069 22.066-10.989z" fill="#ad7d2a"/><path d="m36.59-76.769-22.066 10.989-.034 4.595 130.204 43.079.034-4.594z" fill="#704b15"/><path d="m36.556-72.174-22.066 10.989 108.138 54.068 22.066-10.989z" fill="#8f662c"/><path d="m-27.097-44.907-22.066 10.989-.034 4.594 130.203 43.08.035-4.594z" fill="#704b15"/><path d="m-27.132-40.313-22.065 10.989 108.138 54.069 22.065-10.989z" fill="#8f662c"/><path d="m-90.784-13.046-22.066 10.989-.035 4.594 130.204 43.08.035-4.594z" fill="#704b15"/><path d="m-90.819-8.452-22.066 10.989 108.138 54.069 22.066-10.989z" fill="#8f662c"/><path d="m-122.628 2.884-22.066 10.989-.034 4.595 130.204 43.079.034-4.594z" fill="#8e6211"/><path d="m-122.662 7.479-22.066 10.989 108.138 54.068 22.066-10.989z" fill="#ad7d2a"/><path d="m-129.807 29.107v-9.979c0-1.477 2.396-2.673 5.349-2.673s5.349 1.197 5.349 2.673v9.979z" fill="#72592f"/><ellipse cx="-124.462" cy="29.026" fill="#8c673a" rx="5.347" ry="2.673"/><path d="m-40.011 74.176v-9.979c0-1.477 2.396-2.673 5.349-2.673s5.349 1.197 5.349 2.673v9.979z" fill="#72592f"/><ellipse cx="-34.666" cy="74.095" fill="#8c673a" rx="5.347" ry="2.673"/><path d="m29.411-50.546v-9.979c0-1.477 2.396-2.673 5.349-2.673s5.349 1.197 5.349 2.673v9.979z" fill="#694614"/><ellipse cx="34.756" cy="-50.627" fill="#8c673a" rx="5.347" ry="2.673"/><path d="m119.207-5.477v-9.979c0-1.477 2.396-2.673 5.349-2.673s5.349 1.197 5.349 2.673v9.979z" fill="#694614"/><ellipse cx="124.552" cy="-5.558" fill="#8c673a" rx="5.347" ry="2.673"/></symbol><symbol id="f" viewBox="-100 -50 200 100"><path d="m100 0-100-50-100 50 100 50z" fill="#7ee05b"/><path d="m100 0-50-25-50 25 50 25z" fill="#64d13f"/><path d="m0 0-50-25-50 25 50 25z" fill="#64d13f"/></symbol><symbol id="g" viewBox="-99.135 -81.433 198.271 172.805"><ellipse cy="-44.461" fill="#231815" opacity=".1" rx="26.857" ry="13.429"/><path d="m.005 3.025c-6.55.143-11.915-3.702-11.641-7.143.003-.638-.006-39.116.003-39.29.146-3.864 5.301-6.968 11.638-6.968 6.429 0 11.641 3.195 11.641 7.136v39.13c0 3.94-5.212 7.135-11.641 7.135z" fill="#c9a149"/><path d="m.005 3.025c-.001 0-.003 0-.005 0v-47.868c0-2.022-.853-3.884-2.278-5.395.739-.09 1.502-.138 2.283-.138 6.429 0 11.641 3.195 11.641 7.136v39.13c0 3.94-5.212 7.135-11.641 7.135z" fill="#bf8939"/><path d="m45.789 22.856c0-30.392-20.5-45.763-45.789-45.763s-45.789 15.371-45.789 45.763 20.93 68.515 45.789 68.515 45.789-38.123 45.789-68.515z" fill="#4abd3a"/><path d="m34.955 30.848c22.286 3.213-7.041 47.533-15.837 52.941-5.778 3.364-33.627 1.379-38.965-.942-6.647-.202-38.618-53.747-16.352-52.18-7.362-7.896 3.976-19.168 13.947-13.677-.338-9.39 16.111-12.906 21.168-4.533 5.112-8.349 21.545-4.773 21.138 4.619 10.033-5.438 22.346 5.904 14.901 13.772z" fill="#5fc944"/><path d="m33.231 66.838c-20.735 36.491-53.466 29.555-70.08-6.782.817-6.072 9.875-8.653 15.911-5.315-.315-8.777 15.058-13.028 19.784-5.203 4.778-7.803 20.136-3.494 19.756 5.284 9.375-5.082 19.533 2.845 14.629 12.016z" fill="#81d14b"/><path d="m99.135-31.866-99.135-49.567-99.135 49.568 99.135 49.567z" fill="none"/></symbol><symbol id="h" viewBox="-100 -100 200 200"><path d="m-100-100h200v200h-200z" fill="none"/><path d="m99.137-31.866-99.136-49.567-99.135 49.567 99.135 49.568z" fill="none"/><ellipse cy="-56.445" fill="#231815" opacity=".1" rx="29.158" ry="14.579"/><path d="m.005-4.891c-7.11.154-12.935-4.019-12.638-7.756.003-.692-.007-42.468.003-42.657.158-4.195 5.755-7.565 12.635-7.565 6.98 0 12.639 3.469 12.639 7.747v42.482c0 4.28-5.659 7.749-12.639 7.749z" fill="#c9a149"/><path d="m.005-4.891c-.002 0-.004 0-.006 0v-51.97c0-2.195-.926-4.217-2.473-5.858.802-.098 1.63-.15 2.479-.15 6.98 0 12.639 3.469 12.639 7.747v42.482c0 4.28-5.659 7.749-12.639 7.749z" fill="#bf8939"/><path d="m49.712 16.639c0-32.996-22.257-49.684-49.712-49.684s-49.712 16.689-49.712 49.684 22.723 74.386 49.712 74.386 49.712-41.391 49.712-74.386z" fill="#4abd3a"/><path d="m37.95 25.315c24.196 3.488-7.644 51.606-17.194 57.477-6.273 3.652-36.508 1.498-42.304-1.022-7.216-.22-41.927-58.352-17.753-56.651-7.993-8.573 4.317-20.81 15.142-14.849-.366-10.195 17.492-14.012 22.983-4.921 5.55-9.065 23.391-5.182 22.949 5.015 10.892-5.904 24.26 6.41 16.177 14.951z" fill="#5fc944"/><path d="m36.079 64.39c-22.512 39.617-58.047 32.087-76.084-7.363.887-6.592 10.722-9.394 17.274-5.77-.342-9.529 16.348-14.145 21.479-5.649 5.188-8.472 21.861-3.793 21.448 5.736 10.179-5.518 21.207 3.088 15.883 13.046z" fill="#81d14b"/></symbol><symbol id="i" viewBox="-100 -100 200 200"><path d="m-100-100h200v200h-200z" fill="none"/><path d="m99.137-31.866-99.136-49.567-99.135 49.567 99.135 49.568z" fill="none"/><ellipse cy="-56.445" fill="#231815" opacity=".1" rx="29.158" ry="14.579"/><path d="m.005-4.891c-7.11.154-12.935-4.019-12.638-7.756.003-.692-.007-42.468.003-42.657.158-4.195 5.755-7.565 12.635-7.565 6.98 0 12.639 3.469 12.639 7.747v42.482c0 4.28-5.659 7.749-12.639 7.749z" fill="#bfa923"/><path d="m.005-4.891c-.002 0-.004 0-.006 0v-51.97c0-2.195-.926-4.217-2.473-5.858.802-.098 1.63-.15 2.479-.15 6.98 0 12.639 3.469 12.639 7.747v42.482c0 4.28-5.659 7.749-12.639 7.749z" fill="#b09520"/><path d="m49.712 16.639c0-32.996-22.257-49.684-49.712-49.684s-49.712 16.689-49.712 49.684 22.723 74.386 49.712 74.386 49.712-41.391 49.712-74.386z" fill="#77c136"/><path d="m37.95 25.315c24.196 3.488-7.644 51.606-17.194 57.477-6.273 3.652-36.508 1.498-42.304-1.022-7.216-.22-41.927-58.352-17.753-56.651-7.993-8.573 4.317-20.81 15.142-14.849-.366-10.195 17.492-14.012 22.983-4.921 5.55-9.065 23.391-5.182 22.949 5.015 10.892-5.904 24.26 6.41 16.177 14.951z" fill="#92d041"/><path d="m36.079 64.39c-22.512 39.617-58.047 32.087-76.084-7.363.887-6.592 10.722-9.394 17.274-5.77-.342-9.529 16.348-14.145 21.479-5.649 5.188-8.472 21.861-3.793 21.448 5.736 10.179-5.518 21.207 3.088 15.883 13.046z" fill="#acdb4d"/></symbol><symbol id="j" viewBox="-249.936 -424.977 499.872 849.953"><path d="m249.936 300.014-249.946-124.991-249.924 124.963 250.056 124.991z" fill="#7ee05b"/><path d="m50.121 349.977-50-25-50 25 50 25z" fill="#64d13f"/><path d="m50.121 299.977-50-25-50 25 50 25z" fill="#64d13f"/><path d="m-49.878 349.977-50-25-50 25 50 25z" fill="#64d13f"/><path d="m50.122 399.977-50-25-50 25 50 25z" fill="#64d13f"/><path d="m150.121 349.977-50-25-50 25 50 25z" fill="#64d13f"/><path d="m-.01 175.023.13-350.046 249.814 125.037.002 350z" fill="#9c7125"/><path d="m149.936 300.014-50-25-50 25 50 25z" fill="#64d13f"/><path d="m149.936 250.014-50-25-50 25 50 25z" fill="#64d13f"/><path d="m249.936 300.014-50-25-50 25 50 25z" fill="#64d13f"/><path d="m-149.934 299.986-50-25-50 25 50 25z" fill="#64d13f"/><path d="m-49.934 299.986-50-25-50 25 50 25z" fill="#64d13f"/><path d="m-249.935 249.986 50-25" fill="#b3813b"/><path d="m-.01-374.976-249.926 124.962v-50l249.926-124.963 249.944 124.991v50z" fill="#4f441d"/><path d="m-50.011 249.986-50-25-50 25 50.001 25z" fill="#64d13f"/><path d="m49.989 249.986-50-25-50 25 50.001 25z" fill="#64d13f"/><path d="m50.12 199.977-50-25-50 25 50 25z" fill="#64d13f"/><path d="m-.01-324.976-249.923 124.962v-50l249.923-124.962 249.944 124.99v50z" fill="#614f1f"/><path d="m-.01-274.976-249.923 124.962v-50l249.923-124.962 249.944 124.99v50z" fill="#705821"/><path d="m-.01-224.976-249.923 124.962v-50l249.923-124.962 249.944 124.99v50z" fill="#7e6022"/><path d="m-.01-174.976-249.923 124.962v-50l249.923-124.962 249.944 124.99v50z" fill="#8d6924"/><path d="m.12 124.977-.001-50 50 25v50z" fill="#8f6027"/><path d="m50.12 199.977-.001-50 50 25v50z" fill="#8f6027"/><path d="m100.12 174.977-.001-50 50 25v50z" fill="#8f6027"/><path d="m.12 24.977-.001-50 50 25v50z" fill="#8f6027"/><path d="m50.12 99.977-.001-50 50 25v50z" fill="#8f6027"/><path d="m100.12 74.977-.001-50 50 25v50z" fill="#8f6027"/><path d="m50.12-.023-.001-50 50 25v50z" fill="#8f6027"/><path d="m99.934 175.014v-50l50 25v50z" fill="#8f6027"/><path d="m149.934 250.014v-50l50 25v50z" fill="#8f6027"/><path d="m199.934 225.014v-50l50 25v50z" fill="#8f6027"/><path d="m99.934 75.014v-50l50 25v50z" fill="#8f6027"/><path d="m149.934 150.014v-50l50 25v50z" fill="#8f6027"/><path d="m199.934 125.014v-50l50 25v50z" fill="#8f6027"/><path d="m99.934-24.986v-50l50 25v50z" fill="#8f6027"/><path d="m149.934 50.014v-50l50 25v50z" fill="#8f6027"/><path d="m199.934 25.014v-50l50 25v50z" fill="#8f6027"/><path d="m149.934-49.986v-50l50 25v50z" fill="#8f6027"/><path d="m49.934-99.986v-50l50 25v50z" fill="#8f6027"/><path d="m50.12 199.977-.001-50 50 25v50z" fill="#8f6027"/><path d="m.12 124.977-.001-50 50 25v50z" fill="#8f6027"/><path d="m50.12 99.977-.001-50 50 25v50z" fill="#8f6027"/><path d="m.12 24.977-.001-50 50 25v50z" fill="#8f6027"/><path d="m50.12-.023-.001-50 50 25v50z" fill="#8f6027"/><path d="m.12-75.023-.001-50 50 25v50z" fill="#8f6027"/><path d="m.011 174.996-.129-350.047-249.815 125.037-.001 350z" fill="#b3813b"/><path d="m.12 124.987v-50l-50 25v50z" fill="#b49355"/><path d="m.12-75.013v-50l-50 25v50z" fill="#b49355"/><path d="m-249.935 49.986 50-25" fill="#b3813b"/><path d="m-150.012 199.987 50-25" fill="#b3813b"/><path d="m-150.012-.013 50-25" fill="#b3813b"/><path d="m-.009 25.033v-50l-50 25v50z" fill="#b49355"/><path d="m-149.935 249.986v-50l-50 25v50z" fill="#b49355"/><path d="m-199.935 224.986v-50l-50 25v50z" fill="#b49355"/><path d="m-149.935 149.986v-50l-50 25v50z" fill="#b49355"/><path d="m-199.935 124.986v-50l-50 25v50z" fill="#b49355"/><path d="m-149.935 49.986v-50l-50 25v50z" fill="#b49355"/><path d="m-199.935 24.986v-50l-50 25v50z" fill="#b49355"/><path d="m-149.935-50.014v-50l-50 25v50z" fill="#b49355"/><path d="m-50.012 199.987v-50l-50 25v50z" fill="#b49355"/><path d="m-100.012 174.987.001-50-50 25v50z" fill="#b49355"/><path d="m-50.012 99.987v-50l-50 25v50z" fill="#b49355"/><path d="m-100.012 74.987.001-50-50 25v50z" fill="#b49355"/><path d="m-50.012-.013v-50l-50 25v50z" fill="#b49355"/><path d="m-100.012-25.013.001-50-50 25v50z" fill="#b49355"/><path d="m-50.012-100.013v-50l-50 25v50z" fill="#b49355"/></symbol><symbol id="k" viewBox="-349.816 -474.925 699.633 949.86"><path d="m349.814 300.065-349.814-175.027-349.815 175.027 350.003 174.87z" fill="#7ee05b"/><path d="m50.001 250.037-50-25-50 25 50 25z" fill="#64d13f"/><path d="m50.001 200.037-50-25-50 25 50 25z" fill="#64d13f"/><path d="m-49.998 250.037-50-25-50 25 50 25z" fill="#64d13f"/><path d="m50.002 300.037-50-25-50 25 50 25z" fill="#64d13f"/><path d="m150.001 250.037-50-25-50 25 50 25z" fill="#64d13f"/><path d="m149.816 200.074-50-25-50 25 50 25z" fill="#64d13f"/><path d="m-50.054 200.047-50-25-50 25 50 25z" fill="#64d13f"/><path d="m49.869 150.047-50-25-50 25 50 25z" fill="#64d13f"/><path d="m250.002 349.972-50-25-50 25 50 25z" fill="#64d13f"/><path d="m250.002 299.972-50-25-50 25 50 25z" fill="#64d13f"/><path d="m150.003 349.972-50-25-50 25 50 25z" fill="#64d13f"/><path d="m349.817 300.009-50-25-50 25 50 25z" fill="#64d13f"/><path d="m149.947 299.981-50-25-50 25 50 25z" fill="#64d13f"/><path d="m249.87 249.982-50-25-50 25 50 25z" fill="#64d13f"/><path d="m-249.813 300-50-25-50 25 50 25z" fill="#64d13f"/><path d="m-149.813 350-50-25-50 25 50 25z" fill="#64d13f"/><path d="m-149.998 300.037-50-25-50 25 50 25z" fill="#64d13f"/><path d="m-149.998 250.037-50-25-50 25 50 25z" fill="#64d13f"/><path d="m-49.998 300.037-50-25-50 25 50 25z" fill="#64d13f"/><path d="m-49.812 399.935-50-25-50 25 50 25z" fill="#64d13f"/><path d="m50.188 449.935-50-25-50 25 50 25z" fill="#64d13f"/><path d="m50.003 399.972-50-25-50 25 50 25z" fill="#64d13f"/><path d="m50.003 349.972-50-25-50 25 50 25z" fill="#64d13f"/><path d="m150.003 399.972-50-25-50 25 50 25z" fill="#64d13f"/><path d="m-49.944 349.945-50-25-50 25 50 25z" fill="#64d13f"/><path d="m-.13 125.075.13-350.047 349.813 175.038.001 349.999z" fill="#8f6027"/><path d="m-.13-424.925-349.686 174.925v-50l349.686-174.925 349.943 174.99v50z" fill="#4f441d"/><path d="m-.13-374.925-349.683 174.925v-50l349.683-174.925 349.943 174.99v50z" fill="#614f1f"/><path d="m-.13-324.925-349.683 174.925v-50l349.683-174.925 349.943 174.99v50z" fill="#705821"/><path d="m-.13-274.925-349.683 174.925v-50l349.683-174.925 349.943 174.99v50z" fill="#7e6022"/><path d="m-.13-224.925-349.683 174.925v-50l349.683-174.925 349.943 174.99v50z" fill="#8d6924"/><path d="m0 75.028-.001-50 50 25v50z" fill="#9c7125"/><path d="m50 150.028-.001-50 50 25v50z" fill="#9c7125"/><path d="m100 125.028-.001-50 50 25v50z" fill="#9c7125"/><path d="m0-24.972-.001-50 50 25v50z" fill="#9c7125"/><path d="m50 50.028-.001-50 50 25v50z" fill="#9c7125"/><path d="m100 25.028-.001-50 50 25v50z" fill="#9c7125"/><path d="m50-49.972-.001-50 50 25v50z" fill="#9c7125"/><path d="m99.814 125.065v-50l50 25v50z" fill="#9c7125"/><path d="m149.814 200.065v-50l50 25v50z" fill="#9c7125"/><path d="m199.814 175.065v-50l50 25v50z" fill="#9c7125"/><path d="m99.814 25.065v-50l50 25v50z" fill="#9c7125"/><path d="m149.814 100.065v-50l50 25v50z" fill="#9c7125"/><path d="m199.814 75.065v-50l50 25v50z" fill="#9c7125"/><path d="m99.814-74.935v-50l50 25v50z" fill="#9c7125"/><path d="m149.814.065v-50l50 25v50z" fill="#9c7125"/><path d="m199.814-24.935v-50l50 25v50z" fill="#9c7125"/><path d="m149.814-99.935v-50l50 25v50z" fill="#9c7125"/><path d="m49.814-149.935v-50l50 25v50z" fill="#9c7125"/><path d="m50 150.028-.001-50 50 25v50z" fill="#9c7125"/><path d="m0 75.028-.001-50 50 25v50z" fill="#9c7125"/><path d="m50 50.028-.001-50 50 25v50z" fill="#9c7125"/><path d="m0-24.972-.001-50 50 25v50z" fill="#9c7125"/><path d="m50-49.972-.001-50 50 25v50z" fill="#9c7125"/><path d="m0-124.972-.001-50 50 25v50z" fill="#9c7125"/><path d="m249.814 150.065v-50l50 25v50z" fill="#9c7125"/><path d="m299.814 225.065v-50l50 25v50z" fill="#9c7125"/><path d="m249.814 50.065v-50l50 25v50z" fill="#9c7125"/><path d="m299.814 125.065v-50l50 25v50z" fill="#9c7125"/><path d="m299.814 25.065v-50l50 25v50z" fill="#9c7125"/><path d="m249.814 250.065v-50l50 25v50z" fill="#9c7125"/><path d="m299.814 225.065v-50l50 25v50z" fill="#9c7125"/><path d="m249.814 150.065v-50l50 25v50z" fill="#9c7125"/><path d="m299.814 125.065v-50l50 25v50z" fill="#9c7125"/><path d="m249.814 50.065v-50l50 25v50z" fill="#9c7125"/><path d="m299.814 25.065v-50l50 25v50z" fill="#9c7125"/><path d="m249.814-49.935v-50l50 25v50z" fill="#9c7125"/><path d="m-250.055 200.038 49.999-25" fill="#b49355"/><path d="m-.109 125.047-.129-350.047-349.574 175-.001 350z" fill="#b49355"/><path d="m-250.055.037 49.999-24.999" fill="#b49355"/><path d="m-150.132 150.038 50-25" fill="#b49355"/><path d="m-150.132-49.962 50-25" fill="#b49355"/><path d="m0-24.972v-50l-50 25v50z" fill="#b3813b"/><path d="m-50 50.028v-50l-50 25v50z" fill="#b3813b"/><path d="m-100 25.028v-50l-50 25v50z" fill="#b3813b"/><path d="m-99.815 125.065v-50l-50 25v50z" fill="#b3813b"/><path d="m-149.815 200.065v-50l-50 25v50z" fill="#b3813b"/><path d="m-199.815 175.065v-50l-50 25v50z" fill="#b3813b"/><path d="m-99.815 25.065v-50l-50 25v50z" fill="#b3813b"/><path d="m-149.815 100.065v-50l-50 25v50z" fill="#b3813b"/><path d="m-199.815 75.065v-50l-50 25v50z" fill="#b3813b"/><path d="m-99.815-74.935v-50l-50 25v50z" fill="#b3813b"/><path d="m-149.815.065v-50l-50 25v50z" fill="#b3813b"/><path d="m-199.815-24.935v-50l-50 25v50z" fill="#b3813b"/><path d="m-149.815-99.935v-50l-50 25v50z" fill="#b3813b"/><path d="m-49.815-149.935v-50l-50 25v50z" fill="#b3813b"/><path d="m-50 150.028v-50l-50 25v50z" fill="#b3813b"/><path d="m0 75.028v-50l-50 25v50z" fill="#b3813b"/><path d="m-50 50.028v-50l-50 25v50z" fill="#b3813b"/><path d="m0-24.972v-50l-50 25v50z" fill="#b3813b"/><path d="m-50-49.972v-50l-50 25v50z" fill="#b3813b"/><path d="m0-124.972v-50l-50 25v50z" fill="#b3813b"/><path d="m-249.815 50.065v-50l-50 25v50z" fill="#b3813b"/><path d="m-299.815 125.065v-50l-50 25v50z" fill="#b3813b"/><path d="m-249.815 250.065v-50l-50 25v50z" fill="#b3813b"/><path d="m-299.815 225.065v-50l-50 25v50z" fill="#b3813b"/><path d="m-249.815 150.065v-50l-50 25v50z" fill="#b3813b"/><path d="m-299.815 125.065v-50l-50 25v50z" fill="#b3813b"/><path d="m-249.815 50.065v-50l-50 25v50z" fill="#b3813b"/><path d="m-299.815 25.065v-50l-50 25v50z" fill="#b3813b"/><path d="m-249.815-49.935v-50l-50 25v50z" fill="#b3813b"/></symbol><clipPath id="l"><path d="m0 0h3600v1800h-3600z"/></clipPath><clipPath id="m"><path d="m0 0h3600v1800h-3600z"/></clipPath><g clip-path="url(#l)"><path d="m4500.5 899.5-2700 1350-2700-1350 2700-1350z" fill="#473f21"/></g><g clip-path="url(#m)"><use height="750" transform="matrix(1 0 0 -1 1649.8564 -75.165)" width="300.002" x="-150.001" xlink:href="#d" y="-600"/><use height="750" transform="matrix(1 0 0 -1 1949.8567 -75.1647)" width="300.002" x="-150.001" xlink:href="#d" y="-600"/><use height="750" transform="matrix(1 0 0 -1 2099.8547 -.165)" width="300.001" x="-150.001" xlink:href="#c" y="-600"/><use height="750" transform="matrix(1 0 0 -1 2249.855 74.8353)" width="300.002" x="-150.001" xlink:href="#d" y="-600"/><use height="750" transform="matrix(1 0 0 -1 2399.853 149.8349)" width="300.001" x="-150.001" xlink:href="#c" y="-600"/><use height="750" transform="matrix(1 0 0 -1 2549.8533 224.8352)" width="300.002" x="-150.001" xlink:href="#d" y="-600"/><use height="750" transform="matrix(1 0 0 -1 2699.8513 299.8349)" width="300.001" x="-150.001" xlink:href="#c" y="-600"/><use height="750" transform="matrix(1 0 0 -1 2849.8516 374.8352)" width="300.002" x="-150.001" xlink:href="#d" y="-600"/><use height="750" transform="matrix(1 0 0 -1 2999.8496 449.8348)" width="300.001" x="-150.001" xlink:href="#c" y="-600"/><use height="750" transform="matrix(1 0 0 -1 3149.8499 524.8351)" width="300.002" x="-150.001" xlink:href="#d" y="-600"/><use height="750" transform="matrix(1 0 0 -1 3299.8479 599.8348)" width="300.001" x="-150.001" xlink:href="#c" y="-600"/><use height="750" transform="matrix(1 0 0 -1 3449.8484 674.8351)" width="300.002" x="-150.001" xlink:href="#d" y="-600"/><use height="750" transform="matrix(1 0 0 -1 3599.8464 749.8348)" width="300.001" x="-150.001" xlink:href="#c" y="-600"/><use height="750" transform="matrix(1 0 0 -1 1499.2209 -.1091)" width="300.001" x="-150.001" xlink:href="#c" y="-600"/><use height="750" transform="matrix(1 0 0 -1 1349.2771 74.8628)" width="300.002" x="-150.001" xlink:href="#d" y="-600"/><use height="750" transform="matrix(1 0 0 -1 1198.6416 149.9187)" width="300.001" x="-150.001" xlink:href="#c" y="-600"/><use height="750" transform="matrix(1 0 0 -1 1048.6978 224.8906)" width="300.002" x="-150.001" xlink:href="#d" y="-600"/><use height="750" transform="matrix(1 0 0 -1 898.6413 299.9183)" width="300.001" x="-150.001" xlink:href="#c" y="-600"/><use height="750" transform="matrix(1 0 0 -1 748.1185 374.9184)" width="300.002" x="-150.001" xlink:href="#d" y="-600"/><use height="750" transform="matrix(1 0 0 -1 598.1172 449.918)" width="300.001" x="-150.001" xlink:href="#c" y="-600"/><use height="750" transform="matrix(1 0 0 -1 447.5391 524.9462)" width="300.002" x="-150.001" xlink:href="#d" y="-600"/><use height="750" transform="matrix(1 0 0 -1 296.9036 600.002)" width="300.001" x="-150.001" xlink:href="#c" y="-600"/><use height="750" transform="matrix(1 0 0 -1 146.9036 675.002)" width="300.002" x="-150.001" xlink:href="#d" y="-600"/><use height="750" transform="matrix(1 0 0 -1 -3.7319 750.0579)" width="300.001" x="-150.001" xlink:href="#c" y="-600"/><use height="100" transform="matrix(1 0 0 -1 -53.0953 575.002)" width="200" x="-100" xlink:href="#f" y="-50"/><use height="100" transform="matrix(1 0 0 -1 1148.6427 -25.0814)" width="200" x="-100" xlink:href="#f" y="-50"/><use height="100" transform="matrix(1 0 0 -1 748.6424 174.9183)" width="200" x="-100" xlink:href="#f" y="-50"/><use height="100" transform="matrix(1 0 0 -1 848.6989 124.8905)" width="200" x="-100" xlink:href="#f" y="-50"/><use height="100" transform="matrix(1 0 0 -1 648.6425 124.9182)" width="200" x="-100" xlink:href="#f" y="-50"/><use height="100" transform="matrix(1 0 0 -1 748.6425 74.9183)" width="200" x="-100" xlink:href="#f" y="-50"/><use height="100" transform="matrix(1 0 0 -1 948.6989 74.8905)" width="200" x="-100" xlink:href="#f" y="-50"/><use height="100" transform="matrix(1 0 0 -1 1048.7555 24.8628)" width="200" x="-100" xlink:href="#f" y="-50"/><use height="100" transform="matrix(1 0 0 -1 848.699 24.8905)" width="200" x="-100" xlink:href="#f" y="-50"/><use height="100" transform="matrix(1 0 0 -1 948.6991 -25.1095)" width="200" x="-100" xlink:href="#f" y="-50"/><use height="100" transform="matrix(1 0 0 -1 648.6414 224.918)" width="200" x="-100" xlink:href="#f" y="-50"/><use height="100" transform="matrix(1 0 0 -1 548.585 174.9457)" width="200" x="-100" xlink:href="#f" y="-50"/><use height="100" transform="matrix(1 0 0 -1 548.1196 274.9183)" width="200" x="-100" xlink:href="#f" y="-50"/><use height="100" transform="matrix(1 0 0 -1 448.1196 224.9183)" width="200" x="-100" xlink:href="#f" y="-50"/><use height="100" transform="matrix(1 0 0 -1 448.1186 324.918)" width="200" x="-100" xlink:href="#f" y="-50"/><use height="100" transform="matrix(1 0 0 -1 348.0622 274.9458)" width="200" x="-100" xlink:href="#f" y="-50"/><use height="100" transform="matrix(1 0 0 -1 347.5403 374.9461)" width="200" x="-100" xlink:href="#f" y="-50"/><use height="100" transform="matrix(1 0 0 -1 247.5403 324.946)" width="200" x="-100" xlink:href="#f" y="-50"/><use height="100" transform="matrix(1 0 0 -1 247.5392 424.9458)" width="200" x="-100" xlink:href="#f" y="-50"/><use height="100" transform="matrix(1 0 0 -1 147.4829 374.9735)" width="200" x="-100" xlink:href="#f" y="-50"/><use height="100" transform="matrix(1 0 0 -1 147.5392 474.9458)" width="200" x="-100" xlink:href="#f" y="-50"/><use height="100" transform="matrix(1 0 0 -1 47.5392 424.9457)" width="200" x="-100" xlink:href="#f" y="-50"/><use height="100" transform="matrix(1 0 0 -1 47.5382 524.9455)" width="200" x="-100" xlink:href="#f" y="-50"/><use height="100" transform="matrix(1 0 0 -1 -52.5182 474.9732)" width="200" x="-100" xlink:href="#f" y="-50"/><use height="100" transform="matrix(1 0 0 -1 3649.8469 574.8347)" width="200" x="-100" xlink:href="#f" y="-50"/><use height="100" transform="matrix(1 0 0 -1 3549.8469 524.8347)" width="200" x="-100" xlink:href="#f" y="-50"/><use height="100" transform="matrix(1 0 0 -1 3449.8469 474.8346)" width="200" x="-100" xlink:href="#f" y="-50"/><use height="100" transform="matrix(1 0 0 -1 3349.8469 424.8346)" width="200" x="-100" xlink:href="#f" y="-50"/><use height="100" transform="matrix(1 0 0 -1 3249.8472 374.8346)" width="200" x="-100" xlink:href="#f" y="-50"/><use height="100" transform="matrix(1 0 0 -1 3149.8472 324.8345)" width="200" x="-100" xlink:href="#f" y="-50"/><use height="100" transform="matrix(1 0 0 -1 3049.8472 274.8345)" width="200" x="-100" xlink:href="#f" y="-50"/><use height="100" transform="matrix(1 0 0 -1 2949.8472 224.8345)" width="200" x="-100" xlink:href="#f" y="-50"/><use height="100" transform="matrix(1 0 0 -1 2849.8474 174.8344)" width="200" x="-100" xlink:href="#f" y="-50"/><use height="100" transform="matrix(1 0 0 -1 2749.8474 124.8344)" width="200" x="-100" xlink:href="#f" y="-50"/><use height="100" transform="matrix(1 0 0 -1 2649.8474 74.8344)" width="200" x="-100" xlink:href="#f" y="-50"/><use height="100" transform="matrix(1 0 0 -1 2549.8474 24.8343)" width="200" x="-100" xlink:href="#f" y="-50"/><use height="100" transform="matrix(1 0 0 -1 2449.8477 -25.1657)" width="200" x="-100" xlink:href="#f" y="-50"/><use height="100" transform="matrix(1 0 0 -1 3649.8469 474.8347)" width="200" x="-100" xlink:href="#f" y="-50"/><use height="100" transform="matrix(1 0 0 -1 3549.8469 424.8346)" width="200" x="-100" xlink:href="#f" y="-50"/><use height="100" transform="matrix(1 0 0 -1 3449.8472 374.8346)" width="200" x="-100" xlink:href="#f" y="-50"/><use height="100" transform="matrix(1 0 0 -1 3349.8472 324.8346)" width="200" x="-100" xlink:href="#f" y="-50"/><use height="100" transform="matrix(1 0 0 -1 3249.8472 274.8345)" width="200" x="-100" xlink:href="#f" y="-50"/><use height="100" transform="matrix(1 0 0 -1 3149.8472 224.8345)" width="200" x="-100" xlink:href="#f" y="-50"/><use height="100" transform="matrix(1 0 0 -1 3049.8474 174.8345)" width="200" x="-100" xlink:href="#f" y="-50"/><use height="100" transform="matrix(1 0 0 -1 2949.8474 124.8344)" width="200" x="-100" xlink:href="#f" y="-50"/><use height="100" transform="matrix(1 0 0 -1 2849.8474 74.8344)" width="200" x="-100" xlink:href="#f" y="-50"/><use height="100" transform="matrix(1 0 0 -1 2749.8474 24.8344)" width="200" x="-100" xlink:href="#f" y="-50"/><use height="100" transform="matrix(1 0 0 -1 2649.8477 -25.1657)" width="200" x="-100" xlink:href="#f" y="-50"/></g><g clip-path="url(#m)"><use height="700" transform="matrix(1 0 0 -1 1674.8365 562.3254)" width="200.002" x="-25.002" xlink:href="#b" y="-562.5"/><use height="849.953" transform="matrix(1 0 0 -1 2149.7129 999.6902)" width="499.872" x="-249.936" xlink:href="#j" y="-424.977"/><use height="849.953" transform="matrix(1 0 0 -1 1350.0125 999.6902)" width="499.872" x="-249.936" xlink:href="#j" y="-424.977"/><use height="949.86" transform="matrix(1 0 0 -1 1749.8444 1199.6196)" width="699.633" x="-349.816" xlink:href="#k" y="-474.925"/><use height="849.953" transform="matrix(1 0 0 -1 1350.0111 1399.6901)" width="499.872" x="-249.936" xlink:href="#j" y="-424.977"/></g><g clip-path="url(#m)"><use height="700" transform="matrix(1 0 0 -1 825.1937 987.1478)" width="200.002" x="-25.002" xlink:href="#a" y="-562.5"/></g><g clip-path="url(#m)"><use height="849.953" transform="matrix(1 0 0 -1 2149.752 1399.5775)" width="499.872" x="-249.936" xlink:href="#j" y="-424.977"/></g><use height="700" transform="matrix(1 0 0 -1 2524.5569 987.1478)" width="200.002" x="-25.002" xlink:href="#a" y="-562.5"/><use height="153.537" transform="matrix(-1 0 0 -1 1523.9119 1010.8242)" width="289.456" x="-144.728" xlink:href="#e" y="-76.769"/><use height="153.537" transform="matrix(-1 0 0 -1 1976.6031 786.1882)" width="289.456" x="-144.728" xlink:href="#e" y="-76.769"/><use height="153.537" transform="matrix(1 0 0 -1 1523.1444 787.1881)" width="289.456" x="-144.728" xlink:href="#e" y="-76.769"/><use height="153.537" transform="matrix(1 0 0 -1 1975.8357 1011.8242)" width="289.456" x="-144.728" xlink:href="#e" y="-76.769"/><use height="172.805" transform="matrix(.5042 0 0 -.5042 2149.8494 583.7131)" width="198.271" x="-99.135" xlink:href="#g" y="-81.433"/><use height="200" transform="matrix(.5042 0 0 -.5042 2199.8306 608.7037)" width="200" x="-100" xlink:href="#i" y="-100"/><use height="172.805" transform="matrix(.5042 0 0 -.5042 2249.8118 633.6943)" width="198.271" x="-99.135" xlink:href="#g" y="-81.433"/><use height="200" transform="matrix(.5042 0 0 -.5042 2299.7932 658.685)" width="200" x="-100" xlink:href="#i" y="-100"/><use height="172.805" transform="matrix(.5042 0 0 -.5042 2349.7744 683.6756)" width="198.271" x="-99.135" xlink:href="#g" y="-81.433"/><use height="200" transform="matrix(.5042 0 0 -.5042 2099.8682 608.7037)" width="200" x="-100" xlink:href="#i" y="-100"/><use height="200" transform="matrix(.5042 0 0 -.5042 2299.7932 708.6663)" width="200" x="-100" xlink:href="#i" y="-100"/><use height="172.805" transform="matrix(.5042 0 0 -.5042 2049.8867 633.6943)" width="198.271" x="-99.135" xlink:href="#g" y="-81.433"/><use height="172.805" transform="matrix(.5042 0 0 -.5042 2249.8118 733.6569)" width="198.271" x="-99.135" xlink:href="#g" y="-81.433"/><use height="200" transform="matrix(.5042 0 0 -.5042 1999.9055 658.685)" width="200" x="-100" xlink:href="#i" y="-100"/><use height="200" transform="matrix(.5042 0 0 -.5042 2199.8306 758.6475)" width="200" x="-100" xlink:href="#i" y="-100"/><use height="172.805" transform="matrix(.5042 0 0 -.5042 1350.149 583.7131)" width="198.271" x="-99.135" xlink:href="#g" y="-81.433"/><use height="200" transform="matrix(.5042 0 0 -.5042 1400.1302 608.7037)" width="200" x="-100" xlink:href="#i" y="-100"/><use height="172.805" transform="matrix(.5042 0 0 -.5042 1450.1116 633.6943)" width="198.271" x="-99.135" xlink:href="#g" y="-81.433"/><use height="200" transform="matrix(.5042 0 0 -.5042 1500.0928 658.685)" width="200" x="-100" xlink:href="#i" y="-100"/><use height="200" transform="matrix(.5042 0 0 -.5042 2199.8306 1008.5539)" width="200" x="-100" xlink:href="#i" y="-100"/><use height="172.805" transform="matrix(.5042 0 0 -.5042 2249.8118 1033.5446)" width="198.271" x="-99.135" xlink:href="#g" y="-81.433"/><use height="200" transform="matrix(.5042 0 0 -.5042 2299.7932 1058.5352)" width="200" x="-100" xlink:href="#i" y="-100"/><use height="172.805" transform="matrix(.5042 0 0 -.5042 2349.7744 1083.5258)" width="198.271" x="-99.135" xlink:href="#g" y="-81.433"/><use height="200" transform="matrix(.5042 0 0 -.5042 1300.1677 608.7037)" width="200" x="-100" xlink:href="#i" y="-100"/><use height="200" transform="matrix(.5042 0 0 -.5042 2299.7932 1108.5165)" width="200" x="-100" xlink:href="#i" y="-100"/><use height="172.805" transform="matrix(.5042 0 0 -.5042 1250.1864 633.6943)" width="198.271" x="-99.135" xlink:href="#g" y="-81.433"/><use height="172.805" transform="matrix(.5042 0 0 -.5042 2249.8118 1133.5071)" width="198.271" x="-99.135" xlink:href="#g" y="-81.433"/><use height="200" transform="matrix(.5042 0 0 -.5042 1200.2052 658.685)" width="200" x="-100" xlink:href="#i" y="-100"/><use height="200" transform="matrix(.5042 0 0 -.5042 2199.8306 1158.4977)" width="200" x="-100" xlink:href="#i" y="-100"/><use height="172.805" transform="matrix(.5042 0 0 -.5042 1150.2239 683.6756)" width="198.271" x="-99.135" xlink:href="#g" y="-81.433"/><use height="200" transform="matrix(.5042 0 0 -.5042 1200.2052 708.6663)" width="200" x="-100" xlink:href="#i" y="-100"/><use height="172.805" transform="matrix(.5042 0 0 -.5042 1250.1864 733.6569)" width="198.271" x="-99.135" xlink:href="#g" y="-81.433"/><use height="200" transform="matrix(.5042 0 0 -.5042 1300.1677 758.6475)" width="200" x="-100" xlink:href="#i" y="-100"/><use height="172.805" transform="matrix(.5042 0 0 -.5042 2049.8867 1133.5071)" width="198.271" x="-99.135" xlink:href="#g" y="-81.433"/><use height="200" transform="matrix(.5042 0 0 -.5042 2099.8682 1158.4977)" width="200" x="-100" xlink:href="#i" y="-100"/><use height="172.805" transform="matrix(.5042 0 0 -.5042 2149.8494 1183.4883)" width="198.271" x="-99.135" xlink:href="#g" y="-81.433"/><use height="200" transform="matrix(.5042 0 0 -.5042 1300.1677 1008.5539)" width="200" x="-100" xlink:href="#i" y="-100"/><use height="172.805" transform="matrix(.5042 0 0 -.5042 1250.1864 1033.5446)" width="198.271" x="-99.135" xlink:href="#g" y="-81.433"/><use height="172.805" transform="matrix(.5042 0 0 -.5042 1450.1116 1133.5071)" width="198.271" x="-99.135" xlink:href="#g" y="-81.433"/><use height="200" transform="matrix(.5042 0 0 -.5042 1200.2052 1058.5352)" width="200" x="-100" xlink:href="#i" y="-100"/><use height="200" transform="matrix(.5042 0 0 -.5042 1400.1302 1158.4977)" width="200" x="-100" xlink:href="#i" y="-100"/><use height="172.805" transform="matrix(.5042 0 0 -.5042 1150.2239 1083.5258)" width="198.271" x="-99.135" xlink:href="#g" y="-81.433"/><use height="200" transform="matrix(.5042 0 0 -.5042 1200.2052 1108.5165)" width="200" x="-100" xlink:href="#i" y="-100"/><use height="172.805" transform="matrix(.5042 0 0 -.5042 1250.1864 1133.5071)" width="198.271" x="-99.135" xlink:href="#g" y="-81.433"/><use height="200" transform="matrix(.5042 0 0 -.5042 1300.1677 1158.4977)" width="200" x="-100" xlink:href="#i" y="-100"/><use height="172.805" transform="matrix(.5042 0 0 -.5042 1350.149 1183.4883)" width="198.271" x="-99.135" xlink:href="#g" y="-81.433"/><use height="200" transform="matrix(.5042 0 0 -.5042 1749.9991 733.6569)" width="200" x="-100" xlink:href="#i" y="-100"/><use height="172.805" transform="matrix(.5042 0 0 -.5042 1799.9805 758.6475)" width="198.271" x="-99.135" xlink:href="#g" y="-81.433"/><use height="200" transform="matrix(.5042 0 0 -.5042 2049.8867 883.6007)" width="200" x="-100" xlink:href="#i" y="-100"/><use height="172.805" transform="matrix(.5042 0 0 -.5042 1700.0179 758.6475)" width="198.271" x="-99.135" xlink:href="#g" y="-81.433"/><use height="172.805" transform="matrix(.5042 0 0 -.5042 1799.9805 1008.5539)" width="198.271" x="-99.135" xlink:href="#g" y="-81.433"/><use height="200" transform="matrix(.5042 0 0 -.5042 1450.1116 883.6007)" width="200" x="-100" xlink:href="#i" y="-100"/><use height="200" transform="matrix(.5042 0 0 -.5042 1999.9055 908.5914)" width="200" x="-100" xlink:href="#h" y="-100"/><use height="200" transform="matrix(.5042 0 0 -.5042 1500.0928 908.5914)" width="200" x="-100" xlink:href="#h" y="-100"/><use height="172.805" transform="matrix(.5042 0 0 -.5042 1700.0178 1008.5539)" width="198.271" x="-99.135" xlink:href="#g" y="-81.433"/><use height="200" transform="matrix(.5042 0 0 -.5042 1749.9991 1033.5446)" width="200" x="-100" xlink:href="#i" y="-100"/></svg>