<?xml version="1.0" encoding="utf-8"?>
<!-- Generator: Adobe Illustrator 25.0.0, SVG Export Plug-In . SVG Version: 6.00 Build 0)  -->
<svg version="1.1" xmlns="http://www.w3.org/2000/svg" xmlns:xlink="http://www.w3.org/1999/xlink" x="0px" y="0px" width="3600px"
	 height="1800px" viewBox="0 0 3600 1800" style="enable-background:new 0 0 3600 1800;" xml:space="preserve">
<style type="text/css">
	.st0{fill:#EEF4FA;}
	.st1{fill:none;}
	.st2{fill:#FFFFFF;}
	.st3{clip-path:url(#SVGID_2_);}
	.st4{clip-path:url(#SVGID_4_);}
	.st5{fill:#FEE0FF;}
	.st6{fill:#FADAFF;}
	.st7{fill:#F6D4FF;}
	.st8{fill:#F3CDFF;}
	.st9{fill:#EFC7FF;}
	.st10{fill:#EBC1FF;}
	.st11{fill:#E7BBFF;}
	.st12{fill:#E3B5FF;}
	.st13{fill:#DFAFFF;}
	.st14{fill:#DCA8FF;}
	.st15{fill:#D8A2FF;}
	.st16{fill:#D49CFF;}
	.st17{fill:#CA99FF;}
	.st18{fill:#C195FF;}
	.st19{fill:#B792FF;}
	.st20{fill:#AD8EFF;}
	.st21{fill:#A38BFF;}
	.st22{fill:#9A87FF;}
	.st23{fill:#9084FF;}
	.st24{fill:#8680FF;}
	.st25{fill:#7C7DFF;}
	.st26{fill:#7379FF;}
	.st27{fill:#6976FF;}
	.st28{fill:#B3813B;}
</style>
<symbol  id="cloud_x5F_parts" viewBox="-99.384 -85.746 198.271 120.214">
	<path class="st0" d="M68.427-5.115C67.468,4.012,58.129,8.655,51.072,6.6c-2.657,7.102-11.268,11.583-18.323,9.529
		c-2.658,7.109-11.281,11.589-18.338,9.524c-7.939,12.229-23.229,11.269-29.183,0c-7.053,2.07-15.682-2.419-18.331-9.516
		c-7.053,2.041-15.675-2.429-18.33-9.536c-7.05,2.057-16.567-4.607-19.208-11.715c-22.826,1.454-19.566-30.004,0.919-25.649
		c2.647-7.11,11.238-15.901,18.296-13.844c2.643-7.111,11.274-11.576,18.323-9.537c2.703-7.106,11.152-11.578,18.336-9.515
		c4.864-13.108,24.316-13.107,29.173,0.001c7.186-2.066,15.632,2.406,18.343,9.514c7.059-2.055,15.667,2.431,18.323,9.537
		c7.056-2.065,12.258,6.743,14.905,13.844C94.164-34.227,86.074-1.703,68.427-5.115z"/>
	<g id="新規シンボル_6_10_">
	</g>
	<g id="tile_x5F_rd_2_">
	</g>
	<g>
		<polygon class="st1" points="98.887,-31.866 -0.249,-81.433 -99.384,-31.865 -0.249,17.702 		"/>
	</g>
	<g>
		<path class="st0" d="M71.516-19.905C68.773-12.599,60.241-1.294,52.927-3.407C50.174,3.894,41.249,8.502,33.938,6.389
			c-2.755,7.308-11.691,11.915-19.005,9.791c-5.059,13.475-25.182,13.469-30.244,0c-7.309,2.128-16.252-2.487-18.997-9.783
			C-41.616,8.495-50.552,3.9-53.304-3.407c-7.306,2.114-10.19-6.974-12.926-14.281c-26.638,5.069-29.962-30.128-6.059-28.558
			c2.743-7.31,11.678-11.921,18.993-9.806c2.739-7.311,11.684-11.901,18.989-9.805c2.801-7.305,11.557-11.903,19.002-9.782
			c5.041-13.476,25.2-13.475,30.234,0.001c7.447-2.124,16.201,2.473,19.009,9.781c7.316-2.113,16.237,2.499,18.989,9.805
			c7.312-2.123,20.773-0.633,20.288,12.848C90.112-48.416,96.029-16.022,71.516-19.905z"/>
		<path class="st2" d="M76.025-11.132c-0.603,7.88-8.983,13.778-16.712,11.725c-2.263,5.77-9.626,9.414-15.658,7.745
			c-2.271,5.766-9.631,9.405-15.661,7.736c-2.272,5.772-9.642,9.409-15.674,7.732c-4.172,10.641-20.768,10.636-24.943,0
			c-6.028,1.681-13.403-1.964-15.668-7.726c-6.028,1.657-13.398-1.972-15.667-7.743c-6.026,1.67-13.399-1.975-15.656-7.745
			c-21.969,4.003-21.945-30.099-0.002-26.086c2.262-5.772,9.632-9.414,15.664-7.744c2.259-5.773,9.636-9.398,15.661-7.743
			c2.31-5.769,9.532-9.4,15.672-7.725c4.157-10.642,20.783-10.641,24.935,0.001c6.142-1.677,13.361,1.953,15.678,7.724
			c6.034-1.669,13.391,1.974,15.661,7.743c6.03-1.677,13.396,1.979,15.658,7.744C68.046-27.858,77.17-19.999,76.025-11.132z"/>
	</g>
	<g>
		<path class="st0" d="M-16.932-1.665c-11.304,3.981-21.917-10.503-13.799-17.641C-32.13-12.18-21.358-5.958-12.95-8.907
			C-15.29,1.215-1.344,7.76,9.104,1.221C0.234,16.345-19.272,8.453-16.932-1.665z"/>
	</g>
	<path class="st0" d="M13.484-24.152c1.038,9.966,15.984,12.771,21.293,7.319C33.224-2.324,1.838-6.888,13.484-24.152z"/>
</symbol>
<g id="field">
	<g>
		<defs>
			<rect id="SVGID_1_" width="3600" height="1800"/>
		</defs>
		<clipPath id="SVGID_2_">
			<use xlink:href="#SVGID_1_"  style="overflow:visible;"/>
		</clipPath>
		<g class="st3">
			<defs>
				<polygon id="SVGID_3_" points="4500.837,906.892 1800.837,2256.892 -899.163,906.892 1800.837,-443.108 				"/>
			</defs>
			<clipPath id="SVGID_4_">
				<use xlink:href="#SVGID_3_"  style="overflow:visible;"/>
			</clipPath>
			<g class="st4">
				<g>
					<rect x="0" y="1542.988" class="st5" width="3600" height="257.012"/>
					<g>
						<rect x="0" y="1391.788" class="st6" width="3600" height="151.2"/>
						<rect x="0" y="1299.522" class="st7" width="3600" height="92.266"/>
						<rect x="0" y="1231.135" class="st8" width="3600" height="68.386"/>
					</g>
				</g>
				<rect x="0" y="1170.609" class="st9" width="3600.001" height="60.526"/>
				<rect y="1128.666" class="st10" width="3600" height="41.944"/>
				<rect y="1086.722" class="st11" width="3600" height="41.944"/>
				<rect y="1044.778" class="st12" width="3600" height="41.944"/>
				<rect y="1002.835" class="st13" width="3600" height="41.944"/>
				<rect y="960.891" class="st14" width="3600" height="41.944"/>
				<rect y="918.948" class="st15" width="3600" height="41.944"/>
				<rect y="877.004" class="st16" width="3600" height="41.944"/>
				<rect y="835.061" class="st17" width="3600" height="41.944"/>
				<rect y="793.117" class="st18" width="3600" height="41.944"/>
				<rect y="751.174" class="st19" width="3600" height="41.944"/>
				<rect y="709.23" class="st20" width="3600" height="41.944"/>
				<rect y="667.286" class="st21" width="3600" height="41.944"/>
				<rect y="625.343" class="st22" width="3600" height="41.944"/>
				<g>
					<rect x="0" y="564.817" class="st23" width="3600.001" height="60.526"/>
					<g>
						<g>
							<rect x="0" y="496.43" class="st24" width="3600" height="68.386"/>
							<rect x="0" y="404.164" class="st25" width="3600" height="92.266"/>
							<rect x="0" y="268.513" class="st26" width="3600" height="135.651"/>
						</g>
						<rect x="0" class="st27" width="3600" height="268.513"/>
					</g>
				</g>
			</g>
		</g>
	</g>
	<path class="st28" d="M2043.828,2128.214"/>
	<g id="新規シンボル_1_2_">
		<g id="新規シンボル_1_">
		</g>
		<g id="新規シンボル">
		</g>
	</g>
	<g id="新規シンボル_19_1_">
		<g id="新規シンボル_12_">
		</g>
		<g id="新規シンボル_9_3_">
			<g id="新規シンボル_8_5_">
			</g>
			<g id="新規シンボル_10_4_">
				<g id="新規シンボル_9_">
				</g>
			</g>
		</g>
	</g>
	<g id="新規シンボル_19">
		<g id="新規シンボル_8_">
		</g>
		<g id="新規シンボル_9">
			<g id="新規シンボル_8">
			</g>
			<g id="新規シンボル_10">
				<g id="新規シンボル_2_">
				</g>
			</g>
		</g>
	</g>
	<g id="新規シンボル_13_">
	</g>
</g>
<g id="雲_1_">
	<g id="tile_x5F_gr">
		<g id="egg">
		</g>
	</g>
	
		<use xlink:href="#cloud_x5F_parts"  width="198.271" height="120.214" x="-99.384" y="-85.746" transform="matrix(0.5042 0 0 -0.5042 1799.9805 608.7037)" style="overflow:visible;"/>
	
		<use xlink:href="#cloud_x5F_parts"  width="198.271" height="120.214" x="-99.384" y="-85.746" transform="matrix(0.5042 0 0 -0.5042 1849.9617 633.6943)" style="overflow:visible;"/>
	
		<use xlink:href="#cloud_x5F_parts"  width="198.271" height="120.214" x="-99.384" y="-85.746" transform="matrix(0.5042 0 0 -0.5042 1899.943 658.685)" style="overflow:visible;"/>
	
		<use xlink:href="#cloud_x5F_parts"  width="198.271" height="120.214" x="-99.384" y="-85.746" transform="matrix(0.5042 0 0 -0.5042 1949.9243 683.6756)" style="overflow:visible;"/>
	
		<use xlink:href="#cloud_x5F_parts"  width="198.271" height="120.214" x="-99.384" y="-85.746" transform="matrix(0.5042 0 0 -0.5042 2099.8682 758.6475)" style="overflow:visible;"/>
	
		<use xlink:href="#cloud_x5F_parts"  width="198.271" height="120.214" x="-99.384" y="-85.746" transform="matrix(0.5042 0 0 -0.5042 2149.8494 783.6382)" style="overflow:visible;"/>
	
		<use xlink:href="#cloud_x5F_parts"  width="198.271" height="120.214" x="-99.384" y="-85.746" transform="matrix(0.5042 0 0 -0.5042 2199.8306 808.6288)" style="overflow:visible;"/>
	
		<use xlink:href="#cloud_x5F_parts"  width="198.271" height="120.214" x="-99.384" y="-85.746" transform="matrix(0.5042 0 0 -0.5042 1700.0179 608.7037)" style="overflow:visible;"/>
	
		<use xlink:href="#cloud_x5F_parts"  width="198.271" height="120.214" x="-99.384" y="-85.746" transform="matrix(0.5042 0 0 -0.5042 1749.9991 633.6943)" style="overflow:visible;"/>
	
		<use xlink:href="#cloud_x5F_parts"  width="198.271" height="120.214" x="-99.384" y="-85.746" transform="matrix(0.5042 0 0 -0.5042 1799.9805 658.685)" style="overflow:visible;"/>
	
		<use xlink:href="#cloud_x5F_parts"  width="198.271" height="120.214" x="-99.384" y="-85.746" transform="matrix(0.5042 0 0 -0.5042 1849.9617 683.6756)" style="overflow:visible;"/>
	
		<use xlink:href="#cloud_x5F_parts"  width="198.271" height="120.214" x="-99.384" y="-85.746" transform="matrix(0.5042 0 0 -0.5042 1899.943 708.6663)" style="overflow:visible;"/>
	
		<use xlink:href="#cloud_x5F_parts"  width="198.271" height="120.214" x="-99.384" y="-85.746" transform="matrix(0.5042 0 0 -0.5042 1949.9243 733.6569)" style="overflow:visible;"/>
	
		<use xlink:href="#cloud_x5F_parts"  width="198.271" height="120.214" x="-99.384" y="-85.746" transform="matrix(0.5042 0 0 -0.5042 1999.9055 758.6475)" style="overflow:visible;"/>
	
		<use xlink:href="#cloud_x5F_parts"  width="198.271" height="120.214" x="-99.384" y="-85.746" transform="matrix(0.5042 0 0 -0.5042 2049.8867 783.6382)" style="overflow:visible;"/>
	
		<use xlink:href="#cloud_x5F_parts"  width="198.271" height="120.214" x="-99.384" y="-85.746" transform="matrix(0.5042 0 0 -0.5042 2099.8682 808.6288)" style="overflow:visible;"/>
	
		<use xlink:href="#cloud_x5F_parts"  width="198.271" height="120.214" x="-99.384" y="-85.746" transform="matrix(0.5042 0 0 -0.5042 2149.8494 833.6194)" style="overflow:visible;"/>
	
		<use xlink:href="#cloud_x5F_parts"  width="198.271" height="120.214" x="-99.384" y="-85.746" transform="matrix(0.5042 0 0 -0.5042 2199.8306 858.61)" style="overflow:visible;"/>
	
		<use xlink:href="#cloud_x5F_parts"  width="198.271" height="120.214" x="-99.384" y="-85.746" transform="matrix(0.5042 0 0 -0.5042 2249.8118 883.6007)" style="overflow:visible;"/>
	
		<use xlink:href="#cloud_x5F_parts"  width="198.271" height="120.214" x="-99.384" y="-85.746" transform="matrix(0.5042 0 0 -0.5042 1600.0553 607.567)" style="overflow:visible;"/>
	
		<use xlink:href="#cloud_x5F_parts"  width="198.271" height="120.214" x="-99.384" y="-85.746" transform="matrix(0.5042 0 0 -0.5042 1650.0366 633.6943)" style="overflow:visible;"/>
	
		<use xlink:href="#cloud_x5F_parts"  width="198.271" height="120.214" x="-99.384" y="-85.746" transform="matrix(0.5042 0 0 -0.5042 1700.0179 658.685)" style="overflow:visible;"/>
	
		<use xlink:href="#cloud_x5F_parts"  width="198.271" height="120.214" x="-99.384" y="-85.746" transform="matrix(0.5042 0 0 -0.5042 1749.9991 683.6756)" style="overflow:visible;"/>
	
		<use xlink:href="#cloud_x5F_parts"  width="198.271" height="120.214" x="-99.384" y="-85.746" transform="matrix(0.5042 0 0 -0.5042 1799.9805 708.6663)" style="overflow:visible;"/>
	
		<use xlink:href="#cloud_x5F_parts"  width="198.271" height="120.214" x="-99.384" y="-85.746" transform="matrix(0.5042 0 0 -0.5042 1849.9617 733.6569)" style="overflow:visible;"/>
	
		<use xlink:href="#cloud_x5F_parts"  width="198.271" height="120.214" x="-99.384" y="-85.746" transform="matrix(0.5042 0 0 -0.5042 1899.943 758.6475)" style="overflow:visible;"/>
	
		<use xlink:href="#cloud_x5F_parts"  width="198.271" height="120.214" x="-99.384" y="-85.746" transform="matrix(0.5042 0 0 -0.5042 1949.9243 783.6382)" style="overflow:visible;"/>
	
		<use xlink:href="#cloud_x5F_parts"  width="198.271" height="120.214" x="-99.384" y="-85.746" transform="matrix(0.5042 0 0 -0.5042 1999.9055 808.6288)" style="overflow:visible;"/>
	
		<use xlink:href="#cloud_x5F_parts"  width="198.271" height="120.214" x="-99.384" y="-85.746" transform="matrix(0.5042 0 0 -0.5042 2049.8867 833.6194)" style="overflow:visible;"/>
	
		<use xlink:href="#cloud_x5F_parts"  width="198.271" height="120.214" x="-99.384" y="-85.746" transform="matrix(0.5042 0 0 -0.5042 2099.8682 858.61)" style="overflow:visible;"/>
	
		<use xlink:href="#cloud_x5F_parts"  width="198.271" height="120.214" x="-99.384" y="-85.746" transform="matrix(0.5042 0 0 -0.5042 2149.8494 883.6007)" style="overflow:visible;"/>
	
		<use xlink:href="#cloud_x5F_parts"  width="198.271" height="120.214" x="-99.384" y="-85.746" transform="matrix(0.5042 0 0 -0.5042 2199.8306 908.5914)" style="overflow:visible;"/>
	
		<use xlink:href="#cloud_x5F_parts"  width="198.271" height="120.214" x="-99.384" y="-85.746" transform="matrix(0.5042 0 0 -0.5042 2249.8118 933.582)" style="overflow:visible;"/>
	
		<use xlink:href="#cloud_x5F_parts"  width="198.271" height="120.214" x="-99.384" y="-85.746" transform="matrix(0.5042 0 0 -0.5042 1550.0741 632.5577)" style="overflow:visible;"/>
	
		<use xlink:href="#cloud_x5F_parts"  width="198.271" height="120.214" x="-99.384" y="-85.746" transform="matrix(0.5042 0 0 -0.5042 1600.0553 658.685)" style="overflow:visible;"/>
	
		<use xlink:href="#cloud_x5F_parts"  width="198.271" height="120.214" x="-99.384" y="-85.746" transform="matrix(0.5042 0 0 -0.5042 1650.0366 683.6756)" style="overflow:visible;"/>
	
		<use xlink:href="#cloud_x5F_parts"  width="198.271" height="120.214" x="-99.384" y="-85.746" transform="matrix(0.5042 0 0 -0.5042 1700.0179 708.6663)" style="overflow:visible;"/>
	
		<use xlink:href="#cloud_x5F_parts"  width="198.271" height="120.214" x="-99.384" y="-85.746" transform="matrix(0.5042 0 0 -0.5042 1749.9991 733.6569)" style="overflow:visible;"/>
	
		<use xlink:href="#cloud_x5F_parts"  width="198.271" height="120.214" x="-99.384" y="-85.746" transform="matrix(0.5042 0 0 -0.5042 1799.9805 758.6475)" style="overflow:visible;"/>
	
		<use xlink:href="#cloud_x5F_parts"  width="198.271" height="120.214" x="-99.384" y="-85.746" transform="matrix(0.5042 0 0 -0.5042 1849.9617 783.6382)" style="overflow:visible;"/>
	
		<use xlink:href="#cloud_x5F_parts"  width="198.271" height="120.214" x="-99.384" y="-85.746" transform="matrix(0.5042 0 0 -0.5042 1899.943 808.6288)" style="overflow:visible;"/>
	
		<use xlink:href="#cloud_x5F_parts"  width="198.271" height="120.214" x="-99.384" y="-85.746" transform="matrix(0.5042 0 0 -0.5042 1949.9243 833.6194)" style="overflow:visible;"/>
	
		<use xlink:href="#cloud_x5F_parts"  width="198.271" height="120.214" x="-99.384" y="-85.746" transform="matrix(0.5042 0 0 -0.5042 1999.9055 858.61)" style="overflow:visible;"/>
	
		<use xlink:href="#cloud_x5F_parts"  width="198.271" height="120.214" x="-99.384" y="-85.746" transform="matrix(0.5042 0 0 -0.5042 2049.8867 883.6007)" style="overflow:visible;"/>
	
		<use xlink:href="#cloud_x5F_parts"  width="198.271" height="120.214" x="-99.384" y="-85.746" transform="matrix(0.5042 0 0 -0.5042 2099.8682 908.5914)" style="overflow:visible;"/>
	
		<use xlink:href="#cloud_x5F_parts"  width="198.271" height="120.214" x="-99.384" y="-85.746" transform="matrix(0.5042 0 0 -0.5042 2149.8494 933.582)" style="overflow:visible;"/>
	
		<use xlink:href="#cloud_x5F_parts"  width="198.271" height="120.214" x="-99.384" y="-85.746" transform="matrix(0.5042 0 0 -0.5042 2199.8306 958.5726)" style="overflow:visible;"/>
	
		<use xlink:href="#cloud_x5F_parts"  width="198.271" height="120.214" x="-99.384" y="-85.746" transform="matrix(0.5042 0 0 -0.5042 1500.0928 657.5483)" style="overflow:visible;"/>
	
		<use xlink:href="#cloud_x5F_parts"  width="198.271" height="120.214" x="-99.384" y="-85.746" transform="matrix(0.5042 0 0 -0.5042 1550.0741 683.6756)" style="overflow:visible;"/>
	
		<use xlink:href="#cloud_x5F_parts"  width="198.271" height="120.214" x="-99.384" y="-85.746" transform="matrix(0.5042 0 0 -0.5042 1600.0553 708.6663)" style="overflow:visible;"/>
	
		<use xlink:href="#cloud_x5F_parts"  width="198.271" height="120.214" x="-99.384" y="-85.746" transform="matrix(0.5042 0 0 -0.5042 1650.0366 733.6569)" style="overflow:visible;"/>
	
		<use xlink:href="#cloud_x5F_parts"  width="198.271" height="120.214" x="-99.384" y="-85.746" transform="matrix(0.5042 0 0 -0.5042 1700.0179 758.6475)" style="overflow:visible;"/>
	
		<use xlink:href="#cloud_x5F_parts"  width="198.271" height="120.214" x="-99.384" y="-85.746" transform="matrix(0.5042 0 0 -0.5042 1749.9991 783.6382)" style="overflow:visible;"/>
	
		<use xlink:href="#cloud_x5F_parts"  width="198.271" height="120.214" x="-99.384" y="-85.746" transform="matrix(0.5042 0 0 -0.5042 1799.9805 808.6288)" style="overflow:visible;"/>
	
		<use xlink:href="#cloud_x5F_parts"  width="198.271" height="120.214" x="-99.384" y="-85.746" transform="matrix(0.5042 0 0 -0.5042 1849.9617 833.6194)" style="overflow:visible;"/>
	
		<use xlink:href="#cloud_x5F_parts"  width="198.271" height="120.214" x="-99.384" y="-85.746" transform="matrix(0.5042 0 0 -0.5042 1899.943 858.61)" style="overflow:visible;"/>
	
		<use xlink:href="#cloud_x5F_parts"  width="198.271" height="120.214" x="-99.384" y="-85.746" transform="matrix(0.5042 0 0 -0.5042 1949.9243 883.6007)" style="overflow:visible;"/>
	
		<use xlink:href="#cloud_x5F_parts"  width="198.271" height="120.214" x="-99.384" y="-85.746" transform="matrix(0.5042 0 0 -0.5042 1999.9055 908.5914)" style="overflow:visible;"/>
	
		<use xlink:href="#cloud_x5F_parts"  width="198.271" height="120.214" x="-99.384" y="-85.746" transform="matrix(0.5042 0 0 -0.5042 2049.8867 933.582)" style="overflow:visible;"/>
	
		<use xlink:href="#cloud_x5F_parts"  width="198.271" height="120.214" x="-99.384" y="-85.746" transform="matrix(0.5042 0 0 -0.5042 2099.8682 958.5726)" style="overflow:visible;"/>
	
		<use xlink:href="#cloud_x5F_parts"  width="198.271" height="120.214" x="-99.384" y="-85.746" transform="matrix(0.5042 0 0 -0.5042 2149.8494 983.5632)" style="overflow:visible;"/>
	
		<use xlink:href="#cloud_x5F_parts"  width="198.271" height="120.214" x="-99.384" y="-85.746" transform="matrix(0.5042 0 0 -0.5042 2199.8306 1008.5539)" style="overflow:visible;"/>
	
		<use xlink:href="#cloud_x5F_parts"  width="198.271" height="120.214" x="-99.384" y="-85.746" transform="matrix(0.5042 0 0 -0.5042 1450.1116 682.5389)" style="overflow:visible;"/>
	
		<use xlink:href="#cloud_x5F_parts"  width="198.271" height="120.214" x="-99.384" y="-85.746" transform="matrix(0.5042 0 0 -0.5042 1500.0928 708.6663)" style="overflow:visible;"/>
	
		<use xlink:href="#cloud_x5F_parts"  width="198.271" height="120.214" x="-99.384" y="-85.746" transform="matrix(0.5042 0 0 -0.5042 1550.0741 733.6569)" style="overflow:visible;"/>
	
		<use xlink:href="#cloud_x5F_parts"  width="198.271" height="120.214" x="-99.384" y="-85.746" transform="matrix(0.5042 0 0 -0.5042 1600.0553 758.6475)" style="overflow:visible;"/>
	
		<use xlink:href="#cloud_x5F_parts"  width="198.271" height="120.214" x="-99.384" y="-85.746" transform="matrix(0.5042 0 0 -0.5042 1650.0366 783.6382)" style="overflow:visible;"/>
	
		<use xlink:href="#cloud_x5F_parts"  width="198.271" height="120.214" x="-99.384" y="-85.746" transform="matrix(0.5042 0 0 -0.5042 1700.0179 808.6288)" style="overflow:visible;"/>
	
		<use xlink:href="#cloud_x5F_parts"  width="198.271" height="120.214" x="-99.384" y="-85.746" transform="matrix(0.5042 0 0 -0.5042 1749.9991 833.6194)" style="overflow:visible;"/>
	
		<use xlink:href="#cloud_x5F_parts"  width="198.271" height="120.214" x="-99.384" y="-85.746" transform="matrix(0.5042 0 0 -0.5042 1799.9805 858.61)" style="overflow:visible;"/>
	
		<use xlink:href="#cloud_x5F_parts"  width="198.271" height="120.214" x="-99.384" y="-85.746" transform="matrix(0.5042 0 0 -0.5042 1849.9617 883.6007)" style="overflow:visible;"/>
	
		<use xlink:href="#cloud_x5F_parts"  width="198.271" height="120.214" x="-99.384" y="-85.746" transform="matrix(0.5042 0 0 -0.5042 1949.9243 933.582)" style="overflow:visible;"/>
	
		<use xlink:href="#cloud_x5F_parts"  width="198.271" height="120.214" x="-99.384" y="-85.746" transform="matrix(0.5042 0 0 -0.5042 1999.9055 958.5726)" style="overflow:visible;"/>
	
		<use xlink:href="#cloud_x5F_parts"  width="198.271" height="120.214" x="-99.384" y="-85.746" transform="matrix(0.5042 0 0 -0.5042 2049.8867 983.5632)" style="overflow:visible;"/>
	
		<use xlink:href="#cloud_x5F_parts"  width="198.271" height="120.214" x="-99.384" y="-85.746" transform="matrix(0.5042 0 0 -0.5042 2099.8682 1008.5539)" style="overflow:visible;"/>
	
		<use xlink:href="#cloud_x5F_parts"  width="198.271" height="120.214" x="-99.384" y="-85.746" transform="matrix(0.5042 0 0 -0.5042 2149.8494 1033.5446)" style="overflow:visible;"/>
	
		<use xlink:href="#cloud_x5F_parts"  width="198.271" height="120.214" x="-99.384" y="-85.746" transform="matrix(0.5042 0 0 -0.5042 1400.1302 707.5295)" style="overflow:visible;"/>
	
		<use xlink:href="#cloud_x5F_parts"  width="198.271" height="120.214" x="-99.384" y="-85.746" transform="matrix(0.5042 0 0 -0.5042 1450.1116 733.6569)" style="overflow:visible;"/>
	
		<use xlink:href="#cloud_x5F_parts"  width="198.271" height="120.214" x="-99.384" y="-85.746" transform="matrix(0.5042 0 0 -0.5042 1500.0928 758.6475)" style="overflow:visible;"/>
	
		<use xlink:href="#cloud_x5F_parts"  width="198.271" height="120.214" x="-99.384" y="-85.746" transform="matrix(0.5042 0 0 -0.5042 1550.0741 783.6382)" style="overflow:visible;"/>
	
		<use xlink:href="#cloud_x5F_parts"  width="198.271" height="120.214" x="-99.384" y="-85.746" transform="matrix(0.5042 0 0 -0.5042 1650.0366 833.6194)" style="overflow:visible;"/>
	
		<use xlink:href="#cloud_x5F_parts"  width="198.271" height="120.214" x="-99.384" y="-85.746" transform="matrix(0.5042 0 0 -0.5042 1700.0179 858.61)" style="overflow:visible;"/>
	
		<use xlink:href="#cloud_x5F_parts"  width="198.271" height="120.214" x="-99.384" y="-85.746" transform="matrix(0.5042 0 0 -0.5042 1749.9991 883.6007)" style="overflow:visible;"/>
	
		<use xlink:href="#cloud_x5F_parts"  width="198.271" height="120.214" x="-99.384" y="-85.746" transform="matrix(0.5042 0 0 -0.5042 1799.9805 908.5914)" style="overflow:visible;"/>
	
		<use xlink:href="#cloud_x5F_parts"  width="198.271" height="120.214" x="-99.384" y="-85.746" transform="matrix(0.5042 0 0 -0.5042 1899.943 958.5726)" style="overflow:visible;"/>
	
		<use xlink:href="#cloud_x5F_parts"  width="198.271" height="120.214" x="-99.384" y="-85.746" transform="matrix(0.5042 0 0 -0.5042 1949.9243 983.5632)" style="overflow:visible;"/>
	
		<use xlink:href="#cloud_x5F_parts"  width="198.271" height="120.214" x="-99.384" y="-85.746" transform="matrix(0.5042 0 0 -0.5042 1999.9055 1008.5539)" style="overflow:visible;"/>
	
		<use xlink:href="#cloud_x5F_parts"  width="198.271" height="120.214" x="-99.384" y="-85.746" transform="matrix(0.5042 0 0 -0.5042 2049.8867 1033.5446)" style="overflow:visible;"/>
	
		<use xlink:href="#cloud_x5F_parts"  width="198.271" height="120.214" x="-99.384" y="-85.746" transform="matrix(0.5042 0 0 -0.5042 2099.8682 1058.5352)" style="overflow:visible;"/>
	
		<use xlink:href="#cloud_x5F_parts"  width="198.271" height="120.214" x="-99.384" y="-85.746" transform="matrix(0.5042 0 0 -0.5042 1400.1302 758.6475)" style="overflow:visible;"/>
	
		<use xlink:href="#cloud_x5F_parts"  width="198.271" height="120.214" x="-99.384" y="-85.746" transform="matrix(0.5042 0 0 -0.5042 1450.1116 783.6382)" style="overflow:visible;"/>
	
		<use xlink:href="#cloud_x5F_parts"  width="198.271" height="120.214" x="-99.384" y="-85.746" transform="matrix(0.5042 0 0 -0.5042 1500.0928 808.6288)" style="overflow:visible;"/>
	
		<use xlink:href="#cloud_x5F_parts"  width="198.271" height="120.214" x="-99.384" y="-85.746" transform="matrix(0.5042 0 0 -0.5042 1550.0741 833.6194)" style="overflow:visible;"/>
	
		<use xlink:href="#cloud_x5F_parts"  width="198.271" height="120.214" x="-99.384" y="-85.746" transform="matrix(0.5042 0 0 -0.5042 1650.0366 883.6007)" style="overflow:visible;"/>
	
		<use xlink:href="#cloud_x5F_parts"  width="198.271" height="120.214" x="-99.384" y="-85.746" transform="matrix(0.5042 0 0 -0.5042 1700.0179 908.5914)" style="overflow:visible;"/>
	
		<use xlink:href="#cloud_x5F_parts"  width="198.271" height="120.214" x="-99.384" y="-85.746" transform="matrix(0.5042 0 0 -0.5042 1749.9991 933.582)" style="overflow:visible;"/>
	
		<use xlink:href="#cloud_x5F_parts"  width="198.271" height="120.214" x="-99.384" y="-85.746" transform="matrix(0.5042 0 0 -0.5042 1799.9805 958.5726)" style="overflow:visible;"/>
	
		<use xlink:href="#cloud_x5F_parts"  width="198.271" height="120.214" x="-99.384" y="-85.746" transform="matrix(0.5042 0 0 -0.5042 1849.9617 983.5632)" style="overflow:visible;"/>
	
		<use xlink:href="#cloud_x5F_parts"  width="198.271" height="120.214" x="-99.384" y="-85.746" transform="matrix(0.5042 0 0 -0.5042 1899.943 1008.5539)" style="overflow:visible;"/>
	
		<use xlink:href="#cloud_x5F_parts"  width="198.271" height="120.214" x="-99.384" y="-85.746" transform="matrix(0.5042 0 0 -0.5042 1949.9243 1033.5446)" style="overflow:visible;"/>
	
		<use xlink:href="#cloud_x5F_parts"  width="198.271" height="120.214" x="-99.384" y="-85.746" transform="matrix(0.5042 0 0 -0.5042 1999.9055 1058.5352)" style="overflow:visible;"/>
	
		<use xlink:href="#cloud_x5F_parts"  width="198.271" height="120.214" x="-99.384" y="-85.746" transform="matrix(0.5042 0 0 -0.5042 2049.8867 1083.5258)" style="overflow:visible;"/>
	
		<use xlink:href="#cloud_x5F_parts"  width="198.271" height="120.214" x="-99.384" y="-85.746" transform="matrix(0.5042 0 0 -0.5042 1350.149 783.6382)" style="overflow:visible;"/>
	
		<use xlink:href="#cloud_x5F_parts"  width="198.271" height="120.214" x="-99.384" y="-85.746" transform="matrix(0.5042 0 0 -0.5042 1400.1302 808.6288)" style="overflow:visible;"/>
	
		<use xlink:href="#cloud_x5F_parts"  width="198.271" height="120.214" x="-99.384" y="-85.746" transform="matrix(0.5042 0 0 -0.5042 1450.1116 833.6194)" style="overflow:visible;"/>
	
		<use xlink:href="#cloud_x5F_parts"  width="198.271" height="120.214" x="-99.384" y="-85.746" transform="matrix(0.5042 0 0 -0.5042 1500.0928 858.61)" style="overflow:visible;"/>
	
		<use xlink:href="#cloud_x5F_parts"  width="198.271" height="120.214" x="-99.384" y="-85.746" transform="matrix(0.5042 0 0 -0.5042 1550.0741 883.6007)" style="overflow:visible;"/>
	
		<use xlink:href="#cloud_x5F_parts"  width="198.271" height="120.214" x="-99.384" y="-85.746" transform="matrix(0.5042 0 0 -0.5042 1600.0553 908.5914)" style="overflow:visible;"/>
	
		<use xlink:href="#cloud_x5F_parts"  width="198.271" height="120.214" x="-99.384" y="-85.746" transform="matrix(0.5042 0 0 -0.5042 1650.0366 933.582)" style="overflow:visible;"/>
	
		<use xlink:href="#cloud_x5F_parts"  width="198.271" height="120.214" x="-99.384" y="-85.746" transform="matrix(0.5042 0 0 -0.5042 1700.0179 958.5726)" style="overflow:visible;"/>
	
		<use xlink:href="#cloud_x5F_parts"  width="198.271" height="120.214" x="-99.384" y="-85.746" transform="matrix(0.5042 0 0 -0.5042 1749.9991 983.5632)" style="overflow:visible;"/>
	
		<use xlink:href="#cloud_x5F_parts"  width="198.271" height="120.214" x="-99.384" y="-85.746" transform="matrix(0.5042 0 0 -0.5042 1799.9805 1008.5539)" style="overflow:visible;"/>
	
		<use xlink:href="#cloud_x5F_parts"  width="198.271" height="120.214" x="-99.384" y="-85.746" transform="matrix(0.5042 0 0 -0.5042 1849.9617 1033.5446)" style="overflow:visible;"/>
	
		<use xlink:href="#cloud_x5F_parts"  width="198.271" height="120.214" x="-99.384" y="-85.746" transform="matrix(0.5042 0 0 -0.5042 1899.943 1058.5352)" style="overflow:visible;"/>
	
		<use xlink:href="#cloud_x5F_parts"  width="198.271" height="120.214" x="-99.384" y="-85.746" transform="matrix(0.5042 0 0 -0.5042 1949.9243 1083.5258)" style="overflow:visible;"/>
	
		<use xlink:href="#cloud_x5F_parts"  width="198.271" height="120.214" x="-99.384" y="-85.746" transform="matrix(0.5042 0 0 -0.5042 1999.9055 1108.5165)" style="overflow:visible;"/>
	
		<use xlink:href="#cloud_x5F_parts"  width="198.271" height="120.214" x="-99.384" y="-85.746" transform="matrix(0.5042 0 0 -0.5042 1949.9243 1133.5071)" style="overflow:visible;"/>
	
		<use xlink:href="#cloud_x5F_parts"  width="198.271" height="120.214" x="-99.384" y="-85.746" transform="matrix(0.5042 0 0 -0.5042 1350.149 833.6194)" style="overflow:visible;"/>
	
		<use xlink:href="#cloud_x5F_parts"  width="198.271" height="120.214" x="-99.384" y="-85.746" transform="matrix(0.5042 0 0 -0.5042 1400.1302 858.61)" style="overflow:visible;"/>
	
		<use xlink:href="#cloud_x5F_parts"  width="198.271" height="120.214" x="-99.384" y="-85.746" transform="matrix(0.5042 0 0 -0.5042 1450.1116 883.6007)" style="overflow:visible;"/>
	
		<use xlink:href="#cloud_x5F_parts"  width="198.271" height="120.214" x="-99.384" y="-85.746" transform="matrix(0.5042 0 0 -0.5042 1500.0928 908.5914)" style="overflow:visible;"/>
	
		<use xlink:href="#cloud_x5F_parts"  width="198.271" height="120.214" x="-99.384" y="-85.746" transform="matrix(0.5042 0 0 -0.5042 1550.0741 933.582)" style="overflow:visible;"/>
	
		<use xlink:href="#cloud_x5F_parts"  width="198.271" height="120.214" x="-99.384" y="-85.746" transform="matrix(0.5042 0 0 -0.5042 1600.0553 958.5726)" style="overflow:visible;"/>
	
		<use xlink:href="#cloud_x5F_parts"  width="198.271" height="120.214" x="-99.384" y="-85.746" transform="matrix(0.5042 0 0 -0.5042 1650.0366 983.5632)" style="overflow:visible;"/>
	
		<use xlink:href="#cloud_x5F_parts"  width="198.271" height="120.214" x="-99.384" y="-85.746" transform="matrix(0.5042 0 0 -0.5042 1700.0178 1008.5539)" style="overflow:visible;"/>
	
		<use xlink:href="#cloud_x5F_parts"  width="198.271" height="120.214" x="-99.384" y="-85.746" transform="matrix(0.5042 0 0 -0.5042 1749.9991 1033.5446)" style="overflow:visible;"/>
	
		<use xlink:href="#cloud_x5F_parts"  width="198.271" height="120.214" x="-99.384" y="-85.746" transform="matrix(0.5042 0 0 -0.5042 1799.9805 1058.5352)" style="overflow:visible;"/>
	
		<use xlink:href="#cloud_x5F_parts"  width="198.271" height="120.214" x="-99.384" y="-85.746" transform="matrix(0.5042 0 0 -0.5042 1849.9617 1083.5258)" style="overflow:visible;"/>
	
		<use xlink:href="#cloud_x5F_parts"  width="198.271" height="120.214" x="-99.384" y="-85.746" transform="matrix(0.5042 0 0 -0.5042 1899.943 1108.5165)" style="overflow:visible;"/>
	
		<use xlink:href="#cloud_x5F_parts"  width="198.271" height="120.214" x="-99.384" y="-85.746" transform="matrix(0.5042 0 0 -0.5042 1350.149 883.6007)" style="overflow:visible;"/>
	
		<use xlink:href="#cloud_x5F_parts"  width="198.271" height="120.214" x="-99.384" y="-85.746" transform="matrix(0.5042 0 0 -0.5042 1400.1302 908.5914)" style="overflow:visible;"/>
	
		<use xlink:href="#cloud_x5F_parts"  width="198.271" height="120.214" x="-99.384" y="-85.746" transform="matrix(0.5042 0 0 -0.5042 1450.1116 933.582)" style="overflow:visible;"/>
	
		<use xlink:href="#cloud_x5F_parts"  width="198.271" height="120.214" x="-99.384" y="-85.746" transform="matrix(0.5042 0 0 -0.5042 1500.0928 958.5726)" style="overflow:visible;"/>
	
		<use xlink:href="#cloud_x5F_parts"  width="198.271" height="120.214" x="-99.384" y="-85.746" transform="matrix(0.5042 0 0 -0.5042 1550.0741 983.5632)" style="overflow:visible;"/>
	
		<use xlink:href="#cloud_x5F_parts"  width="198.271" height="120.214" x="-99.384" y="-85.746" transform="matrix(0.5042 0 0 -0.5042 1600.0553 1008.5539)" style="overflow:visible;"/>
	
		<use xlink:href="#cloud_x5F_parts"  width="198.271" height="120.214" x="-99.384" y="-85.746" transform="matrix(0.5042 0 0 -0.5042 1650.0366 1033.5446)" style="overflow:visible;"/>
	
		<use xlink:href="#cloud_x5F_parts"  width="198.271" height="120.214" x="-99.384" y="-85.746" transform="matrix(0.5042 0 0 -0.5042 1700.0179 1058.5352)" style="overflow:visible;"/>
	
		<use xlink:href="#cloud_x5F_parts"  width="198.271" height="120.214" x="-99.384" y="-85.746" transform="matrix(0.5042 0 0 -0.5042 1749.9991 1083.5258)" style="overflow:visible;"/>
	
		<use xlink:href="#cloud_x5F_parts"  width="198.271" height="120.214" x="-99.384" y="-85.746" transform="matrix(0.5042 0 0 -0.5042 1799.9805 1108.5165)" style="overflow:visible;"/>
	
		<use xlink:href="#cloud_x5F_parts"  width="198.271" height="120.214" x="-99.384" y="-85.746" transform="matrix(0.5042 0 0 -0.5042 1849.9617 1133.5071)" style="overflow:visible;"/>
	
		<use xlink:href="#cloud_x5F_parts"  width="198.271" height="120.214" x="-99.384" y="-85.746" transform="matrix(0.5042 0 0 -0.5042 1350.149 933.582)" style="overflow:visible;"/>
	
		<use xlink:href="#cloud_x5F_parts"  width="198.271" height="120.214" x="-99.384" y="-85.746" transform="matrix(0.5042 0 0 -0.5042 1400.1302 958.5726)" style="overflow:visible;"/>
	
		<use xlink:href="#cloud_x5F_parts"  width="198.271" height="120.214" x="-99.384" y="-85.746" transform="matrix(0.5042 0 0 -0.5042 1450.1116 983.5632)" style="overflow:visible;"/>
	
		<use xlink:href="#cloud_x5F_parts"  width="198.271" height="120.214" x="-99.384" y="-85.746" transform="matrix(0.5042 0 0 -0.5042 1500.0928 1008.5539)" style="overflow:visible;"/>
	
		<use xlink:href="#cloud_x5F_parts"  width="198.271" height="120.214" x="-99.384" y="-85.746" transform="matrix(0.5042 0 0 -0.5042 1550.0741 1033.5446)" style="overflow:visible;"/>
	
		<use xlink:href="#cloud_x5F_parts"  width="198.271" height="120.214" x="-99.384" y="-85.746" transform="matrix(0.5042 0 0 -0.5042 1600.0553 1058.5352)" style="overflow:visible;"/>
	
		<use xlink:href="#cloud_x5F_parts"  width="198.271" height="120.214" x="-99.384" y="-85.746" transform="matrix(0.5042 0 0 -0.5042 1650.0366 1083.5258)" style="overflow:visible;"/>
	
		<use xlink:href="#cloud_x5F_parts"  width="198.271" height="120.214" x="-99.384" y="-85.746" transform="matrix(0.5042 0 0 -0.5042 1700.0179 1108.5165)" style="overflow:visible;"/>
	
		<use xlink:href="#cloud_x5F_parts"  width="198.271" height="120.214" x="-99.384" y="-85.746" transform="matrix(0.5042 0 0 -0.5042 1749.9991 1133.5071)" style="overflow:visible;"/>
	
		<use xlink:href="#cloud_x5F_parts"  width="198.271" height="120.214" x="-99.384" y="-85.746" transform="matrix(0.5042 0 0 -0.5042 1799.9805 1158.4977)" style="overflow:visible;"/>
	
		<use xlink:href="#cloud_x5F_parts"  width="198.271" height="120.214" x="-99.384" y="-85.746" transform="matrix(0.5042 0 0 -0.5042 1350.149 983.5632)" style="overflow:visible;"/>
	
		<use xlink:href="#cloud_x5F_parts"  width="198.271" height="120.214" x="-99.384" y="-85.746" transform="matrix(0.5042 0 0 -0.5042 1400.1302 1008.5539)" style="overflow:visible;"/>
	
		<use xlink:href="#cloud_x5F_parts"  width="198.271" height="120.214" x="-99.384" y="-85.746" transform="matrix(0.5042 0 0 -0.5042 1450.1116 1033.5446)" style="overflow:visible;"/>
	
		<use xlink:href="#cloud_x5F_parts"  width="198.271" height="120.214" x="-99.384" y="-85.746" transform="matrix(0.5042 0 0 -0.5042 1500.0928 1058.5352)" style="overflow:visible;"/>
	
		<use xlink:href="#cloud_x5F_parts"  width="198.271" height="120.214" x="-99.384" y="-85.746" transform="matrix(0.5042 0 0 -0.5042 1550.0741 1083.5258)" style="overflow:visible;"/>
	
		<use xlink:href="#cloud_x5F_parts"  width="198.271" height="120.214" x="-99.384" y="-85.746" transform="matrix(0.5042 0 0 -0.5042 1600.0553 1108.5165)" style="overflow:visible;"/>
	
		<use xlink:href="#cloud_x5F_parts"  width="198.271" height="120.214" x="-99.384" y="-85.746" transform="matrix(0.5042 0 0 -0.5042 1000.2801 808.6288)" style="overflow:visible;"/>
	
		<use xlink:href="#cloud_x5F_parts"  width="198.271" height="120.214" x="-99.384" y="-85.746" transform="matrix(0.5042 0 0 -0.5042 1050.2614 833.6194)" style="overflow:visible;"/>
	
		<use xlink:href="#cloud_x5F_parts"  width="198.271" height="120.214" x="-99.384" y="-85.746" transform="matrix(0.5042 0 0 -0.5042 1100.2427 857.4734)" style="overflow:visible;"/>
	
		<use xlink:href="#cloud_x5F_parts"  width="198.271" height="120.214" x="-99.384" y="-85.746" transform="matrix(0.5042 0 0 -0.5042 950.2988 833.6194)" style="overflow:visible;"/>
	
		<use xlink:href="#cloud_x5F_parts"  width="198.271" height="120.214" x="-99.384" y="-85.746" transform="matrix(0.5042 0 0 -0.5042 1000.2801 858.61)" style="overflow:visible;"/>
	
		<use xlink:href="#cloud_x5F_parts"  width="198.271" height="120.214" x="-99.384" y="-85.746" transform="matrix(0.5042 0 0 -0.5042 1050.2614 882.464)" style="overflow:visible;"/>
	
		<use xlink:href="#cloud_x5F_parts"  width="198.271" height="120.214" x="-99.384" y="-85.746" transform="matrix(0.5042 0 0 -0.5042 900.3176 858.61)" style="overflow:visible;"/>
	
		<use xlink:href="#cloud_x5F_parts"  width="198.271" height="120.214" x="-99.384" y="-85.746" transform="matrix(0.5042 0 0 -0.5042 950.2988 883.6007)" style="overflow:visible;"/>
	
		<use xlink:href="#cloud_x5F_parts"  width="198.271" height="120.214" x="-99.384" y="-85.746" transform="matrix(0.5042 0 0 -0.5042 1000.2801 908.5914)" style="overflow:visible;"/>
	
		<use xlink:href="#cloud_x5F_parts"  width="198.271" height="120.214" x="-99.384" y="-85.746" transform="matrix(0.5042 0 0 -0.5042 1200.2052 1108.5165)" style="overflow:visible;"/>
	
		<use xlink:href="#cloud_x5F_parts"  width="198.271" height="120.214" x="-99.384" y="-85.746" transform="matrix(0.5042 0 0 -0.5042 1250.1864 1133.5071)" style="overflow:visible;"/>
	
		<use xlink:href="#cloud_x5F_parts"  width="198.271" height="120.214" x="-99.384" y="-85.746" transform="matrix(0.5042 0 0 -0.5042 1150.2239 1133.5071)" style="overflow:visible;"/>
	
		<use xlink:href="#cloud_x5F_parts"  width="198.271" height="120.214" x="-99.384" y="-85.746" transform="matrix(0.5042 0 0 -0.5042 1200.2052 1158.4977)" style="overflow:visible;"/>
	
		<use xlink:href="#cloud_x5F_parts"  width="198.271" height="120.214" x="-99.384" y="-85.746" transform="matrix(0.5042 0 0 -0.5042 2149.8494 533.7318)" style="overflow:visible;"/>
	
		<use xlink:href="#cloud_x5F_parts"  width="198.271" height="120.214" x="-99.384" y="-85.746" transform="matrix(0.5042 0 0 -0.5042 2199.8306 558.7224)" style="overflow:visible;"/>
	
		<use xlink:href="#cloud_x5F_parts"  width="198.271" height="120.214" x="-99.384" y="-85.746" transform="matrix(0.5042 0 0 -0.5042 2099.8682 558.7224)" style="overflow:visible;"/>
	
		<use xlink:href="#cloud_x5F_parts"  width="198.271" height="120.214" x="-99.384" y="-85.746" transform="matrix(0.5042 0 0 -0.5042 2149.8494 583.7131)" style="overflow:visible;"/>
	
		<use xlink:href="#cloud_x5F_parts"  width="198.271" height="120.214" x="-99.384" y="-85.746" transform="matrix(0.5042 0 0 -0.5042 2299.7932 708.6663)" style="overflow:visible;"/>
	
		<use xlink:href="#cloud_x5F_parts"  width="198.271" height="120.214" x="-99.384" y="-85.746" transform="matrix(0.5042 0 0 -0.5042 1200.2052 1008.5539)" style="overflow:visible;"/>
	
		<use xlink:href="#cloud_x5F_parts"  width="198.271" height="120.214" x="-99.384" y="-85.746" transform="matrix(0.5042 0 0 -0.5042 2449.7371 783.6382)" style="overflow:visible;"/>
	
		<use xlink:href="#cloud_x5F_parts"  width="198.271" height="120.214" x="-99.384" y="-85.746" transform="matrix(0.5042 0 0 -0.5042 2499.7183 808.6288)" style="overflow:visible;"/>
	
		<use xlink:href="#cloud_x5F_parts"  width="198.271" height="120.214" x="-99.384" y="-85.746" transform="matrix(0.5042 0 0 -0.5042 2399.7556 808.6288)" style="overflow:visible;"/>
	
		<use xlink:href="#cloud_x5F_parts"  width="198.271" height="120.214" x="-99.384" y="-85.746" transform="matrix(0.5042 0 0 -0.5042 2449.7371 833.6194)" style="overflow:visible;"/>
</g>
</svg>
