<?xml version="1.0" encoding="utf-8"?>
<!-- Generator: Adobe Illustrator 25.0.0, SVG Export Plug-In . SVG Version: 6.00 Build 0)  -->
<svg version="1.1" xmlns="http://www.w3.org/2000/svg" xmlns:xlink="http://www.w3.org/1999/xlink" x="0px" y="0px" width="3600px"
	 height="1800px" viewBox="0 0 3600 1800" style="enable-background:new 0 0 3600 1800;" xml:space="preserve">
<style type="text/css">
	.st0{fill:#8C8A86;}
	.st1{fill:#D3D2BE;}
	.st2{fill:#B2AC94;}
	.st3{fill:#9C9D96;}
	.st4{fill:#B6B7AF;}
	.st5{fill:#CAC1A8;}
	.st6{fill:#A8E9EE;}
	.st7{fill:#ABDFE1;}
	.st8{fill:#AED5D5;}
	.st9{fill:#B0CBC8;}
	.st10{fill:#B3C1BC;}
	.st11{fill:#A6DADC;}
	.st12{fill:#A3CBCB;}
	.st13{fill:#A1BBB9;}
	.st14{fill:#9EACA8;}
	.st15{fill:#D4D2AD;}
	.st16{fill:#C5C3A5;}
	.st17{fill:#CBC49E;}
	.st18{fill:#C2C099;}
	.st19{fill:none;}
	.st20{fill:#8DAB5B;}
	.st21{fill:#A4BD4B;}
	.st22{fill:#BBAE95;}
	.st23{fill:#B3A58C;}
	.st24{fill:#A79B82;}
	.st25{fill:#BBB594;}
	.st26{fill:#B3AC8A;}
	.st27{fill:#A7A280;}
	.st28{fill:#937017;}
	.st29{fill:#B28F34;}
	.st30{fill:#8E6211;}
	.st31{fill:#AD7D2A;}
	.st32{fill:#99998C;}
	.st33{fill:#8F9C88;}
	.st34{fill:#89DEE5;}
	.st35{fill:#8ACECE;}
	.st36{fill:#8CBDB7;}
	.st37{fill:#8DAD9F;}
	.st38{fill:#A4A795;}
	.st39{fill:#A19C85;}
	.st40{fill:#9C9B91;}
	.st41{fill:#999988;}
	.st42{fill:#9FB2A5;}
	.st43{fill:#8ED3D5;}
	.st44{fill:#94C8C5;}
	.st45{fill:#99BDB5;}
	.st46{fill:#908C71;}
	.st47{fill:#827E63;}
	.st48{fill:#85816E;}
	.st49{fill:#8F8268;}
	.st50{clip-path:url(#SVGID_2_);}
	.st51{fill:#84EBFF;}
</style>
<symbol  id="_x33_block_x5F_1_2" viewBox="-150.055 -600 300.055 750.009">
	<g id="新規シンボル_6_37_">
	</g>
	<g id="新規シンボル_20_24_">
		<g id="新規シンボル_6_36_">
		</g>
	</g>
	<g id="新規シンボル_6_99_">
	</g>
	<g id="新規シンボル_6_98_">
	</g>
	<g id="grid2_3_17_">
	</g>
	<g id="grid2_3_16_">
	</g>
	<g id="新規シンボル_4_16_">
	</g>
	<g id="新規シンボル_4_15_">
		<g>
			<g>
				<g>
					<g>
						<g>
							<polygon class="st0" points="-0.056,0.009 -0.056,-349.991 149.944,-274.991 149.945,75.009 							"/>
						</g>
					</g>
				</g>
			</g>
			<polygon class="st1" points="149.945,75.009 -0.055,0.009 -150.055,75.009 -0.054,150.009 			"/>
			<polygon class="st2" points="-0.056,0.009 -0.056,-349.991 -150.055,-274.991 -150.055,75.009 			"/>
			<polygon class="st3" points="99.945,50.009 99.945,0.009 149.945,25.009 149.945,75.009 			"/>
			<polygon class="st3" points="99.945,-49.991 99.945,-99.991 149.945,-74.991 149.945,-24.991 			"/>
			<polygon class="st3" points="99.945,-149.991 99.945,-199.991 149.945,-174.991 149.945,-124.991 			"/>
			<polygon class="st3" points="99.945,-249.991 99.945,-299.991 149.945,-274.991 149.945,-224.991 			"/>
			<polygon class="st3" points="0.022,0.009 0.021,-49.991 50.021,-24.991 50.021,25.009 			"/>
			<polygon class="st3" points="50.021,-24.991 50.021,-74.991 100.021,-49.991 100.021,0.009 			"/>
			<polygon class="st3" points="0.022,-99.991 0.021,-149.991 50.021,-124.991 50.021,-74.991 			"/>
			<polygon class="st3" points="50.021,-124.991 50.021,-174.991 100.021,-149.991 100.021,-99.991 			"/>
			<polygon class="st3" points="0.022,-199.991 0.021,-249.991 50.021,-224.991 50.021,-174.991 			"/>
			<polygon class="st3" points="50.021,-224.991 50.021,-274.991 100.021,-249.991 100.021,-199.991 			"/>
			<polygon class="st3" points="0.022,-299.991 0.021,-349.991 50.021,-324.991 50.021,-274.991 			"/>
			<g>
				<polygon class="st4" points="-100.055,50.009 -100.055,0.009 -150.055,25.009 -150.055,75.009 				"/>
				<polygon class="st4" points="-100.055,-49.991 -100.055,-99.991 -150.055,-74.991 -150.055,-24.991 				"/>
				<polygon class="st4" points="-100.055,-149.991 -100.055,-199.991 -150.055,-174.991 -150.055,-124.991 				"/>
				<polygon class="st4" points="-100.055,-249.991 -100.055,-299.991 -150.055,-274.991 -150.055,-224.991 				"/>
				<polygon class="st4" points="-0.131,0.01 -0.131,-49.99 -50.131,-24.99 -50.131,25.01 				"/>
				<polygon class="st4" points="-50.131,-24.99 -50.131,-74.991 -100.131,-49.991 -100.131,0.009 				"/>
				<polygon class="st4" points="-0.131,-99.99 -0.131,-149.99 -50.131,-124.99 -50.131,-74.99 				"/>
				<polygon class="st4" points="-50.131,-124.99 -50.131,-174.991 -100.131,-149.991 -100.131,-99.991 				"/>
				<polygon class="st4" points="-0.131,-199.99 -0.131,-249.991 -50.131,-224.991 -50.131,-174.991 				"/>
				<polygon class="st4" points="-50.131,-224.991 -50.131,-274.991 -100.131,-249.991 -100.131,-199.991 				"/>
				<polygon class="st4" points="-0.131,-299.99 -0.131,-349.991 -50.131,-324.991 -50.131,-274.991 				"/>
			</g>
			<polygon class="st5" points="150,75 100,50 50,75 100,100 			"/>
			<polygon class="st5" points="50.001,125 0.001,100 -49.999,125 0.001,150 			"/>
			<polygon class="st5" points="-50.055,75.009 -100.055,50.009 -150.055,75.009 -100.055,100.009 			"/>
			<polygon class="st5" points="49.945,75.009 -0.055,50.009 -50.055,75.009 -0.055,100.009 			"/>
			<polygon class="st5" points="49.869,25.01 -0.131,0.01 -50.131,25.01 -0.131,50.01 			"/>
		</g>
	</g>
	<g id="新規シンボル_5_14_">
	</g>
	<g>
		<g>
			<g>
				<g>
					<polygon class="st6" points="-150.001,-475 -150.001,-525 -0.001,-600 -0.001,-550 					"/>
					<polygon class="st7" points="-150.001,-425 -150.001,-475 -0.001,-550 -0.001,-500 					"/>
				</g>
			</g>
			<polygon class="st8" points="-150.001,-375 -150.001,-425 -0.001,-500 -0.001,-450 			"/>
			<polygon class="st9" points="-150.001,-325 -150.001,-375 -0.001,-450 -0.001,-400 			"/>
			<polygon class="st10" points="-150.001,-275 -150.001,-325 -0.001,-400 -0.001,-350 			"/>
		</g>
		<polygon class="st6" points="-0.001,-550 -0.001,-600 149.999,-525 149.999,-475 		"/>
		<polygon class="st11" points="-0.001,-500 -0.001,-550 149.999,-475 149.999,-425 		"/>
		<polygon class="st12" points="-0.001,-450 -0.001,-500 149.999,-425 149.999,-375 		"/>
		<polygon class="st13" points="-0.001,-400 -0.001,-450 149.999,-375 149.999,-325 		"/>
		<polygon class="st14" points="-0.001,-350 -0.001,-400 149.999,-325 149.999,-275 		"/>
	</g>
	<g id="_x33_block_x5F_2_3_">
		<g id="新規シンボル_1_6_">
			<g id="新規シンボル_6_97_">
			</g>
			<g id="新規シンボル_20_23_">
				<g id="新規シンボル_6_96_">
				</g>
			</g>
			<g id="新規シンボル_6_95_">
			</g>
			<g id="新規シンボル_6_94_">
			</g>
		</g>
		<g id="新規シンボル_6_69_">
		</g>
		<g id="新規シンボル_20_19_">
			<g id="新規シンボル_6_68_">
			</g>
		</g>
		<g id="新規シンボル_6_67_">
		</g>
		<g id="新規シンボル_6_66_">
		</g>
		<g id="_x32_block_1_">
			<g id="新規シンボル_1_5_">
				<g id="新規シンボル_6_65_">
				</g>
				<g id="新規シンボル_20_15_">
					<g id="新規シンボル_6_64_">
					</g>
				</g>
				<g id="新規シンボル_6_63_">
				</g>
				<g id="新規シンボル_6_62_">
				</g>
			</g>
			<g id="新規シンボル_6_61_">
			</g>
			<g id="新規シンボル_20_14_">
				<g id="新規シンボル_6_60_">
				</g>
			</g>
			<g id="新規シンボル_6_59_">
			</g>
			<g id="新規シンボル_6_58_">
			</g>
			<g id="_x33_block_x5F_1_6_">
				<g id="新規シンボル_6_57_">
				</g>
				<g id="新規シンボル_20_13_">
					<g id="新規シンボル_6_56_">
					</g>
				</g>
				<g id="新規シンボル_6_55_">
				</g>
				<g id="新規シンボル_6_54_">
				</g>
				<g id="grid2_3_15_">
				</g>
				<g id="grid2_3_14_">
				</g>
				<g id="新規シンボル_4_14_">
				</g>
				<g id="新規シンボル_4_13_">
				</g>
				<g id="新規シンボル_5_13_">
				</g>
			</g>
		</g>
		<g id="_x33_block_x5F_1_3_">
			<g id="新規シンボル_6_53_">
			</g>
			<g id="新規シンボル_20_12_">
				<g id="新規シンボル_6_52_">
				</g>
			</g>
			<g id="新規シンボル_6_51_">
			</g>
			<g id="新規シンボル_6_50_">
			</g>
			<g id="grid2_3_10_">
			</g>
			<g id="grid2_3_9_">
			</g>
			<g id="新規シンボル_4_12_">
			</g>
		</g>
	</g>
</symbol>
<symbol  id="_x33_block_x5F_2_2" viewBox="-150.001 -600 300.057 750">
	<g id="新規シンボル_1_4_">
		<g id="新規シンボル_6_117_">
		</g>
		<g id="新規シンボル_20_28_">
			<g id="新規シンボル_6_116_">
			</g>
		</g>
		<g id="新規シンボル_6_35_">
		</g>
		<g id="新規シンボル_6_34_">
		</g>
	</g>
	<g id="新規シンボル_6_33_">
	</g>
	<g id="新規シンボル_20_27_">
		<g id="新規シンボル_6_32_">
		</g>
	</g>
	<g id="新規シンボル_6_31_">
	</g>
	<g id="新規シンボル_6_30_">
	</g>
	<g id="_x32_block_3_">
		<g id="新規シンボル_1_3_">
			<g id="新規シンボル_6_25_">
			</g>
			<g id="新規シンボル_20_6_">
				<g id="新規シンボル_6_24_">
				</g>
			</g>
			<g id="新規シンボル_6_23_">
			</g>
			<g id="新規シンボル_6_22_">
			</g>
		</g>
		<g id="新規シンボル_6_21_">
		</g>
		<g id="新規シンボル_20_25_">
			<g id="新規シンボル_6_20_">
			</g>
		</g>
		<g id="新規シンボル_6_19_">
		</g>
		<g id="新規シンボル_6_1_">
		</g>
		<g id="_x33_block_x5F_1_7_">
			<g id="新規シンボル_6_73_">
			</g>
			<g id="新規シンボル_20_4_">
				<g id="新規シンボル_6_72_">
				</g>
			</g>
			<g id="新規シンボル_6_71_">
			</g>
			<g id="新規シンボル_6_70_">
			</g>
			<g id="grid2_3_2_">
			</g>
			<g id="grid2_3_8_">
			</g>
			<g id="新規シンボル_4_11_">
			</g>
			<g id="新規シンボル_4_6_">
			</g>
			<g id="新規シンボル_5_11_">
			</g>
		</g>
		<g>
			<g>
				<g>
					<g>
						<g>
							<polygon class="st3" points="-0.001,0 -0.001,-350 149.999,-275 150,75 							"/>
						</g>
					</g>
				</g>
			</g>
		</g>
		<g>
			<polygon class="st5" points="150,75 0,0 -150,75 0.001,150 			"/>
		</g>
		<g>
			<polygon class="st4" points="-0.001,0 -0.001,-350 -150,-275 -150,75 			"/>
		</g>
		<g>
			<g>
				<g>
					<g>
						<polygon class="st6" points="-150.001,-475 -150.001,-525 -0.001,-600 -0.001,-550 						"/>
						<polygon class="st7" points="-150.001,-425 -150.001,-475 -0.001,-550 -0.001,-500 						"/>
					</g>
				</g>
				<polygon class="st8" points="-150.001,-375 -150.001,-425 -0.001,-500 -0.001,-450 				"/>
				<polygon class="st9" points="-150.001,-325 -150.001,-375 -0.001,-450 -0.001,-400 				"/>
				<polygon class="st10" points="-150.001,-275 -150.001,-325 -0.001,-400 -0.001,-350 				"/>
			</g>
			<polygon class="st6" points="-0.001,-550 -0.001,-600 149.999,-525 149.999,-475 			"/>
			<polygon class="st11" points="-0.001,-500 -0.001,-550 149.999,-475 149.999,-425 			"/>
			<polygon class="st12" points="-0.001,-450 -0.001,-500 149.999,-425 149.999,-375 			"/>
			<polygon class="st13" points="-0.001,-400 -0.001,-450 149.998,-375 149.998,-325 			"/>
			<polygon class="st14" points="-0.001,-350 -0.001,-400 149.998,-325 149.998,-275 			"/>
		</g>
		<g>
			<polygon class="st0" points="100,50 100,0 150,25 150,75 			"/>
			<polygon class="st0" points="100,-50 100,-100 150,-75 150,-25 			"/>
			<polygon class="st0" points="100,-150 100,-200 150,-175 150,-125 			"/>
			<polygon class="st0" points="100,-250 100,-300 150,-275 150,-225 			"/>
			<polygon class="st0" points="0.077,0 0.076,-50 50.076,-25 50.076,25 			"/>
			<polygon class="st0" points="50.076,-25 50.076,-75 100.076,-50 100.076,0 			"/>
			<polygon class="st0" points="0.077,-100 0.076,-150 50.076,-125 50.076,-75 			"/>
			<polygon class="st0" points="50.076,-125 50.076,-175 100.076,-150 100.076,-100 			"/>
			<polygon class="st0" points="0.077,-200 0.076,-250 50.076,-225 50.076,-175 			"/>
			<polygon class="st0" points="50.076,-225 50.076,-275 100.076,-250 100.076,-200 			"/>
			<polygon class="st0" points="0.077,-300 0.076,-350 50.076,-325 50.076,-275 			"/>
		</g>
	</g>
	<g id="_x33_block_x5F_1_2_">
		<g id="新規シンボル_6_49_">
		</g>
		<g id="新規シンボル_20_11_">
			<g id="新規シンボル_6_48_">
			</g>
		</g>
		<g id="新規シンボル_6_47_">
		</g>
		<g id="新規シンボル_6_46_">
		</g>
		<g id="grid2_3_1_">
		</g>
		<g id="grid2_3_6_">
		</g>
		<g id="新規シンボル_4_2_">
		</g>
	</g>
	<g>
		<g>
			<polygon class="st2" points="-100,50 -100,0 -150,25 -150,75 			"/>
			<polygon class="st2" points="-100,-50 -100,-100 -150,-75 -150,-25 			"/>
			<polygon class="st2" points="-100,-150 -100,-200 -150,-175 -150,-125 			"/>
			<polygon class="st2" points="-100,-250 -100,-300 -150,-275 -150,-225 			"/>
			<polygon class="st2" points="-0.076,0 -0.076,-50 -50.076,-25 -50.076,25 			"/>
			<polygon class="st2" points="-50.076,-25 -50.076,-75 -100.076,-50 -100.076,0 			"/>
			<polygon class="st2" points="-0.076,-100 -0.076,-150 -50.076,-125 -50.076,-75 			"/>
			<polygon class="st2" points="-50.076,-125 -50.076,-175 -100.076,-150 -100.076,-100 			"/>
			<polygon class="st2" points="-0.076,-200 -0.076,-250 -50.076,-225 -50.076,-175 			"/>
			<polygon class="st2" points="-50.076,-225 -50.076,-275 -100.076,-250 -100.076,-200 			"/>
			<polygon class="st2" points="-0.076,-300 -0.076,-350 -50.076,-325 -50.076,-275 			"/>
		</g>
	</g>
	<g>
		<polygon class="st1" points="150.055,74.991 100.055,49.991 50.055,74.991 100.055,99.991 		"/>
		<polygon class="st1" points="50.056,124.991 0.056,99.991 -49.944,124.991 0.056,149.991 		"/>
		<polygon class="st1" points="-50,75 -100,50 -150,75 -100,100 		"/>
		<polygon class="st1" points="50,75 0,50 -50,75 0,100 		"/>
		<polygon class="st1" points="49.924,25 -0.076,0 -50.076,25.001 -0.076,50 		"/>
	</g>
</symbol>
<symbol  id="grid2_10" viewBox="-50.183 -50 150.182 75.091">
	<polygon class="st5" points="100,0 0,-50 -50.183,-24.909 49.817,25.091 	"/>
	<polygon class="st1" points="50,-25 0,-50 -50,-25 0,0 	"/>
	<g id="新規シンボル_8_3_">
	</g>
</symbol>
<symbol  id="grid2_2_1_" viewBox="-100 -50 200 100">
	<polygon class="st15" points="100,0 0,-50 -100,0 0,50 	"/>
	<ellipse class="st16" cx="10.674" cy="22.12" rx="21.51" ry="11.637"/>
	<path class="st17" d="M34.855-21.673c-11.88,0-21.51-5.21-21.51-11.637c0-2.854,1.906-5.464,5.058-7.489L49.95-25.025
		C46.067-22.954,40.739-21.673,34.855-21.673z"/>
	<path class="st17" d="M-50.05,24.975L-81.597,9.201c3.946-2.534,9.848-4.148,16.452-4.148c11.88,0,21.51,5.21,21.51,11.637
		C-43.635,19.934-46.092,22.865-50.05,24.975z"/>
	<g>
		<ellipse class="st18" cx="-21.134" cy="-1.317" rx="15.662" ry="8.473"/>
		<path class="st18" d="M59.33-1.706c-3.753,0-6.796-1.646-6.796-3.676s3.042-3.676,6.796-3.676c3.753,0,6.795,1.646,6.795,3.676
			S63.083-1.706,59.33-1.706z"/>
		<path class="st18" d="M0-18.646c-3.753,0-6.795-1.646-6.795-3.676c0-2.03,3.042-3.676,6.795-3.676
			c3.753,0,6.795,1.646,6.795,3.676C6.795-20.292,3.753-18.646,0-18.646z"/>
	</g>
	<path class="st17" d="M-34.862-21.48c-5.981,0-11.397-1.31-15.321-3.429l31.824-15.912c3.23,2.049,5.184,4.704,5.184,7.608
		C-13.174-26.733-22.884-21.48-34.862-21.48z"/>
	<path class="st17" d="M65.138,5.054c6.61,0,12.526,1.602,16.504,4.125L49.818,25.091c-3.933-2.124-6.367-5.06-6.367-8.304
		C43.45,10.307,53.16,5.054,65.138,5.054z"/>
	<ellipse class="st16" cx="24.979" cy="-9.685" rx="14.75" ry="7.98"/>
</symbol>
<symbol  id="grid2_6" viewBox="-100.049 -50 150.049 75">
	<g>
		<polygon class="st15" points="0,-50 50.001,-25.001 -49.999,24.999 -100.049,-0.025 		"/>
	</g>
	<path class="st17" d="M34.855-21.673c-11.88,0-21.51-5.21-21.51-11.637c0-2.854,1.906-5.464,5.058-7.489L49.95-25.025
		C46.067-22.954,40.739-21.673,34.855-21.673z"/>
	<path class="st17" d="M-50.05,24.975L-81.597,9.201c3.946-2.534,9.848-4.148,16.452-4.148c11.88,0,21.51,5.21,21.51,11.637
		C-43.635,19.934-46.092,22.865-50.05,24.975z"/>
	<g>
		<ellipse class="st18" cx="-21.134" cy="-1.317" rx="15.662" ry="8.473"/>
		<path class="st18" d="M0-18.646c-3.753,0-6.795-1.646-6.795-3.676c0-2.03,3.042-3.676,6.795-3.676
			c3.753,0,6.795,1.646,6.795,3.676C6.795-20.292,3.753-18.646,0-18.646z"/>
	</g>
	<path class="st17" d="M-34.862-21.48c-5.981,0-11.397-1.31-15.321-3.429l31.824-15.912c3.23,2.049,5.184,4.704,5.184,7.608
		C-13.174-26.733-22.884-21.48-34.862-21.48z"/>
	<path class="st16" d="M24.979-17.665c2.898,0,5.592,0.459,7.871,1.239L11.933-5.967c-1.084-1.111-1.704-2.375-1.704-3.718
		C10.229-14.092,16.832-17.665,24.979-17.665z"/>
	<g id="新規シンボル_5_4_">
	</g>
</symbol>
<symbol  id="grid2_7_2_" viewBox="-50.183 -50 150.182 75.091">
	<polygon class="st15" points="100,0 0,-50 -50.019,-25.028 49.981,24.972 	"/>
	<g>
		<path class="st17" d="M34.855-21.673c-11.88,0-21.51-5.21-21.51-11.637c0-2.854,1.906-5.464,5.058-7.489L49.95-25.025
			C46.067-22.954,40.739-21.673,34.855-21.673z"/>
		<g>
			<path class="st18" d="M59.33-1.706c-3.753,0-6.796-1.646-6.796-3.676s3.042-3.676,6.796-3.676c3.753,0,6.795,1.646,6.795,3.676
				S63.083-1.706,59.33-1.706z"/>
			<path class="st18" d="M0-18.646c-3.753,0-6.795-1.646-6.795-3.676c0-2.03,3.042-3.676,6.795-3.676
				c3.753,0,6.795,1.646,6.795,3.676C6.795-20.292,3.753-18.646,0-18.646z"/>
		</g>
		<path class="st17" d="M-34.862-21.48c-5.981,0-11.397-1.31-15.321-3.429l31.824-15.912c3.23,2.049,5.184,4.704,5.184,7.608
			C-13.174-26.733-22.884-21.48-34.862-21.48z"/>
		<path class="st17" d="M65.138,5.054c6.61,0,12.526,1.602,16.504,4.125L49.818,25.091c-3.933-2.124-6.367-5.06-6.367-8.304
			C43.45,10.307,53.16,5.054,65.138,5.054z"/>
		<ellipse class="st16" cx="24.979" cy="-9.685" rx="14.75" ry="7.98"/>
	</g>
	<g id="新規シンボル_7_1_">
	</g>
</symbol>
<symbol  id="grid2_8_1_" viewBox="-100 -50 200 100">
	<polygon class="st15" points="100,0 0,-50 -100,0 0,50 	"/>
	<ellipse class="st16" cx="10.674" cy="22.12" rx="21.51" ry="11.637"/>
	<path class="st17" d="M34.855-21.673c-11.88,0-21.51-5.21-21.51-11.637c0-2.854,1.906-5.464,5.058-7.489L49.95-25.025
		C46.067-22.954,40.739-21.673,34.855-21.673z"/>
	<path class="st17" d="M-50.05,24.975L-81.597,9.201c3.946-2.534,9.848-4.148,16.452-4.148c11.88,0,21.51,5.21,21.51,11.637
		C-43.635,19.934-46.092,22.865-50.05,24.975z"/>
	<g>
		<ellipse class="st18" cx="-21.134" cy="-1.317" rx="15.662" ry="8.473"/>
		<path class="st18" d="M59.33-1.706c-3.753,0-6.796-1.646-6.796-3.676s3.042-3.676,6.796-3.676c3.753,0,6.795,1.646,6.795,3.676
			S63.083-1.706,59.33-1.706z"/>
		<path class="st18" d="M0-18.646c-3.753,0-6.795-1.646-6.795-3.676c0-2.03,3.042-3.676,6.795-3.676
			c3.753,0,6.795,1.646,6.795,3.676C6.795-20.292,3.753-18.646,0-18.646z"/>
	</g>
	<path class="st17" d="M-34.862-21.48c-5.981,0-11.397-1.31-15.321-3.429l31.824-15.912c3.23,2.049,5.184,4.704,5.184,7.608
		C-13.174-26.733-22.884-21.48-34.862-21.48z"/>
	<path class="st17" d="M65.138,5.054c6.61,0,12.526,1.602,16.504,4.125L49.818,25.091c-3.933-2.124-6.367-5.06-6.367-8.304
		C43.45,10.307,53.16,5.054,65.138,5.054z"/>
	<ellipse class="st16" cx="24.979" cy="-9.685" rx="14.75" ry="7.98"/>
</symbol>
<symbol  id="grid2_9" viewBox="-100 -50 200 100">
	<polygon class="st5" points="100,0 0,-50 -100,0 0,50 	"/>
	<g>
		<polygon class="st1" points="50.076,24.999 0.076,0 -49.924,25 0.076,50 		"/>
		<polygon class="st1" points="50,-25 0,-50 -50,-25 0,0 		"/>
	</g>
</symbol>
<symbol  id="kusa04" viewBox="-99.384 -81.433 198.271 99.135">
	<g>
		<polygon class="st19" points="98.887,-31.866 -0.249,-81.433 -99.384,-31.865 -0.249,17.702 		"/>
	</g>
	<g>
		<g>
			<polygon class="st20" points="-0.728,-23.917 -8.779,-30.735 1.125,-56.586 8.628,-32.192 			"/>
			<polygon class="st20" points="-18.762,-15.412 -40.592,-33.346 -0.728,-23.917 -16.129,-17.457 			"/>
			<polygon class="st20" points="-5.68,-5.377 -27.41,-1.624 -0.728,-23.917 -5.68,-5.377 			"/>
			<polygon class="st20" points="2.719,-5.503 -0.728,-23.917 25.865,-1.216 2.719,-5.503 			"/>
			<polygon class="st20" points="21.947,-18.324 -0.728,-23.917 19.548,-31.484 39.819,-32 21.947,-18.324 			"/>
		</g>
		<polygon class="st21" points="5.691,-3.383 -10.566,4.74 -0.728,-23.917 		"/>
		<polygon class="st21" points="15.096,-9.584 -0.728,-23.917 39.331,-14.999 		"/>
		<polygon class="st21" points="19.302,-24.676 -0.728,-23.917 8.139,-38.695 27.504,-50.515 		"/>
		<polygon class="st21" points="-19.823,-25.691 -26.821,-50.515 -4.742,-36.179 -0.728,-23.917 		"/>
		<polygon class="st21" points="-13.52,-11.251 -0.728,-23.917 -38.176,-16.315 		"/>
	</g>
</symbol>
<symbol  id="rock1" viewBox="-99.384 -81.433 198.271 104.421">
	<g>
		<polygon class="st19" points="98.887,-31.866 -0.249,-81.433 -99.384,-31.865 -0.249,17.702 		"/>
	</g>
	<g>
		<g>
			<path class="st22" d="M-42.116-44.774c0,0,5.781,54.882,9.337,61.438s9.532,7.201,12.293,5.563
				c2.76-1.638,41.867-20.934,41.867-20.934l0.191-1.387c7.224-4.431,12.315-8.28,13.993-14.491c0,0-36.541-46.118-35.814-51.124
				L-42.116-44.774z"/>
		</g>
		<path class="st23" d="M-33.906,13.327c-3.528-13.677-8.209-58.101-8.209-58.101l41.867-20.934
			c-0.23,1.585,11.704,56.354,11.704,56.354C-20.188,1-33.906,13.327-33.906,13.327z"/>
		<path class="st24" d="M-0.249-65.708c0,0,5.781,54.882,9.337,61.438s9.532,7.201,12.293,5.563s2.454-5.943,2.454-5.943
			C38.332-1.494,40.511-37.15,41.618-44.774L-0.249-65.708z"/>
	</g>
</symbol>
<symbol  id="rock2" viewBox="-99.384 -81.433 198.271 99.135">
	<g>
		<polygon class="st19" points="98.887,-31.866 -0.249,-81.433 -99.384,-31.865 -0.249,17.702 		"/>
	</g>
	<g>
		<path class="st25" d="M56.475-20.752c-3.732,6.06-38.822,21.35-41.66,22.449c-2.961,1.146-6.69,0.3-10.793-1.561
			c0,0-17.369,9.414-21.781,11.206c-16.228,6.592-28.52-27.917-36.736-56.974l37.68-18.84L56.475-20.752z"/>
		<path class="st26" d="M3.487-21.285C-31.68-9.366-37.451-0.816-37.451-0.816c-6.876-11.539-12.568-28.98-17.045-44.816
			l37.68-18.84L3.487-21.285z"/>
		<path class="st26" d="M26.753-14.159c0,0,10.028-5.95,14.348-6.561l-10.337-5.15L26.753-14.159z"/>
		<path class="st27" d="M58.545-26.792c-2.879,14.988-13.246,10.839-24.52,3.87c-23.349,41.181-40.392-4.595-50.84-41.55
			L58.545-26.792z"/>
	</g>
</symbol>
<symbol  id="wood_x5F_bar" viewBox="-61.605 -89.338 91.97 109.928">
	<g id="新規シンボル_6_8_">
	</g>
	<g>
		<g>
			<g>
				<polygon class="st28" points="-25.568,16.671 -25.568,-71.067 -29.441,-72.992 -37.28,18.666 -33.407,20.591 				"/>
				<polygon class="st29" points="-29.441,14.747 -29.441,-72.992 -37.28,-69.072 -37.28,18.666 				"/>
			</g>
			<g>
				<polygon class="st28" points="7.276,0.325 7.276,-87.413 3.403,-89.338 -4.435,2.32 -0.562,4.245 				"/>
				<polygon class="st29" points="3.403,-1.599 3.403,-89.338 -4.435,-85.418 -4.435,2.32 				"/>
			</g>
		</g>
		<g>
			<polygon class="st30" points="30.364,-24.08 30.364,-42.096 26.491,-44.021 -61.605,18.044 -57.732,19.968 			"/>
			<polygon class="st31" points="26.491,-26.004 26.491,-44.021 -61.605,0.028 -61.605,18.044 			"/>
		</g>
		<g>
			<polygon class="st30" points="30.364,-54.235 30.364,-72.251 26.491,-74.175 -61.605,-12.111 -57.732,-10.186 			"/>
			<polygon class="st31" points="26.491,-56.159 26.491,-74.175 -61.605,-30.127 -61.605,-12.111 			"/>
		</g>
	</g>
	<g id="tile_x5F_rd_3_">
	</g>
	<g>
		<path class="st32" d="M-2.148-18.762c-1.004,0.643-1.818,0.169-1.818-1.058c0-1.227,0.814-2.743,1.818-3.386
			c1.004-0.643,1.818-0.169,1.818,1.058C-0.33-20.921-1.144-19.405-2.148-18.762z"/>
		<path class="st32" d="M-34.993-2.416c-1.004,0.643-1.818,0.169-1.818-1.058c0-1.227,0.814-2.743,1.818-3.386
			c1.004-0.643,1.818-0.169,1.818,1.058C-33.175-4.575-33.989-3.059-34.993-2.416z"/>
	</g>
	<g>
		<path class="st32" d="M-2.148-48.917c-1.004,0.643-1.818,0.169-1.818-1.058c0-1.227,0.814-2.743,1.818-3.386
			c1.004-0.643,1.818-0.169,1.818,1.058C-0.33-51.076-1.144-49.56-2.148-48.917z"/>
		<path class="st32" d="M-34.993-32.571c-1.004,0.643-1.818,0.169-1.818-1.058c0-1.227,0.814-2.743,1.818-3.386
			c1.004-0.643,1.818-0.169,1.818,1.058C-33.175-34.73-33.989-33.214-34.993-32.571z"/>
	</g>
</symbol>
<symbol  id="新規シンボル_1" viewBox="-49.895 -150.317 100 300">
	<polygon class="st33" points="-49.895,99.683 -49.895,49.683 50.105,99.683 50.105,149.683 	"/>
	<g>
		<g>
			<polygon class="st34" points="-49.895,-100.317 -49.895,-150.317 50.105,-100.317 50.105,-50.317 			"/>
			<polygon class="st35" points="-49.895,-50.317 -49.895,-100.317 50.105,-50.317 50.105,-0.317 			"/>
		</g>
	</g>
	<polygon class="st36" points="-49.895,-0.317 -49.895,-50.317 50.105,-0.317 50.105,49.683 	"/>
	<polygon class="st37" points="-49.895,49.683 -49.895,-0.317 50.105,49.683 50.105,99.683 	"/>
	<g id="新規シンボル_7_">
	</g>
	<g id="新規シンボル_6_">
	</g>
</symbol>
<symbol  id="新規シンボル_10_1_" viewBox="-50 -75 100 150">
	<g>
		<g>
			<polygon class="st38" points="50,25 50,-75 -50,-25 -50,75 			"/>
		</g>
		<g>
			<path class="st39" d="M50-2.543c-0.1-0.046-0.206-0.079-0.303-0.131C45.406-4.987,45.581-12.331,50-19.222V-2.543z"/>
			<path class="st39" d="M-50,30.803c0.106-0.165,0.201-0.33,0.312-0.495c4.715-7.004,12.05-10.715,16.386-8.319
				c4.321,2.388,4.05,9.954-0.607,16.931C-38.479,45.767-45.592,49.525-50,47.482V30.803z"/>
		</g>
	</g>
	<g id="新規シンボル_23_">
	</g>
	<g>
		<path class="st40" d="M12.023,5.325C8.772,3.026,4.346,3.279-0.1,5.535v0c0,0,0,0-0.001,0c0,0,0,0,0,0l0,0
			c-2.035,1.033-4.073,2.484-6.005,4.303v0c-1.896,1.786-3.693,3.913-5.278,6.359c-6.73,10.39-7.162,22.367-0.965,26.752
			c1.787,1.264,3.936,1.736,6.242,1.551v0.002c1.926-0.155,3.965-0.791,6.005-1.838l0,0c3.992-2.048,7.989-5.695,11.158-10.588
			C17.788,21.687,18.22,9.71,12.023,5.325z"/>
		<path class="st41" d="M32.288-39.939c2.048,1.239,5.236-0.232,7.122-3.284c1.885-3.052,1.754-6.531-0.294-7.769
			s-5.236,0.232-7.122,3.284C30.109-44.656,30.24-41.177,32.288-39.939z"/>
		<path class="st41" d="M26.117,9.244c2.048,1.239,5.236-0.232,7.122-3.284c1.886-3.052,1.754-6.531-0.293-7.769
			c-2.048-1.239-5.236,0.232-7.122,3.284C23.938,4.527,24.069,8.006,26.117,9.244z"/>
	</g>
	
		<ellipse transform="matrix(0.8468 -0.5319 0.5319 0.8468 5.0696 -13.5255)" class="st40" cx="-20.944" cy="-15.563" rx="13.715" ry="20.564"/>
	
		<ellipse transform="matrix(0.8468 -0.5319 0.5319 0.8468 11.0263 7.1555)" class="st40" cx="17.935" cy="-15.563" rx="9.405" ry="14.101"/>
	<g id="新規シンボル_16_2_">
		<g>
			<g>
				<g>
					<g>
						<path class="st39" d="M14.43-46.847c-2.644-1.48-3.447-5.03-2.488-9.124l20.887-10.443c0.664,3.24-0.417,7.683-3.214,11.88
							C25.28-48.029,18.481-44.578,14.43-46.847z"/>
						<path class="st39" d="M14.994,37.21c4.36-6.506,11.156-9.907,15.18-7.616c1.418,0.807,2.293,2.223,2.655,3.992L11.942,44.029
							C12.456,41.834,13.468,39.486,14.994,37.21z"/>
					</g>
				</g>
			</g>
		</g>
		<g id="新規シンボル_9_7_">
			<g id="新規シンボル_8_9_">
			</g>
			<g id="新規シンボル_10_11_">
				<g id="新規シンボル_10_">
				</g>
			</g>
		</g>
	</g>
</symbol>
<symbol  id="新規シンボル_11" viewBox="0.001 -150 49.999 275.001">
	<polygon class="st42" points="50,100 50,50 0.002,75 0.002,125 	"/>
	<g>
		<g>
			<polygon class="st34" points="50,-100 50,-150 0.001,-125 0.001,-75 			"/>
			<polygon class="st43" points="50,-50 50,-100 0.001,-75 0.001,-25 			"/>
		</g>
	</g>
	<polygon class="st44" points="50,0 50,-50 0.001,-25 0.001,25 	"/>
	<polygon class="st45" points="50,50 50,0 0.002,25 0.002,75 	"/>
	<g id="新規シンボル_2_2_">
		<g id="新規シンボル_3_3_">
		</g>
	</g>
</symbol>
<symbol  id="新規シンボル_12" viewBox="-25.092 -12.545 100.183 50.091">
	<g>
		<polygon class="st15" points="75.091,12.454 25.09,-12.545 -25.092,12.546 24.909,37.546 		"/>
		<g>
			<path class="st18" d="M34.421,10.749c-3.753,0-6.796-1.646-6.796-3.676s3.042-3.676,6.796-3.676c3.753,0,6.795,1.646,6.795,3.676
				S38.174,10.749,34.421,10.749z"/>
		</g>
		<path class="st17" d="M40.23,17.508c6.61,0,12.526,1.602,16.504,4.125L24.909,37.546c-3.933-2.124-6.367-5.06-6.367-8.304
			C18.542,22.761,28.252,17.508,40.23,17.508z"/>
		<path class="st16" d="M0.07,10.749c-5.672,0-10.59-1.734-13.057-4.274L7.931-3.974c4.135,1.414,6.889,3.902,6.889,6.744
			C14.82,7.176,8.216,10.749,0.07,10.749z"/>
	</g>
	<g id="新規シンボル_5_3_">
	</g>
</symbol>
<symbol  id="新規シンボル_14_1_" viewBox="-75.025 -37.5 150.049 75">
	<g>
		<polygon class="st15" points="25.024,-37.5 75.025,-12.5 -24.975,37.5 -75.025,12.475 		"/>
		<ellipse class="st16" cx="-14.301" cy="9.62" rx="21.51" ry="11.637"/>
		<g>
			<path class="st18" d="M34.355-14.206c-3.753,0-6.796-1.646-6.796-3.676s3.042-3.676,6.796-3.676c3.753,0,6.795,1.646,6.795,3.676
				S38.107-14.206,34.355-14.206z"/>
		</g>
		<path class="st17" d="M40.163-7.446c6.61,0,12.526,1.602,16.504,4.125L24.842,12.591c-3.933-2.124-6.367-5.06-6.367-8.304
			C18.475-2.193,28.185-7.446,40.163-7.446z"/>
		<path class="st16" d="M0.004-14.206c-5.672,0-10.59-1.734-13.057-4.274L7.864-28.929c4.135,1.414,6.889,3.902,6.889,6.744
			C14.754-17.778,8.15-14.206,0.004-14.206z"/>
	</g>
</symbol>
<symbol  id="新規シンボル_15" viewBox="-49.999 -74.966 49.716 124.908">
	<polygon class="st46" points="-49.999,25.034 -49.999,-74.966 -0.284,-50.058 -0.284,49.942 	"/>
	<g>
		<path class="st47" d="M-17.602-32.584c2.048,3.285,5.236,5.001,7.122,3.833c1.885-1.168,1.754-4.778-0.294-8.063
			c-2.048-3.285-5.236-5.001-7.122-3.833C-19.781-39.479-19.65-35.869-17.602-32.584z"/>
		<path class="st47" d="M-31.928,7.831c2.048,3.285,5.236,5.001,7.122,3.833c1.886-1.168,1.754-4.778-0.293-8.063
			c-2.048-3.285-5.236-5.001-7.122-3.833C-34.107,0.936-33.976,4.546-31.928,7.831z"/>
	</g>
	
		<ellipse transform="matrix(0.5302 -0.8479 0.8479 0.5302 4.1083 -37.6904)" class="st48" cx="-31.955" cy="-22.552" rx="15.213" ry="8.717"/>
	<path class="st47" d="M-49.999-19.655c3.835,7.048,3.89,14.377,0,17.004V-19.655z"/>
	<path class="st48" d="M-0.283,5.661V42.79c-2.035-1.033-4.074-2.484-6.006-4.304v0c-1.896-1.786-3.693-3.913-5.278-6.359
		c-6.73-10.39-7.162-22.367-0.965-26.752c1.787-1.264,3.936-1.736,6.242-1.551V3.823C-4.364,3.977-2.324,4.614-0.283,5.661z"/>
</symbol>
<symbol  id="新規シンボル_16" viewBox="-0.182 -75 50.182 125.091">
	<g>
		<polygon class="st38" points="50,25 50,-75 -0.182,-49.909 -0.182,50.091 		"/>
	</g>
	<g>
		<g>
			<g>
				<g>
					<path class="st39" d="M50-2.799c-0.1-0.046-0.206-0.079-0.303-0.131C45.406-5.243,45.581-12.587,50-19.478V-2.799z"/>
				</g>
				<g>
					<path class="st39" d="M14.43-46.847c-2.644-1.48-3.447-5.03-2.488-9.124l20.887-10.443c0.664,3.24-0.417,7.683-3.214,11.88
						C25.28-48.029,18.481-44.578,14.43-46.847z"/>
					<path class="st39" d="M14.994,37.21c4.36-6.506,11.156-9.907,15.18-7.616c1.418,0.807,2.293,2.223,2.655,3.992L11.942,44.029
						C12.456,41.834,13.468,39.486,14.994,37.21z"/>
				</g>
				<g>
					<path class="st41" d="M-0.182,18.916c0.113,0.05,0.231,0.088,0.34,0.146c4.222,2.26,4.038,9.564-0.34,16.48V18.916z"/>
					<path class="st41" d="M19.379,21.463c-1.852-1.001-1.736-4.267,0.257-7.29c1.991-3.02,5.1-4.65,6.945-3.646
						c1.842,1.003,1.727,4.259-0.256,7.275C24.339,20.822,21.229,22.463,19.379,21.463z"/>
					<path class="st41" d="M31.727-38.434c-1.839-1.029-1.724-4.281,0.255-7.259c1.977-2.975,5.064-4.546,6.895-3.513
						c1.829,1.032,1.715,4.273-0.254,7.244C36.651-38.987,33.564-37.406,31.727-38.434z"/>
				</g>
				<path class="st40" d="M4.908,7.892c-2.977-1.614-4.376-5.035-4.23-9.26c0,0,0,0,0,0l0,0C1.98-18.507,20.2-31.964,27.979-26.905
					c4.251,2.558,7.232,10.228-0.816,23.203C20.819,5.906,10.854,11.115,4.908,7.892z"/>
			</g>
		</g>
	</g>
	<g id="新規シンボル_9_4_">
		<g id="新規シンボル_8_6_">
		</g>
		<g id="新規シンボル_10_5_">
			<g id="新規シンボル_11_">
			</g>
		</g>
	</g>
</symbol>
<symbol  id="新規シンボル_17" viewBox="-99.771 -99.946 50.229 125.054">
	<g>
		<polygon class="st46" points="-99.771,0.054 -99.771,-99.946 -49.769,-74.946 -49.769,25.054 		"/>
	</g>
	<g>
		<g>
			<path class="st47" d="M-49.769-2.764c-3.739-6.4-3.685-13.479,0-16.711V-2.764z"/>
			<path class="st47" d="M-82.059-64.884c-2.048,1.239-5.236-0.232-7.122-3.284c-1.885-3.052-1.754-6.531,0.294-7.769
				s5.236,0.232,7.122,3.284C-79.88-69.601-80.011-66.123-82.059-64.884z"/>
			<path class="st47" d="M-67.733-10.153c-2.048,1.239-5.236-0.232-7.122-3.284c-1.886-3.052-1.754-6.531,0.293-7.769
				c2.048-1.239,5.236,0.232,7.122,3.284C-65.554-14.87-65.685-11.391-67.733-10.153z"/>
		</g>
		<g>
			<path class="st48" d="M-99.771-54.933c2.307,2.12,4.455,4.74,6.242,7.79c6.198,10.578,5.766,22.123-0.965,25.788
				c-1.585,0.863-3.382,1.194-5.278,1.085V-54.933z"/>
		</g>
		<g>
			<path class="st49" d="M-77.452-78.446c-2.448-4.179-3.812-8.505-4.152-12.416L-49.66-74.89c-0.448,3.883-2.138,7.01-5.06,8.601
				C-61.256-62.732-71.433-68.174-77.452-78.446z"/>
			<path class="st49" d="M-76.516-3.487c6.536-3.558,16.713,1.884,22.731,12.156c3.327,5.679,4.677,11.639,4.123,16.44
				L-81.605,9.137C-82.099,3.435-80.393-1.377-76.516-3.487z"/>
		</g>
		
			<ellipse transform="matrix(0.5319 -0.8468 0.8468 0.5319 2.6116 -76.2926)" class="st48" cx="-67.705" cy="-40.509" rx="14.101" ry="9.405"/>
	</g>
	<g id="新規シンボル_4_1_">
	</g>
</symbol>
<symbol  id="新規シンボル_18" viewBox="-100 -24.972 99.969 49.947">
	<polygon class="st15" points="-0.031,0.003 -49.981,-24.972 -100,0 -50.049,24.975 	"/>
	<path class="st17" d="M-50.049,24.975L-81.597,9.202c3.946-2.534,9.848-4.148,16.452-4.148c11.88,0,21.51,5.21,21.51,11.637
		C-43.634,19.934-46.092,22.865-50.049,24.975z"/>
	<g>
		<ellipse class="st18" cx="-27.931" cy="-0.967" rx="15.662" ry="8.473"/>
	</g>
	<g id="新規シンボル_5_5_">
	</g>
</symbol>
<symbol  id="新規シンボル_19_2_" viewBox="-0.229 -99.946 100.121 150">
	<polygon class="st38" points="99.891,0.054 99.891,-99.946 -0.109,-49.946 -0.109,50.054 	"/>
	<g id="新規シンボル_18_">
	</g>
	<g>
		<path class="st41" d="M32.288-39.939c2.048,1.239,5.236-0.232,7.122-3.284c1.885-3.052,1.754-6.531-0.294-7.769
			s-5.236,0.232-7.122,3.284C30.109-44.656,30.24-41.177,32.288-39.939z"/>
		<path class="st41" d="M17.962,14.793c2.048,1.239,5.236-0.232,7.122-3.284c1.886-3.052,1.754-6.531-0.293-7.769
			c-2.048-1.239-5.236,0.232-7.122,3.284C15.783,10.076,15.914,13.554,17.962,14.793z"/>
		<path class="st39" d="M27.681-53.5c2.448-4.179,3.812-8.505,4.152-12.416L-0.11-49.945c0.448,3.883,2.138,7.01,5.06,8.601
			C11.486-37.786,21.663-43.228,27.681-53.5z"/>
		<path class="st39" d="M26.746,21.458C20.21,17.9,10.033,23.342,4.014,33.614c-3.327,5.679-4.677,11.639-4.123,16.44l31.943-15.972
			C32.329,28.38,30.622,23.569,26.746,21.458z"/>
	</g>
	
		<ellipse transform="matrix(0.8468 -0.5319 0.5319 0.8468 11.0263 7.1555)" class="st40" cx="17.935" cy="-15.563" rx="9.405" ry="14.101"/>
	
		<ellipse transform="matrix(0.8468 -0.5319 0.5319 0.8468 46.9875 32.0071)" class="st40" cx="79.056" cy="-65.563" rx="13.715" ry="20.564"/>
	<path class="st40" d="M68.129-8.928C63.391-0.842,56.155,4.32,50,4.675v0c-1.896,0.109-3.693-0.223-5.278-1.085
		c-6.73-3.664-7.162-15.21-0.965-25.788c1.787-3.05,3.936-5.669,6.242-7.79v-0.002c5.693-5.231,12.375-7.334,17.164-4.727
		C73.894-31.052,74.326-19.506,68.129-8.928z"/>
	<g id="新規シンボル_9_2_">
		<g id="新規シンボル_8_4_">
		</g>
		<g id="新規シンボル_10_3_">
			<g id="新規シンボル_17_">
			</g>
		</g>
	</g>
	<g>
		<path class="st41" d="M-0.109,5.366c3.835,3.216,3.89,10.49,0,17.004V5.366z"/>
		<path class="st41" d="M99.891-27.63c-0.059,0.098-0.109,0.198-0.169,0.296c-4.346,7.035-11.695,10.424-16.414,7.569
			s-5.022-10.872-0.677-17.907c4.346-7.035,11.695-10.424,16.414-7.569c0.3,0.182,0.582,0.385,0.846,0.607V-27.63z"/>
	</g>
</symbol>
<symbol  id="新規シンボル_2" viewBox="-50.105 -150.317 100 300">
	<g>
		<g>
			<polygon class="st34" points="49.895,-100.317 49.895,-150.317 -50.105,-100.317 -50.105,-50.317 			"/>
			<polygon class="st43" points="49.895,-50.317 49.895,-100.317 -50.105,-50.317 -50.105,-0.317 			"/>
		</g>
	</g>
	<polygon class="st44" points="49.895,-0.317 49.895,-50.317 -50.105,-0.317 -50.105,49.683 	"/>
	<polygon class="st45" points="49.895,49.683 49.895,-0.317 -50.105,49.683 -50.105,99.683 	"/>
	<polygon class="st42" points="49.895,99.683 49.895,49.683 -50.105,99.683 -50.105,149.683 	"/>
	<g id="新規シンボル_3_4_">
	</g>
</symbol>
<symbol  id="新規シンボル_20" viewBox="49.709 -99.946 50.182 125.091">
	<g>
		<polygon class="st38" points="99.891,0.054 99.891,-99.946 49.709,-74.854 49.709,25.146 		"/>
	</g>
	<g id="新規シンボル_22_">
	</g>
	
		<ellipse transform="matrix(0.8468 -0.5319 0.5319 0.8468 46.9875 32.0071)" class="st40" cx="79.056" cy="-65.563" rx="13.715" ry="20.564"/>
	<g id="新規シンボル_9_9_">
		<g id="新規シンボル_8_11_">
		</g>
		<g id="新規シンボル_10_10_">
			<g id="新規シンボル_21_">
			</g>
		</g>
	</g>
	<g>
		<path class="st41" d="M99.891-27.63c-0.059,0.098-0.109,0.198-0.169,0.296c-4.346,7.035-11.695,10.424-16.414,7.569
			s-5.022-10.872-0.677-17.907c4.346-7.035,11.695-10.424,16.414-7.569c0.3,0.182,0.582,0.385,0.846,0.607V-27.63z"/>
	</g>
	<g id="新規シンボル_9_8_">
		<g id="新規シンボル_8_10_">
		</g>
		<g id="新規シンボル_10_9_">
			<g id="新規シンボル_20_">
			</g>
		</g>
	</g>
	<path class="st40" d="M49.709,4.675c2.307-2.12,4.455-4.74,6.243-7.79c6.198-10.578,5.766-22.123-0.965-25.788
		c-1.585-0.863-3.382-1.194-5.278-1.085L49.709,4.675z"/>
</symbol>
<symbol  id="新規シンボル_22" viewBox="-50 -75 100 150">
	<g id="新規シンボル_15_2_">
		<g>
			<polygon class="st46" points="-50,25 -50,-75 50,-25 50,75 			"/>
		</g>
		<g>
			<path class="st47" d="M-17.603-32.618c2.048,3.285,5.236,5.001,7.122,3.833c1.885-1.168,1.754-4.778-0.294-8.063
				c-2.048-3.285-5.236-5.001-7.122-3.833C-19.782-39.513-19.651-35.903-17.603-32.618z"/>
			<path class="st47" d="M-31.929,7.797c2.048,3.285,5.236,5.001,7.122,3.833c1.886-1.168,1.754-4.778-0.293-8.063
				c-2.048-3.285-5.236-5.001-7.122-3.833C-34.108,0.902-33.977,4.512-31.929,7.797z"/>
		</g>
		
			<ellipse transform="matrix(0.5302 -0.8479 0.8479 0.5302 4.1367 -37.7072)" class="st48" cx="-31.956" cy="-22.586" rx="15.213" ry="8.717"/>
		<path class="st47" d="M-50-19.689c3.835,7.048,3.89,14.377,0,17.004V-19.689z"/>
	</g>
	<g id="新規シンボル_21_2_">
		
			<ellipse transform="matrix(0.5302 -0.8479 0.8479 0.5302 20.5303 13.0358)" class="st49" cx="22.028" cy="-12.007" rx="22.185" ry="12.713"/>
		<path class="st48" d="M11.838,42.966c-3.25,2.299-7.676,2.046-12.122-0.21v0c0,0,0,0-0.001,0c0,0,0,0,0,0l0,0
			c-2.035-1.033-4.073-2.484-6.005-4.303v0c-1.896-1.786-3.693-3.913-5.278-6.359c-6.73-10.39-7.162-22.367-0.965-26.752
			c1.787-1.264,3.936-1.736,6.242-1.551V3.789c1.926,0.155,3.965,0.791,6.005,1.838v0c3.992,2.048,7.99,5.695,11.158,10.588
			C17.604,26.604,18.036,38.581,11.838,42.966z"/>
		<path class="st47" d="M50,30.094v17.153c-0.059,0.04-0.109,0.089-0.169,0.127c-4.346,2.692-11.695-1.263-16.414-8.833
			c-4.719-7.571-5.022-15.891-0.677-18.583c4.346-2.692,11.695,1.263,16.414,8.834c0.3,0.481,0.581,0.965,0.845,1.451v-0.149
			L50,30.094z"/>
	</g>
</symbol>
<symbol  id="新規シンボル_27" viewBox="-0.031 -49.972 150.049 75.063">
	<g id="grid2_2_9_">
		<g>
			<g>
				<polygon class="st15" points="100.018,-49.972 150.019,-24.972 50.019,25.028 -0.031,0.003 				"/>
			</g>
			<ellipse class="st16" cx="110.674" cy="-27.88" rx="21.51" ry="11.637"/>
			<g>
				<path class="st18" d="M59.33-1.705c-3.753,0-6.796-1.646-6.796-3.676s3.042-3.676,6.796-3.676c3.753,0,6.795,1.646,6.795,3.676
					S63.083-1.705,59.33-1.705z"/>
			</g>
			<path class="st17" d="M65.138,5.054c6.61,0,12.526,1.602,16.504,4.125L49.818,25.091c-3.933-2.124-6.367-5.06-6.367-8.304
				C43.45,10.307,53.16,5.054,65.138,5.054z"/>
			<path class="st16" d="M32.855-16.423c4.126,1.415,6.874,3.9,6.874,6.739c0,4.407-6.604,7.979-14.75,7.979
				c-5.666,0-10.579-1.73-13.05-4.266L32.855-16.423z"/>
		</g>
	</g>
	<g id="新規シンボル_24_1_">
		<g id="grid2_2_5_">
		</g>
		<g id="新規シンボル_14_2_">
		</g>
	</g>
</symbol>
<symbol  id="新規シンボル_3" viewBox="-50 -75 100 150">
	<g>
		<polygon class="st38" points="50,25 50,-75 -50,-25 -50,75 		"/>
	</g>
	<g>
		<g>
			<g>
				<g>
					<path class="st39" d="M50-2.799c-0.1-0.046-0.206-0.079-0.303-0.131C45.406-5.243,45.581-12.587,50-19.478V-2.799z"/>
					<path class="st39" d="M-50,30.522c0.106-0.165,0.201-0.33,0.312-0.495c4.715-7.004,12.05-10.715,16.386-8.319
						c4.321,2.388,4.05,9.954-0.607,16.931C-38.48,45.487-45.592,49.244-50,47.201V30.522z"/>
				</g>
				<g>
					<path class="st39" d="M27.608-53.463c2.448-4.179,3.812-8.505,4.152-12.416L-0.184-49.908c0.448,3.883,2.138,7.01,5.06,8.601
						C11.412-37.749,21.589-43.192,27.608-53.463z"/>
					<path class="st39" d="M14.994,37.21c4.36-6.506,11.156-9.907,15.18-7.616c1.418,0.807,2.293,2.223,2.655,3.992L11.942,44.029
						C12.456,41.834,13.468,39.486,14.994,37.21z"/>
				</g>
				<g>
					<path class="st39" d="M-5.174-10.599c6.386-9.57,6.754-19.95,0.825-23.227c-5.949-3.288-16.011,1.801-22.476,11.409
						c-6.49,9.643-6.865,20.129-0.836,23.379C-21.653,4.201-11.584-0.994-5.174-10.599z"/>
					<g>
						<path class="st41" d="M0.182,22.224c-0.059,0.098-0.109,0.198-0.169,0.296c-4.346,7.035-11.695,10.424-16.414,7.569
							s-5.022-10.872-0.677-17.907C-12.732,5.148-5.383,1.759-0.664,4.614c0.3,0.182,0.582,0.385,0.846,0.607
							C4.017,8.436,4.072,15.71,0.182,22.224z"/>
					</g>
					<path class="st41" d="M19.379,21.463c-1.852-1.001-1.736-4.267,0.257-7.29c1.991-3.02,5.1-4.65,6.945-3.646
						c1.842,1.003,1.727,4.259-0.256,7.275C24.339,20.822,21.229,22.463,19.379,21.463z"/>
					<path class="st41" d="M31.727-38.434c-1.839-1.029-1.724-4.281,0.255-7.259c1.977-2.975,5.064-4.546,6.895-3.513
						c1.829,1.032,1.715,4.273-0.254,7.244C36.651-38.987,33.564-37.406,31.727-38.434z"/>
				</g>
				<path class="st40" d="M12.868,4.419c-2.977-1.614-4.376-5.035-4.23-9.26c0,0,0,0,0,0l0,0C9.94-21.98,28.16-35.436,35.939-30.378
					c4.251,2.558,7.232,10.228-0.816,23.203C28.779,2.433,18.814,7.643,12.868,4.419z"/>
			</g>
		</g>
	</g>
	<g id="新規シンボル_30_1_">
	</g>
</symbol>
<symbol  id="新規シンボル_34" viewBox="-100.164 -24.972 100.133 49.947">
	<polygon class="st15" points="-0.031,0.003 -49.981,-24.972 -100,0 -50.049,24.975 	"/>
	<g id="新規シンボル_5_12_">
	</g>
	<g>
		<g>
			<g>
				<path class="st17" d="M-15.126,3.355c-11.88,0-21.51-5.21-21.51-11.637c0-2.854,1.906-5.464,5.058-7.489L-0.031,0.003
					C-3.914,2.074-9.242,3.355-15.126,3.355z"/>
				<g>
					<path class="st18" d="M-49.981,6.382c-3.753,0-6.795-1.646-6.795-3.676c0-2.03,3.042-3.676,6.795-3.676
						c3.753,0,6.795,1.646,6.795,3.676C-43.186,4.736-46.228,6.382-49.981,6.382z"/>
				</g>
				<path class="st17" d="M-84.843,3.548c-5.981,0-11.397-1.31-15.321-3.429l31.824-15.912c3.23,2.049,5.184,4.704,5.184,7.608
					C-63.155-1.705-72.865,3.548-84.843,3.548z"/>
				<path class="st16" d="M-25.002,7.364c2.866,0,5.532,0.449,7.796,1.215l-20.89,10.429c-1.052-1.098-1.656-2.342-1.656-3.664
					C-39.752,10.936-33.148,7.364-25.002,7.364z"/>
			</g>
		</g>
	</g>
</symbol>
<symbol  id="新規シンボル_4" viewBox="-25.001 -62.527 50.001 125">
	<g>
		<polygon class="st46" points="-25.001,37.473 -25.001,-62.527 25.001,-37.528 25.001,62.472 		"/>
	</g>
	<g>
		<g>
			
				<ellipse transform="matrix(0.5319 -0.8468 0.8468 0.5319 21.8887 -16.5821)" class="st48" cx="-4.055" cy="-28.091" rx="20.564" ry="13.715"/>
			<g>
				<path class="st47" d="M-8.307,17.708c-4.719,2.855-12.068-0.534-16.414-7.569c-0.089-0.144-0.164-0.29-0.249-0.434l0.019-16.807
					c0.283-0.243,0.582-0.469,0.906-0.665c4.719-2.855,12.068,0.534,16.414,7.569C-3.285,6.836-3.588,14.853-8.307,17.708z"/>
			</g>
			<g>
				<path class="st48" d="M25.001,42.147c-6.155-0.354-13.391-5.517-18.129-13.603C0.674,17.966,1.106,6.421,7.836,2.756
					c4.789-2.607,11.471-0.505,17.164,4.727V42.147z"/>
			</g>
		</g>
	</g>
</symbol>
<symbol  id="新規シンボル_6" viewBox="-24.999 -137.5 49.999 275.001">
	<polygon class="st33" points="-24.999,112.5 -24.999,62.5 24.999,87.5 24.999,137.5 	"/>
	<g>
		<g>
			<polygon class="st34" points="-24.999,-87.5 -24.999,-137.5 24.999,-112.5 24.999,-62.5 			"/>
			<polygon class="st35" points="-24.999,-37.5 -24.999,-87.5 24.999,-62.5 24.999,-12.5 			"/>
		</g>
	</g>
	<polygon class="st36" points="-24.999,12.5 -24.999,-37.5 24.999,-12.5 24.999,37.5 	"/>
	<polygon class="st37" points="-24.999,62.5 -24.999,12.5 24.999,37.5 24.999,87.5 	"/>
</symbol>
<symbol  id="新規シンボル_7_3_" viewBox="-100 -24.972 150.019 74.972">
	<polygon class="st15" points="50.019,25.028 -49.981,-24.972 -100,0 0,50 	"/>
	<ellipse class="st16" cx="10.674" cy="22.12" rx="21.51" ry="11.637"/>
	<path class="st17" d="M-50.049,24.975L-81.597,9.202c3.946-2.534,9.848-4.148,16.452-4.148c11.88,0,21.51,5.21,21.51,11.637
		C-43.634,19.934-46.092,22.865-50.049,24.975z"/>
	<g>
		<ellipse class="st18" cx="-27.931" cy="-0.967" rx="15.662" ry="8.473"/>
	</g>
</symbol>
<symbol  id="新規シンボル_8_1_" viewBox="-75.091 -37.546 150.182 75.091">
	<g>
		<polygon class="st15" points="75.091,12.454 -24.909,-37.546 -75.091,-12.454 24.909,37.546 		"/>
		<path class="st17" d="M9.947-9.219c-11.88,0-21.51-5.21-21.51-11.637c0-2.854,1.906-5.464,5.058-7.489L25.042-12.57
			C21.158-10.499,15.831-9.219,9.947-9.219z"/>
		<g>
			<path class="st18" d="M34.421,10.749c-3.753,0-6.796-1.646-6.796-3.676s3.042-3.676,6.796-3.676c3.753,0,6.795,1.646,6.795,3.676
				S38.174,10.749,34.421,10.749z"/>
			<path class="st18" d="M-24.909-6.192c-3.753,0-6.795-1.646-6.795-3.676c0-2.03,3.042-3.676,6.795-3.676
				c3.753,0,6.795,1.646,6.795,3.676C-18.113-7.838-21.156-6.192-24.909-6.192z"/>
		</g>
		<path class="st17" d="M-59.77-9.026c-5.981,0-11.397-1.31-15.321-3.429l31.824-15.912c3.23,2.049,5.184,4.704,5.184,7.608
			C-38.082-14.279-47.792-9.026-59.77-9.026z"/>
		<path class="st17" d="M40.23,17.508c6.61,0,12.526,1.602,16.504,4.125L24.909,37.546c-3.933-2.124-6.367-5.06-6.367-8.304
			C18.542,22.761,28.252,17.508,40.23,17.508z"/>
		<ellipse class="st16" cx="0.07" cy="2.77" rx="14.75" ry="7.98"/>
	</g>
</symbol>
<g id="field">
	<g>
		<defs>
			<rect id="SVGID_1_" width="3600" height="1800"/>
		</defs>
		<clipPath id="SVGID_2_">
			<use xlink:href="#SVGID_1_"  style="overflow:visible;"/>
		</clipPath>
		<g class="st50">
			<polygon class="st51" points="4500.837,906.892 1800.837,2256.892 -899.163,906.892 1800.837,-443.108 			"/>
		</g>
		<g class="st50">
			
				<use xlink:href="#_x33_block_x5F_1_2"  width="300.055" height="750.009" x="-150.055" y="-600" transform="matrix(1 0 0 -1 1799.8575 -0.1275)" style="overflow:visible;"/>
		</g>
		<g class="st50">
			
				<use xlink:href="#_x33_block_x5F_2_2"  width="300.057" height="750" x="-150.001" y="-600" transform="matrix(1 0 0 -1 1599.8754 49.8444)" style="overflow:visible;"/>
			
				<use xlink:href="#_x33_block_x5F_1_2"  width="300.055" height="750.009" x="-150.055" y="-600" transform="matrix(1 0 0 -1 1449.8741 124.844)" style="overflow:visible;"/>
			
				<use xlink:href="#_x33_block_x5F_2_2"  width="300.057" height="750" x="-150.001" y="-600" transform="matrix(1 0 0 -1 1299.873 199.8436)" style="overflow:visible;"/>
			
				<use xlink:href="#_x33_block_x5F_1_2"  width="300.055" height="750.009" x="-150.055" y="-600" transform="matrix(1 0 0 -1 1150.2949 274.8718)" style="overflow:visible;"/>
			
				<use xlink:href="#_x33_block_x5F_2_2"  width="300.057" height="750" x="-150.001" y="-600" transform="matrix(1 0 0 -1 1000.2937 349.8714)" style="overflow:visible;"/>
			
				<use xlink:href="#_x33_block_x5F_1_2"  width="300.055" height="750.009" x="-150.055" y="-600" transform="matrix(1 0 0 -1 850.2372 424.8992)" style="overflow:visible;"/>
			
				<use xlink:href="#_x33_block_x5F_2_2"  width="300.057" height="750" x="-150.001" y="-600" transform="matrix(1 0 0 -1 700.236 499.8988)" style="overflow:visible;"/>
			
				<use xlink:href="#_x33_block_x5F_1_2"  width="300.055" height="750.009" x="-150.055" y="-600" transform="matrix(1 0 0 -1 550.2348 574.8984)" style="overflow:visible;"/>
			
				<use xlink:href="#_x33_block_x5F_2_2"  width="300.057" height="750" x="-150.001" y="-600" transform="matrix(1 0 0 -1 400.2336 649.898)" style="overflow:visible;"/>
			
				<use xlink:href="#_x33_block_x5F_1_2"  width="300.055" height="750.009" x="-150.055" y="-600" transform="matrix(1 0 0 -1 250.2324 724.8976)" style="overflow:visible;"/>
			
				<use xlink:href="#_x33_block_x5F_2_2"  width="300.057" height="750" x="-150.001" y="-600" transform="matrix(1 0 0 -1 100.2324 799.8976)" style="overflow:visible;"/>
			<g>
				<g>
					<g>
						<g>
							<g>
								
									<use xlink:href="#_x33_block_x5F_2_2"  width="300.057" height="750" x="-150.001" y="-600" transform="matrix(1 0 0 -1 1949.8567 74.8725)" style="overflow:visible;"/>
							</g>
							
								<use xlink:href="#_x33_block_x5F_1_2"  width="300.055" height="750.009" x="-150.055" y="-600" transform="matrix(1 0 0 -1 2099.8547 149.8721)" style="overflow:visible;"/>
							<g>
								
									<use xlink:href="#_x33_block_x5F_2_2"  width="300.057" height="750" x="-150.001" y="-600" transform="matrix(1 0 0 -1 2249.855 224.8724)" style="overflow:visible;"/>
							</g>
							
								<use xlink:href="#_x33_block_x5F_1_2"  width="300.055" height="750.009" x="-150.055" y="-600" transform="matrix(1 0 0 -1 2399.853 299.8721)" style="overflow:visible;"/>
							
								<use xlink:href="#_x33_block_x5F_2_2"  width="300.057" height="750" x="-150.001" y="-600" transform="matrix(1 0 0 -1 2549.8533 374.8724)" style="overflow:visible;"/>
						</g>
						<g>
							
								<use xlink:href="#_x33_block_x5F_1_2"  width="300.055" height="750.009" x="-150.055" y="-600" transform="matrix(1 0 0 -1 2699.8513 449.872)" style="overflow:visible;"/>
							
								<use xlink:href="#_x33_block_x5F_2_2"  width="300.057" height="750" x="-150.001" y="-600" transform="matrix(1 0 0 -1 2849.8516 524.8724)" style="overflow:visible;"/>
						</g>
						<g>
							
								<use xlink:href="#_x33_block_x5F_1_2"  width="300.055" height="750.009" x="-150.055" y="-600" transform="matrix(1 0 0 -1 2999.8496 599.872)" style="overflow:visible;"/>
							
								<use xlink:href="#_x33_block_x5F_2_2"  width="300.057" height="750" x="-150.001" y="-600" transform="matrix(1 0 0 -1 3149.8499 674.8723)" style="overflow:visible;"/>
						</g>
						<g>
							
								<use xlink:href="#_x33_block_x5F_1_2"  width="300.055" height="750.009" x="-150.055" y="-600" transform="matrix(1 0 0 -1 3299.8479 749.8719)" style="overflow:visible;"/>
							
								<use xlink:href="#_x33_block_x5F_2_2"  width="300.057" height="750" x="-150.001" y="-600" transform="matrix(1 0 0 -1 3449.8484 824.8723)" style="overflow:visible;"/>
						</g>
					</g>
					<g>
						
							<use xlink:href="#grid2_9"  width="200" height="100" x="-100" y="-50" transform="matrix(1 0 0 -1 699.8174 299.8712)" style="overflow:visible;"/>
						
							<use xlink:href="#grid2_9"  width="200" height="100" x="-100" y="-50" transform="matrix(1 0 0 -1 799.8174 249.8712)" style="overflow:visible;"/>
						
							<use xlink:href="#grid2_9"  width="200" height="100" x="-100" y="-50" transform="matrix(1 0 0 -1 899.8739 199.8435)" style="overflow:visible;"/>
						
							<use xlink:href="#grid2_9"  width="200" height="100" x="-100" y="-50" transform="matrix(1 0 0 -1 999.874 149.8435)" style="overflow:visible;"/>
						
							<use xlink:href="#grid2_9"  width="200" height="100" x="-100" y="-50" transform="matrix(1 0 0 -1 1099.874 99.8435)" style="overflow:visible;"/>
						
							<use xlink:href="#grid2_9"  width="200" height="100" x="-100" y="-50" transform="matrix(1 0 0 -1 1199.8741 49.8436)" style="overflow:visible;"/>
						
							<use xlink:href="#grid2_9"  width="200" height="100" x="-100" y="-50" transform="matrix(1 0 0 -1 1299.8741 -0.1564)" style="overflow:visible;"/>
						
							<use xlink:href="#grid2_9"  width="200" height="100" x="-100" y="-50" transform="matrix(1 0 0 -1 599.7599 349.8987)" style="overflow:visible;"/>
						
							<use xlink:href="#grid2_9"  width="200" height="100" x="-100" y="-50" transform="matrix(1 0 0 -1 499.2946 399.8712)" style="overflow:visible;"/>
						
							<use xlink:href="#grid2_9"  width="200" height="100" x="-100" y="-50" transform="matrix(1 0 0 -1 399.2371 449.8987)" style="overflow:visible;"/>
						
							<use xlink:href="#grid2_9"  width="200" height="100" x="-100" y="-50" transform="matrix(1 0 0 -1 298.7152 499.899)" style="overflow:visible;"/>
						
							<use xlink:href="#grid2_9"  width="200" height="100" x="-100" y="-50" transform="matrix(1 0 0 -1 198.6578 549.9265)" style="overflow:visible;"/>
						
							<use xlink:href="#grid2_9"  width="200" height="100" x="-100" y="-50" transform="matrix(1 0 0 -1 98.7141 599.8987)" style="overflow:visible;"/>
						
							<use xlink:href="#grid2_9"  width="200" height="100" x="-100" y="-50" transform="matrix(1 0 0 -1 -1.3433 649.9261)" style="overflow:visible;"/>
						
							<use xlink:href="#grid2_9"  width="200" height="100" x="-100" y="-50" transform="matrix(1 0 0 -1 699.8184 199.8714)" style="overflow:visible;"/>
						
							<use xlink:href="#grid2_9"  width="200" height="100" x="-100" y="-50" transform="matrix(1 0 0 -1 799.8185 149.8715)" style="overflow:visible;"/>
						
							<use xlink:href="#grid2_9"  width="200" height="100" x="-100" y="-50" transform="matrix(1 0 0 -1 899.875 99.8437)" style="overflow:visible;"/>
						
							<use xlink:href="#grid2_9"  width="200" height="100" x="-100" y="-50" transform="matrix(1 0 0 -1 999.8751 49.8437)" style="overflow:visible;"/>
						
							<use xlink:href="#grid2_9"  width="200" height="100" x="-100" y="-50" transform="matrix(1 0 0 -1 1099.8751 -0.1562)" style="overflow:visible;"/>
						
							<use xlink:href="#grid2_9"  width="200" height="100" x="-100" y="-50" transform="matrix(1 0 0 -1 599.761 249.8989)" style="overflow:visible;"/>
						
							<use xlink:href="#grid2_9"  width="200" height="100" x="-100" y="-50" transform="matrix(1 0 0 -1 499.2956 299.8715)" style="overflow:visible;"/>
						
							<use xlink:href="#grid2_9"  width="200" height="100" x="-100" y="-50" transform="matrix(1 0 0 -1 399.2382 349.899)" style="overflow:visible;"/>
						
							<use xlink:href="#grid2_9"  width="200" height="100" x="-100" y="-50" transform="matrix(1 0 0 -1 298.7163 399.8993)" style="overflow:visible;"/>
						
							<use xlink:href="#grid2_9"  width="200" height="100" x="-100" y="-50" transform="matrix(1 0 0 -1 198.6589 449.9268)" style="overflow:visible;"/>
						
							<use xlink:href="#grid2_9"  width="200" height="100" x="-100" y="-50" transform="matrix(1 0 0 -1 98.7152 499.8989)" style="overflow:visible;"/>
						
							<use xlink:href="#grid2_9"  width="200" height="100" x="-100" y="-50" transform="matrix(1 0 0 -1 -1.3422 549.9265)" style="overflow:visible;"/>
						
							<use xlink:href="#grid2_10"  width="150.182" height="75.091" x="-50.183" y="-50" transform="matrix(1 0 0 -1 599.8185 149.8714)" style="overflow:visible;"/>
						
							<use xlink:href="#grid2_10"  width="150.182" height="75.091" x="-50.183" y="-50" transform="matrix(1 0 0 -1 699.8185 99.8714)" style="overflow:visible;"/>
						
							<use xlink:href="#grid2_10"  width="150.182" height="75.091" x="-50.183" y="-50" transform="matrix(1 0 0 -1 799.8751 49.8437)" style="overflow:visible;"/>
						
							<use xlink:href="#grid2_10"  width="150.182" height="75.091" x="-50.183" y="-50" transform="matrix(1 0 0 -1 899.8751 -0.1563)" style="overflow:visible;"/>
						
							<use xlink:href="#grid2_10"  width="150.182" height="75.091" x="-50.183" y="-50" transform="matrix(1 0 0 -1 499.761 199.8989)" style="overflow:visible;"/>
						
							<use xlink:href="#grid2_10"  width="150.182" height="75.091" x="-50.183" y="-50" transform="matrix(1 0 0 -1 399.2957 249.8714)" style="overflow:visible;"/>
						
							<use xlink:href="#grid2_10"  width="150.182" height="75.091" x="-50.183" y="-50" transform="matrix(1 0 0 -1 299.2383 299.8989)" style="overflow:visible;"/>
						
							<use xlink:href="#grid2_10"  width="150.182" height="75.091" x="-50.183" y="-50" transform="matrix(1 0 0 -1 198.7164 349.8992)" style="overflow:visible;"/>
						
							<use xlink:href="#grid2_10"  width="150.182" height="75.091" x="-50.183" y="-50" transform="matrix(1 0 0 -1 98.6589 399.9267)" style="overflow:visible;"/>
						
							<use xlink:href="#grid2_10"  width="150.182" height="75.091" x="-50.183" y="-50" transform="matrix(1 0 0 -1 -1.2847 449.8989)" style="overflow:visible;"/>
					</g>
					
						<use xlink:href="#grid2_9"  width="200" height="100" x="-100" y="-50" transform="matrix(1 0 0 -1 3649.8469 724.8718)" style="overflow:visible;"/>
					
						<use xlink:href="#grid2_9"  width="200" height="100" x="-100" y="-50" transform="matrix(1 0 0 -1 3549.8469 674.8718)" style="overflow:visible;"/>
					
						<use xlink:href="#grid2_9"  width="200" height="100" x="-100" y="-50" transform="matrix(1 0 0 -1 3449.8469 624.8718)" style="overflow:visible;"/>
					
						<use xlink:href="#grid2_9"  width="200" height="100" x="-100" y="-50" transform="matrix(1 0 0 -1 3349.8469 574.8718)" style="overflow:visible;"/>
					
						<use xlink:href="#grid2_9"  width="200" height="100" x="-100" y="-50" transform="matrix(1 0 0 -1 3249.8472 524.8717)" style="overflow:visible;"/>
					
						<use xlink:href="#grid2_9"  width="200" height="100" x="-100" y="-50" transform="matrix(1 0 0 -1 3149.8472 474.8717)" style="overflow:visible;"/>
					
						<use xlink:href="#grid2_9"  width="200" height="100" x="-100" y="-50" transform="matrix(1 0 0 -1 3049.8472 424.8716)" style="overflow:visible;"/>
					
						<use xlink:href="#grid2_9"  width="200" height="100" x="-100" y="-50" transform="matrix(1 0 0 -1 2949.8472 374.8716)" style="overflow:visible;"/>
					
						<use xlink:href="#grid2_9"  width="200" height="100" x="-100" y="-50" transform="matrix(1 0 0 -1 2849.8474 324.8716)" style="overflow:visible;"/>
					
						<use xlink:href="#grid2_9"  width="200" height="100" x="-100" y="-50" transform="matrix(1 0 0 -1 2749.8474 274.8716)" style="overflow:visible;"/>
					
						<use xlink:href="#grid2_9"  width="200" height="100" x="-100" y="-50" transform="matrix(1 0 0 -1 2649.8474 224.8715)" style="overflow:visible;"/>
					
						<use xlink:href="#grid2_9"  width="200" height="100" x="-100" y="-50" transform="matrix(1 0 0 -1 2549.8474 174.8715)" style="overflow:visible;"/>
					
						<use xlink:href="#grid2_9"  width="200" height="100" x="-100" y="-50" transform="matrix(1 0 0 -1 2449.8477 124.8715)" style="overflow:visible;"/>
					
						<use xlink:href="#grid2_9"  width="200" height="100" x="-100" y="-50" transform="matrix(1 0 0 -1 3649.8469 624.8718)" style="overflow:visible;"/>
					
						<use xlink:href="#grid2_9"  width="200" height="100" x="-100" y="-50" transform="matrix(1 0 0 -1 3549.8469 574.8718)" style="overflow:visible;"/>
					
						<use xlink:href="#grid2_9"  width="200" height="100" x="-100" y="-50" transform="matrix(1 0 0 -1 3449.8472 524.8718)" style="overflow:visible;"/>
					
						<use xlink:href="#grid2_9"  width="200" height="100" x="-100" y="-50" transform="matrix(1 0 0 -1 3349.8472 474.8717)" style="overflow:visible;"/>
					
						<use xlink:href="#grid2_9"  width="200" height="100" x="-100" y="-50" transform="matrix(1 0 0 -1 3249.8472 424.8717)" style="overflow:visible;"/>
					
						<use xlink:href="#grid2_9"  width="200" height="100" x="-100" y="-50" transform="matrix(1 0 0 -1 3149.8472 374.8716)" style="overflow:visible;"/>
					
						<use xlink:href="#grid2_9"  width="200" height="100" x="-100" y="-50" transform="matrix(1 0 0 -1 3049.8474 324.8716)" style="overflow:visible;"/>
					
						<use xlink:href="#grid2_9"  width="200" height="100" x="-100" y="-50" transform="matrix(1 0 0 -1 2949.8474 274.8716)" style="overflow:visible;"/>
					
						<use xlink:href="#grid2_9"  width="200" height="100" x="-100" y="-50" transform="matrix(1 0 0 -1 2849.8474 224.8716)" style="overflow:visible;"/>
					
						<use xlink:href="#grid2_9"  width="200" height="100" x="-100" y="-50" transform="matrix(1 0 0 -1 2749.8474 174.8715)" style="overflow:visible;"/>
					
						<use xlink:href="#grid2_9"  width="200" height="100" x="-100" y="-50" transform="matrix(1 0 0 -1 2649.8477 124.8715)" style="overflow:visible;"/>
					
						<use xlink:href="#grid2_9"  width="200" height="100" x="-100" y="-50" transform="matrix(1 0 0 -1 2349.8477 74.8715)" style="overflow:visible;"/>
					
						<use xlink:href="#grid2_9"  width="200" height="100" x="-100" y="-50" transform="matrix(1 0 0 -1 2549.8477 74.8715)" style="overflow:visible;"/>
					
						<use xlink:href="#grid2_9"  width="200" height="100" x="-100" y="-50" transform="matrix(1 0 0 -1 2249.8477 24.8715)" style="overflow:visible;"/>
					
						<use xlink:href="#grid2_9"  width="200" height="100" x="-100" y="-50" transform="matrix(1 0 0 -1 2449.8477 24.8715)" style="overflow:visible;"/>
					
						<use xlink:href="#grid2_9"  width="200" height="100" x="-100" y="-50" transform="matrix(1 0 0 -1 2149.8479 -25.1285)" style="overflow:visible;"/>
					
						<use xlink:href="#grid2_9"  width="200" height="100" x="-100" y="-50" transform="matrix(1 0 0 -1 2349.8479 -25.1285)" style="overflow:visible;"/>
					
						<use xlink:href="#grid2_9"  width="200" height="100" x="-100" y="-50" transform="matrix(1 0 0 -1 3649.8472 524.8718)" style="overflow:visible;"/>
					
						<use xlink:href="#grid2_9"  width="200" height="100" x="-100" y="-50" transform="matrix(1 0 0 -1 3549.8472 474.8718)" style="overflow:visible;"/>
					
						<use xlink:href="#grid2_9"  width="200" height="100" x="-100" y="-50" transform="matrix(1 0 0 -1 3449.8472 424.8718)" style="overflow:visible;"/>
					
						<use xlink:href="#grid2_9"  width="200" height="100" x="-100" y="-50" transform="matrix(1 0 0 -1 3349.8472 374.8717)" style="overflow:visible;"/>
					
						<use xlink:href="#grid2_9"  width="200" height="100" x="-100" y="-50" transform="matrix(1 0 0 -1 3249.8474 324.8717)" style="overflow:visible;"/>
					
						<use xlink:href="#grid2_9"  width="200" height="100" x="-100" y="-50" transform="matrix(1 0 0 -1 3149.8474 274.8716)" style="overflow:visible;"/>
					
						<use xlink:href="#grid2_9"  width="200" height="100" x="-100" y="-50" transform="matrix(1 0 0 -1 3049.8474 224.8716)" style="overflow:visible;"/>
					
						<use xlink:href="#grid2_9"  width="200" height="100" x="-100" y="-50" transform="matrix(1 0 0 -1 2949.8474 174.8716)" style="overflow:visible;"/>
					
						<use xlink:href="#grid2_9"  width="200" height="100" x="-100" y="-50" transform="matrix(1 0 0 -1 2849.8477 124.8716)" style="overflow:visible;"/>
					
						<use xlink:href="#grid2_9"  width="200" height="100" x="-100" y="-50" transform="matrix(1 0 0 -1 2749.8477 74.8715)" style="overflow:visible;"/>
					
						<use xlink:href="#grid2_9"  width="200" height="100" x="-100" y="-50" transform="matrix(1 0 0 -1 2649.8477 24.8715)" style="overflow:visible;"/>
					
						<use xlink:href="#grid2_9"  width="200" height="100" x="-100" y="-50" transform="matrix(1 0 0 -1 2549.8479 -25.1285)" style="overflow:visible;"/>
					
						<use xlink:href="#grid2_9"  width="200" height="100" x="-100" y="-50" transform="matrix(1 0 0 -1 2449.8479 -75.1285)" style="overflow:visible;"/>
				</g>
			</g>
		</g>
	</g>
	<g id="新規シンボル_1_2_">
		<g id="新規シンボル_1_">
		</g>
		<g id="新規シンボル">
		</g>
	</g>
	<g id="新規シンボル_19_1_">
		<g id="新規シンボル_12_">
		</g>
		<g id="新規シンボル_9_3_">
			<g id="新規シンボル_8_5_">
			</g>
			<g id="新規シンボル_10_4_">
				<g id="新規シンボル_9_">
				</g>
			</g>
		</g>
	</g>
	<g id="新規シンボル_19">
		<g id="新規シンボル_8_">
		</g>
		<g id="新規シンボル_9">
			<g id="新規シンボル_8">
			</g>
			<g id="新規シンボル_10">
				<g id="新規シンボル_2_">
				</g>
			</g>
		</g>
	</g>
	<g id="新規シンボル_13_">
	</g>
</g>
<g id="山">
	<g id="_x33_block_x5F_2_1_">
		<g id="新規シンボル_1_1_">
			<g id="新規シンボル_6_17_">
			</g>
			<g id="新規シンボル_20_3_">
				<g id="新規シンボル_6_16_">
				</g>
			</g>
			<g id="新規シンボル_6_15_">
			</g>
			<g id="新規シンボル_6_14_">
			</g>
		</g>
		<g id="新規シンボル_6_13_">
		</g>
		<g id="新規シンボル_20_2_">
			<g id="新規シンボル_6_12_">
			</g>
		</g>
		<g id="新規シンボル_6_11_">
		</g>
		<g id="新規シンボル_6_10_">
		</g>
	</g>
	<g id="grid2_7">
		<g id="新規シンボル_7">
		</g>
	</g>
	<g id="grid2_8">
	</g>
	<g id="新規シンボル_24">
		<g id="grid2_2">
		</g>
		<g id="新規シンボル_14">
		</g>
		<g id="grid2_7_1_">
			<g id="新規シンボル_7_2_">
			</g>
		</g>
		<g id="新規シンボル_29">
		</g>
	</g>
	<g>
		<g>
			<g>
				<g>
					
						<use xlink:href="#新規シンボル_17"  width="50.229" height="125.054" x="-99.771" y="-99.946" transform="matrix(1 0 0 -1 1599.6638 949.5522)" style="overflow:visible;"/>
					
						<use xlink:href="#新規シンボル_20"  width="50.182" height="125.091" x="49.709" y="-99.946" transform="matrix(1 0 0 -1 1550.1843 924.6434)" style="overflow:visible;"/>
					<g>
						<g>
							<g>
								<g>
									
										<use xlink:href="#新規シンボル_4"  width="50.001" height="125" x="-25.001" y="-62.527" transform="matrix(1 0 0 -1 1574.8926 961.9703)" style="overflow:visible;"/>
								</g>
							</g>
						</g>
					</g>
				</g>
				
					<use xlink:href="#grid2_7_2_"  width="150.182" height="75.091" x="-50.183" y="-50" transform="matrix(1 0 0 -1 1599.8933 949.4977)" style="overflow:visible;"/>
				<g>
					<g>
						<g>
							<g>
								<g>
									
										<use xlink:href="#新規シンボル_10_1_"  width="100" height="150" id="XMLID_7_" x="-50" y="-75" transform="matrix(1 0 0 -1 1999.7214 999.7826)" style="overflow:visible;"/>
								</g>
								<g>
									
										<use xlink:href="#新規シンボル_10_1_"  width="100" height="150" id="XMLID_14_" x="-50" y="-75" transform="matrix(1 0 0 -1 1899.7214 949.7826)" style="overflow:visible;"/>
								</g>
								
									<use xlink:href="#新規シンボル_15"  width="49.716" height="124.908" x="-49.999" y="-74.966" transform="matrix(1 0 0 -1 1899.8235 949.6332)" style="overflow:visible;"/>
								<g>
									<g>
										<g>
											<g>
												<g>
													<g>
														
															<use xlink:href="#grid2_2_1_"  width="200" height="100" x="-100" y="-50" transform="matrix(1 0 0 -1 1399.8936 749.4976)" style="overflow:visible;"/>
													</g>
												</g>
												<g>
													<g>
														
															<use xlink:href="#grid2_2_1_"  width="200" height="100" x="-100" y="-50" transform="matrix(1 0 0 -1 1699.8934 899.4977)" style="overflow:visible;"/>
													</g>
												</g>
												<g>
													<g>
														
															<use xlink:href="#新規シンボル_7_3_"  width="150.019" height="74.972" x="-100" y="-24.972" transform="matrix(1 0 0 -1 1899.8323 899.6277)" style="overflow:visible;"/>
													</g>
												</g>
												<g>
													<g>
														
															<use xlink:href="#新規シンボル_7_3_"  width="150.019" height="74.972" x="-100" y="-24.972" transform="matrix(1 0 0 -1 1799.8931 949.4979)" style="overflow:visible;"/>
													</g>
												</g>
											</g>
											<g>
												<g>
													<g>
														
															<use xlink:href="#grid2_2_1_"  width="200" height="100" x="-100" y="-50" transform="matrix(1 0 0 -1 1499.8937 699.4976)" style="overflow:visible;"/>
													</g>
												</g>
												<g>
													<g>
														
															<use xlink:href="#grid2_2_1_"  width="200" height="100" x="-100" y="-50" transform="matrix(1 0 0 -1 1599.8936 749.4976)" style="overflow:visible;"/>
													</g>
												</g>
												<g>
													<g>
														
															<use xlink:href="#grid2_2_1_"  width="200" height="100" x="-100" y="-50" transform="matrix(1 0 0 -1 1699.8936 799.4977)" style="overflow:visible;"/>
													</g>
												</g>
												<g>
													<g>
														
															<use xlink:href="#grid2_2_1_"  width="200" height="100" x="-100" y="-50" transform="matrix(1 0 0 -1 1799.8934 849.4977)" style="overflow:visible;"/>
													</g>
												</g>
											</g>
											<g>
												<g>
													<g>
														
															<use xlink:href="#grid2_2_1_"  width="200" height="100" x="-100" y="-50" transform="matrix(1 0 0 -1 1599.8937 649.4976)" style="overflow:visible;"/>
													</g>
												</g>
											</g>
											<g>
												<g>
													<g>
														
															<use xlink:href="#grid2_2_1_"  width="200" height="100" x="-100" y="-50" transform="matrix(1 0 0 -1 1699.8938 599.4977)" style="overflow:visible;"/>
													</g>
												</g>
											</g>
											<g>
												<g>
													<g>
														
															<use xlink:href="#grid2_8_1_"  width="200" height="100" x="-100" y="-50" transform="matrix(1 0 0 -1 1799.8938 549.4977)" style="overflow:visible;"/>
													</g>
												</g>
												<g>
													<g>
														
															<use xlink:href="#grid2_8_1_"  width="200" height="100" x="-100" y="-50" transform="matrix(1 0 0 -1 1899.8938 599.4977)" style="overflow:visible;"/>
													</g>
												</g>
												<g>
													<g>
														
															<use xlink:href="#grid2_8_1_"  width="200" height="100" x="-100" y="-50" transform="matrix(1 0 0 -1 1999.8937 649.4977)" style="overflow:visible;"/>
													</g>
												</g>
												<g>
													<g>
														
															<use xlink:href="#grid2_8_1_"  width="200" height="100" x="-100" y="-50" transform="matrix(1 0 0 -1 2099.8936 699.4978)" style="overflow:visible;"/>
													</g>
												</g>
											</g>
											<g>
												<g>
													
														<use xlink:href="#grid2_2_1_"  width="200" height="100" x="-100" y="-50" transform="matrix(1 0 0 -1 1999.8936 849.4978)" style="overflow:visible;"/>
												</g>
											</g>
										</g>
										<g>
											<g>
												<g>
													<g>
														
															<use xlink:href="#grid2_2_1_"  width="200" height="100" x="-100" y="-50" transform="matrix(1 0 0 -1 1499.8934 899.4976)" style="overflow:visible;"/>
													</g>
												</g>
												<g>
													<g>
														
															<use xlink:href="#grid2_2_1_"  width="200" height="100" x="-100" y="-50" transform="matrix(1 0 0 -1 1399.8933 949.4976)" style="overflow:visible;"/>
													</g>
												</g>
												<g>
													<g>
														
															<use xlink:href="#grid2_2_1_"  width="200" height="100" x="-100" y="-50" transform="matrix(1 0 0 -1 1299.8933 999.4976)" style="overflow:visible;"/>
													</g>
												</g>
												
													<use xlink:href="#新規シンボル_16"  width="50.182" height="125.091" x="-0.182" y="-75" transform="matrix(1 0 0 -1 1200.0612 899.7762)" style="overflow:visible;"/>
												<g>
													<g>
														
															<use xlink:href="#grid2_2_1_"  width="200" height="100" x="-100" y="-50" transform="matrix(1 0 0 -1 1199.8933 949.4975)" style="overflow:visible;"/>
													</g>
												</g>
												
													<use xlink:href="#新規シンボル_3"  width="100" height="150" x="-50" y="-75" transform="matrix(1 0 0 -1 1299.8922 849.4973)" style="overflow:visible;"/>
												
													<use xlink:href="#新規シンボル_16"  width="50.182" height="125.091" x="-0.182" y="-75" transform="matrix(1 0 0 -1 1200.0612 799.7132)" style="overflow:visible;"/>
												<g>
													<g>
														
															<use xlink:href="#grid2_2_1_"  width="200" height="100" x="-100" y="-50" transform="matrix(1 0 0 -1 1299.8934 899.4976)" style="overflow:visible;"/>
													</g>
												</g>
												<g>
													<g>
														
															<use xlink:href="#grid2_2_1_"  width="200" height="100" x="-100" y="-50" transform="matrix(1 0 0 -1 1399.8932 1049.4976)" style="overflow:visible;"/>
													</g>
												</g>
												<g>
													<g>
														
															<use xlink:href="#grid2_2_1_"  width="200" height="100" x="-100" y="-50" transform="matrix(1 0 0 -1 1499.8932 1099.4976)" style="overflow:visible;"/>
													</g>
												</g>
												<g>
													<g>
														
															<use xlink:href="#grid2_2_1_"  width="200" height="100" x="-100" y="-50" transform="matrix(1 0 0 -1 1499.8933 999.4976)" style="overflow:visible;"/>
													</g>
												</g>
												<g>
													<g>
														
															<use xlink:href="#grid2_2_1_"  width="200" height="100" x="-100" y="-50" transform="matrix(1 0 0 -1 1599.8932 1049.4976)" style="overflow:visible;"/>
													</g>
												</g>
											</g>
										</g>
									</g>
									<g>
										<g>
											
												<use xlink:href="#grid2_2_1_"  width="200" height="100" x="-100" y="-50" transform="matrix(1 0 0 -1 1699.8933 999.4977)" style="overflow:visible;"/>
										</g>
									</g>
									
										<use xlink:href="#新規シンボル_8_1_"  width="150.182" height="75.091" x="-75.091" y="-37.546" transform="matrix(1 0 0 -1 1825.0031 962.0153)" style="overflow:visible;"/>
									<g>
										<g>
											<g>
												<g>
													<g>
														
															<use xlink:href="#新規シンボル_22"  width="100" height="150" x="-50" y="-75" transform="matrix(1 0 0 -1 2249.8933 824.498)" style="overflow:visible;"/>
													</g>
												</g>
											</g>
										</g>
									</g>
									<g>
										<g>
											<g>
												<g>
													<g>
														
															<use xlink:href="#新規シンボル_22"  width="100" height="150" x="-50" y="-75" transform="matrix(1 0 0 -1 2249.8933 924.4981)" style="overflow:visible;"/>
													</g>
												</g>
											</g>
										</g>
									</g>
									<g>
										<g>
											<g>
												<g>
													<g>
														
															<use xlink:href="#新規シンボル_22"  width="100" height="150" x="-50" y="-75" transform="matrix(1 0 0 -1 2149.8933 874.498)" style="overflow:visible;"/>
													</g>
												</g>
											</g>
										</g>
									</g>
									<g>
										<g>
											
												<use xlink:href="#grid2_2_1_"  width="200" height="100" x="-100" y="-50" transform="matrix(1 0 0 -1 2099.771 899.7577)" style="overflow:visible;"/>
										</g>
									</g>
									<g>
										<g>
											
												<use xlink:href="#grid2_2_1_"  width="200" height="100" x="-100" y="-50" transform="matrix(1 0 0 -1 2199.771 949.7577)" style="overflow:visible;"/>
										</g>
									</g>
									<g>
										<g>
											
												<use xlink:href="#grid2_2_1_"  width="200" height="100" x="-100" y="-50" transform="matrix(1 0 0 -1 2099.771 999.7577)" style="overflow:visible;"/>
										</g>
									</g>
									<g>
										<g>
											
												<use xlink:href="#grid2_2_1_"  width="200" height="100" x="-100" y="-50" transform="matrix(1 0 0 -1 1999.771 1049.7577)" style="overflow:visible;"/>
										</g>
									</g>
									<g>
										<g>
											
												<use xlink:href="#grid2_2_1_"  width="200" height="100" x="-100" y="-50" transform="matrix(1 0 0 -1 1899.7709 1099.7576)" style="overflow:visible;"/>
										</g>
									</g>
									<g>
										<g>
											
												<use xlink:href="#grid2_2_1_"  width="200" height="100" x="-100" y="-50" transform="matrix(1 0 0 -1 1899.7711 999.7577)" style="overflow:visible;"/>
										</g>
									</g>
									
										<use xlink:href="#新規シンボル_14_1_"  width="150.049" height="75" x="-75.025" y="-37.5" transform="matrix(1 0 0 -1 2024.7461 937.2576)" style="overflow:visible;"/>
								</g>
							</g>
						</g>
						<g>
							<g>
								<g>
									
										<use xlink:href="#grid2_2_1_"  width="200" height="100" x="-100" y="-50" transform="matrix(1 0 0 -1 1499.8936 799.4976)" style="overflow:visible;"/>
								</g>
							</g>
						</g>
						<g>
							<g>
								
									<use xlink:href="#grid2_2_1_"  width="200" height="100" x="-100" y="-50" transform="matrix(1 0 0 -1 1999.8936 749.4977)" style="overflow:visible;"/>
							</g>
						</g>
						<g>
							<g>
								
									<use xlink:href="#grid2_8_1_"  width="200" height="100" x="-100" y="-50" transform="matrix(1 0 0 -1 2199.8936 749.4978)" style="overflow:visible;"/>
							</g>
						</g>
						<g>
							<g>
								
									<use xlink:href="#grid2_2_1_"  width="200" height="100" x="-100" y="-50" transform="matrix(1 0 0 -1 2099.8936 799.4978)" style="overflow:visible;"/>
							</g>
						</g>
						<g>
							<g>
								
									<use xlink:href="#grid2_2_1_"  width="200" height="100" x="-100" y="-50" transform="matrix(1 0 0 -1 1899.8936 799.4977)" style="overflow:visible;"/>
							</g>
						</g>
					</g>
					<g>
						<g>
							
								<use xlink:href="#grid2_2_1_"  width="200" height="100" x="-100" y="-50" transform="matrix(1 0 0 -1 1799.8937 649.4977)" style="overflow:visible;"/>
						</g>
					</g>
					<g>
						<g>
							
								<use xlink:href="#grid2_2_1_"  width="200" height="100" x="-100" y="-50" transform="matrix(1 0 0 -1 1899.8937 699.4977)" style="overflow:visible;"/>
						</g>
					</g>
					<g>
						<g>
							
								<use xlink:href="#grid2_2_1_"  width="200" height="100" x="-100" y="-50" transform="matrix(1 0 0 -1 1699.8937 699.4977)" style="overflow:visible;"/>
						</g>
					</g>
					<g>
						<g>
							
								<use xlink:href="#grid2_2_1_"  width="200" height="100" x="-100" y="-50" transform="matrix(1 0 0 -1 1799.8936 749.4977)" style="overflow:visible;"/>
						</g>
					</g>
				</g>
				
					<use xlink:href="#新規シンボル_12"  width="100.183" height="50.091" x="-25.092" y="-12.545" transform="matrix(1 0 0 -1 1924.6312 912.2374)" style="overflow:visible;"/>
				<g>
					<g>
						
							<use xlink:href="#grid2_2_1_"  width="200" height="100" x="-100" y="-50" transform="matrix(1 0 0 -1 1799.8932 1049.4977)" style="overflow:visible;"/>
					</g>
				</g>
				<g>
					<g>
						
							<use xlink:href="#grid2_2_1_"  width="200" height="100" x="-100" y="-50" transform="matrix(1 0 0 -1 1699.8932 1099.4977)" style="overflow:visible;"/>
					</g>
				</g>
			</g>
			<g>
				<g>
					
						<use xlink:href="#grid2_2_1_"  width="200" height="100" x="-100" y="-50" transform="matrix(1 0 0 -1 1599.8934 849.4976)" style="overflow:visible;"/>
				</g>
			</g>
		</g>
		
			<use xlink:href="#新規シンボル_7_3_"  width="150.019" height="74.972" x="-100" y="-24.972" transform="matrix(1 0 0 -1 2299.7708 999.7579)" style="overflow:visible;"/>
		
			<use xlink:href="#新規シンボル_7_3_"  width="150.019" height="74.972" x="-100" y="-24.972" transform="matrix(1 0 0 -1 2199.7708 1049.7578)" style="overflow:visible;"/>
		
			<use xlink:href="#新規シンボル_7_3_"  width="150.019" height="74.972" x="-100" y="-24.972" transform="matrix(1 0 0 -1 2099.7705 1099.7578)" style="overflow:visible;"/>
		
			<use xlink:href="#新規シンボル_7_3_"  width="150.019" height="74.972" x="-100" y="-24.972" transform="matrix(1 0 0 -1 1999.7705 1149.7578)" style="overflow:visible;"/>
		
			<use xlink:href="#新規シンボル_7_3_"  width="150.019" height="74.972" x="-100" y="-24.972" transform="matrix(1 0 0 -1 1599.8928 1149.4978)" style="overflow:visible;"/>
		
			<use xlink:href="#新規シンボル_7_3_"  width="150.019" height="74.972" x="-100" y="-24.972" transform="matrix(1 0 0 -1 1799.8928 1149.4979)" style="overflow:visible;"/>
		<g>
			<g>
				<g>
					<g>
						<g>
							<g>
								
									<use xlink:href="#新規シンボル_22"  width="100" height="150" x="-50" y="-75" transform="matrix(1 0 0 -1 2299.7896 1049.7299)" style="overflow:visible;"/>
							</g>
						</g>
					</g>
				</g>
			</g>
			<g>
				<g>
					<g>
						<g>
							<g>
								
									<use xlink:href="#新規シンボル_22"  width="100" height="150" x="-50" y="-75" transform="matrix(1 0 0 -1 2299.7896 1149.7299)" style="overflow:visible;"/>
							</g>
						</g>
					</g>
				</g>
			</g>
			<g>
				<g>
					<g>
						<g>
							<g>
								
									<use xlink:href="#新規シンボル_22"  width="100" height="150" x="-50" y="-75" transform="matrix(1 0 0 -1 2299.7896 1249.7299)" style="overflow:visible;"/>
							</g>
						</g>
					</g>
				</g>
			</g>
			
				<use xlink:href="#新規シンボル_1"  width="100" height="300" x="-49.895" y="-150.317" transform="matrix(1 0 0 -1 2299.6848 1424.413)" style="overflow:visible;"/>
			<g>
				<g>
					<g>
						<g>
							<g>
								
									<use xlink:href="#新規シンボル_22"  width="100" height="150" x="-50" y="-75" transform="matrix(1 0 0 -1 1799.7894 1199.7299)" style="overflow:visible;"/>
							</g>
						</g>
					</g>
				</g>
			</g>
			<g>
				<g>
					<g>
						<g>
							<g>
								
									<use xlink:href="#新規シンボル_22"  width="100" height="150" x="-50" y="-75" transform="matrix(1 0 0 -1 1799.7894 1299.73)" style="overflow:visible;"/>
							</g>
						</g>
					</g>
				</g>
			</g>
			<g>
				<g>
					<g>
						<g>
							<g>
								
									<use xlink:href="#新規シンボル_22"  width="100" height="150" x="-50" y="-75" transform="matrix(1 0 0 -1 1799.7894 1399.73)" style="overflow:visible;"/>
							</g>
						</g>
					</g>
				</g>
			</g>
			
				<use xlink:href="#新規シンボル_1"  width="100" height="300" x="-49.895" y="-150.317" transform="matrix(1 0 0 -1 1799.6847 1574.413)" style="overflow:visible;"/>
			<g>
				<g>
					<g>
						<g>
							<g>
								
									<use xlink:href="#新規シンボル_22"  width="100" height="150" x="-50" y="-75" transform="matrix(1 0 0 -1 2199.7896 1099.7299)" style="overflow:visible;"/>
							</g>
						</g>
					</g>
				</g>
			</g>
			<g>
				<g>
					<g>
						<g>
							<g>
								
									<use xlink:href="#新規シンボル_22"  width="100" height="150" x="-50" y="-75" transform="matrix(1 0 0 -1 2199.7896 1199.7299)" style="overflow:visible;"/>
							</g>
						</g>
					</g>
				</g>
			</g>
			<g>
				<g>
					<g>
						<g>
							<g>
								
									<use xlink:href="#新規シンボル_22"  width="100" height="150" x="-50" y="-75" transform="matrix(1 0 0 -1 2199.7896 1299.7299)" style="overflow:visible;"/>
							</g>
						</g>
					</g>
				</g>
			</g>
			
				<use xlink:href="#新規シンボル_1"  width="100" height="300" x="-49.895" y="-150.317" transform="matrix(1 0 0 -1 2199.6848 1474.413)" style="overflow:visible;"/>
			<g>
				<g>
					<g>
						<g>
							<g>
								
									<use xlink:href="#新規シンボル_22"  width="100" height="150" x="-50" y="-75" transform="matrix(1 0 0 -1 2099.7896 1149.7299)" style="overflow:visible;"/>
							</g>
						</g>
					</g>
				</g>
			</g>
			<g>
				<g>
					<g>
						<g>
							<g>
								
									<use xlink:href="#新規シンボル_22"  width="100" height="150" x="-50" y="-75" transform="matrix(1 0 0 -1 2099.7896 1249.7299)" style="overflow:visible;"/>
							</g>
						</g>
					</g>
				</g>
			</g>
			<g>
				<g>
					<g>
						<g>
							<g>
								
									<use xlink:href="#新規シンボル_22"  width="100" height="150" x="-50" y="-75" transform="matrix(1 0 0 -1 2099.7896 1349.7299)" style="overflow:visible;"/>
							</g>
						</g>
					</g>
				</g>
			</g>
			
				<use xlink:href="#新規シンボル_1"  width="100" height="300" x="-49.895" y="-150.317" transform="matrix(1 0 0 -1 2099.6848 1524.413)" style="overflow:visible;"/>
			<g>
				<g>
					<g>
						<g>
							<g>
								
									<use xlink:href="#新規シンボル_22"  width="100" height="150" x="-50" y="-75" transform="matrix(1 0 0 -1 1999.7896 1199.7299)" style="overflow:visible;"/>
							</g>
						</g>
					</g>
				</g>
			</g>
			<g>
				<g>
					<g>
						<g>
							<g>
								
									<use xlink:href="#新規シンボル_22"  width="100" height="150" x="-50" y="-75" transform="matrix(1 0 0 -1 1999.7896 1299.7299)" style="overflow:visible;"/>
							</g>
						</g>
					</g>
				</g>
			</g>
			<g>
				<g>
					<g>
						<g>
							<g>
								
									<use xlink:href="#新規シンボル_22"  width="100" height="150" x="-50" y="-75" transform="matrix(1 0 0 -1 1999.7896 1399.7299)" style="overflow:visible;"/>
							</g>
						</g>
					</g>
				</g>
			</g>
			
				<use xlink:href="#新規シンボル_1"  width="100" height="300" x="-49.895" y="-150.317" transform="matrix(1 0 0 -1 1999.6848 1574.413)" style="overflow:visible;"/>
			
				<use xlink:href="#新規シンボル_2"  width="100" height="300" x="-50.105" y="-150.317" transform="matrix(1 0 0 -1 1899.894 1574.413)" style="overflow:visible;"/>
		</g>
		
			<use xlink:href="#新規シンボル_19_2_"  width="100.121" height="150" x="-0.229" y="-99.946" transform="matrix(1 0 0 -1 1849.9078 1174.6179)" style="overflow:visible;"/>
		
			<use xlink:href="#新規シンボル_19_2_"  width="100.121" height="150" x="-0.229" y="-99.946" transform="matrix(1 0 0 -1 1849.9078 1274.5804)" style="overflow:visible;"/>
		
			<use xlink:href="#新規シンボル_19_2_"  width="100.121" height="150" x="-0.229" y="-99.946" transform="matrix(1 0 0 -1 1849.9078 1374.543)" style="overflow:visible;"/>
		
			<use xlink:href="#新規シンボル_2"  width="100" height="300" x="-50.105" y="-150.317" transform="matrix(1 0 0 -1 1699.969 1574.413)" style="overflow:visible;"/>
		
			<use xlink:href="#新規シンボル_19_2_"  width="100.121" height="150" x="-0.229" y="-99.946" transform="matrix(1 0 0 -1 1649.9828 1174.6179)" style="overflow:visible;"/>
		
			<use xlink:href="#新規シンボル_19_2_"  width="100.121" height="150" x="-0.229" y="-99.946" transform="matrix(1 0 0 -1 1649.9828 1274.5804)" style="overflow:visible;"/>
		
			<use xlink:href="#新規シンボル_19_2_"  width="100.121" height="150" x="-0.229" y="-99.946" transform="matrix(1 0 0 -1 1649.9828 1374.543)" style="overflow:visible;"/>
		
			<use xlink:href="#新規シンボル_2"  width="100" height="300" x="-50.105" y="-150.317" transform="matrix(1 0 0 -1 1500.0438 1574.413)" style="overflow:visible;"/>
		
			<use xlink:href="#新規シンボル_19_2_"  width="100.121" height="150" x="-0.229" y="-99.946" transform="matrix(1 0 0 -1 1450.0576 1174.6179)" style="overflow:visible;"/>
		
			<use xlink:href="#新規シンボル_19_2_"  width="100.121" height="150" x="-0.229" y="-99.946" transform="matrix(1 0 0 -1 1450.0576 1274.5804)" style="overflow:visible;"/>
		
			<use xlink:href="#新規シンボル_19_2_"  width="100.121" height="150" x="-0.229" y="-99.946" transform="matrix(1 0 0 -1 1450.0576 1374.543)" style="overflow:visible;"/>
		
			<use xlink:href="#新規シンボル_2"  width="100" height="300" x="-50.105" y="-150.317" transform="matrix(1 0 0 -1 1400.0438 1524.413)" style="overflow:visible;"/>
		
			<use xlink:href="#新規シンボル_19_2_"  width="100.121" height="150" x="-0.229" y="-99.946" transform="matrix(1 0 0 -1 1350.0576 1124.6179)" style="overflow:visible;"/>
		
			<use xlink:href="#新規シンボル_19_2_"  width="100.121" height="150" x="-0.229" y="-99.946" transform="matrix(1 0 0 -1 1350.0576 1224.5804)" style="overflow:visible;"/>
		
			<use xlink:href="#新規シンボル_19_2_"  width="100.121" height="150" x="-0.229" y="-99.946" transform="matrix(1 0 0 -1 1350.0576 1324.543)" style="overflow:visible;"/>
		
			<use xlink:href="#新規シンボル_2"  width="100" height="300" x="-50.105" y="-150.317" transform="matrix(1 0 0 -1 1300.0438 1474.413)" style="overflow:visible;"/>
		
			<use xlink:href="#新規シンボル_19_2_"  width="100.121" height="150" x="-0.229" y="-99.946" transform="matrix(1 0 0 -1 1250.0576 1074.6179)" style="overflow:visible;"/>
		
			<use xlink:href="#新規シンボル_19_2_"  width="100.121" height="150" x="-0.229" y="-99.946" transform="matrix(1 0 0 -1 1250.0576 1174.5804)" style="overflow:visible;"/>
		
			<use xlink:href="#新規シンボル_19_2_"  width="100.121" height="150" x="-0.229" y="-99.946" transform="matrix(1 0 0 -1 1250.0576 1274.543)" style="overflow:visible;"/>
		
			<use xlink:href="#新規シンボル_2"  width="100" height="300" x="-50.105" y="-150.317" transform="matrix(1 0 0 -1 1199.8058 1424.2561)" style="overflow:visible;"/>
		
			<use xlink:href="#新規シンボル_19_2_"  width="100.121" height="150" x="-0.229" y="-99.946" transform="matrix(1 0 0 -1 1149.8196 1024.4611)" style="overflow:visible;"/>
		
			<use xlink:href="#新規シンボル_19_2_"  width="100.121" height="150" x="-0.229" y="-99.946" transform="matrix(1 0 0 -1 1149.8196 1124.4236)" style="overflow:visible;"/>
		
			<use xlink:href="#新規シンボル_19_2_"  width="100.121" height="150" x="-0.229" y="-99.946" transform="matrix(1 0 0 -1 1149.8196 1224.3861)" style="overflow:visible;"/>
		
			<use xlink:href="#新規シンボル_11"  width="49.999" height="275.001" x="0.001" y="-150" transform="matrix(1 0 0 -1 1099.8058 1374.2561)" style="overflow:visible;"/>
		
			<use xlink:href="#新規シンボル_20"  width="50.182" height="125.091" x="49.709" y="-99.946" transform="matrix(1 0 0 -1 1049.8196 974.461)" style="overflow:visible;"/>
		
			<use xlink:href="#新規シンボル_20"  width="50.182" height="125.091" x="49.709" y="-99.946" transform="matrix(1 0 0 -1 1049.8196 1074.4236)" style="overflow:visible;"/>
		
			<use xlink:href="#新規シンボル_20"  width="50.182" height="125.091" x="49.709" y="-99.946" transform="matrix(1 0 0 -1 1049.8196 1174.3861)" style="overflow:visible;"/>
		<g>
			<g>
				<g>
					<g>
						<g>
							
								<use xlink:href="#新規シンボル_22"  width="100" height="150" x="-50" y="-75" transform="matrix(1 0 0 -1 1599.8739 1199.5634)" style="overflow:visible;"/>
						</g>
					</g>
				</g>
			</g>
		</g>
		<g>
			<g>
				<g>
					<g>
						<g>
							
								<use xlink:href="#新規シンボル_22"  width="100" height="150" x="-50" y="-75" transform="matrix(1 0 0 -1 1599.8739 1299.5635)" style="overflow:visible;"/>
						</g>
					</g>
				</g>
			</g>
		</g>
		<g>
			<g>
				<g>
					<g>
						<g>
							
								<use xlink:href="#新規シンボル_22"  width="100" height="150" x="-50" y="-75" transform="matrix(1 0 0 -1 1599.8739 1399.5635)" style="overflow:visible;"/>
						</g>
					</g>
				</g>
			</g>
		</g>
		
			<use xlink:href="#新規シンボル_1"  width="100" height="300" x="-49.895" y="-150.317" transform="matrix(1 0 0 -1 1599.7692 1574.2465)" style="overflow:visible;"/>
		
			<use xlink:href="#新規シンボル_8_1_"  width="150.182" height="75.091" x="-75.091" y="-37.546" transform="matrix(1 0 0 -1 1724.8025 511.9523)" style="overflow:visible;"/>
		
			<use xlink:href="#新規シンボル_8_1_"  width="150.182" height="75.091" x="-75.091" y="-37.546" transform="matrix(1 0 0 -1 1624.8025 561.9522)" style="overflow:visible;"/>
		
			<use xlink:href="#新規シンボル_8_1_"  width="150.182" height="75.091" x="-75.091" y="-37.546" transform="matrix(1 0 0 -1 1524.8024 611.9522)" style="overflow:visible;"/>
		
			<use xlink:href="#新規シンボル_8_1_"  width="150.182" height="75.091" x="-75.091" y="-37.546" transform="matrix(1 0 0 -1 1424.8022 661.9521)" style="overflow:visible;"/>
		
			<use xlink:href="#新規シンボル_8_1_"  width="150.182" height="75.091" x="-75.091" y="-37.546" transform="matrix(1 0 0 -1 1324.8022 711.9521)" style="overflow:visible;"/>
		
			<use xlink:href="#新規シンボル_27"  width="150.049" height="75.063" x="-0.031" y="-49.972" transform="matrix(1 0 0 -1 1199.8933 749.4977)" style="overflow:visible;"/>
		
			<use xlink:href="#新規シンボル_27"  width="150.049" height="75.063" x="-0.031" y="-49.972" transform="matrix(1 0 0 -1 1299.8932 799.4977)" style="overflow:visible;"/>
		
			<use xlink:href="#新規シンボル_12"  width="100.183" height="50.091" x="-25.092" y="-12.545" transform="matrix(1 0 0 -1 1425.0031 862.0153)" style="overflow:visible;"/>
		
			<use xlink:href="#grid2_6"  width="150.049" height="75" x="-100.049" y="-50" transform="matrix(1 0 0 -1 1399.9419 849.4724)" style="overflow:visible;"/>
		
			<use xlink:href="#新規シンボル_34"  width="100.133" height="49.947" x="-100.164" y="-24.972" transform="matrix(1 0 0 -1 2049.8005 974.7608)" style="overflow:visible;"/>
		
			<use xlink:href="#grid2_6"  width="150.049" height="75" x="-100.049" y="-50" transform="matrix(1 0 0 -1 2199.7915 849.6598)" style="overflow:visible;"/>
		
			<use xlink:href="#grid2_6"  width="150.049" height="75" x="-100.049" y="-50" transform="matrix(1 0 0 -1 2299.7539 899.6411)" style="overflow:visible;"/>
		
			<use xlink:href="#新規シンボル_18"  width="99.969" height="49.947" x="-100" y="-24.972" transform="matrix(1 0 0 -1 2399.6304 949.6664)" style="overflow:visible;"/>
		
			<use xlink:href="#新規シンボル_15"  width="49.716" height="124.908" x="-49.999" y="-74.966" transform="matrix(1 0 0 -1 2399.6482 999.6724)" style="overflow:visible;"/>
		
			<use xlink:href="#新規シンボル_15"  width="49.716" height="124.908" x="-49.999" y="-74.966" transform="matrix(1 0 0 -1 2399.6482 1099.6349)" style="overflow:visible;"/>
		
			<use xlink:href="#新規シンボル_15"  width="49.716" height="124.908" x="-49.999" y="-74.966" transform="matrix(1 0 0 -1 2399.6482 1199.5974)" style="overflow:visible;"/>
		
			<use xlink:href="#新規シンボル_6"  width="49.999" height="275.001" x="-24.999" y="-137.5" transform="matrix(1 0 0 -1 2374.6313 1387.0355)" style="overflow:visible;"/>
	</g>
</g>
<g id="岩">
	
		<use xlink:href="#rock2"  width="198.271" height="99.135" x="-99.384" y="-81.433" transform="matrix(0.5042 0 0 -0.5042 1799.9805 508.7411)" style="overflow:visible;"/>
	
		<use xlink:href="#rock1"  width="198.271" height="104.421" x="-99.384" y="-81.433" transform="matrix(0.5042 0 0 -0.5042 1849.9617 533.7318)" style="overflow:visible;"/>
	
		<use xlink:href="#rock1"  width="198.271" height="104.421" x="-99.384" y="-81.433" transform="matrix(0.5042 0 0 -0.5042 1949.9243 583.7131)" style="overflow:visible;"/>
	
		<use xlink:href="#rock1"  width="198.271" height="104.421" x="-99.384" y="-81.433" transform="matrix(0.5042 0 0 -0.5042 2049.8867 633.6943)" style="overflow:visible;"/>
	
		<use xlink:href="#rock1"  width="198.271" height="104.421" x="-99.384" y="-81.433" transform="matrix(0.5042 0 0 -0.5042 2149.8494 683.6756)" style="overflow:visible;"/>
	
		<use xlink:href="#rock2"  width="198.271" height="99.135" x="-99.384" y="-81.433" transform="matrix(0.5042 0 0 -0.5042 2199.8306 708.6663)" style="overflow:visible;"/>
	
		<use xlink:href="#rock2"  width="198.271" height="99.135" x="-99.384" y="-81.433" transform="matrix(0.5042 0 0 -0.5042 1700.0179 508.7411)" style="overflow:visible;"/>
	
		<use xlink:href="#rock1"  width="198.271" height="104.421" x="-99.384" y="-81.433" transform="matrix(0.5042 0 0 -0.5042 2149.8494 783.6382)" style="overflow:visible;"/>
	
		<use xlink:href="#rock1"  width="198.271" height="104.421" x="-99.384" y="-81.433" transform="matrix(0.5042 0 0 -0.5042 2149.8494 833.6194)" style="overflow:visible;"/>
	
		<use xlink:href="#rock2"  width="198.271" height="99.135" x="-99.384" y="-81.433" transform="matrix(0.5042 0 0 -0.5042 2199.8306 858.61)" style="overflow:visible;"/>
	
		<use xlink:href="#rock2"  width="198.271" height="99.135" x="-99.384" y="-81.433" transform="matrix(0.5042 0 0 -0.5042 2299.7932 908.5914)" style="overflow:visible;"/>
	
		<use xlink:href="#rock1"  width="198.271" height="104.421" x="-99.384" y="-81.433" transform="matrix(0.5042 0 0 -0.5042 1550.0741 583.7131)" style="overflow:visible;"/>
	
		<use xlink:href="#rock2"  width="198.271" height="99.135" x="-99.384" y="-81.433" transform="matrix(0.5042 0 0 -0.5042 1500.0928 608.7037)" style="overflow:visible;"/>
	
		<use xlink:href="#rock1"  width="198.271" height="104.421" x="-99.384" y="-81.433" transform="matrix(0.5042 0 0 -0.5042 1450.1116 633.6943)" style="overflow:visible;"/>
	
		<use xlink:href="#rock2"  width="198.271" height="99.135" x="-99.384" y="-81.433" transform="matrix(0.5042 0 0 -0.5042 2099.8682 1058.5352)" style="overflow:visible;"/>
	
		<use xlink:href="#rock2"  width="198.271" height="99.135" x="-99.384" y="-81.433" transform="matrix(0.5042 0 0 -0.5042 1300.1677 708.6663)" style="overflow:visible;"/>
	
		<use xlink:href="#rock1"  width="198.271" height="104.421" x="-99.384" y="-81.433" transform="matrix(0.5042 0 0 -0.5042 2049.8867 1083.5258)" style="overflow:visible;"/>
	
		<use xlink:href="#rock1"  width="198.271" height="104.421" x="-99.384" y="-81.433" transform="matrix(0.5042 0 0 -0.5042 1250.1864 733.6569)" style="overflow:visible;"/>
	
		<use xlink:href="#rock1"  width="198.271" height="104.421" x="-99.384" y="-81.433" transform="matrix(0.5042 0 0 -0.5042 1949.9243 1133.5071)" style="overflow:visible;"/>
	
		<use xlink:href="#rock1"  width="198.271" height="104.421" x="-99.384" y="-81.433" transform="matrix(0.5042 0 0 -0.5042 1150.2239 933.582)" style="overflow:visible;"/>
	
		<use xlink:href="#rock1"  width="198.271" height="104.421" x="-99.384" y="-81.433" transform="matrix(0.5042 0 0 -0.5042 1350.149 1033.5446)" style="overflow:visible;"/>
	
		<use xlink:href="#rock2"  width="198.271" height="99.135" x="-99.384" y="-81.433" transform="matrix(0.5042 0 0 -0.5042 1500.0928 1108.5165)" style="overflow:visible;"/>
	
		<use xlink:href="#rock1"  width="198.271" height="104.421" x="-99.384" y="-81.433" transform="matrix(0.5042 0 0 -0.5042 1849.9617 1083.5258)" style="overflow:visible;"/>
	
		<use xlink:href="#rock1"  width="198.271" height="104.421" x="-99.384" y="-81.433" transform="matrix(0.5042 0 0 -0.5042 1650.0366 1083.5258)" style="overflow:visible;"/>
	
		<use xlink:href="#rock2"  width="198.271" height="99.135" x="-99.384" y="-81.433" transform="matrix(0.5042 0 0 -0.5042 1700.0179 1108.5165)" style="overflow:visible;"/>
	
		<use xlink:href="#rock1"  width="198.271" height="104.421" x="-99.384" y="-81.433" transform="matrix(0.5042 0 0 -0.5042 1749.9991 1133.5071)" style="overflow:visible;"/>
	
		<use xlink:href="#rock2"  width="198.271" height="99.135" x="-99.384" y="-81.433" transform="matrix(0.5042 0 0 -0.5042 1600.0553 1108.5165)" style="overflow:visible;"/>
	
		<use xlink:href="#rock1"  width="198.271" height="104.421" x="-99.384" y="-81.433" transform="matrix(0.5042 0 0 -0.5042 1550.0741 1133.5071)" style="overflow:visible;"/>
	
		<use xlink:href="#rock2"  width="198.271" height="99.135" x="-99.384" y="-81.433" transform="matrix(0.5042 0 0 -0.5042 2299.7932 958.5726)" style="overflow:visible;"/>
	
		<use xlink:href="#rock1"  width="198.271" height="104.421" x="-99.384" y="-81.433" transform="matrix(0.5042 0 0 -0.5042 2249.8118 983.5632)" style="overflow:visible;"/>
	
		<use xlink:href="#rock2"  width="198.271" height="99.135" x="-99.384" y="-81.433" transform="matrix(0.5042 0 0 -0.5042 1400.1302 808.6288)" style="overflow:visible;"/>
	
		<use xlink:href="#rock1"  width="198.271" height="104.421" x="-99.384" y="-81.433" transform="matrix(0.5042 0 0 -0.5042 1350.149 833.6194)" style="overflow:visible;"/>
	
		<use xlink:href="#rock2"  width="198.271" height="99.135" x="-99.384" y="-81.433" transform="matrix(0.5042 0 0 -0.5042 1200.2052 908.5914)" style="overflow:visible;"/>
	
		<use xlink:href="#rock2"  width="198.271" height="99.135" x="-99.384" y="-81.433" transform="matrix(0.5042 0 0 -0.5042 1200.2052 958.5726)" style="overflow:visible;"/>
	
		<use xlink:href="#rock1"  width="198.271" height="104.421" x="-99.384" y="-81.433" transform="matrix(0.5042 0 0 -0.5042 1250.1864 983.5632)" style="overflow:visible;"/>
	
		<use xlink:href="#rock1"  width="198.271" height="104.421" x="-99.384" y="-81.433" transform="matrix(0.5042 0 0 -0.5042 1749.9991 683.6756)" style="overflow:visible;"/>
	
		<use xlink:href="#rock2"  width="198.271" height="99.135" x="-99.384" y="-81.433" transform="matrix(0.5042 0 0 -0.5042 1799.9805 708.6663)" style="overflow:visible;"/>
	
		<use xlink:href="#rock2"  width="198.271" height="99.135" x="-99.384" y="-81.433" transform="matrix(0.5042 0 0 -0.5042 1700.0179 708.6663)" style="overflow:visible;"/>
	
		<use xlink:href="#rock2"  width="198.271" height="99.135" x="-99.384" y="-81.433" transform="matrix(0.5042 0 0 -0.5042 2099.8682 808.6288)" style="overflow:visible;"/>
</g>
<g id="草">
	
		<use xlink:href="#kusa04"  width="198.271" height="99.135" x="-99.384" y="-81.433" transform="matrix(0.5042 0 0 -0.5042 1749.9991 933.582)" style="overflow:visible;"/>
	
		<use xlink:href="#kusa04"  width="198.271" height="99.135" x="-99.384" y="-81.433" transform="matrix(0.5042 0 0 -0.5042 1600.0553 558.7224)" style="overflow:visible;"/>
	
		<use xlink:href="#kusa04"  width="198.271" height="99.135" x="-99.384" y="-81.433" transform="matrix(0.5042 0 0 -0.5042 1899.943 708.6663)" style="overflow:visible;"/>
	
		<use xlink:href="#kusa04"  width="198.271" height="99.135" x="-99.384" y="-81.433" transform="matrix(0.5042 0 0 -0.5042 2049.8867 783.6382)" style="overflow:visible;"/>
	
		<use xlink:href="#kusa04"  width="198.271" height="99.135" x="-99.384" y="-81.433" transform="matrix(0.5042 0 0 -0.5042 2199.8306 1008.5539)" style="overflow:visible;"/>
	
		<use xlink:href="#kusa04"  width="198.271" height="99.135" x="-99.384" y="-81.433" transform="matrix(0.5042 0 0 -0.5042 1799.9805 908.5914)" style="overflow:visible;"/>
	
		<use xlink:href="#kusa04"  width="198.271" height="99.135" x="-99.384" y="-81.433" transform="matrix(0.5042 0 0 -0.5042 1350.149 783.6382)" style="overflow:visible;"/>
	
		<use xlink:href="#kusa04"  width="198.271" height="99.135" x="-99.384" y="-81.433" transform="matrix(0.5042 0 0 -0.5042 1300.1677 758.6475)" style="overflow:visible;"/>
	
		<use xlink:href="#kusa04"  width="198.271" height="99.135" x="-99.384" y="-81.433" transform="matrix(0.5042 0 0 -0.5042 1799.9805 1108.5165)" style="overflow:visible;"/>
	
		<use xlink:href="#kusa04"  width="198.271" height="99.135" x="-99.384" y="-81.433" transform="matrix(0.5042 0 0 -0.5042 1250.1864 883.6007)" style="overflow:visible;"/>
	
		<use xlink:href="#kusa04"  width="198.271" height="99.135" x="-99.384" y="-81.433" transform="matrix(0.5042 0 0 -0.5042 1450.1116 1083.5258)" style="overflow:visible;"/>
	
		<use xlink:href="#kusa04"  width="198.271" height="99.135" x="-99.384" y="-81.433" transform="matrix(0.5042 0 0 -0.5042 1400.1302 658.685)" style="overflow:visible;"/>
	
		<use xlink:href="#kusa04"  width="198.271" height="99.135" x="-99.384" y="-81.433" transform="matrix(0.5042 0 0 -0.5042 2149.8494 1033.5446)" style="overflow:visible;"/>
</g>
<g id="柵">
	<g>
		<g>
			<g>
				<g>
					
						<use xlink:href="#wood_x5F_bar"  width="91.97" height="109.928" x="-61.605" y="-89.338" transform="matrix(0.5042 0 0 -0.5042 1668.0981 757.4034)" style="overflow:visible;"/>
				</g>
			</g>
		</g>
	</g>
	<g>
		<g>
			<g>
				<g>
					
						<use xlink:href="#wood_x5F_bar"  width="91.97" height="109.928" x="-61.605" y="-89.338" transform="matrix(-0.5042 0 0 -0.5042 1831.6519 757.4034)" style="overflow:visible;"/>
				</g>
			</g>
		</g>
	</g>
</g>
</svg>
