<?xml version="1.0" encoding="utf-8"?>
<!-- Generator: Adobe Illustrator 25.0.0, SVG Export Plug-In . SVG Version: 6.00 Build 0)  -->
<svg version="1.1" xmlns="http://www.w3.org/2000/svg" xmlns:xlink="http://www.w3.org/1999/xlink" x="0px" y="0px" width="3600px"
	 height="1800px" viewBox="0 0 3600 1800" style="enable-background:new 0 0 3600 1800;" xml:space="preserve">
<style type="text/css">
	.st0{fill:#B49355;}
	.st1{fill:#B3813B;}
	.st2{fill:#64D13F;}
	.st3{fill:#8F6027;}
	.st4{fill:#7EE05B;}
	.st5{fill:#9C7125;}
	.st6{fill:#4F441D;}
	.st7{fill:#614F1F;}
	.st8{fill:#705821;}
	.st9{fill:#7E6022;}
	.st10{fill:#8D6924;}
	.st11{fill:none;stroke:#57492D;stroke-width:4;stroke-linecap:round;stroke-linejoin:round;stroke-miterlimit:10;}
	.st12{fill:#8E6211;}
	.st13{fill:#AD7D2A;}
	.st14{fill:#704B15;}
	.st15{fill:#8F662C;}
	.st16{fill:#72592F;}
	.st17{fill:#8C673A;}
	.st18{fill:#694614;}
	.st19{fill:none;}
	.st20{opacity:0.1;fill:#231815;}
	.st21{fill:#C9A149;}
	.st22{fill:#BF8939;}
	.st23{fill:#4ABD3A;}
	.st24{fill:#5FC944;}
	.st25{fill:#81D14B;}
	.st26{fill:#BFA923;}
	.st27{fill:#B09520;}
	.st28{fill:#77C136;}
	.st29{fill:#92D041;}
	.st30{fill:#ACDB4D;}
	.st31{fill:#937017;}
	.st32{fill:#B28F34;}
	.st33{fill:#99998C;}
	.st34{clip-path:url(#SVGID_2_);}
	.st35{fill:#473F21;}
	.st36{clip-path:url(#SVGID_6_);}
	.st37{fill:#664114;}
	.st38{fill:#39BA23;}
</style>
<symbol  id="_x32_block_4" viewBox="-25.002 -562.5 200.002 700">
	<g id="新規シンボル_1_6_">
		<g id="新規シンボル_6_95_">
		</g>
		<g id="新規シンボル_20_16_">
			<g id="新規シンボル_6_93_">
			</g>
		</g>
		<g id="新規シンボル_6_91_">
		</g>
		<g id="新規シンボル_6_89_">
		</g>
	</g>
	<g id="新規シンボル_6_87_">
	</g>
	<g id="新規シンボル_20_15_">
		<g id="新規シンボル_6_86_">
		</g>
	</g>
	<g id="新規シンボル_6_85_">
	</g>
	<g id="新規シンボル_6_84_">
	</g>
	<g>
		<polygon class="st0" points="74.999,37.5 74.998,-312.5 -25,-262.5 -25.001,87.5 		"/>
		<polygon class="st1" points="74.999,37.5 74.999,-12.5 24.999,12.5 24.999,62.5 		"/>
		<polygon class="st1" points="24.999,12.5 24.999,-37.5 -25.001,-12.5 -25.001,37.5 		"/>
		<g>
			<g id="新規シンボル_6_83_">
				<polygon class="st1" points="74.999,-62.5 74.999,-112.5 24.999,-87.5 24.999,-37.5 				"/>
				<polygon class="st1" points="24.999,-87.5 24.999,-137.5 -25.001,-112.5 -25.001,-62.5 				"/>
			</g>
		</g>
		<polygon class="st2" points="175,87.5 74.999,37.5 -25.001,87.5 75.001,137.5 		"/>
		<polygon class="st3" points="75,37.5 74.998,-312.5 174.998,-262.5 175,87.5 		"/>
		<polygon class="st4" points="75,87.5 25,62.5 -25,87.5 25,112.5 		"/>
		<polygon class="st5" points="74.998,37.5 74.998,-12.5 124.998,12.5 124.998,62.5 		"/>
		<polygon class="st5" points="124.998,12.5 124.998,-37.5 174.998,-12.5 174.998,37.5 		"/>
		<polygon class="st5" points="74.998,-62.5 74.998,-112.5 124.998,-87.5 124.998,-37.5 		"/>
		<polygon class="st4" points="175,87.5 125,62.5 75,87.5 125,112.5 		"/>
		<polygon class="st5" points="124.998,-87.5 124.998,-137.5 174.998,-112.5 174.998,-62.5 		"/>
		<line class="st0" x1="-25.001" y1="37.5" x2="24.999" y2="12.5"/>
		<path class="st0" d="M-25.001-12.5"/>
		<polygon class="st1" points="74.999,-162.5 74.999,-212.5 24.999,-187.5 24.999,-137.5 		"/>
		<polygon class="st1" points="24.999,-187.5 24.999,-237.5 -25.001,-212.5 -25.001,-162.5 		"/>
		<g>
			<g id="新規シンボル_6_82_">
				<polygon class="st1" points="74.999,-262.5 74.999,-312.5 24.999,-287.5 24.999,-237.5 				"/>
			</g>
		</g>
		<polygon class="st5" points="74.998,-162.5 74.998,-212.5 124.998,-187.5 124.998,-137.5 		"/>
		<polygon class="st5" points="124.998,-187.5 124.998,-237.5 174.998,-212.5 174.998,-162.5 		"/>
		<polygon class="st5" points="74.998,-262.5 74.998,-312.5 124.998,-287.5 124.998,-237.5 		"/>
		<line class="st0" x1="-25.001" y1="-162.5" x2="24.999" y2="-187.5"/>
		<path class="st0" d="M-25.001-212.5"/>
	</g>
	<g>
		<g>
			<g>
				<polygon class="st6" points="74.998,-512.5 -25.002,-462.5 -25.002,-512.5 74.998,-562.5 174.999,-512.5 174.999,-462.5 				"/>
				<polygon class="st7" points="74.998,-462.5 -25.002,-412.5 -25.002,-462.5 74.998,-512.5 174.999,-462.5 174.999,-412.5 				"/>
			</g>
		</g>
		<polygon class="st8" points="74.998,-412.5 -25.002,-362.5 -25.002,-412.5 74.998,-462.5 174.999,-412.5 174.999,-362.5 		"/>
		<polygon class="st9" points="74.998,-362.5 -25.002,-312.5 -25.002,-362.5 74.998,-412.5 174.998,-362.5 174.998,-312.5 		"/>
		<polygon class="st10" points="74.998,-312.5 -25.002,-262.5 -25.002,-312.5 74.998,-362.5 174.998,-312.5 174.998,-262.5 		"/>
	</g>
</symbol>
<symbol  id="_x32_block_5" viewBox="-175.002 -562.5 350.002 775">
	<g id="新規シンボル_1_8_">
		<g id="新規シンボル_6_206_">
		</g>
		<g id="新規シンボル_20_20_">
			<g id="新規シンボル_6_205_">
			</g>
		</g>
		<g id="新規シンボル_6_204_">
		</g>
		<g id="新規シンボル_6_185_">
		</g>
	</g>
	<g id="新規シンボル_6_181_">
	</g>
	<g id="新規シンボル_20_19_">
		<g id="新規シンボル_6_180_">
		</g>
	</g>
	<g id="新規シンボル_6_174_">
	</g>
	<g id="新規シンボル_6_171_">
	</g>
	<g>
		<polygon class="st0" points="74.999,37.5 74.998,-312.5 -175,-187.5 -175.001,162.5 		"/>
		<polygon class="st1" points="74.999,37.5 74.999,-12.5 24.999,12.5 24.999,62.5 		"/>
		<polygon class="st1" points="24.999,12.5 24.999,-37.5 -25.001,-12.5 -25.001,37.5 		"/>
		<g>
			<g id="新規シンボル_6_170_">
				<polygon class="st1" points="74.999,-62.5 74.999,-112.5 24.999,-87.5 24.999,-37.5 				"/>
				<polygon class="st1" points="24.999,-87.5 24.999,-137.5 -25.001,-112.5 -25.001,-62.5 				"/>
			</g>
		</g>
		<polygon class="st1" points="-25.001,87.5 -25,37.5 -75,62.5 -75,112.5 		"/>
		<g>
			<g>
				<g id="新規シンボル_6_167_">
					<polygon class="st1" points="-25.001,-12.5 -25,-62.5 -75,-37.5 -75,12.5 					"/>
				</g>
			</g>
		</g>
		<polygon class="st2" points="175,87.5 74.999,37.5 -175.001,162.5 -75,212.5 		"/>
		<polygon class="st3" points="75,37.5 74.998,-312.5 174.998,-262.5 175,87.5 		"/>
		<polygon class="st4" points="75,87.5 25,62.5 -25,87.5 25,112.5 		"/>
		<polygon class="st4" points="-25,137.5 -75,112.5 -125,137.5 -75,162.5 		"/>
		<polygon class="st5" points="74.998,37.5 74.998,-12.5 124.998,12.5 124.998,62.5 		"/>
		<polygon class="st5" points="124.998,12.5 124.998,-37.5 174.998,-12.5 174.998,37.5 		"/>
		<polygon class="st5" points="74.998,-62.5 74.998,-112.5 124.998,-87.5 124.998,-37.5 		"/>
		<polygon class="st4" points="75.001,137.5 25.001,112.5 -24.999,137.5 25.001,162.5 		"/>
		<polygon class="st4" points="-25,187.5 -75,162.5 -125,187.5 -75,212.5 		"/>
		<polygon class="st4" points="175,87.5 125,62.5 75,87.5 125,112.5 		"/>
		<polygon class="st5" points="124.998,-87.5 124.998,-137.5 174.998,-112.5 174.998,-62.5 		"/>
		<line class="st0" x1="-25.001" y1="37.5" x2="24.999" y2="12.5"/>
		<path class="st0" d="M-75.001,12.5"/>
		<polygon class="st1" points="74.999,-162.5 74.999,-212.5 24.999,-187.5 24.999,-137.5 		"/>
		<polygon class="st1" points="24.999,-187.5 24.999,-237.5 -25.001,-212.5 -25.001,-162.5 		"/>
		<g>
			<g id="新規シンボル_6_166_">
				<polygon class="st1" points="74.999,-262.5 74.999,-312.5 24.999,-287.5 24.999,-237.5 				"/>
			</g>
		</g>
		<polygon class="st1" points="-25.001,-112.5 -25,-162.5 -75,-137.5 -75,-87.5 		"/>
		<g>
			<g>
				<g id="新規シンボル_6_165_">
					<polygon class="st1" points="-25.001,-212.5 -25,-262.5 -75,-237.5 -75,-187.5 					"/>
				</g>
			</g>
		</g>
		<polygon class="st1" points="-75.001,62.5 -75,12.5 -125,37.5 -125,87.5 		"/>
		<polygon class="st1" points="-75.001,-37.5 -75,-87.5 -125,-62.5 -125,-12.5 		"/>
		<polygon class="st1" points="-125,137.5 -125,87.5 -175,112.5 -175,162.5 		"/>
		<g>
			<g>
				<g id="新規シンボル_6_164_">
					<polygon class="st1" points="-125,37.5 -125,-12.5 -175,12.5 -175,62.5 					"/>
				</g>
			</g>
		</g>
		<polygon class="st1" points="-75.001,-137.5 -75,-187.5 -125,-162.5 -125,-112.5 		"/>
		<polygon class="st1" points="-125,-62.5 -125,-112.5 -175,-87.5 -175,-37.5 		"/>
		<g>
			<g>
				<g id="新規シンボル_6_163_">
					<polygon class="st1" points="-125,-162.5 -125,-212.5 -175,-187.5 -175,-137.5 					"/>
				</g>
			</g>
		</g>
		<polygon class="st5" points="74.998,-162.5 74.998,-212.5 124.998,-187.5 124.998,-137.5 		"/>
		<polygon class="st5" points="124.998,-187.5 124.998,-237.5 174.998,-212.5 174.998,-162.5 		"/>
		<polygon class="st5" points="74.998,-262.5 74.998,-312.5 124.998,-287.5 124.998,-237.5 		"/>
		<line class="st0" x1="-25.001" y1="-162.5" x2="24.999" y2="-187.5"/>
		<path class="st0" d="M-75.001-187.5"/>
	</g>
	<g>
		<g>
			<g>
				<polygon class="st6" points="74.998,-512.5 -175.002,-387.5 -175.002,-437.5 74.998,-562.5 174.999,-512.5 174.999,-462.5 				
					"/>
				<polygon class="st7" points="74.998,-462.5 -175.002,-337.5 -175.002,-387.5 74.998,-512.5 174.999,-462.5 174.999,-412.5 				
					"/>
			</g>
		</g>
		<polygon class="st8" points="74.998,-412.5 -175.002,-287.5 -175.002,-337.5 74.998,-462.5 174.999,-412.5 174.999,-362.5 		"/>
		<polygon class="st9" points="74.998,-362.5 -175.002,-237.5 -175.002,-287.5 74.998,-412.5 174.998,-362.5 174.998,-312.5 		"/>
		<polygon class="st10" points="74.998,-312.5 -175.002,-187.5 -175.002,-237.5 74.998,-362.5 174.998,-312.5 174.998,-262.5 		"/>
	</g>
</symbol>
<symbol  id="_x33_block_x5F_1" viewBox="-150.001 -600 300.001 750">
	<g id="新規シンボル_6_108_">
	</g>
	<g id="新規シンボル_20_4_">
		<g id="新規シンボル_6_107_">
		</g>
	</g>
	<polygon class="st5" points="-0.001,0 -0.001,-350 149.999,-275 150,75 	"/>
	<polygon class="st0" points="-0.001,0 -0.001,-350 -150,-275 -150,75 	"/>
	<g id="新規シンボル_6_106_">
	</g>
	<g id="新規シンボル_6_105_">
	</g>
	<polygon class="st4" points="150,75 0,0 -150,75 0.001,150 	"/>
	<g>
		<polygon class="st1" points="-0.001,0 -0.001,-50 -50.001,-25 -50.001,25 		"/>
		<polygon class="st1" points="-50.001,-25 -50.001,-75 -100.001,-50 -100.001,0 		"/>
		<polygon class="st3" points="-0.001,-50 -0.001,-100 49.999,-75 49.999,-25 		"/>
		<polygon class="st3" points="49.999,25 49.999,-25 99.999,0 99.999,50 		"/>
		<polygon class="st3" points="99.999,0 99.999,-50 149.999,-25 149.999,25 		"/>
		<g>
			<g>
				<g id="新規シンボル_6_104_">
					<polygon class="st1" points="-0.001,-100 -0.001,-150 -50.001,-125 -50.001,-75 					"/>
					<polygon class="st1" points="-50.001,-125 -50.001,-175 -100.001,-150 -100.001,-100 					"/>
				</g>
			</g>
			<g id="新規シンボル_6_103_">
				<polygon class="st3" points="-0.001,-150 -0.001,-200 49.999,-175 49.999,-125 				"/>
				<polygon class="st3" points="49.999,-75 49.999,-125 99.999,-100 99.999,-50 				"/>
			</g>
		</g>
		<polygon class="st1" points="-100,50 -100,0 -150,25 -150,75 		"/>
		<g>
			<g>
				<g id="新規シンボル_6_73_">
					<polygon class="st1" points="-100,-50 -100,-100 -150,-75 -150,-25 					"/>
				</g>
			</g>
		</g>
		<g>
			<g id="新規シンボル_6_72_">
				<polygon class="st3" points="99.999,-100 99.999,-150 149.999,-125 149.999,-75 				"/>
			</g>
		</g>
	</g>
	<g>
		<polygon class="st1" points="-0.001,-200 -0.001,-250 -50.001,-225 -50.001,-175 		"/>
		<polygon class="st1" points="-50.001,-225 -50.001,-275 -100.001,-250 -100.001,-200 		"/>
		<polygon class="st3" points="-0.001,-250 -0.001,-300 49.999,-275 49.999,-225 		"/>
		<polygon class="st3" points="49.999,-175 49.999,-225 99.999,-200 99.999,-150 		"/>
		<polygon class="st3" points="99.999,-200 99.999,-250 149.999,-225 149.999,-175 		"/>
		<g>
			<g>
				<g id="新規シンボル_6_53_">
					<polygon class="st1" points="-0.001,-300 -0.001,-350 -50.001,-325 -50.001,-275 					"/>
				</g>
			</g>
			<g id="新規シンボル_6_52_">
				<polygon class="st3" points="49.999,-275 49.999,-325 99.999,-300 99.999,-250 				"/>
			</g>
		</g>
		<polygon class="st1" points="-100,-150 -100,-200 -150,-175 -150,-125 		"/>
		<g>
			<g>
				<g id="新規シンボル_6_48_">
					<polygon class="st1" points="-100,-250 -100,-300 -150,-275 -150,-225 					"/>
				</g>
			</g>
		</g>
	</g>
	<polygon class="st2" points="50,75 0,50 -50,75 0,100 	"/>
	<polygon class="st2" points="50,25 0,0 -50,25 0,50 	"/>
	<polygon class="st2" points="-49.999,75 -99.999,50 -149.999,75 -99.999,100 	"/>
	<polygon class="st2" points="50.001,125 0.001,100 -49.999,125 0.001,150 	"/>
	<polygon class="st2" points="150,75 100,50 50,75 100,100 	"/>
	<g>
		<g>
			<g>
				<polygon class="st6" points="-0.001,-550 -150.001,-475 -150.001,-525 -0.001,-600 149.999,-525 149.999,-475 				"/>
				<polygon class="st7" points="-0.001,-500 -150.001,-425 -150.001,-475 -0.001,-550 149.999,-475 149.999,-425 				"/>
			</g>
		</g>
		<polygon class="st8" points="-0.001,-450 -150.001,-375 -150.001,-425 -0.001,-500 149.999,-425 149.999,-375 		"/>
		<polygon class="st9" points="-0.001,-400 -150.001,-325 -150.001,-375 -0.001,-450 149.999,-375 149.999,-325 		"/>
		<polygon class="st10" points="-0.001,-350 -150.001,-275 -150.001,-325 -0.001,-400 149.999,-325 149.999,-275 		"/>
	</g>
</symbol>
<symbol  id="_x33_block_x5F_2_1_" viewBox="-150.001 -600 300.002 750">
	<g id="新規シンボル_1_5_">
		<g id="新規シンボル_6_64_">
		</g>
		<g id="新規シンボル_20_8_">
			<g id="新規シンボル_6_51_">
			</g>
		</g>
		<g id="新規シンボル_6_47_">
		</g>
		<g id="新規シンボル_6_45_">
		</g>
		<g>
			<polygon class="st3" points="-0.001,0 -0.001,-350 149.999,-275 150,75 			"/>
			<polygon class="st1" points="-0.001,0 -0.001,-350 -150,-275 -150,75 			"/>
			<g>
				<polygon class="st2" points="150,75 0,0 -150,75 0.001,150 				"/>
				<polygon class="st4" points="50,75 0,50 -50,75 0,100 				"/>
				<polygon class="st4" points="50,25 0,0 -50,25 0,50 				"/>
				<polygon class="st5" points="-0.001,-50 -0.001,-100 49.999,-75 49.999,-25 				"/>
				<polygon class="st5" points="49.999,25 49.999,-25 99.999,0 99.999,50 				"/>
				<polygon class="st5" points="99.999,0 99.999,-50 149.999,-25 149.999,25 				"/>
				<polygon class="st5" points="-0.001,-150 -0.001,-200 49.999,-175 49.999,-125 				"/>
				<polygon class="st5" points="49.999,-75 49.999,-125 99.999,-100 99.999,-50 				"/>
				<polygon class="st4" points="-49.999,75 -99.999,50 -149.999,75 -99.999,100 				"/>
				<polygon class="st4" points="50.001,125 0.001,100 -49.999,125 0.001,150 				"/>
				<polygon class="st4" points="150,75 100,50 50,75 100,100 				"/>
				<polygon class="st5" points="99.999,-100 99.999,-150 149.999,-125 149.999,-75 				"/>
				<polygon class="st0" points="-0.001,0 -0.001,-50 -50.001,-25 -50.001,25 				"/>
				<polygon class="st0" points="-50.001,-25 -50.001,-75 -100.001,-50 -100.001,0 				"/>
				<polygon class="st0" points="-0.001,-100 -0.001,-150 -50.001,-125 -50.001,-75 				"/>
				<polygon class="st0" points="-50.001,-125 -50.001,-175 -100.001,-150 -100.001,-100 				"/>
				<polygon class="st0" points="-100,50 -100,0 -150,25 -150,75 				"/>
				<polygon class="st0" points="-100,-50 -100,-100 -150,-75 -150,-25 				"/>
				<polygon class="st5" points="-0.001,-250 -0.001,-300 49.999,-275 49.999,-225 				"/>
				<polygon class="st5" points="49.999,-175 49.999,-225 99.999,-200 99.999,-150 				"/>
				<polygon class="st5" points="99.999,-200 99.999,-250 149.999,-225 149.999,-175 				"/>
				<polygon class="st5" points="49.999,-275 49.999,-325 99.999,-300 99.999,-250 				"/>
				<polygon class="st0" points="-0.001,-200 -0.001,-250 -50.001,-225 -50.001,-175 				"/>
				<polygon class="st0" points="-50.001,-225 -50.001,-275 -100.001,-250 -100.001,-200 				"/>
				<polygon class="st0" points="-0.001,-300 -0.001,-350 -50.001,-325 -50.001,-275 				"/>
				<polygon class="st0" points="-100,-150 -100,-200 -150,-175 -150,-125 				"/>
				<polygon class="st0" points="-100,-250 -100,-300 -150,-275 -150,-225 				"/>
			</g>
		</g>
		<g>
			<g>
				<g>
					<polygon class="st6" points="-0.001,-550 -150.001,-475 -150.001,-525 -0.001,-600 149.999,-525 149.999,-475 					"/>
					<polygon class="st7" points="-0.001,-500 -150.001,-425 -150.001,-475 -0.001,-550 149.999,-475 149.999,-425 					"/>
				</g>
			</g>
			<polygon class="st8" points="-0.001,-450 -150.001,-375 -150.001,-425 -0.001,-500 149.999,-425 149.999,-375 			"/>
			<polygon class="st9" points="-0.001,-400 -150.001,-325 -150.001,-375 -0.001,-450 149.999,-375 149.999,-325 			"/>
			<polygon class="st10" points="-0.001,-350 -150.001,-275 -150.001,-325 -0.001,-400 149.999,-325 149.999,-275 			"/>
		</g>
	</g>
	<g id="新規シンボル_6_44_">
	</g>
	<g id="新規シンボル_20_7_">
		<g id="新規シンボル_6_43_">
		</g>
	</g>
	<g id="新規シンボル_6_42_">
	</g>
	<g id="新規シンボル_6_36_">
	</g>
</symbol>
<symbol  id="_x33_block_x5F_2_2" viewBox="-100.002 -600 350.002 775">
	<g id="新規シンボル_1_2_">
		<g id="新規シンボル_6_67_">
		</g>
		<g id="新規シンボル_20_10_">
			<g id="新規シンボル_6_66_">
			</g>
		</g>
		<g id="新規シンボル_6_65_">
		</g>
		<g id="新規シンボル_6_63_">
		</g>
		<g>
			<polygon class="st5" points="-0.001,0 -0.001,-350 249.999,-225 250.001,125 			"/>
			<polygon class="st0" points="-0.001,0 -0.001,-350 -100,-300 -100,50 			"/>
			<g>
				<polygon class="st4" points="250.001,125 0,0 -100,50 150.002,175 				"/>
				<polygon class="st2" points="50,75 0,50 -50,75 0,100 				"/>
				<polygon class="st2" points="50,25 0,0 -50,25 0,50 				"/>
				<polygon class="st3" points="-0.001,-50 -0.001,-100 49.999,-75 49.999,-25 				"/>
				<polygon class="st3" points="49.999,25 49.999,-25 99.999,0 99.999,50 				"/>
				<polygon class="st3" points="99.999,0 99.999,-50 149.999,-25 149.999,25 				"/>
				<polygon class="st3" points="-0.001,-150 -0.001,-200 49.999,-175 49.999,-125 				"/>
				<polygon class="st3" points="49.999,-75 49.999,-125 99.999,-100 99.999,-50 				"/>
				<polygon class="st2" points="150,75 100,50 50,75 100,100 				"/>
				<polygon class="st2" points="150.001,125 100.001,100 50.001,125 100.001,150 				"/>
				<polygon class="st2" points="250.001,125 200.001,100 150.001,125 200.001,150 				"/>
				<polygon class="st3" points="99.999,-100 99.999,-150 149.999,-125 149.999,-75 				"/>
				<polygon class="st1" points="-0.001,0 -0.001,-50 -50.001,-25 -50.001,25 				"/>
				<polygon class="st1" points="-50.001,-25 -50.001,-75 -100.001,-50 -100.001,0 				"/>
				<polygon class="st1" points="-0.001,-100 -0.001,-150 -50.001,-125 -50.001,-75 				"/>
				<polygon class="st1" points="-50.001,-125 -50.001,-175 -100.001,-150 -100.001,-100 				"/>
				<polygon class="st3" points="-0.001,-250 -0.001,-300 49.999,-275 49.999,-225 				"/>
				<polygon class="st3" points="49.999,-175 49.999,-225 99.999,-200 99.999,-150 				"/>
				<polygon class="st3" points="99.999,-200 99.999,-250 149.999,-225 149.999,-175 				"/>
				<polygon class="st3" points="49.999,-275 49.999,-325 99.999,-300 99.999,-250 				"/>
				<polygon class="st3" points="149.999,75 149.998,25 199.998,50 199.998,100 				"/>
				<polygon class="st3" points="199.999,50 199.998,0 249.998,25 249.998,75 				"/>
				<polygon class="st3" points="149.999,-25 149.998,-75 199.998,-50 199.998,0 				"/>
				<polygon class="st3" points="199.999,-50 199.998,-100 249.998,-75 249.998,-25 				"/>
				<polygon class="st3" points="149.999,-125 149.998,-175 199.998,-150 199.998,-100 				"/>
				<polygon class="st3" points="199.999,-150 199.998,-200 249.998,-175 249.998,-125 				"/>
				<polygon class="st3" points="149.999,-225 149.998,-275 199.998,-250 199.998,-200 				"/>
				<polygon class="st1" points="-0.001,-200 -0.001,-250 -50.001,-225 -50.001,-175 				"/>
				<polygon class="st1" points="-50.001,-225 -50.001,-275 -100.001,-250 -100.001,-200 				"/>
				<polygon class="st1" points="-0.001,-300 -0.001,-350 -50.001,-325 -50.001,-275 				"/>
			</g>
		</g>
		<g>
			<g>
				<g>
					<polygon class="st6" points="-0.001,-550 -100.001,-500 -100.001,-550 -0.001,-600 249.999,-475 249.999,-425 					"/>
					<polygon class="st7" points="-0.001,-500 -100.001,-450 -100.001,-500 -0.001,-550 249.999,-425 249.999,-375 					"/>
				</g>
			</g>
			<polygon class="st8" points="-0.001,-450 -100.001,-400 -100.001,-450 -0.001,-500 249.999,-375 249.999,-325 			"/>
			<polygon class="st9" points="-0.001,-400 -100.002,-350 -100.002,-400 -0.001,-450 249.999,-325 249.999,-275 			"/>
			<polygon class="st10" points="-0.001,-350 -100.002,-300 -100.002,-350 -0.001,-400 249.999,-275 249.999,-225 			"/>
		</g>
	</g>
	<g id="新規シンボル_6_49_">
	</g>
	<g id="新規シンボル_20_9_">
		<g id="新規シンボル_6_46_">
		</g>
	</g>
	<g id="新規シンボル_6_31_">
	</g>
	<g id="新規シンボル_6_29_">
	</g>
</symbol>
<symbol  id="bridge" viewBox="-144.728 -76.769 289.456 153.537">
	<line class="st11" x1="-42.019" y1="61.524" x2="122.225" y2="-20.598"/>
	<line class="st11" x1="-116.788" y1="18.423" x2="47.456" y2="-63.699"/>
	<g>
		<g>
			<g>
				<g>
					<g>
						<polygon class="st12" points="4.747,-60.838 -17.319,-49.849 -17.354,-45.255 112.85,-2.175 112.885,-6.769 						"/>
						<polygon class="st13" points="4.712,-56.244 -17.354,-45.255 90.784,8.814 112.85,-2.175 						"/>
					</g>
				</g>
			</g>
			<g>
				<g>
					<g>
						<polygon class="st12" points="-58.941,-28.977 -81.006,-17.988 -81.041,-13.394 49.163,29.686 49.197,25.092 						"/>
						<polygon class="st13" points="-58.975,-24.383 -81.041,-13.394 27.097,40.675 49.163,29.686 						"/>
					</g>
				</g>
			</g>
			<g>
				<g>
					<g>
						<g>
							<polygon class="st14" points="36.59,-76.769 14.524,-65.78 14.49,-61.185 144.694,-18.106 144.728,-22.7 							"/>
							<polygon class="st15" points="36.556,-72.174 14.49,-61.185 122.628,-7.117 144.694,-18.106 							"/>
						</g>
					</g>
				</g>
				<g>
					<g>
						<g>
							<polygon class="st14" points="-27.097,-44.907 -49.163,-33.918 -49.197,-29.324 81.006,13.756 81.041,9.162 							"/>
							<polygon class="st15" points="-27.132,-40.313 -49.197,-29.324 58.941,24.745 81.006,13.756 							"/>
						</g>
					</g>
				</g>
				<g>
					<g>
						<g>
							<polygon class="st14" points="-90.784,-13.046 -112.85,-2.057 -112.885,2.537 17.319,45.617 17.354,41.023 							"/>
							<polygon class="st15" points="-90.819,-8.452 -112.885,2.537 -4.747,56.606 17.319,45.617 							"/>
						</g>
					</g>
				</g>
			</g>
			<g>
				<g>
					<g>
						<polygon class="st12" points="-122.628,2.884 -144.694,13.873 -144.728,18.468 -14.524,61.547 -14.49,56.953 						"/>
						<polygon class="st13" points="-122.662,7.479 -144.728,18.468 -36.59,72.536 -14.524,61.547 						"/>
					</g>
				</g>
			</g>
		</g>
	</g>
	<g>
		<path class="st16" d="M-129.807,29.107v-9.979c0-1.477,2.396-2.673,5.349-2.673c2.953,0,5.349,1.197,5.349,2.673v9.979H-129.807z"
			/>
		<ellipse class="st17" cx="-124.462" cy="29.026" rx="5.347" ry="2.673"/>
	</g>
	<g>
		<path class="st16" d="M-40.011,74.176v-9.979c0-1.477,2.396-2.673,5.349-2.673c2.953,0,5.349,1.197,5.349,2.673v9.979H-40.011z"/>
		<ellipse class="st17" cx="-34.666" cy="74.095" rx="5.347" ry="2.673"/>
	</g>
	<g>
		<path class="st18" d="M29.411-50.546v-9.979c0-1.477,2.396-2.673,5.349-2.673c2.953,0,5.349,1.197,5.349,2.673v9.979H29.411z"/>
		<ellipse class="st17" cx="34.756" cy="-50.627" rx="5.347" ry="2.673"/>
	</g>
	<g>
		<path class="st18" d="M119.207-5.477v-9.979c0-1.477,2.396-2.673,5.349-2.673c2.953,0,5.349,1.197,5.349,2.673v9.979H119.207z"/>
		<ellipse class="st17" cx="124.552" cy="-5.558" rx="5.347" ry="2.673"/>
	</g>
</symbol>
<symbol  id="bridge_x5F_L" viewBox="-319.663 -164.236 639.325 328.472">
	<g id="bridge_3_">
	</g>
	<g id="bridge_2_">
		<g>
			<line class="st11" x1="-216.953" y1="148.991" x2="297.16" y2="-108.065"/>
			<line class="st11" x1="-291.723" y1="105.89" x2="222.39" y2="-151.166"/>
			<g>
				<g>
					<g>
						<g>
							<g>
								<polygon class="st12" points="-170.188,26.629 -192.254,37.618 -192.288,42.212 -62.084,85.292 -62.05,80.698 								"/>
								<polygon class="st13" points="-170.223,31.223 -192.288,42.212 -84.15,96.281 -62.084,85.292 								"/>
							</g>
						</g>
					</g>
					<g>
						<g>
							<g>
								<polygon class="st12" points="-233.875,58.49 -255.941,69.479 -255.975,74.074 -125.772,117.154 -125.737,112.559 								
									"/>
								<polygon class="st13" points="-233.91,63.085 -255.975,74.074 -147.837,128.142 -125.772,117.154 								"/>
							</g>
						</g>
					</g>
					<g>
						<g>
							<g>
								<g>
									<polygon class="st14" points="-138.344,10.699 -160.41,21.688 -160.445,26.282 -30.241,69.362 -30.206,64.768 									"/>
									<polygon class="st15" points="-138.379,15.293 -160.445,26.282 -52.307,80.351 -30.241,69.362 									"/>
								</g>
							</g>
						</g>
						<g>
							<g>
								<g>
									<polygon class="st14" points="-202.032,42.56 -224.097,53.549 -224.132,58.143 -93.928,101.223 -93.894,96.629 									
										"/>
									<polygon class="st15" points="-202.066,47.154 -224.132,58.143 -115.994,112.212 -93.928,101.223 									"/>
								</g>
							</g>
						</g>
						<g>
							<g>
								<g>
									<polygon class="st14" points="-265.719,74.421 -287.784,85.41 -287.819,90.004 -157.615,133.084 -157.581,128.49 									
										"/>
									<polygon class="st15" points="-265.753,79.015 -287.819,90.004 -179.681,144.073 -157.615,133.084 									"/>
								</g>
							</g>
						</g>
					</g>
					<g>
						<g>
							<g>
								<polygon class="st12" points="-297.562,90.352 -319.628,101.341 -319.663,105.935 -189.459,149.015 -189.424,144.421 
																	"/>
								<polygon class="st13" points="-297.597,94.946 -319.663,105.935 -211.525,160.004 -189.459,149.015 								"/>
							</g>
						</g>
					</g>
				</g>
			</g>
			<g>
				<path class="st16" d="M-304.741,116.574v-9.979c0-1.477,2.396-2.673,5.349-2.673s5.349,1.197,5.349,2.673v9.979H-304.741z"/>
				<ellipse class="st17" cx="-299.396" cy="116.493" rx="5.347" ry="2.673"/>
			</g>
			<g>
				<path class="st16" d="M-214.946,161.644v-9.979c0-1.477,2.396-2.673,5.349-2.673s5.349,1.197,5.349,2.673v9.979H-214.946z"/>
				<ellipse class="st17" cx="-209.601" cy="161.562" rx="5.347" ry="2.673"/>
			</g>
			<g>
				<g>
					<g>
						<g>
							<g>
								<polygon class="st12" points="20.463,-68.652 -1.603,-57.663 -1.637,-53.069 128.566,-9.989 128.601,-14.583 								"/>
								<polygon class="st13" points="20.428,-64.058 -1.637,-53.069 106.501,1 128.566,-9.989 								"/>
							</g>
						</g>
					</g>
					<g>
						<g>
							<g>
								<polygon class="st12" points="-43.224,-36.791 -65.29,-25.802 -65.325,-21.208 64.879,21.872 64.914,17.278 								"/>
								<polygon class="st13" points="-43.259,-32.197 -65.325,-21.208 42.813,32.861 64.879,21.872 								"/>
							</g>
						</g>
					</g>
					<g>
						<g>
							<g>
								<g>
									<polygon class="st14" points="-11.381,-52.722 -33.446,-41.733 -33.481,-37.138 96.723,5.941 96.757,1.347 									"/>
									<polygon class="st15" points="-11.415,-48.127 -33.481,-37.138 74.657,16.93 96.723,5.941 									"/>
								</g>
							</g>
						</g>
						<g>
							<g>
								<g>
									<polygon class="st14" points="-75.068,-20.86 -97.134,-9.871 -97.168,-5.277 33.036,37.803 33.07,33.209 									"/>
									<polygon class="st15" points="-75.102,-16.266 -97.168,-5.277 10.97,48.792 33.036,37.803 									"/>
								</g>
							</g>
						</g>
					</g>
					<g>
						<g>
							<g>
								<polygon class="st12" points="-106.912,-4.93 -128.977,6.059 -129.012,10.653 1.192,53.733 1.226,49.139 								"/>
								<polygon class="st13" points="-106.946,-0.336 -129.012,10.653 -20.874,64.722 1.192,53.733 								"/>
							</g>
						</g>
					</g>
				</g>
			</g>
			<g>
				<g>
					<g>
						<g>
							<g>
								<polygon class="st14" points="179.681,-148.305 157.615,-137.316 157.581,-132.722 287.784,-89.642 287.819,-94.236 
																	"/>
								<polygon class="st15" points="179.646,-143.711 157.581,-132.722 265.719,-78.653 287.784,-89.642 								"/>
							</g>
						</g>
					</g>
					<g>
						<g>
							<g>
								<polygon class="st14" points="115.994,-116.444 93.928,-105.455 93.894,-100.861 224.097,-57.781 224.132,-62.375 								
									"/>
								<polygon class="st15" points="115.959,-111.85 93.894,-100.861 202.032,-46.792 224.097,-57.781 								"/>
							</g>
						</g>
					</g>
					<g>
						<g>
							<g>
								<g>
									<polygon class="st12" points="211.525,-164.236 189.459,-153.247 189.424,-148.653 319.628,-105.573 319.663,-110.167 
																			"/>
									<polygon class="st13" points="211.49,-159.642 189.424,-148.653 297.562,-94.584 319.628,-105.573 									"/>
								</g>
							</g>
						</g>
						<g>
							<g>
								<g>
									<polygon class="st12" points="147.837,-132.375 125.772,-121.386 125.737,-116.791 255.941,-73.712 255.975,-78.306 
																			"/>
									<polygon class="st13" points="147.803,-127.78 125.737,-116.791 233.875,-62.723 255.941,-73.712 									"/>
								</g>
							</g>
						</g>
						<g>
							<g>
								<g>
									<polygon class="st12" points="84.15,-100.513 62.084,-89.524 62.05,-84.93 192.254,-41.85 192.288,-46.444 									"/>
									<polygon class="st13" points="84.116,-95.919 62.05,-84.93 170.188,-30.861 192.254,-41.85 									"/>
								</g>
							</g>
						</g>
					</g>
					<g>
						<g>
							<g>
								<polygon class="st14" points="52.307,-84.583 30.241,-73.594 30.206,-69 160.41,-25.92 160.445,-30.514 								"/>
								<polygon class="st15" points="52.272,-79.989 30.206,-69 138.344,-14.931 160.41,-25.92 								"/>
							</g>
						</g>
					</g>
				</g>
			</g>
			<g>
				<path class="st16" d="M204.346-138.013v-9.979c0-1.477,2.396-2.673,5.349-2.673c2.953,0,5.349,1.197,5.349,2.673v9.979H204.346z
					"/>
				<ellipse class="st17" cx="209.691" cy="-138.095" rx="5.347" ry="2.673"/>
			</g>
			<g>
				<path class="st16" d="M294.141-92.944v-9.979c0-1.477,2.396-2.673,5.349-2.673s5.349,1.197,5.349,2.673v9.979H294.141z"/>
				<ellipse class="st17" cx="299.486" cy="-93.025" rx="5.347" ry="2.673"/>
			</g>
		</g>
	</g>
</symbol>
<symbol  id="grid2_2" viewBox="-100 -50 200 100">
	<polygon class="st4" points="100,0 0,-50 -100,0 0,50 	"/>
	<polygon class="st2" points="100,0 50,-25 0,0 50,25 	"/>
	<polygon class="st2" points="0,0 -50,-25 -100,0 -50,25 	"/>
</symbol>
<symbol  id="tree_2" viewBox="-100 -100 200 200">
	<g>
		<rect x="-100" y="-100" class="st19" width="200" height="200"/>
		<polygon class="st19" points="99.137,-31.866 0.001,-81.433 -99.134,-31.866 0.001,17.702 		"/>
	</g>
	<g>
		<ellipse class="st20" cx="0" cy="-56.445" rx="29.158" ry="14.579"/>
		<g>
			<g>
				<g>
					<path class="st21" d="M0.005-4.891C-7.105-4.737-12.93-8.91-12.633-12.647c0.003-0.692-0.007-42.468,0.003-42.657
						c0.158-4.195,5.755-7.565,12.635-7.565c6.98,0,12.639,3.469,12.639,7.747v42.482C12.644-8.36,6.985-4.891,0.005-4.891z"/>
					<path class="st22" d="M0.005-4.891c-0.002,0-0.004,0-0.006,0v-51.97c0-2.195-0.926-4.217-2.473-5.858
						c0.802-0.098,1.63-0.15,2.479-0.15c6.98,0,12.639,3.469,12.639,7.747v42.482C12.644-8.36,6.985-4.891,0.005-4.891z"/>
				</g>
				<path class="st23" d="M49.712,16.639c0-32.996-22.257-49.684-49.712-49.684s-49.712,16.689-49.712,49.684
					S-26.989,91.025,0,91.025S49.712,49.634,49.712,16.639z"/>
				<path class="st24" d="M37.95,25.315c24.196,3.488-7.644,51.606-17.194,57.477c-6.273,3.652-36.508,1.498-42.304-1.022
					c-7.216-0.22-41.927-58.352-17.753-56.651c-7.993-8.573,4.317-20.81,15.142-14.849C-24.525,0.075-6.667-3.742-1.176,5.349
					c5.55-9.065,23.391-5.182,22.949,5.015C32.665,4.46,46.033,16.774,37.95,25.315z"/>
			</g>
			<path class="st25" d="M36.079,64.39c-22.512,39.617-58.047,32.087-76.084-7.363c0.887-6.592,10.722-9.394,17.274-5.77
				c-0.342-9.529,16.348-14.145,21.479-5.649c5.188-8.472,21.861-3.793,21.448,5.736C30.375,45.826,41.403,54.432,36.079,64.39z"/>
		</g>
	</g>
</symbol>
<symbol  id="tree_3" viewBox="-100 -100 200 200">
	<g>
		<rect x="-100" y="-100" class="st19" width="200" height="200"/>
		<polygon class="st19" points="99.137,-31.866 0.001,-81.433 -99.134,-31.866 0.001,17.702 		"/>
	</g>
	<g>
		<ellipse class="st20" cx="0" cy="-56.445" rx="29.158" ry="14.579"/>
		<g>
			<g>
				<g>
					<path class="st26" d="M0.005-4.891C-7.105-4.737-12.93-8.91-12.633-12.647c0.003-0.692-0.007-42.468,0.003-42.657
						c0.158-4.195,5.755-7.565,12.635-7.565c6.98,0,12.639,3.469,12.639,7.747v42.482C12.644-8.36,6.985-4.891,0.005-4.891z"/>
					<path class="st27" d="M0.005-4.891c-0.002,0-0.004,0-0.006,0v-51.97c0-2.195-0.926-4.217-2.473-5.858
						c0.802-0.098,1.63-0.15,2.479-0.15c6.98,0,12.639,3.469,12.639,7.747v42.482C12.644-8.36,6.985-4.891,0.005-4.891z"/>
				</g>
				<path class="st28" d="M49.712,16.639c0-32.996-22.257-49.684-49.712-49.684s-49.712,16.689-49.712,49.684
					S-26.989,91.025,0,91.025S49.712,49.634,49.712,16.639z"/>
				<path class="st29" d="M37.95,25.315c24.196,3.488-7.644,51.606-17.194,57.477c-6.273,3.652-36.508,1.498-42.304-1.022
					c-7.216-0.22-41.927-58.352-17.753-56.651c-7.993-8.573,4.317-20.81,15.142-14.849C-24.525,0.075-6.667-3.742-1.176,5.349
					c5.55-9.065,23.391-5.182,22.949,5.015C32.665,4.46,46.033,16.774,37.95,25.315z"/>
			</g>
			<path class="st30" d="M36.079,64.39c-22.512,39.617-58.047,32.087-76.084-7.363c0.887-6.592,10.722-9.394,17.274-5.77
				c-0.342-9.529,16.348-14.145,21.479-5.649c5.188-8.472,21.861-3.793,21.448,5.736C30.375,45.826,41.403,54.432,36.079,64.39z"/>
		</g>
	</g>
</symbol>
<symbol  id="wood_x5F_bar" viewBox="-61.605 -89.338 91.97 109.928">
	<g id="新規シンボル_6_8_">
	</g>
	<g>
		<g>
			<g>
				<polygon class="st31" points="-25.568,16.671 -25.568,-71.067 -29.441,-72.992 -37.28,18.666 -33.407,20.591 				"/>
				<polygon class="st32" points="-29.441,14.747 -29.441,-72.992 -37.28,-69.072 -37.28,18.666 				"/>
			</g>
			<g>
				<polygon class="st31" points="7.276,0.325 7.276,-87.413 3.403,-89.338 -4.435,2.32 -0.562,4.245 				"/>
				<polygon class="st32" points="3.403,-1.599 3.403,-89.338 -4.435,-85.418 -4.435,2.32 				"/>
			</g>
		</g>
		<g>
			<polygon class="st12" points="30.364,-24.08 30.364,-42.096 26.491,-44.021 -61.605,18.044 -57.732,19.968 			"/>
			<polygon class="st13" points="26.491,-26.004 26.491,-44.021 -61.605,0.028 -61.605,18.044 			"/>
		</g>
		<g>
			<polygon class="st12" points="30.364,-54.235 30.364,-72.251 26.491,-74.175 -61.605,-12.111 -57.732,-10.186 			"/>
			<polygon class="st13" points="26.491,-56.159 26.491,-74.175 -61.605,-30.127 -61.605,-12.111 			"/>
		</g>
	</g>
	<g id="tile_x5F_rd_3_">
	</g>
	<g>
		<path class="st33" d="M-2.148-18.762c-1.004,0.643-1.818,0.169-1.818-1.058c0-1.227,0.814-2.743,1.818-3.386
			c1.004-0.643,1.818-0.169,1.818,1.058C-0.33-20.921-1.144-19.405-2.148-18.762z"/>
		<path class="st33" d="M-34.993-2.416c-1.004,0.643-1.818,0.169-1.818-1.058c0-1.227,0.814-2.743,1.818-3.386
			c1.004-0.643,1.818-0.169,1.818,1.058C-33.175-4.575-33.989-3.059-34.993-2.416z"/>
	</g>
	<g>
		<path class="st33" d="M-2.148-48.917c-1.004,0.643-1.818,0.169-1.818-1.058c0-1.227,0.814-2.743,1.818-3.386
			c1.004-0.643,1.818-0.169,1.818,1.058C-0.33-51.076-1.144-49.56-2.148-48.917z"/>
		<path class="st33" d="M-34.993-32.571c-1.004,0.643-1.818,0.169-1.818-1.058c0-1.227,0.814-2.743,1.818-3.386
			c1.004-0.643,1.818-0.169,1.818,1.058C-33.175-34.73-33.989-33.214-34.993-32.571z"/>
	</g>
</symbol>
<symbol  id="新規シンボル" viewBox="-249.936 -424.977 499.872 849.953">
	<g>
		<g>
			<g id="新規シンボル_6_155_">
			</g>
			<g id="新規シンボル_20_31_">
				<g id="新規シンボル_6_154_">
				</g>
			</g>
			<g id="新規シンボル_6_153_">
			</g>
			<g id="新規シンボル_6_152_">
			</g>
			<polygon class="st4" points="249.936,300.014 -0.01,175.023 -249.934,299.986 0.122,424.977 			"/>
			<polygon class="st2" points="50.121,349.977 0.121,324.977 -49.879,349.977 0.121,374.977 			"/>
			<polygon class="st2" points="50.121,299.977 0.121,274.977 -49.879,299.977 0.121,324.977 			"/>
			<polygon class="st2" points="-49.878,349.977 -99.878,324.977 -149.878,349.977 -99.878,374.977 			"/>
			<polygon class="st2" points="50.122,399.977 0.122,374.977 -49.878,399.977 0.122,424.977 			"/>
			<polygon class="st2" points="150.121,349.977 100.121,324.977 50.121,349.977 100.121,374.977 			"/>
		</g>
		<g>
			<g id="新規シンボル_1_13_">
				<g id="新規シンボル_6_151_">
				</g>
				<g id="新規シンボル_20_30_">
					<g id="新規シンボル_6_150_">
					</g>
				</g>
				<g id="新規シンボル_6_149_">
				</g>
				<g id="新規シンボル_6_148_">
				</g>
				<g>
					<polygon class="st5" points="-0.01,175.023 0.12,-175.023 249.934,-49.986 249.936,300.014 					"/>
					<g>
						<polygon class="st2" points="149.936,300.014 99.936,275.014 49.936,300.014 99.936,325.014 						"/>
						<polygon class="st2" points="149.936,250.014 99.936,225.014 49.936,250.014 99.936,275.014 						"/>
						<polygon class="st2" points="249.936,300.014 199.936,275.014 149.936,300.014 199.936,325.014 						"/>
					</g>
				</g>
			</g>
			<g id="新規シンボル_6_147_">
			</g>
			<g id="新規シンボル_20_29_">
				<g id="新規シンボル_6_146_">
				</g>
			</g>
			<g id="新規シンボル_6_145_">
			</g>
			<g id="新規シンボル_6_144_">
			</g>
		</g>
		<g>
			<g id="新規シンボル_1_12_">
				<g id="新規シンボル_6_143_">
				</g>
				<g id="新規シンボル_20_28_">
					<g id="新規シンボル_6_142_">
					</g>
				</g>
				<g id="新規シンボル_6_141_">
				</g>
				<g id="新規シンボル_6_140_">
				</g>
			</g>
			<g id="新規シンボル_6_139_">
			</g>
			<g id="新規シンボル_20_27_">
				<g id="新規シンボル_6_138_">
				</g>
			</g>
			<g id="新規シンボル_6_137_">
			</g>
			<g id="新規シンボル_6_136_">
			</g>
			<g>
				<polygon class="st2" points="-149.934,299.986 -199.934,274.986 -249.934,299.986 -199.934,324.986 				"/>
				<polygon class="st2" points="-49.934,299.986 -99.934,274.986 -149.934,299.986 -99.934,324.986 				"/>
				<line class="st1" x1="-249.935" y1="249.986" x2="-199.935" y2="224.986"/>
			</g>
			<polygon class="st6" points="-0.01,-374.976 -249.936,-250.014 -249.936,-300.014 -0.01,-424.977 249.934,-299.986 
				249.934,-249.986 			"/>
		</g>
		<g>
			<g id="新規シンボル_1_11_">
				<g id="新規シンボル_6_135_">
				</g>
				<g id="新規シンボル_20_26_">
					<g id="新規シンボル_6_134_">
					</g>
				</g>
				<g id="新規シンボル_6_133_">
				</g>
				<g id="新規シンボル_6_132_">
				</g>
			</g>
			<g id="新規シンボル_6_131_">
			</g>
			<g id="新規シンボル_20_25_">
				<g id="新規シンボル_6_130_">
				</g>
			</g>
			<g id="新規シンボル_6_129_">
			</g>
			<g id="新規シンボル_6_128_">
			</g>
			<g>
				<polygon class="st2" points="-50.011,249.986 -100.011,224.986 -150.011,249.986 -100.01,274.986 				"/>
				<polygon class="st2" points="49.989,249.986 -0.011,224.986 -50.011,249.986 -0.01,274.986 				"/>
			</g>
		</g>
		<g>
			<g id="新規シンボル_1_10_">
				<g id="新規シンボル_6_127_">
				</g>
				<g id="新規シンボル_20_24_">
					<g id="新規シンボル_6_126_">
					</g>
				</g>
				<g id="新規シンボル_6_125_">
				</g>
				<g id="新規シンボル_6_112_">
				</g>
			</g>
			<g id="新規シンボル_6_111_">
			</g>
			<g id="新規シンボル_20_23_">
				<g id="新規シンボル_6_110_">
				</g>
			</g>
			<g id="新規シンボル_6_109_">
			</g>
			<g id="新規シンボル_6_102_">
			</g>
			<g>
				<polygon class="st2" points="50.12,199.977 0.12,174.977 -49.88,199.977 0.12,224.977 				"/>
				<path class="st1" d="M-50.009,150.024"/>
				<path class="st1" d="M-50.01,150.023"/>
				<path class="st1" d="M-50.01,100.023"/>
				<path class="st1" d="M-50.01-99.977"/>
			</g>
			<g>
				<g>
					<g>
						<polygon class="st7" points="-0.01,-324.976 -249.933,-200.014 -249.933,-250.014 -0.01,-374.976 249.934,-249.986 
							249.934,-199.986 						"/>
					</g>
				</g>
				<polygon class="st8" points="-0.01,-274.976 -249.933,-150.014 -249.933,-200.014 -0.01,-324.976 249.934,-199.986 
					249.934,-149.986 				"/>
				<polygon class="st9" points="-0.01,-224.976 -249.933,-100.014 -249.933,-150.014 -0.01,-274.976 249.934,-149.986 
					249.934,-99.986 				"/>
				<polygon class="st10" points="-0.01,-174.976 -249.933,-50.014 -249.933,-100.014 -0.01,-224.976 249.934,-99.986 
					249.934,-49.986 				"/>
			</g>
		</g>
	</g>
	<g>
		<g id="新規シンボル_6_101_">
			<polygon class="st3" points="0.12,124.977 0.119,74.977 50.119,99.977 50.119,149.977 			"/>
			<polygon class="st3" points="50.12,199.977 50.119,149.977 100.119,174.977 100.119,224.977 			"/>
		</g>
		<g>
			<g id="新規シンボル_6_100_">
				<polygon class="st3" points="100.12,174.977 100.119,124.977 150.119,149.977 150.119,199.977 				"/>
			</g>
		</g>
		<polygon class="st3" points="0.12,24.977 0.119,-25.023 50.119,-0.023 50.119,49.977 		"/>
		<polygon class="st3" points="50.12,99.977 50.119,49.977 100.119,74.977 100.119,124.977 		"/>
		<polygon class="st3" points="100.12,74.977 100.119,24.977 150.119,49.977 150.119,99.977 		"/>
		<g id="新規シンボル_6_99_">
			<polygon class="st3" points="50.12,-0.023 50.119,-50.023 100.119,-25.023 100.119,24.977 			"/>
		</g>
		<polygon class="st3" points="99.934,175.014 99.934,125.014 149.934,150.014 149.934,200.014 		"/>
		<polygon class="st3" points="149.934,250.014 149.934,200.014 199.934,225.014 199.934,275.014 		"/>
		<polygon class="st3" points="199.934,225.014 199.934,175.014 249.934,200.014 249.934,250.014 		"/>
		<polygon class="st3" points="99.934,75.014 99.934,25.014 149.934,50.014 149.934,100.014 		"/>
		<polygon class="st3" points="149.934,150.014 149.934,100.014 199.934,125.014 199.934,175.014 		"/>
		<polygon class="st3" points="199.934,125.014 199.934,75.014 249.934,100.014 249.934,150.014 		"/>
		<polygon class="st3" points="99.934,-24.986 99.934,-74.986 149.934,-49.986 149.934,0.014 		"/>
		<polygon class="st3" points="149.934,50.014 149.934,0.014 199.934,25.014 199.934,75.014 		"/>
		<polygon class="st3" points="199.934,25.014 199.934,-24.986 249.934,0.014 249.934,50.014 		"/>
		<polygon class="st3" points="149.934,-49.986 149.934,-99.986 199.934,-74.986 199.934,-24.986 		"/>
		<polygon class="st3" points="49.934,-99.986 49.934,-149.986 99.934,-124.986 99.934,-74.986 		"/>
		<polygon class="st3" points="50.12,199.977 50.119,149.977 100.119,174.977 100.119,224.977 		"/>
		<polygon class="st3" points="0.12,124.977 0.119,74.977 50.119,99.977 50.119,149.977 		"/>
		<polygon class="st3" points="50.12,99.977 50.119,49.977 100.119,74.977 100.119,124.977 		"/>
		<polygon class="st3" points="0.12,24.977 0.119,-25.023 50.119,-0.023 50.119,49.977 		"/>
		<polygon class="st3" points="50.12,-0.023 50.119,-50.023 100.119,-25.023 100.119,24.977 		"/>
		<polygon class="st3" points="0.12,-75.023 0.119,-125.023 50.119,-100.023 50.119,-50.023 		"/>
	</g>
	<g>
		<polygon class="st1" points="0.011,174.996 -0.118,-175.051 -249.933,-50.014 -249.934,299.986 		"/>
		<polygon class="st0" points="0.12,124.987 0.12,74.987 -49.88,99.987 -49.88,149.987 		"/>
		<polygon class="st0" points="0.12,-75.013 0.12,-125.013 -49.88,-100.013 -49.88,-50.013 		"/>
		<path class="st1" d="M-249.935,199.986"/>
		<line class="st1" x1="-249.935" y1="49.986" x2="-199.935" y2="24.986"/>
		<path class="st1" d="M-249.935-0.014"/>
		<line class="st1" x1="-150.012" y1="199.987" x2="-100.012" y2="174.987"/>
		<path class="st1" d="M-150.012,149.987"/>
		<line class="st1" x1="-150.012" y1="-0.013" x2="-100.012" y2="-25.013"/>
		<path class="st1" d="M-150.012-50.013"/>
		<polygon class="st0" points="-0.009,25.033 -0.009,-24.967 -50.009,0.033 -50.009,50.033 		"/>
		<g>
			<polygon class="st0" points="-149.935,249.986 -149.935,199.986 -199.935,224.986 -199.935,274.986 			"/>
			<polygon class="st0" points="-199.935,224.986 -199.935,174.986 -249.935,199.986 -249.935,249.986 			"/>
			<g>
				<g id="新規シンボル_6_94_">
					<polygon class="st0" points="-149.935,149.986 -149.935,99.986 -199.935,124.986 -199.935,174.986 					"/>
					<polygon class="st0" points="-199.935,124.986 -199.935,74.986 -249.935,99.986 -249.935,149.986 					"/>
				</g>
			</g>
			<polygon class="st0" points="-149.935,49.986 -149.935,-0.014 -199.935,24.986 -199.935,74.986 			"/>
			<polygon class="st0" points="-199.935,24.986 -199.935,-25.014 -249.935,-0.014 -249.935,49.986 			"/>
			<g>
				<g id="新規シンボル_6_92_">
					<polygon class="st0" points="-149.935,-50.014 -149.935,-100.014 -199.935,-75.014 -199.935,-25.014 					"/>
				</g>
			</g>
			<polygon class="st0" points="-50.012,199.987 -50.012,149.987 -100.012,174.987 -100.012,224.987 			"/>
			<polygon class="st0" points="-100.012,174.987 -100.011,124.987 -150.011,149.987 -150.011,199.987 			"/>
			<g>
				<g id="新規シンボル_6_90_">
					<polygon class="st0" points="-50.012,99.987 -50.012,49.987 -100.012,74.987 -100.012,124.987 					"/>
					<polygon class="st0" points="-100.012,74.987 -100.011,24.987 -150.011,49.987 -150.011,99.987 					"/>
				</g>
			</g>
			<polygon class="st0" points="-50.012,-0.013 -50.012,-50.013 -100.012,-25.013 -100.012,24.987 			"/>
			<polygon class="st0" points="-100.012,-25.013 -100.011,-75.013 -150.011,-50.013 -150.011,-0.013 			"/>
			<g>
				<g id="新規シンボル_6_88_">
					<polygon class="st0" points="-50.012,-100.013 -50.012,-150.013 -100.012,-125.013 -100.012,-75.013 					"/>
				</g>
			</g>
		</g>
	</g>
</symbol>
<symbol  id="新規シンボル_3" viewBox="-249.936 -424.977 499.872 849.953">
	<g>
		<g>
			<g id="新規シンボル_6_292_">
			</g>
			<g id="新規シンボル_20_60_">
				<g id="新規シンボル_6_291_">
				</g>
			</g>
			<g id="新規シンボル_6_290_">
			</g>
			<g id="新規シンボル_6_289_">
			</g>
			<polygon class="st2" points="249.936,300.014 -0.01,175.023 -249.934,299.986 0.122,424.977 			"/>
			<polygon class="st4" points="50.121,349.977 0.121,324.977 -49.879,349.977 0.121,374.977 			"/>
			<polygon class="st4" points="50.121,299.977 0.121,274.977 -49.879,299.977 0.121,324.977 			"/>
			<polygon class="st4" points="-49.878,349.977 -99.878,324.977 -149.878,349.977 -99.878,374.977 			"/>
			<polygon class="st4" points="50.122,399.977 0.122,374.977 -49.878,399.977 0.122,424.977 			"/>
			<polygon class="st4" points="150.121,349.977 100.121,324.977 50.121,349.977 100.121,374.977 			"/>
		</g>
		<g>
			<g id="新規シンボル_1_27_">
				<g id="新規シンボル_6_288_">
				</g>
				<g id="新規シンボル_20_59_">
					<g id="新規シンボル_6_287_">
					</g>
				</g>
				<g id="新規シンボル_6_286_">
				</g>
				<g id="新規シンボル_6_285_">
				</g>
				<g>
					<polygon class="st3" points="-0.01,175.023 0.12,-175.023 249.934,-49.986 249.936,300.014 					"/>
					<g>
						<polygon class="st4" points="149.936,300.014 99.936,275.014 49.936,300.014 99.936,325.014 						"/>
						<polygon class="st4" points="149.936,250.014 99.936,225.014 49.936,250.014 99.936,275.014 						"/>
						<polygon class="st4" points="249.936,300.014 199.936,275.014 149.936,300.014 199.936,325.014 						"/>
					</g>
				</g>
			</g>
			<g id="新規シンボル_6_284_">
			</g>
			<g id="新規シンボル_20_58_">
				<g id="新規シンボル_6_283_">
				</g>
			</g>
			<g id="新規シンボル_6_282_">
			</g>
			<g id="新規シンボル_6_281_">
			</g>
		</g>
		<g>
			<g id="新規シンボル_1_26_">
				<g id="新規シンボル_6_280_">
				</g>
				<g id="新規シンボル_20_57_">
					<g id="新規シンボル_6_279_">
					</g>
				</g>
				<g id="新規シンボル_6_278_">
				</g>
				<g id="新規シンボル_6_277_">
				</g>
			</g>
			<g id="新規シンボル_6_276_">
			</g>
			<g id="新規シンボル_20_56_">
				<g id="新規シンボル_6_275_">
				</g>
			</g>
			<g id="新規シンボル_6_274_">
			</g>
			<g id="新規シンボル_6_273_">
			</g>
			<g>
				<polygon class="st4" points="-149.934,299.986 -199.934,274.986 -249.934,299.986 -199.934,324.986 				"/>
				<polygon class="st4" points="-49.934,299.986 -99.934,274.986 -149.934,299.986 -99.934,324.986 				"/>
				<line class="st0" x1="-249.935" y1="249.986" x2="-199.935" y2="224.986"/>
			</g>
			<polygon class="st6" points="-0.01,-374.976 -249.936,-250.014 -249.936,-300.014 -0.01,-424.977 249.934,-299.986 
				249.934,-249.986 			"/>
		</g>
		<g>
			<g id="新規シンボル_1_24_">
				<g id="新規シンボル_6_272_">
				</g>
				<g id="新規シンボル_20_55_">
					<g id="新規シンボル_6_271_">
					</g>
				</g>
				<g id="新規シンボル_6_270_">
				</g>
				<g id="新規シンボル_6_269_">
				</g>
			</g>
			<g id="新規シンボル_6_268_">
			</g>
			<g id="新規シンボル_20_54_">
				<g id="新規シンボル_6_267_">
				</g>
			</g>
			<g id="新規シンボル_6_266_">
			</g>
			<g id="新規シンボル_6_265_">
			</g>
			<g>
				<polygon class="st4" points="-50.011,249.986 -100.011,224.986 -150.011,249.986 -100.01,274.986 				"/>
				<polygon class="st4" points="49.989,249.986 -0.011,224.986 -50.011,249.986 -0.01,274.986 				"/>
			</g>
		</g>
		<g>
			<g id="新規シンボル_1_23_">
				<g id="新規シンボル_6_264_">
				</g>
				<g id="新規シンボル_20_53_">
					<g id="新規シンボル_6_263_">
					</g>
				</g>
				<g id="新規シンボル_6_262_">
				</g>
				<g id="新規シンボル_6_261_">
				</g>
			</g>
			<g id="新規シンボル_6_260_">
			</g>
			<g id="新規シンボル_20_52_">
				<g id="新規シンボル_6_259_">
				</g>
			</g>
			<g id="新規シンボル_6_258_">
			</g>
			<g id="新規シンボル_6_257_">
			</g>
			<g>
				<polygon class="st4" points="50.12,199.977 0.12,174.977 -49.88,199.977 0.12,224.977 				"/>
				<path class="st0" d="M-50.009,150.024"/>
				<path class="st0" d="M-50.01,150.023"/>
				<path class="st0" d="M-50.01,100.023"/>
				<path class="st1" d="M-50.01-99.977"/>
			</g>
			<g>
				<g>
					<g>
						<polygon class="st7" points="-0.01,-324.976 -249.933,-200.014 -249.933,-250.014 -0.01,-374.976 249.934,-249.986 
							249.934,-199.986 						"/>
					</g>
				</g>
				<polygon class="st8" points="-0.01,-274.976 -249.933,-150.014 -249.933,-200.014 -0.01,-324.976 249.934,-199.986 
					249.934,-149.986 				"/>
				<polygon class="st9" points="-0.01,-224.976 -249.933,-100.014 -249.933,-150.014 -0.01,-274.976 249.934,-149.986 
					249.934,-99.986 				"/>
				<polygon class="st10" points="-0.01,-174.976 -249.933,-50.014 -249.933,-100.014 -0.01,-224.976 249.934,-99.986 
					249.934,-49.986 				"/>
			</g>
		</g>
	</g>
	<g>
		<g id="新規シンボル_6_256_">
			<polygon class="st5" points="0.12,124.977 0.119,74.977 50.119,99.977 50.119,149.977 			"/>
			<polygon class="st5" points="50.12,199.977 50.119,149.977 100.119,174.977 100.119,224.977 			"/>
		</g>
		<g>
			<g id="新規シンボル_6_255_">
				<polygon class="st5" points="100.12,174.977 100.119,124.977 150.119,149.977 150.119,199.977 				"/>
			</g>
		</g>
		<polygon class="st5" points="0.12,24.977 0.119,-25.023 50.119,-0.023 50.119,49.977 		"/>
		<polygon class="st5" points="50.12,99.977 50.119,49.977 100.119,74.977 100.119,124.977 		"/>
		<polygon class="st5" points="100.12,74.977 100.119,24.977 150.119,49.977 150.119,99.977 		"/>
		<g id="新規シンボル_6_254_">
			<polygon class="st5" points="50.12,-0.023 50.119,-50.023 100.119,-25.023 100.119,24.977 			"/>
		</g>
		<polygon class="st5" points="99.934,175.014 99.934,125.014 149.934,150.014 149.934,200.014 		"/>
		<polygon class="st5" points="149.934,250.014 149.934,200.014 199.934,225.014 199.934,275.014 		"/>
		<polygon class="st5" points="199.934,225.014 199.934,175.014 249.934,200.014 249.934,250.014 		"/>
		<polygon class="st5" points="99.934,75.014 99.934,25.014 149.934,50.014 149.934,100.014 		"/>
		<polygon class="st5" points="149.934,150.014 149.934,100.014 199.934,125.014 199.934,175.014 		"/>
		<polygon class="st5" points="199.934,125.014 199.934,75.014 249.934,100.014 249.934,150.014 		"/>
		<polygon class="st5" points="99.934,-24.986 99.934,-74.986 149.934,-49.986 149.934,0.014 		"/>
		<polygon class="st5" points="149.934,50.014 149.934,0.014 199.934,25.014 199.934,75.014 		"/>
		<polygon class="st5" points="199.934,25.014 199.934,-24.986 249.934,0.014 249.934,50.014 		"/>
		<polygon class="st5" points="149.934,-49.986 149.934,-99.986 199.934,-74.986 199.934,-24.986 		"/>
		<polygon class="st5" points="49.934,-99.986 49.934,-149.986 99.934,-124.986 99.934,-74.986 		"/>
		<polygon class="st5" points="50.12,199.977 50.119,149.977 100.119,174.977 100.119,224.977 		"/>
		<polygon class="st5" points="0.12,124.977 0.119,74.977 50.119,99.977 50.119,149.977 		"/>
		<polygon class="st5" points="50.12,99.977 50.119,49.977 100.119,74.977 100.119,124.977 		"/>
		<polygon class="st5" points="0.12,24.977 0.119,-25.023 50.119,-0.023 50.119,49.977 		"/>
		<polygon class="st5" points="50.12,-0.023 50.119,-50.023 100.119,-25.023 100.119,24.977 		"/>
		<polygon class="st5" points="0.12,-75.023 0.119,-125.023 50.119,-100.023 50.119,-50.023 		"/>
	</g>
	<g>
		<polygon class="st0" points="0.011,174.996 -0.118,-175.051 -249.933,-50.014 -249.934,299.986 		"/>
		<polygon class="st1" points="0.12,124.987 0.12,74.987 -49.88,99.987 -49.88,149.987 		"/>
		<polygon class="st1" points="0.12,-75.013 0.12,-125.013 -49.88,-100.013 -49.88,-50.013 		"/>
		<path class="st0" d="M-249.935,199.986"/>
		<line class="st0" x1="-249.935" y1="49.986" x2="-199.935" y2="24.986"/>
		<path class="st0" d="M-249.935-0.014"/>
		<line class="st0" x1="-150.012" y1="199.987" x2="-100.012" y2="174.987"/>
		<path class="st0" d="M-150.012,149.987"/>
		<line class="st0" x1="-150.012" y1="-0.013" x2="-100.012" y2="-25.013"/>
		<path class="st0" d="M-150.012-50.013"/>
		<polygon class="st1" points="-0.009,25.033 -0.009,-24.967 -50.009,0.033 -50.009,50.033 		"/>
		<g>
			<polygon class="st1" points="-149.935,249.986 -149.935,199.986 -199.935,224.986 -199.935,274.986 			"/>
			<polygon class="st1" points="-199.935,224.986 -199.935,174.986 -249.935,199.986 -249.935,249.986 			"/>
			<g>
				<g id="新規シンボル_6_253_">
					<polygon class="st1" points="-149.935,149.986 -149.935,99.986 -199.935,124.986 -199.935,174.986 					"/>
					<polygon class="st1" points="-199.935,124.986 -199.935,74.986 -249.935,99.986 -249.935,149.986 					"/>
				</g>
			</g>
			<polygon class="st1" points="-149.935,49.986 -149.935,-0.014 -199.935,24.986 -199.935,74.986 			"/>
			<polygon class="st1" points="-199.935,24.986 -199.935,-25.014 -249.935,-0.014 -249.935,49.986 			"/>
			<g>
				<g id="新規シンボル_6_252_">
					<polygon class="st1" points="-149.935,-50.014 -149.935,-100.014 -199.935,-75.014 -199.935,-25.014 					"/>
				</g>
			</g>
			<polygon class="st1" points="-50.012,199.987 -50.012,149.987 -100.012,174.987 -100.012,224.987 			"/>
			<polygon class="st1" points="-100.012,174.987 -100.011,124.987 -150.011,149.987 -150.011,199.987 			"/>
			<g>
				<g id="新規シンボル_6_251_">
					<polygon class="st1" points="-50.012,99.987 -50.012,49.987 -100.012,74.987 -100.012,124.987 					"/>
					<polygon class="st1" points="-100.012,74.987 -100.011,24.987 -150.011,49.987 -150.011,99.987 					"/>
				</g>
			</g>
			<polygon class="st1" points="-50.012,-0.013 -50.012,-50.013 -100.012,-25.013 -100.012,24.987 			"/>
			<polygon class="st1" points="-100.012,-25.013 -100.011,-75.013 -150.011,-50.013 -150.011,-0.013 			"/>
			<g>
				<g id="新規シンボル_6_250_">
					<polygon class="st1" points="-50.012,-100.013 -50.012,-150.013 -100.012,-125.013 -100.012,-75.013 					"/>
				</g>
			</g>
		</g>
	</g>
</symbol>
<g id="field">
	<g>
		<defs>
			<rect id="SVGID_1_" width="3600" height="1800"/>
		</defs>
		<clipPath id="SVGID_2_">
			<use xlink:href="#SVGID_1_"  style="overflow:visible;"/>
		</clipPath>
		<g class="st34">
			<polygon class="st35" points="4500.5,899.5 1800.5,2249.5 -899.5,899.5 1800.5,-450.5 			"/>
		</g>
	</g>
	<g>
		<defs>
			<rect id="SVGID_3_" width="3600" height="1800"/>
		</defs>
		<clipPath id="SVGID_4_">
			<use xlink:href="#SVGID_3_"  style="overflow:visible;"/>
		</clipPath>
	</g>
</g>
<g id="山">
	<g>
		<g>
			<defs>
				<rect id="SVGID_5_" width="3600" height="1800"/>
			</defs>
			<clipPath id="SVGID_6_">
				<use xlink:href="#SVGID_5_"  style="overflow:visible;"/>
			</clipPath>
			<g class="st36">
				<g>
					<g>
						
							<use xlink:href="#_x33_block_x5F_2_1_"  width="300.002" height="750" x="-150.001" y="-600" transform="matrix(1 0 0 -1 1649.8564 -75.165)" style="overflow:visible;"/>
						<g>
							<g>
								
									<use xlink:href="#_x33_block_x5F_2_1_"  width="300.002" height="750" x="-150.001" y="-600" transform="matrix(1 0 0 -1 1949.8567 -75.1647)" style="overflow:visible;"/>
							</g>
							
								<use xlink:href="#_x33_block_x5F_1"  width="300.001" height="750" x="-150.001" y="-600" transform="matrix(1 0 0 -1 2099.8547 -0.165)" style="overflow:visible;"/>
							<g>
								
									<use xlink:href="#_x33_block_x5F_2_1_"  width="300.002" height="750" x="-150.001" y="-600" transform="matrix(1 0 0 -1 2249.855 74.8353)" style="overflow:visible;"/>
							</g>
							
								<use xlink:href="#_x33_block_x5F_1"  width="300.001" height="750" x="-150.001" y="-600" transform="matrix(1 0 0 -1 2399.853 149.8349)" style="overflow:visible;"/>
							
								<use xlink:href="#_x33_block_x5F_2_1_"  width="300.002" height="750" x="-150.001" y="-600" transform="matrix(1 0 0 -1 2549.8533 224.8352)" style="overflow:visible;"/>
						</g>
						<g>
							
								<use xlink:href="#_x33_block_x5F_1"  width="300.001" height="750" x="-150.001" y="-600" transform="matrix(1 0 0 -1 2699.8513 299.8349)" style="overflow:visible;"/>
							
								<use xlink:href="#_x33_block_x5F_2_1_"  width="300.002" height="750" x="-150.001" y="-600" transform="matrix(1 0 0 -1 2849.8516 374.8352)" style="overflow:visible;"/>
						</g>
						<g>
							
								<use xlink:href="#_x33_block_x5F_1"  width="300.001" height="750" x="-150.001" y="-600" transform="matrix(1 0 0 -1 2999.8496 449.8348)" style="overflow:visible;"/>
							
								<use xlink:href="#_x33_block_x5F_2_1_"  width="300.002" height="750" x="-150.001" y="-600" transform="matrix(1 0 0 -1 3149.8499 524.8351)" style="overflow:visible;"/>
						</g>
						<g>
							
								<use xlink:href="#_x33_block_x5F_1"  width="300.001" height="750" x="-150.001" y="-600" transform="matrix(1 0 0 -1 3299.8479 599.8348)" style="overflow:visible;"/>
							
								<use xlink:href="#_x33_block_x5F_2_1_"  width="300.002" height="750" x="-150.001" y="-600" transform="matrix(1 0 0 -1 3449.8484 674.8351)" style="overflow:visible;"/>
							
								<use xlink:href="#_x33_block_x5F_1"  width="300.001" height="750" x="-150.001" y="-600" transform="matrix(1 0 0 -1 3599.8464 749.8348)" style="overflow:visible;"/>
							
								<use xlink:href="#_x33_block_x5F_1"  width="300.001" height="750" x="-150.001" y="-600" transform="matrix(1 0 0 -1 1499.2209 -0.1091)" style="overflow:visible;"/>
							
								<use xlink:href="#_x33_block_x5F_2_1_"  width="300.002" height="750" x="-150.001" y="-600" transform="matrix(1 0 0 -1 1349.2771 74.8628)" style="overflow:visible;"/>
							
								<use xlink:href="#_x33_block_x5F_1"  width="300.001" height="750" x="-150.001" y="-600" transform="matrix(1 0 0 -1 1198.6416 149.9187)" style="overflow:visible;"/>
							
								<use xlink:href="#_x33_block_x5F_2_1_"  width="300.002" height="750" x="-150.001" y="-600" transform="matrix(1 0 0 -1 1048.6978 224.8906)" style="overflow:visible;"/>
							
								<use xlink:href="#_x33_block_x5F_1"  width="300.001" height="750" x="-150.001" y="-600" transform="matrix(1 0 0 -1 898.6413 299.9183)" style="overflow:visible;"/>
							
								<use xlink:href="#_x33_block_x5F_2_1_"  width="300.002" height="750" x="-150.001" y="-600" transform="matrix(1 0 0 -1 748.1185 374.9184)" style="overflow:visible;"/>
							
								<use xlink:href="#_x33_block_x5F_1"  width="300.001" height="750" x="-150.001" y="-600" transform="matrix(1 0 0 -1 598.1172 449.918)" style="overflow:visible;"/>
							
								<use xlink:href="#_x33_block_x5F_2_1_"  width="300.002" height="750" x="-150.001" y="-600" transform="matrix(1 0 0 -1 447.5391 524.9462)" style="overflow:visible;"/>
							
								<use xlink:href="#_x33_block_x5F_1"  width="300.001" height="750" x="-150.001" y="-600" transform="matrix(1 0 0 -1 296.9036 600.002)" style="overflow:visible;"/>
							
								<use xlink:href="#_x33_block_x5F_2_1_"  width="300.002" height="750" x="-150.001" y="-600" transform="matrix(1 0 0 -1 146.9036 675.002)" style="overflow:visible;"/>
							
								<use xlink:href="#_x33_block_x5F_1"  width="300.001" height="750" x="-150.001" y="-600" transform="matrix(1 0 0 -1 -3.7319 750.0579)" style="overflow:visible;"/>
						</g>
					</g>
					
						<use xlink:href="#grid2_2"  width="200" height="100" x="-100" y="-50" transform="matrix(1 0 0 -1 -53.0953 575.002)" style="overflow:visible;"/>
					
						<use xlink:href="#grid2_2"  width="200" height="100" x="-100" y="-50" transform="matrix(1 0 0 -1 1148.6427 -25.0814)" style="overflow:visible;"/>
					<g>
						
							<use xlink:href="#grid2_2"  width="200" height="100" x="-100" y="-50" transform="matrix(1 0 0 -1 748.6424 174.9183)" style="overflow:visible;"/>
						
							<use xlink:href="#grid2_2"  width="200" height="100" x="-100" y="-50" transform="matrix(1 0 0 -1 848.6989 124.8905)" style="overflow:visible;"/>
						
							<use xlink:href="#grid2_2"  width="200" height="100" x="-100" y="-50" transform="matrix(1 0 0 -1 648.6425 124.9182)" style="overflow:visible;"/>
						
							<use xlink:href="#grid2_2"  width="200" height="100" x="-100" y="-50" transform="matrix(1 0 0 -1 748.6425 74.9183)" style="overflow:visible;"/>
						
							<use xlink:href="#grid2_2"  width="200" height="100" x="-100" y="-50" transform="matrix(1 0 0 -1 948.6989 74.8905)" style="overflow:visible;"/>
						
							<use xlink:href="#grid2_2"  width="200" height="100" x="-100" y="-50" transform="matrix(1 0 0 -1 1048.7555 24.8628)" style="overflow:visible;"/>
						
							<use xlink:href="#grid2_2"  width="200" height="100" x="-100" y="-50" transform="matrix(1 0 0 -1 848.699 24.8905)" style="overflow:visible;"/>
						
							<use xlink:href="#grid2_2"  width="200" height="100" x="-100" y="-50" transform="matrix(1 0 0 -1 948.6991 -25.1095)" style="overflow:visible;"/>
						
							<use xlink:href="#grid2_2"  width="200" height="100" x="-100" y="-50" transform="matrix(1 0 0 -1 648.6414 224.918)" style="overflow:visible;"/>
						
							<use xlink:href="#grid2_2"  width="200" height="100" x="-100" y="-50" transform="matrix(1 0 0 -1 548.585 174.9457)" style="overflow:visible;"/>
						
							<use xlink:href="#grid2_2"  width="200" height="100" x="-100" y="-50" transform="matrix(1 0 0 -1 548.1196 274.9183)" style="overflow:visible;"/>
						
							<use xlink:href="#grid2_2"  width="200" height="100" x="-100" y="-50" transform="matrix(1 0 0 -1 448.1196 224.9183)" style="overflow:visible;"/>
						
							<use xlink:href="#grid2_2"  width="200" height="100" x="-100" y="-50" transform="matrix(1 0 0 -1 448.1186 324.918)" style="overflow:visible;"/>
						
							<use xlink:href="#grid2_2"  width="200" height="100" x="-100" y="-50" transform="matrix(1 0 0 -1 348.0622 274.9458)" style="overflow:visible;"/>
						
							<use xlink:href="#grid2_2"  width="200" height="100" x="-100" y="-50" transform="matrix(1 0 0 -1 347.5403 374.9461)" style="overflow:visible;"/>
						
							<use xlink:href="#grid2_2"  width="200" height="100" x="-100" y="-50" transform="matrix(1 0 0 -1 247.5403 324.946)" style="overflow:visible;"/>
						
							<use xlink:href="#grid2_2"  width="200" height="100" x="-100" y="-50" transform="matrix(1 0 0 -1 247.5392 424.9458)" style="overflow:visible;"/>
						
							<use xlink:href="#grid2_2"  width="200" height="100" x="-100" y="-50" transform="matrix(1 0 0 -1 147.4829 374.9735)" style="overflow:visible;"/>
						
							<use xlink:href="#grid2_2"  width="200" height="100" x="-100" y="-50" transform="matrix(1 0 0 -1 147.5392 474.9458)" style="overflow:visible;"/>
						
							<use xlink:href="#grid2_2"  width="200" height="100" x="-100" y="-50" transform="matrix(1 0 0 -1 47.5392 424.9457)" style="overflow:visible;"/>
						
							<use xlink:href="#grid2_2"  width="200" height="100" x="-100" y="-50" transform="matrix(1 0 0 -1 47.5382 524.9455)" style="overflow:visible;"/>
						
							<use xlink:href="#grid2_2"  width="200" height="100" x="-100" y="-50" transform="matrix(1 0 0 -1 -52.5182 474.9732)" style="overflow:visible;"/>
					</g>
					
						<use xlink:href="#grid2_2"  width="200" height="100" x="-100" y="-50" transform="matrix(1 0 0 -1 3649.8469 574.8347)" style="overflow:visible;"/>
					
						<use xlink:href="#grid2_2"  width="200" height="100" x="-100" y="-50" transform="matrix(1 0 0 -1 3549.8469 524.8347)" style="overflow:visible;"/>
					
						<use xlink:href="#grid2_2"  width="200" height="100" x="-100" y="-50" transform="matrix(1 0 0 -1 3449.8469 474.8346)" style="overflow:visible;"/>
					
						<use xlink:href="#grid2_2"  width="200" height="100" x="-100" y="-50" transform="matrix(1 0 0 -1 3349.8469 424.8346)" style="overflow:visible;"/>
					
						<use xlink:href="#grid2_2"  width="200" height="100" x="-100" y="-50" transform="matrix(1 0 0 -1 3249.8472 374.8346)" style="overflow:visible;"/>
					
						<use xlink:href="#grid2_2"  width="200" height="100" x="-100" y="-50" transform="matrix(1 0 0 -1 3149.8472 324.8345)" style="overflow:visible;"/>
					
						<use xlink:href="#grid2_2"  width="200" height="100" x="-100" y="-50" transform="matrix(1 0 0 -1 3049.8472 274.8345)" style="overflow:visible;"/>
					
						<use xlink:href="#grid2_2"  width="200" height="100" x="-100" y="-50" transform="matrix(1 0 0 -1 2949.8472 224.8345)" style="overflow:visible;"/>
					
						<use xlink:href="#grid2_2"  width="200" height="100" x="-100" y="-50" transform="matrix(1 0 0 -1 2849.8474 174.8344)" style="overflow:visible;"/>
					
						<use xlink:href="#grid2_2"  width="200" height="100" x="-100" y="-50" transform="matrix(1 0 0 -1 2749.8474 124.8344)" style="overflow:visible;"/>
					
						<use xlink:href="#grid2_2"  width="200" height="100" x="-100" y="-50" transform="matrix(1 0 0 -1 2649.8474 74.8344)" style="overflow:visible;"/>
					
						<use xlink:href="#grid2_2"  width="200" height="100" x="-100" y="-50" transform="matrix(1 0 0 -1 2549.8474 24.8343)" style="overflow:visible;"/>
					
						<use xlink:href="#grid2_2"  width="200" height="100" x="-100" y="-50" transform="matrix(1 0 0 -1 2449.8477 -25.1657)" style="overflow:visible;"/>
					
						<use xlink:href="#grid2_2"  width="200" height="100" x="-100" y="-50" transform="matrix(1 0 0 -1 3649.8469 474.8347)" style="overflow:visible;"/>
					
						<use xlink:href="#grid2_2"  width="200" height="100" x="-100" y="-50" transform="matrix(1 0 0 -1 3549.8469 424.8346)" style="overflow:visible;"/>
					
						<use xlink:href="#grid2_2"  width="200" height="100" x="-100" y="-50" transform="matrix(1 0 0 -1 3449.8472 374.8346)" style="overflow:visible;"/>
					
						<use xlink:href="#grid2_2"  width="200" height="100" x="-100" y="-50" transform="matrix(1 0 0 -1 3349.8472 324.8346)" style="overflow:visible;"/>
					
						<use xlink:href="#grid2_2"  width="200" height="100" x="-100" y="-50" transform="matrix(1 0 0 -1 3249.8472 274.8345)" style="overflow:visible;"/>
					
						<use xlink:href="#grid2_2"  width="200" height="100" x="-100" y="-50" transform="matrix(1 0 0 -1 3149.8472 224.8345)" style="overflow:visible;"/>
					
						<use xlink:href="#grid2_2"  width="200" height="100" x="-100" y="-50" transform="matrix(1 0 0 -1 3049.8474 174.8345)" style="overflow:visible;"/>
					
						<use xlink:href="#grid2_2"  width="200" height="100" x="-100" y="-50" transform="matrix(1 0 0 -1 2949.8474 124.8344)" style="overflow:visible;"/>
					
						<use xlink:href="#grid2_2"  width="200" height="100" x="-100" y="-50" transform="matrix(1 0 0 -1 2849.8474 74.8344)" style="overflow:visible;"/>
					
						<use xlink:href="#grid2_2"  width="200" height="100" x="-100" y="-50" transform="matrix(1 0 0 -1 2749.8474 24.8344)" style="overflow:visible;"/>
					
						<use xlink:href="#grid2_2"  width="200" height="100" x="-100" y="-50" transform="matrix(1 0 0 -1 2649.8477 -25.1657)" style="overflow:visible;"/>
				</g>
			</g>
			<g class="st36">
				<g>
					
						<use xlink:href="#新規シンボル"  width="499.872" height="849.953" x="-249.936" y="-424.977" transform="matrix(1 0 0 -1 1749.8627 849.7465)" style="overflow:visible;"/>
					
						<use xlink:href="#新規シンボル"  width="499.872" height="849.953" x="-249.936" y="-424.977" transform="matrix(1 0 0 -1 1749.8444 1199.6196)" style="overflow:visible;"/>
					
						<use xlink:href="#_x32_block_5"  width="350.002" height="775" x="-175.002" y="-562.5" transform="matrix(1 0 0 -1 1574.9108 1112.1382)" style="overflow:visible;"/>
					<g>
						
							<use xlink:href="#_x33_block_x5F_2_1_"  width="300.002" height="750" x="-150.001" y="-600" transform="matrix(1 0 0 -1 1200.0603 649.8067)" style="overflow:visible;"/>
					</g>
					<g>
						
							<use xlink:href="#新規シンボル"  width="499.872" height="849.953" x="-249.936" y="-424.977" transform="matrix(1 0 0 -1 2349.6379 899.7277)" style="overflow:visible;"/>
					</g>
					
						<use xlink:href="#新規シンボル"  width="499.872" height="849.953" x="-249.936" y="-424.977" transform="matrix(1 0 0 -1 1050.1066 1199.6802)" style="overflow:visible;"/>
					
						<use xlink:href="#_x33_block_x5F_2_2"  width="350.002" height="775" x="-100.002" y="-600" transform="matrix(1 0 0 -1 1150.0996 1074.6011)" style="overflow:visible;"/>
					
						<use xlink:href="#新規シンボル_3"  width="499.872" height="849.953" x="-249.936" y="-424.977" transform="matrix(1 0 0 -1 1399.9755 1374.6146)" style="overflow:visible;"/>
				</g>
			</g>
			<g class="st36">
				
					<use xlink:href="#_x32_block_4"  width="200.002" height="700" x="-25.002" y="-562.5" transform="matrix(1 0 0 -1 2274.6118 1112.1194)" style="overflow:visible;"/>
			</g>
			<g class="st36">
				
					<use xlink:href="#新規シンボル"  width="499.872" height="849.953" x="-249.936" y="-424.977" transform="matrix(1 0 0 -1 2449.6006 1199.6154)" style="overflow:visible;"/>
			</g>
			<g class="st36">
				
					<use xlink:href="#_x32_block_5"  width="350.002" height="775" x="-175.002" y="-562.5" transform="matrix(1 0 0 -1 2274.6118 1112.1194)" style="overflow:visible;"/>
			</g>
			<g class="st36">
				
					<use xlink:href="#新規シンボル_3"  width="499.872" height="849.953" x="-249.936" y="-424.977" transform="matrix(1 0 0 -1 2099.7314 1374.5498)" style="overflow:visible;"/>
			</g>
			<g class="st36">
				
					<use xlink:href="#新規シンボル"  width="499.872" height="849.953" x="-249.936" y="-424.977" transform="matrix(1 0 0 -1 1749.8444 1549.5491)" style="overflow:visible;"/>
			</g>
		</g>
	</g>
	<g>
		<polygon class="st4" points="2049.761,874.676 1999.78,899.666 1749.874,774.713 1400.005,949.648 1350.005,924.648 
			1749.875,724.714 		"/>
		<polygon class="st2" points="1599.873,849.713 1549.873,874.713 1499.873,849.713 1549.873,824.713 		"/>
		<polygon class="st2" points="1699.873,799.713 1649.873,824.713 1599.873,799.713 1649.873,774.713 		"/>
		<polygon class="st2" points="1899.818,799.704 1849.818,824.704 1799.818,799.704 1849.818,774.704 		"/>
		<polygon class="st2" points="1999.78,849.685 1949.78,874.685 1899.78,849.685 1949.78,824.685 		"/>
		<polygon class="st2" points="1499.968,899.666 1449.968,924.666 1399.968,899.666 1449.968,874.666 		"/>
		<polygon class="st2" points="1799.874,749.713 1749.874,774.713 1699.874,749.713 1749.874,724.713 		"/>
	</g>
	<g id="_x33_block_x5F_2">
		<g id="新規シンボル_1">
			<g id="新規シンボル_6_28_">
			</g>
			<g id="新規シンボル_20_1_">
				<g id="新規シンボル_6_26_">
				</g>
			</g>
			<g id="新規シンボル_6_25_">
			</g>
			<g id="新規シンボル_6_22_">
			</g>
		</g>
		<g id="新規シンボル_6_11_">
		</g>
		<g id="新規シンボル_20">
			<g id="新規シンボル_6_10_">
			</g>
		</g>
		<g id="新規シンボル_6_3_">
		</g>
		<g id="新規シンボル_6">
		</g>
	</g>
	<g>
		<g>
			<polygon class="st3" points="2349.667,524.741 2349.667,674.76 2549.648,574.769 2549.65,424.751 			"/>
			<polygon class="st0" points="2349.649,524.751 2349.649,674.788 2199.65,599.788 2199.65,449.751 			"/>
			<g>
				<polygon class="st2" points="2549.65,424.751 2349.649,524.751 2199.649,449.75 2399.651,349.751 				"/>
				<polygon class="st4" points="2449.65,424.751 2399.65,449.751 2349.65,424.751 2399.65,399.751 				"/>
				<polygon class="st4" points="2349.65,474.751 2299.65,499.751 2249.65,474.751 2299.65,449.751 				"/>
				<polygon class="st4" points="2449.65,474.751 2399.65,499.751 2349.65,474.751 2399.65,449.751 				"/>
				<polygon class="st5" points="2399.649,549.751 2399.648,599.751 2449.648,574.751 2449.648,524.751 				"/>
				<polygon class="st5" points="2449.649,474.751 2449.648,524.751 2499.648,499.751 2499.648,449.751 				"/>
				<polygon class="st5" points="2499.649,499.751 2499.648,549.751 2549.648,524.751 2549.648,474.751 				"/>
				<polygon class="st5" points="2449.649,574.751 2449.648,624.751 2499.648,599.751 2499.648,549.751 				"/>
				<polygon class="st5" points="2349.649,524.769 2349.648,574.769 2399.648,549.769 2399.648,499.769 				"/>
				<polygon class="st5" points="2349.649,624.769 2349.648,674.769 2399.648,649.769 2399.648,599.769 				"/>
				<polygon class="st4" points="2349.651,424.751 2299.651,449.751 2249.651,424.751 2299.651,399.751 				"/>
				<polygon class="st4" points="2449.651,374.751 2399.651,399.751 2349.651,374.751 2399.651,349.751 				"/>
				<polygon class="st4" points="2549.65,424.751 2499.65,449.751 2449.65,424.751 2499.65,399.751 				"/>
				<polygon class="st1" points="2349.649,524.751 2349.649,574.751 2299.649,549.751 2299.649,499.751 				"/>
				<polygon class="st1" points="2299.649,549.751 2299.649,599.751 2249.649,574.751 2249.649,524.751 				"/>
				<polygon class="st37" points="2299.649,549.751 2299.649,649.751 2249.65,624.751 2249.649,524.751 				"/>
				<polygon class="st1" points="2349.649,624.751 2349.649,674.751 2299.649,649.751 2299.649,599.751 				"/>
				<polygon class="st1" points="2249.65,474.751 2249.65,524.751 2199.65,499.751 2199.65,449.751 				"/>
				<polygon class="st1" points="2249.65,574.751 2249.65,624.751 2199.65,599.751 2199.65,549.751 				"/>
			</g>
		</g>
		<polygon class="st38" points="2299.649,599.751 2299.649,649.751 2249.65,624.751 		"/>
	</g>
</g>
<g id="釣り橋">
	
		<use xlink:href="#bridge"  width="289.456" height="153.537" x="-144.728" y="-76.769" transform="matrix(1 0 0 -1 1925.8545 986.8335)" style="overflow:visible;"/>
	
		<use xlink:href="#bridge_x5F_L"  width="639.325" height="328.472" x="-319.663" y="-164.236" transform="matrix(-1 0 0 -1 1401.8185 723.7115)" style="overflow:visible;"/>
	<g>
		<g>
			
				<use xlink:href="#bridge"  width="289.456" height="153.537" x="-144.728" y="-76.769" transform="matrix(-1 0 0 -1 1926.6218 1161.0476)" style="overflow:visible;"/>
		</g>
	</g>
	
		<use xlink:href="#bridge_x5F_L"  width="639.325" height="328.472" x="-319.663" y="-164.236" transform="matrix(1 0 0 -1 2100.7888 724.4318)" style="overflow:visible;"/>
</g>
<g id="木">
	<g>
		
			<use xlink:href="#tree_2"  width="200" height="200" x="-100" y="-100" transform="matrix(0.5042 0 0 -0.5042 1749.9991 433.7693)" style="overflow:visible;"/>
		
			<use xlink:href="#tree_3"  width="200" height="200" x="-100" y="-100" transform="matrix(0.5042 0 0 -0.5042 1799.9805 458.7599)" style="overflow:visible;"/>
		
			<use xlink:href="#tree_2"  width="200" height="200" x="-100" y="-100" transform="matrix(0.5042 0 0 -0.5042 1849.9617 483.7505)" style="overflow:visible;"/>
		
			<use xlink:href="#tree_3"  width="200" height="200" x="-100" y="-100" transform="matrix(0.5042 0 0 -0.5042 1899.943 508.7411)" style="overflow:visible;"/>
		
			<use xlink:href="#tree_2"  width="200" height="200" x="-100" y="-100" transform="matrix(0.5042 0 0 -0.5042 1949.9243 533.7318)" style="overflow:visible;"/>
		
			<use xlink:href="#tree_2"  width="200" height="200" x="-100" y="-100" transform="matrix(0.5042 0 0 -0.5042 2449.7371 783.6382)" style="overflow:visible;"/>
		
			<use xlink:href="#tree_3"  width="200" height="200" x="-100" y="-100" transform="matrix(0.5042 0 0 -0.5042 2499.7183 808.6288)" style="overflow:visible;"/>
		
			<use xlink:href="#tree_2"  width="200" height="200" x="-100" y="-100" transform="matrix(0.5042 0 0 -0.5042 2549.6995 833.6194)" style="overflow:visible;"/>
		
			<use xlink:href="#tree_3"  width="200" height="200" x="-100" y="-100" transform="matrix(0.5042 0 0 -0.5042 2599.6809 858.61)" style="overflow:visible;"/>
		
			<use xlink:href="#tree_2"  width="200" height="200" x="-100" y="-100" transform="matrix(0.5042 0 0 -0.5042 2649.6621 883.6007)" style="overflow:visible;"/>
		
			<use xlink:href="#tree_3"  width="200" height="200" x="-100" y="-100" transform="matrix(0.5042 0 0 -0.5042 1700.0179 458.7599)" style="overflow:visible;"/>
		
			<use xlink:href="#tree_3"  width="200" height="200" x="-100" y="-100" transform="matrix(0.5042 0 0 -0.5042 2599.6809 908.5914)" style="overflow:visible;"/>
		
			<use xlink:href="#tree_2"  width="200" height="200" x="-100" y="-100" transform="matrix(0.5042 0 0 -0.5042 1650.0366 483.7505)" style="overflow:visible;"/>
		
			<use xlink:href="#tree_2"  width="200" height="200" x="-100" y="-100" transform="matrix(0.5042 0 0 -0.5042 2549.6995 933.582)" style="overflow:visible;"/>
		
			<use xlink:href="#tree_3"  width="200" height="200" x="-100" y="-100" transform="matrix(0.5042 0 0 -0.5042 1600.0553 508.7411)" style="overflow:visible;"/>
		
			<use xlink:href="#tree_2"  width="200" height="200" x="-100" y="-100" transform="matrix(0.5042 0 0 -0.5042 2499.7183 958.5726)" style="overflow:visible;"/>
		
			<use xlink:href="#tree_2"  width="200" height="200" x="-100" y="-100" transform="matrix(0.5042 0 0 -0.5042 1550.0741 533.7318)" style="overflow:visible;"/>
		
			<use xlink:href="#tree_3"  width="200" height="200" x="-100" y="-100" transform="matrix(0.5042 0 0 -0.5042 2449.7371 983.5632)" style="overflow:visible;"/>
		
			<use xlink:href="#tree_3"  width="200" height="200" x="-100" y="-100" transform="matrix(0.5042 0 0 -0.5042 2399.7556 1008.5539)" style="overflow:visible;"/>
		
			<use xlink:href="#tree_2"  width="200" height="200" x="-100" y="-100" transform="matrix(0.5042 0 0 -0.5042 2349.7744 1033.5446)" style="overflow:visible;"/>
		
			<use xlink:href="#tree_3"  width="200" height="200" x="-100" y="-100" transform="matrix(0.5042 0 0 -0.5042 2299.7932 1058.5352)" style="overflow:visible;"/>
		
			<use xlink:href="#tree_2"  width="200" height="200" x="-100" y="-100" transform="matrix(0.5042 0 0 -0.5042 2249.8118 1083.5258)" style="overflow:visible;"/>
		
			<use xlink:href="#tree_3"  width="200" height="200" x="-100" y="-100" transform="matrix(0.5042 0 0 -0.5042 2199.8306 1108.5165)" style="overflow:visible;"/>
		
			<use xlink:href="#tree_2"  width="200" height="200" x="-100" y="-100" transform="matrix(0.5042 0 0 -0.5042 2149.8494 1133.5071)" style="overflow:visible;"/>
		
			<use xlink:href="#tree_3"  width="200" height="200" x="-100" y="-100" transform="matrix(0.5042 0 0 -0.5042 1749.9991 983.5632)" style="overflow:visible;"/>
		
			<use xlink:href="#tree_3"  width="200" height="200" x="-100" y="-100" transform="matrix(0.5042 0 0 -0.5042 2099.8682 1158.4977)" style="overflow:visible;"/>
		
			<use xlink:href="#tree_2"  width="200" height="200" x="-100" y="-100" transform="matrix(0.5042 0 0 -0.5042 1700.0178 1008.5539)" style="overflow:visible;"/>
		
			<use xlink:href="#tree_3"  width="200" height="200" x="-100" y="-100" transform="matrix(0.5042 0 0 -0.5042 1650.0366 1033.5446)" style="overflow:visible;"/>
		
			<use xlink:href="#tree_3"  width="200" height="200" x="-100" y="-100" transform="matrix(0.5042 0 0 -0.5042 1050.2614 783.6382)" style="overflow:visible;"/>
		
			<use xlink:href="#tree_2"  width="200" height="200" x="-100" y="-100" transform="matrix(0.5042 0 0 -0.5042 1600.0553 1058.5352)" style="overflow:visible;"/>
		
			<use xlink:href="#tree_2"  width="200" height="200" x="-100" y="-100" transform="matrix(0.5042 0 0 -0.5042 1749.9991 1133.5071)" style="overflow:visible;"/>
		
			<use xlink:href="#tree_2"  width="200" height="200" x="-100" y="-100" transform="matrix(0.5042 0 0 -0.5042 1949.9243 1233.4696)" style="overflow:visible;"/>
		
			<use xlink:href="#tree_2"  width="200" height="200" x="-100" y="-100" transform="matrix(0.5042 0 0 -0.5042 1000.2801 808.6288)" style="overflow:visible;"/>
		
			<use xlink:href="#tree_3"  width="200" height="200" x="-100" y="-100" transform="matrix(0.5042 0 0 -0.5042 1550.0741 1083.5258)" style="overflow:visible;"/>
		
			<use xlink:href="#tree_3"  width="200" height="200" x="-100" y="-100" transform="matrix(0.5042 0 0 -0.5042 1700.0179 1158.4977)" style="overflow:visible;"/>
		
			<use xlink:href="#tree_3"  width="200" height="200" x="-100" y="-100" transform="matrix(0.5042 0 0 -0.5042 1899.943 1258.4602)" style="overflow:visible;"/>
		
			<use xlink:href="#tree_3"  width="200" height="200" x="-100" y="-100" transform="matrix(0.5042 0 0 -0.5042 950.2988 833.6194)" style="overflow:visible;"/>
		
			<use xlink:href="#tree_2"  width="200" height="200" x="-100" y="-100" transform="matrix(0.5042 0 0 -0.5042 1500.0928 1108.5165)" style="overflow:visible;"/>
		
			<use xlink:href="#tree_2"  width="200" height="200" x="-100" y="-100" transform="matrix(0.5042 0 0 -0.5042 1650.0366 1183.4883)" style="overflow:visible;"/>
		
			<use xlink:href="#tree_2"  width="200" height="200" x="-100" y="-100" transform="matrix(0.5042 0 0 -0.5042 1849.9617 1283.4509)" style="overflow:visible;"/>
		
			<use xlink:href="#tree_2"  width="200" height="200" x="-100" y="-100" transform="matrix(0.5042 0 0 -0.5042 900.3176 858.61)" style="overflow:visible;"/>
		
			<use xlink:href="#tree_3"  width="200" height="200" x="-100" y="-100" transform="matrix(0.5042 0 0 -0.5042 1450.1116 1133.5071)" style="overflow:visible;"/>
		
			<use xlink:href="#tree_3"  width="200" height="200" x="-100" y="-100" transform="matrix(0.5042 0 0 -0.5042 1600.0553 1208.479)" style="overflow:visible;"/>
		
			<use xlink:href="#tree_3"  width="200" height="200" x="-100" y="-100" transform="matrix(0.5042 0 0 -0.5042 1799.9805 1308.4415)" style="overflow:visible;"/>
		
			<use xlink:href="#tree_3"  width="200" height="200" x="-100" y="-100" transform="matrix(0.5042 0 0 -0.5042 850.3363 883.6007)" style="overflow:visible;"/>
		
			<use xlink:href="#tree_2"  width="200" height="200" x="-100" y="-100" transform="matrix(0.5042 0 0 -0.5042 900.3176 908.5914)" style="overflow:visible;"/>
		
			<use xlink:href="#tree_3"  width="200" height="200" x="-100" y="-100" transform="matrix(0.5042 0 0 -0.5042 950.2988 933.582)" style="overflow:visible;"/>
		
			<use xlink:href="#tree_2"  width="200" height="200" x="-100" y="-100" transform="matrix(0.5042 0 0 -0.5042 1000.2801 958.5726)" style="overflow:visible;"/>
		
			<use xlink:href="#tree_3"  width="200" height="200" x="-100" y="-100" transform="matrix(0.5042 0 0 -0.5042 1050.2614 983.5632)" style="overflow:visible;"/>
		
			<use xlink:href="#tree_2"  width="200" height="200" x="-100" y="-100" transform="matrix(0.5042 0 0 -0.5042 1100.2427 1008.5539)" style="overflow:visible;"/>
		
			<use xlink:href="#tree_3"  width="200" height="200" x="-100" y="-100" transform="matrix(0.5042 0 0 -0.5042 1150.2239 1033.5446)" style="overflow:visible;"/>
		
			<use xlink:href="#tree_2"  width="200" height="200" x="-100" y="-100" transform="matrix(0.5042 0 0 -0.5042 1200.2052 1058.5352)" style="overflow:visible;"/>
		
			<use xlink:href="#tree_3"  width="200" height="200" x="-100" y="-100" transform="matrix(0.5042 0 0 -0.5042 1250.1864 1083.5258)" style="overflow:visible;"/>
		
			<use xlink:href="#tree_2"  width="200" height="200" x="-100" y="-100" transform="matrix(0.5042 0 0 -0.5042 1300.1677 1108.5165)" style="overflow:visible;"/>
		
			<use xlink:href="#tree_3"  width="200" height="200" x="-100" y="-100" transform="matrix(0.5042 0 0 -0.5042 1350.149 1133.5071)" style="overflow:visible;"/>
		
			<use xlink:href="#tree_2"  width="200" height="200" x="-100" y="-100" transform="matrix(0.5042 0 0 -0.5042 1400.1302 1158.4977)" style="overflow:visible;"/>
		
			<use xlink:href="#tree_2"  width="200" height="200" x="-100" y="-100" transform="matrix(0.5042 0 0 -0.5042 1550.0741 1233.4696)" style="overflow:visible;"/>
		
			<use xlink:href="#tree_3"  width="200" height="200" x="-100" y="-100" transform="matrix(0.5042 0 0 -0.5042 1600.0553 1258.4602)" style="overflow:visible;"/>
		
			<use xlink:href="#tree_2"  width="200" height="200" x="-100" y="-100" transform="matrix(0.5042 0 0 -0.5042 1650.0366 1283.4509)" style="overflow:visible;"/>
		
			<use xlink:href="#tree_3"  width="200" height="200" x="-100" y="-100" transform="matrix(0.5042 0 0 -0.5042 1700.0179 1308.4415)" style="overflow:visible;"/>
		
			<use xlink:href="#tree_2"  width="200" height="200" x="-100" y="-100" transform="matrix(0.5042 0 0 -0.5042 1749.9991 1333.4321)" style="overflow:visible;"/>
	</g>
	
		<use xlink:href="#tree_2"  width="200" height="200" x="-100" y="-100" transform="matrix(0.5042 0 0 -0.5042 1749.9991 633.6943)" style="overflow:visible;"/>
	
		<use xlink:href="#tree_2"  width="200" height="200" x="-100" y="-100" transform="matrix(0.5042 0 0 -0.5042 2249.8118 883.6007)" style="overflow:visible;"/>
	
		<use xlink:href="#tree_3"  width="200" height="200" x="-100" y="-100" transform="matrix(0.5042 0 0 -0.5042 2199.8306 908.5914)" style="overflow:visible;"/>
	
		<use xlink:href="#tree_2"  width="200" height="200" x="-100" y="-100" transform="matrix(0.5042 0 0 -0.5042 2149.8494 933.582)" style="overflow:visible;"/>
	
		<use xlink:href="#tree_3"  width="200" height="200" x="-100" y="-100" transform="matrix(0.5042 0 0 -0.5042 1749.9991 733.6569)" style="overflow:visible;"/>
	
		<use xlink:href="#tree_2"  width="200" height="200" x="-100" y="-100" transform="matrix(0.5042 0 0 -0.5042 1799.9805 758.6475)" style="overflow:visible;"/>
	
		<use xlink:href="#tree_3"  width="200" height="200" x="-100" y="-100" transform="matrix(0.5042 0 0 -0.5042 1849.9617 783.6382)" style="overflow:visible;"/>
	
		<use xlink:href="#tree_2"  width="200" height="200" x="-100" y="-100" transform="matrix(0.5042 0 0 -0.5042 1899.943 808.6288)" style="overflow:visible;"/>
	
		<use xlink:href="#tree_3"  width="200" height="200" x="-100" y="-100" transform="matrix(0.5042 0 0 -0.5042 1949.9243 833.6194)" style="overflow:visible;"/>
	
		<use xlink:href="#tree_2"  width="200" height="200" x="-100" y="-100" transform="matrix(0.5042 0 0 -0.5042 1999.9055 858.61)" style="overflow:visible;"/>
	
		<use xlink:href="#tree_2"  width="200" height="200" x="-100" y="-100" transform="matrix(0.5042 0 0 -0.5042 1700.0179 758.6475)" style="overflow:visible;"/>
	
		<use xlink:href="#tree_3"  width="200" height="200" x="-100" y="-100" transform="matrix(0.5042 0 0 -0.5042 1650.0366 783.6382)" style="overflow:visible;"/>
	
		<use xlink:href="#tree_2"  width="200" height="200" x="-100" y="-100" transform="matrix(0.5042 0 0 -0.5042 1600.0553 808.6288)" style="overflow:visible;"/>
	
		<use xlink:href="#tree_3"  width="200" height="200" x="-100" y="-100" transform="matrix(0.5042 0 0 -0.5042 1550.0741 833.6194)" style="overflow:visible;"/>
	
		<use xlink:href="#tree_2"  width="200" height="200" x="-100" y="-100" transform="matrix(0.5042 0 0 -0.5042 1500.0928 858.61)" style="overflow:visible;"/>
	
		<use xlink:href="#tree_3"  width="200" height="200" x="-100" y="-100" transform="matrix(0.5042 0 0 -0.5042 1450.1116 883.6007)" style="overflow:visible;"/>
	
		<use xlink:href="#tree_2"  width="200" height="200" x="-100" y="-100" transform="matrix(0.5042 0 0 -0.5042 1400.1302 908.5914)" style="overflow:visible;"/>
	
		<use xlink:href="#tree_3"  width="200" height="200" x="-100" y="-100" transform="matrix(0.5042 0 0 -0.5042 1949.9243 883.6007)" style="overflow:visible;"/>
	
		<use xlink:href="#tree_3"  width="200" height="200" x="-100" y="-100" transform="matrix(0.5042 0 0 -0.5042 2099.8682 958.5726)" style="overflow:visible;"/>
	
		<use xlink:href="#tree_3"  width="200" height="200" x="-100" y="-100" transform="matrix(0.5042 0 0 -0.5042 1250.1864 883.6007)" style="overflow:visible;"/>
	
		<use xlink:href="#tree_2"  width="200" height="200" x="-100" y="-100" transform="matrix(0.5042 0 0 -0.5042 1300.1677 908.5914)" style="overflow:visible;"/>
	
		<use xlink:href="#tree_3"  width="200" height="200" x="-100" y="-100" transform="matrix(0.5042 0 0 -0.5042 1350.149 933.582)" style="overflow:visible;"/>
	
		<use xlink:href="#tree_3"  width="200" height="200" x="-100" y="-100" transform="matrix(0.5042 0 0 -0.5042 1899.943 1058.5352)" style="overflow:visible;"/>
</g>
<g id="柵">
	<g>
		
			<use xlink:href="#wood_x5F_bar"  width="91.97" height="109.928" x="-61.605" y="-89.338" transform="matrix(-0.5042 0 0 -0.5042 1625.9834 851.7358)" style="overflow:visible;"/>
		
			<use xlink:href="#wood_x5F_bar"  width="91.97" height="109.928" x="-61.605" y="-89.338" transform="matrix(-0.5042 0 0 -0.5042 1576.0021 876.7264)" style="overflow:visible;"/>
	</g>
</g>
</svg>
