<svg enable-background="new 0 0 3600 1800" height="1800" viewBox="0 0 3600 1800" width="3600" xmlns="http://www.w3.org/2000/svg" xmlns:xlink="http://www.w3.org/1999/xlink"><symbol id="a" viewBox="-75.002 -562.5 250.002 725"><path d="m74.999 37.5-.001-350-149.998 75v350z" fill="#dcedf7"/><path d="m74.999 37.5v-50l-50 25v50z" fill="#bddcf2"/><path d="m24.999 12.5v-50l-50 25v50z" fill="#bddcf2"/><path d="m74.999-62.5v-50l-50 25v50z" fill="#bddcf2"/><path d="m24.999-87.5v-50l-50 25v50z" fill="#bddcf2"/><path d="m-25.001 87.5.001-50-50 25v50z" fill="#bddcf2"/><path d="m-25.001-12.5.001-50-50 25v50z" fill="#bddcf2"/><path d="m175 87.5-100.001-50-149.999 75 100.001 50z" fill="#cef3ff"/><path d="m75 37.5-.002-350 100 50 .002 350z" fill="#add3ea"/><path d="m75 87.5-50-25-50 25 50 25z" fill="#e0fbff"/><path d="m74.998 37.5v-50l50 25v50z" fill="#cae7f7"/><path d="m124.998 12.5v-50l50 25v50z" fill="#cae7f7"/><path d="m74.998-62.5v-50l50 25v50z" fill="#cae7f7"/><path d="m75.001 137.5-50-25-50 25 50 25z" fill="#e0fbff"/><path d="m175 87.5-50-25-50 25 50 25z" fill="#e0fbff"/><path d="m124.998-87.5v-50l50 25v50z" fill="#cae7f7"/><path d="m-25.001 37.5 50-25" fill="#dcedf7"/><path d="m74.999-162.5v-50l-50 25v50z" fill="#bddcf2"/><path d="m24.999-187.5v-50l-50 25v50z" fill="#bddcf2"/><path d="m-25.001-112.5.001-50-50 25v50z" fill="#bddcf2"/><path d="m-25.001-212.5.001-50-50 25v50z" fill="#bddcf2"/><path d="m74.998-162.5v-50l50 25v50z" fill="#cae7f7"/><path d="m124.998-187.5v-50l50 25v50z" fill="#cae7f7"/><path d="m74.998-262.5v-50l50 25v50z" fill="#cae7f7"/><path d="m-25.001-162.5 50-25" fill="#dcedf7"/><path d="m74.998-512.5-150 75v-50l150-75 100.001 50v50z" fill="#86bdf5"/><path d="m74.998-462.5-150 75v-50l150-75 100.001 50v50z" fill="#98c7f5"/><path d="m74.998-412.5-150 75v-50l150-75 100.001 50v50z" fill="#a9d1f5"/><path d="m74.998-362.5-150 75v-50l150-75 100 50v50z" fill="#bbdbf5"/><path d="m74.998-312.5-150 75v-50l150-75 100 50v50z" fill="#cbe5f5"/><path d="m74.999-262.5v-50l-50 25v50z" fill="#bddcf2"/><g opacity=".5"><path d="m-52.243 101.122v22.757l-22.757-11.379z" fill="#fff"/><path d="m47.758 151.121-22.757 11.379-22.761-11.38-.001-77.24 45.519-22.759z" fill="#fff"/><path d="m102.237 51.119 45.518 22.759v27.244l-45.518 22.759z" fill="#fff"/></g></symbol><symbol id="b" viewBox="-150.001 -600 300.001 750"><path d="m-.001 0v-350l150 75 .001 350z" fill="#cae7f7"/><path d="m150 75-150-75-150 75 150.001 75z" fill="#e0fbff"/><path d="m-.001-50v-50l50 25v50z" fill="#add3ea"/><path d="m49.999 25v-50l50 25v50z" fill="#add3ea"/><path d="m99.999 0v-50l50 25v50z" fill="#add3ea"/><path d="m-.001-150v-50l50 25v50z" fill="#add3ea"/><path d="m49.999-75v-50l50 25v50z" fill="#add3ea"/><path d="m99.999-100v-50l50 25v50z" fill="#add3ea"/><path d="m-.001-250v-50l50 25v50z" fill="#add3ea"/><path d="m49.999-175v-50l50 25v50z" fill="#add3ea"/><path d="m99.999-200v-50l50 25v50z" fill="#add3ea"/><path d="m49.999-275v-50l50 25v50z" fill="#add3ea"/><path d="m50 75-50-25-50 25 50 25z" fill="#cef3ff"/><path d="m50 25-50-25-50 25 50 25z" fill="#cef3ff"/><path d="m-49.999 75-50-25-50 25 50 25z" fill="#cef3ff"/><path d="m50.001 125-50-25-50 25 50 25z" fill="#cef3ff"/><path d="m150 75-50-25-50 25 50 25z" fill="#cef3ff"/><path d="m-.001-550-150 75v-50l150-75 150 75v50z" fill="#86bdf5"/><path d="m-.001-500-150 75v-50l150-75 150 75v50z" fill="#98c7f5"/><path d="m-.001-450-150 75v-50l150-75 150 75v50z" fill="#a9d1f5"/><path d="m-.001-400-150 75v-50l150-75 150 75v50z" fill="#bbdbf5"/><path d="m-.001-350-150 75v-50l150-75 150 75v50z" fill="#cbe5f5"/><path d="m-.001 0v-350l-149.999 75v350z" fill="#dcedf7"/><path d="m-.001 0v-50l-50 25v50z" fill="#bddcf2"/><path d="m-50.001-25v-50l-50 25v50z" fill="#bddcf2"/><path d="m-.001-100v-50l-50 25v50z" fill="#bddcf2"/><path d="m-50.001-125v-50l-50 25v50z" fill="#bddcf2"/><path d="m-100 50v-50l-50 25v50z" fill="#bddcf2"/><path d="m-100-50v-50l-50 25v50z" fill="#bddcf2"/><path d="m-.001-200v-50l-50 25v50z" fill="#bddcf2"/><path d="m-50.001-225v-50l-50 25v50z" fill="#bddcf2"/><path d="m-.001-300v-50l-50 25v50z" fill="#bddcf2"/><path d="m-100-150v-50l-50 25v50z" fill="#bddcf2"/><path d="m-100-250v-50l-50 25v50z" fill="#bddcf2"/><g opacity=".5"><path d="m27.24 13.62 45.519 22.76v77.24l-45.518 22.76z" fill="#fff"/><path d="m127.239 86.38v-22.761l22.761 11.381z" fill="#fff"/><path d="m-150 75 22.759-11.379v22.759z" fill="#fff"/><path d="m-72.76 36.38 45.518-22.759v122.758l-45.518-22.759z" fill="#fff"/></g></symbol><symbol id="c" viewBox="-150.001 -600 300.002 750"><path d="m-.001 0v-350l150 75 .001 350z" fill="#add3ea"/><path d="m-.001 0v-350l-149.999 75v350z" fill="#bddcf2"/><path d="m150 75-150-75-150 75 150.001 75z" fill="#cef3ff"/><path d="m50 75-50-25-50 25 50 25z" fill="#e0fbff"/><path d="m50 25-50-25-50 25 50 25z" fill="#e0fbff"/><path d="m-.001-50v-50l50 25v50z" fill="#cae7f7"/><path d="m49.999 25v-50l50 25v50z" fill="#cae7f7"/><path d="m99.999 0v-50l50 25v50z" fill="#cae7f7"/><path d="m-.001-150v-50l50 25v50z" fill="#cae7f7"/><path d="m49.999-75v-50l50 25v50z" fill="#cae7f7"/><path d="m-49.999 75-50-25-50 25 50 25z" fill="#e0fbff"/><path d="m50.001 125-50-25-50 25 50 25z" fill="#e0fbff"/><path d="m150 75-50-25-50 25 50 25z" fill="#e0fbff"/><path d="m99.999-100v-50l50 25v50z" fill="#cae7f7"/><path d="m-.001 0v-50l-50 25v50z" fill="#dcedf7"/><path d="m-50.001-25v-50l-50 25v50z" fill="#dcedf7"/><path d="m-.001-100v-50l-50 25v50z" fill="#dcedf7"/><path d="m-50.001-125v-50l-50 25v50z" fill="#dcedf7"/><path d="m-100 50v-50l-50 25v50z" fill="#dcedf7"/><path d="m-100-50v-50l-50 25v50z" fill="#dcedf7"/><path d="m-.001-250v-50l50 25v50z" fill="#cae7f7"/><path d="m49.999-175v-50l50 25v50z" fill="#cae7f7"/><path d="m99.999-200v-50l50 25v50z" fill="#cae7f7"/><path d="m49.999-275v-50l50 25v50z" fill="#cae7f7"/><path d="m-.001-200v-50l-50 25v50z" fill="#dcedf7"/><path d="m-50.001-225v-50l-50 25v50z" fill="#dcedf7"/><path d="m-.001-300v-50l-50 25v50z" fill="#dcedf7"/><path d="m-100-150v-50l-50 25v50z" fill="#dcedf7"/><path d="m-100-250v-50l-50 25v50z" fill="#dcedf7"/><path d="m-.001-550-150 75v-50l150-75 150 75v50z" fill="#86bdf5"/><path d="m-.001-500-150 75v-50l150-75 150 75v50z" fill="#98c7f5"/><path d="m-.001-450-150 75v-50l150-75 150 75v50z" fill="#a9d1f5"/><path d="m-.001-400-150 75v-50l150-75 150 75v50z" fill="#bbdbf5"/><path d="m-.001-350-150 75v-50l150-75 150 75v50z" fill="#cbe5f5"/><g opacity=".5"><path d="m0 150-22.761-11.381v-127.239l22.76-11.38 22.758 11.379v127.242z" fill="#fff"/><path d="m122.759 61.379v27.241l-45.518 22.759-.002-72.758.002.001v-.001z" fill="#fff"/><path d="m-122.759 88.621v-27.242l45.518-22.759-.002 72.759z" fill="#fff"/></g></symbol><symbol id="d" viewBox="-50.002 -600 200.002 700"><path d="m-.001 0v-350l150 75 .001 350z" fill="#add3ea"/><path d="m-.001 0v-350l-50 25v350z" fill="#bddcf2"/><path d="m150 75-150-75-50.001 25 150.001 75z" fill="#cef3ff"/><path d="m50 25-50-25-50 25 50 25z" fill="#e0fbff"/><path d="m-.001-50v-50l50 25v50z" fill="#cae7f7"/><path d="m49.999 25v-50l50 25v50z" fill="#cae7f7"/><path d="m99.999 0v-50l50 25v50z" fill="#cae7f7"/><path d="m-.001-150v-50l50 25v50z" fill="#cae7f7"/><path d="m49.999-75v-50l50 25v50z" fill="#cae7f7"/><path d="m150 75-50-25-50 25 50 25z" fill="#e0fbff"/><path d="m99.999-100v-50l50 25v50z" fill="#cae7f7"/><path d="m-.001 0v-50l-50 25v50z" fill="#dcedf7"/><path d="m-.001-100v-50l-50 25v50z" fill="#dcedf7"/><path d="m-.001-250v-50l50 25v50z" fill="#cae7f7"/><path d="m49.999-175v-50l50 25v50z" fill="#cae7f7"/><path d="m99.999-200v-50l50 25v50z" fill="#cae7f7"/><path d="m49.999-275v-50l50 25v50z" fill="#cae7f7"/><path d="m-.001-200v-50l-50 25v50z" fill="#dcedf7"/><path d="m-.001-300v-50l-50 25v50z" fill="#dcedf7"/><path d="m-.001-550-50.001 25v-50l50.001-25 150 75v50z" fill="#86bdf5"/><path d="m-.001-500-50.001 25v-50l50.001-25 150 75v50z" fill="#98c7f5"/><path d="m-.001-450-50.001 25v-50l50.001-25 150 75v50z" fill="#a9d1f5"/><path d="m-.001-400-50.001 25v-50l50.001-25 150 75v50z" fill="#bbdbf5"/><path d="m-.001-350-50.001 25v-50l50.001-25 150 75v50z" fill="#cbe5f5"/><g opacity=".5"><path d="m-22.761 11.381 22.761-11.381 22.757 11.378v50.001l-45.518-22.759z" fill="#fff"/><path d="m122.758 88.621-22.758 11.379-22.76-11.38-.001-50.001 45.519 22.76z" fill="#fff"/></g></symbol><symbol id="e" viewBox="-50.002 -600 200.002 700"><path d="m-.001 0v-350l150 75 .001 350z" fill="#cae7f7"/><path d="m-.001 0v-350l-50 25v350z" fill="#dcedf7"/><path d="m150 75-150-75-50.001 25 150.001 75z" fill="#e0fbff"/><path d="m50 25-50-25-50 25 50 25z" fill="#cef3ff"/><path d="m-.001-50v-50l50 25v50z" fill="#add3ea"/><path d="m49.999 25v-50l50 25v50z" fill="#add3ea"/><path d="m99.999 0v-50l50 25v50z" fill="#add3ea"/><path d="m-.001-150v-50l50 25v50z" fill="#add3ea"/><path d="m49.999-75v-50l50 25v50z" fill="#add3ea"/><path d="m150 75-50-25-50 25 50 25z" fill="#cef3ff"/><path d="m99.999-100v-50l50 25v50z" fill="#add3ea"/><path d="m-.001 0v-50l-50 25v50z" fill="#bddcf2"/><path d="m-.001-100v-50l-50 25v50z" fill="#bddcf2"/><path d="m-.001-250v-50l50 25v50z" fill="#add3ea"/><path d="m49.999-175v-50l50 25v50z" fill="#add3ea"/><path d="m99.999-200v-50l50 25v50z" fill="#add3ea"/><path d="m49.999-275v-50l50 25v50z" fill="#add3ea"/><path d="m-.001-200v-50l-50 25v50z" fill="#bddcf2"/><path d="m-.001-300v-50l-50 25v50z" fill="#bddcf2"/><path d="m-.001-550-50.001 25v-50l50.001-25 150 75v50z" fill="#86bdf5"/><path d="m-.001-500-50.001 25v-50l50.001-25 150 75v50z" fill="#98c7f5"/><path d="m-.001-450-50.001 25v-50l50.001-25 150 75v50z" fill="#a9d1f5"/><path d="m-.001-400-50.001 25v-50l50.001-25 150 75v50z" fill="#bbdbf5"/><path d="m-.001-350-50.001 25v-50l50.001-25 150 75v50z" fill="#cbe5f5"/><g opacity=".5"><path d="m27.24 13.62 45.519 22.759v50l-45.519-22.759z" fill="#fff"/><path d="m-27.243 13.621v22.758l-22.758-11.379z" fill="#fff"/></g></symbol><symbol id="f" viewBox="-50.002 -600 200.002 700"><path d="m99.999 0v-350l-150 75-.001 350z" fill="#bddcf2"/><path d="m99.999 0v-350l50 25v350z" fill="#add3ea"/><path d="m-50.002 75 150-75 50.001 25-150.001 75z" fill="#e0fbff"/><path d="m49.998 25 50-25 50 25-50 25z" fill="#cef3ff"/><path d="m99.999-50v-50l-50 25v50z" fill="#dcedf7"/><path d="m49.999 25v-50l-50 25v50z" fill="#dcedf7"/><path d="m-.001 0v-50l-50 25v50z" fill="#dcedf7"/><path d="m99.999-150v-50l-50 25v50z" fill="#dcedf7"/><path d="m49.999-75v-50l-50 25v50z" fill="#dcedf7"/><path d="m-50.002 75 50-25 50 25-50 25z" fill="#cef3ff"/><path d="m-.001-100v-50l-50 25v50z" fill="#dcedf7"/><path d="m99.999 0v-50l50 25v50z" fill="#cae7f7"/><path d="m99.999-100v-50l50 25v50z" fill="#cae7f7"/><path d="m99.999-250v-50l-50 25v50z" fill="#dcedf7"/><path d="m49.999-175v-50l-50 25v50z" fill="#dcedf7"/><path d="m-.001-200v-50l-50 25v50z" fill="#dcedf7"/><path d="m49.999-275v-50l-50 25v50z" fill="#dcedf7"/><path d="m99.999-200v-50l50 25v50z" fill="#cae7f7"/><path d="m99.999-300v-50l50 25v50z" fill="#cae7f7"/><path d="m99.999-550 50.001 25v-50l-50.001-25-150 75v50z" fill="#86bdf5"/><path d="m99.999-500 50.001 25v-50l-50.001-25-150 75v50z" fill="#98c7f5"/><path d="m99.999-450 50.001 25v-50l-50.001-25-150 75v50z" fill="#a9d1f5"/><path d="m99.999-400 50.001 25v-50l-50.001-25-150 75v50z" fill="#bbdbf5"/><path d="m99.999-350 50.001 25v-50l-50.001-25-150 75v50z" fill="#cbe5f5"/><g opacity=".5"><path d="m127.241 13.621 22.758 11.379-22.758 11.379z" fill="#fff"/><path d="m27.243 36.377 45.516-22.757v50l-45.516 22.757z" fill="#fff"/></g></symbol><symbol id="g" viewBox="-100 -50 200 100"><path d="m100 0-100-50-100 50 100 50z" fill="#e0fbff"/><path d="m100 0-50-25-50 25 50 25z" fill="#cef3ff"/><path d="m0 0-50-25-50 25 50 25z" fill="#cef3ff"/><path d="m22.759-38.621v77.241l-22.759 11.38-22.759-11.379v-77.242l22.759-11.379z" fill="#fff" opacity=".5"/><path d="m-77.241-11.38v22.759l-22.759-11.379z" fill="#fff" opacity=".5"/><path d="m77.241 11.379v-22.759l22.759 11.38z" fill="#fff" opacity=".5"/></symbol><symbol id="h" viewBox="-68.932 -180.171 138.018 165.104"><g opacity=".2"><path d="m50.946-161.589c-.291-5.232-8.867-9.431-19.403-9.431-9.866 0-18.013 3.68-19.249 8.445-.063-.011-.124-.022-.187-.033v-7.859c0-5.36 8.697-9.705 19.416-9.705h.004c10.72 0 19.42 4.345 19.42 9.705v8.878m-.001.57h-.001c0-.007.001-.014.001-.021z" fill="#8dd8d6"/><path d="m45.548-154.595v-5.784c0-3.899-6.062-7.062-13.862-7.062-7.16 0-12.855 2.665-13.741 6.118-1.833-.492-3.721-.912-5.651-1.252 1.235-4.765 9.382-8.445 19.249-8.445 10.537 0 19.112 4.198 19.403 9.431.005.091.008.183.008.275s-.003.183-.008.275c0 .007-.001.014-.001.021-.149 2.49-2.176 4.745-5.397 6.423" fill="#9fe9e3"/><path d="m45.548-145.853c-7.452-6.997-16.659-12.533-27.603-15.469.886-3.453 6.581-6.118 13.741-6.118 7.8 0 13.862 3.162 13.862 7.062v5.784z" fill="#84cdcb"/><path d="m69.051-93.184c-1.503 10.35-9.734 16.735-20.414 22.434-.002-.175.003-20.24-.002-20.401-2.031-12.921-16.848-16.837-30.484-19.837v.004c-22.432-5.617-69.354 3.37-67.626 20.011-.001-.001-.001 19.93-.001 19.93-44.215-19.009-4.649-84.6 35.139-91.144-.017-.004-.032-.008-.049-.012 47.532-10.991 84.78 33.33 83.437 69.015z" fill="#a6948b"/><path d="m48.635-91.146c0-.002 0-.003 0-.005zm.001.049c0-.008 0-.014 0-.022zm.001.062c0-.011 0-.022 0-.033zm0 .059c0-.014 0-.028 0-.043zm0 55.977c0-.004 0-.009 0-.013zm-.001.047c0-.005 0-.009 0-.014zm-.001.045c0-.002 0-.005 0-.007zm-.002.057c0-.004 0-.007 0-.011zm-.002.048c0-.004 0-.009.001-.013 0 .004-.001.009-.001.013m-.002.046c0-.004 0-.007 0-.01zm-.003.049c0-.001 0-.002 0-.003zm-.004.056c0-.004.001-.008.001-.013 0 .004 0 .009-.001.013m-.003.046c0-.003 0-.007.001-.01-.001.003-.001.007-.001.01m-.009.1c0-.002 0-.003 0-.005zm-.005.05c0-.002 0-.005.001-.007-.001.003-.001.005-.001.007m-.018.151c0-.002 0-.004.001-.005-.001.002-.001.003-.001.005m-.006.049c0-.001 0-.002 0-.003zm-1.65 3.812c.001-.002.003-.004.004-.005-.001.001-.002.003-.004.005m-.039.054c.003-.004.005-.008.008-.011-.002.004-.005.007-.008.011m-.036.05c.002-.003.005-.006.007-.009-.002.003-.005.007-.007.009m-.048.067c.005-.007.01-.013.015-.02-.005.007-.01.013-.015.02m-.039.052c.006-.009.013-.017.019-.026-.006.009-.012.017-.019.026m-75.238-40.93c-12.023.96-16.713 16.131-17.115 31.461 5.964.219 13.93-3.202 26.168-11.239 0-14.202-3.424-20.222-9.053-20.222m28.051 56.083c-29.755 0-49.057-11.637-49.057-20.087 0-3.261 0-19.609 0-35.887 0-7.006 0-13.999 0-19.931-1.732-16.631 45.206-25.635 67.627-20.01.026 29.961.011 75.213.026 94.284 14.473-2.652 24.596-8.149 28.579-13.504-5.525 7.429-22.858 15.135-47.175 15.135" fill="#b1ebb3"/><path d="m18.178-16.699c-.015-19.072 0-64.327-.026-94.289 13.619 2.964 28.466 6.942 30.485 19.836.005 1.276-.002 19.663.001 20.402-.02.514.036 35.658-.018 36.144-3.246 10.29-13.755 13.983-30.442 17.907" fill="#9ed8b1"/><path d="m-44.748-39.653c-.291 0-.57-.012-.836-.036 0-13.706 4.943-27.473 13.146-30.631 1.419-.546 2.745-.83 3.969-.83 5.629 0 9.053 6.02 9.053 20.222-11.583 7.772-20.34 11.275-25.332 11.275" fill="#92bd9b"/></g></symbol><symbol id="i" viewBox="-100 -50 200 100"><path d="m100 0-100-50-100 50 100 50z" fill="#e0fbff"/><path d="m100 0-50-25-50 25 50 25z" fill="#cef3ff"/><path d="m0 0-50-25-50 25 50 25z" fill="#cef3ff"/><g opacity=".5"><path d="m-72.76-13.62 45.518-22.759v72.758l-45.518-22.759z" fill="#fff"/><path d="m27.241-36.38 45.518 22.76v27.24l-45.518 22.76z" fill="#fff"/></g><path d="m0-50 60.884 30.442-39.116 19.558-60.884-30.442z" fill="#b0dfff"/><path d="m-50-25 50 25v10.884l-60.884-30.442z" fill="#add3ea"/><path d="m-39.116-30.442 39.116 19.558v10.884l-50-25z" fill="#94caeb"/><path d="m0 10.884v-10.884l50-25 10.884 5.442z" fill="#bddcf2"/><path d="m0 0v-10.884l39.116-19.558 10.884 5.442z" fill="#a3d6f7"/><path d="m-37.68-31.16 37.68-18.84 6.452 3.226v43.548l-6.452 3.226-37.68-18.84z" fill="#bfe8ff"/><path d="m-39.116-30.442 39.116 19.558v10.884l-50-25z" fill="#94caeb"/><path d="m0 0v-10.884l39.116-19.558 10.884 5.442z" fill="#a3d6f7"/><path d="m-37.68-31.16 37.68-18.84 6.452 3.226v43.548l-6.452 3.226-37.68-18.84z" fill="#bfe8ff"/><path d="m0 0v-10.884l6.452-3.226v10.884l-3.226 1.613z" fill="#afe3f7"/><path d="m-37.681-29.724 37.681 18.84v10.884l-10.744-5.372-26.937-13.468z" fill="#a5dcf2"/></symbol><symbol id="j" viewBox="-100 -50 200 100"><path d="m100 0-100-50-100 50 100 50z" fill="#e0fbff"/><path d="m100 0-50-25-50 25 50 25z" fill="#cef3ff"/><path d="m0 0-50-25-50 25 50 25z" fill="#cef3ff"/><g opacity=".5"><path d="m-72.76-13.62 45.518-22.759v72.758l-45.518-22.759z" fill="#fff"/><path d="m27.241-36.38 45.518 22.76v27.24l-45.518 22.76z" fill="#fff"/></g><path d="m39.116 30.442-50-25 60.884-30.442 50 25z" fill="#b0dfff"/><path d="m60.884 19.558-10.884 5.442-50-25 10.884-5.442z" fill="#94caeb"/><path d="m14.641-7.321 18.769-9.384v44.294l-18.769-9.385z" fill="#bfe8ff"/><path d="m62.319 18.84v-37.68l37.681 18.84z" fill="#bfe8ff"/><path d="m39.116 30.442-50-25 10.884-5.442 50 25z" fill="#add3ea"/><path d="m14.641-3.564 18.77 9.385v10.884l-18.77-9.385z" fill="#a5dcf2"/></symbol><symbol id="k" viewBox="-100 -50 200 100"><path d="m100 0-100-50-100 50 100 50z" fill="#e0fbff"/><path d="m100 0-50-25-50 25 50 25z" fill="#cef3ff"/><path d="m0 0-50-25-50 25 50 25z" fill="#cef3ff"/><g opacity=".5"><path d="m-72.76-13.62 45.518-22.759v72.758l-45.518-22.759z" fill="#fff"/><path d="m27.241-36.38 45.518 22.76v27.24l-45.518 22.76z" fill="#fff"/></g><path d="m50 25-50-25-50 25 50 25z" fill="#b0dfff"/><path d="m-37.681 31.16v-12.32l37.681-18.84 6.452 3.226v43.548l-6.452 3.226z" fill="#bfe8ff"/></symbol><symbol id="l" viewBox="-100 -50 200 100"><path d="m100 0-100-50-100 50 100 50z" fill="#e0fbff"/><path d="m100 0-50-25-50 25 50 25z" fill="#cef3ff"/><g opacity=".5"><path d="m-72.76-13.62 45.518-22.759v72.758l-45.518-22.759z" fill="#fff"/><path d="m27.241-36.38 45.518 22.76v27.24l-45.518 22.76z" fill="#fff"/></g><path d="m-39.116 30.442 50-25-60.884-30.442-50 25z" fill="#b0dfff"/><path d="m-60.884 19.558 10.884 5.442 50-25-10.884-5.442z" fill="#a3d6f7"/><path d="m-39.116 30.442-9.884-4.942v-50l18.77 9.385v41.114z" fill="#bfe8ff"/><path d="m-93.548-3.226v6.452l-6.452-3.226z" fill="#bfe8ff"/><path d="m-39.116 30.442-10.884-5.442 50-25 10.884 5.442z" fill="#bddcf2"/><path d="m-49 13.616 18.77-9.385v10.884l-18.77 9.385z" fill="#afe3f7"/></symbol><symbol id="m" viewBox="-61.605 -177.076 91.97 197.667"><g opacity=".2"><path d="m-25.568-71.067v-87.739l-3.873-1.924-7.839 91.658 3.873 1.924z" fill="#6d6804"/><path d="m-29.441-72.992v-87.738l-7.839 3.919v87.739z" fill="#afa81e"/><path d="m7.276-87.413v-87.739l-3.873-1.924-7.838 91.658 3.873 1.924z" fill="#6d6804"/><path d="m3.403-89.338v-87.738l-7.838 3.919v87.739z" fill="#afa81e"/><path d="m30.364-111.819v-18.016l-3.873-1.924-88.096 62.064 3.873 1.925z" fill="#706300"/><path d="m26.491-113.743v-18.016l-88.096 44.048v18.016z" fill="#aa9615"/><path d="m30.364-141.973v-18.016l-3.873-1.925-88.096 62.065 3.873 1.924z" fill="#706300"/><path d="m26.491-143.898v-18.016l-88.096 44.048v18.017z" fill="#aa9615"/></g><path d="m-25.568 16.671v-87.738l-3.873-1.925-7.839 91.658 3.873 1.925z" fill="#937017"/><path d="m-29.441 14.747v-87.739l-7.839 3.92v87.738z" fill="#b28f34"/><path d="m7.276.325v-87.738l-3.873-1.925-7.838 91.658 3.873 1.925z" fill="#937017"/><path d="m3.403-1.599v-87.739l-7.838 3.92v87.738z" fill="#b28f34"/><path d="m30.364-24.08v-18.016l-3.873-1.925-88.096 62.065 3.873 1.924z" fill="#8e6211"/><path d="m26.491-26.004v-18.017l-88.096 44.049v18.016z" fill="#ad7d2a"/><path d="m30.364-54.235v-18.016l-3.873-1.924-88.096 62.064 3.873 1.925z" fill="#8e6211"/><path d="m26.491-56.159v-18.016l-88.096 44.048v18.016z" fill="#ad7d2a"/><path d="m-2.148-18.762c-1.004.643-1.818.169-1.818-1.058s.814-2.743 1.818-3.386 1.818-.169 1.818 1.058-.814 2.743-1.818 3.386z" fill="#99998c"/><path d="m-34.993-2.416c-1.004.643-1.818.169-1.818-1.058s.814-2.743 1.818-3.386 1.818-.169 1.818 1.058-.814 2.743-1.818 3.386z" fill="#99998c"/><path d="m-2.148-48.917c-1.004.643-1.818.169-1.818-1.058s.814-2.743 1.818-3.386 1.818-.169 1.818 1.058-.814 2.743-1.818 3.386z" fill="#99998c"/><path d="m-34.993-32.571c-1.004.643-1.818.169-1.818-1.058s.814-2.743 1.818-3.386 1.818-.169 1.818 1.058-.814 2.743-1.818 3.386z" fill="#99998c"/></symbol><clipPath id="n"><path d="m0 0h3600v1800h-3600z"/></clipPath><clipPath id="o"><path d="m0 0h3600v1800h-3600z"/></clipPath><g clip-path="url(#n)"><path d="m4500.5 899.5-2700 1350-2700-1350 2700-1350z" fill="#79ace3"/></g><g clip-path="url(#o)"><use height="750" transform="matrix(1 0 0 -1 1799.8564 -150.165)" width="300.001" x="-150.001" xlink:href="#b" y="-600"/><use height="750" transform="matrix(1 0 0 -1 1949.8567 -75.1647)" width="300.002" x="-150.001" xlink:href="#c" y="-600"/><use height="750" transform="matrix(1 0 0 -1 2099.8547 -.165)" width="300.001" x="-150.001" xlink:href="#b" y="-600"/><use height="750" transform="matrix(1 0 0 -1 2249.855 74.8353)" width="300.002" x="-150.001" xlink:href="#c" y="-600"/><use height="750" transform="matrix(1 0 0 -1 2399.853 149.8349)" width="300.001" x="-150.001" xlink:href="#b" y="-600"/><use height="750" transform="matrix(1 0 0 -1 2549.8523 224.8349)" width="300.002" x="-150.001" xlink:href="#c" y="-600"/><use height="750" transform="matrix(1 0 0 -1 2699.8513 299.8349)" width="300.001" x="-150.001" xlink:href="#b" y="-600"/><use height="750" transform="matrix(1 0 0 -1 2849.8516 374.8352)" width="300.002" x="-150.001" xlink:href="#c" y="-600"/><use height="750" transform="matrix(1 0 0 -1 2999.8496 449.8348)" width="300.001" x="-150.001" xlink:href="#b" y="-600"/><use height="750" transform="matrix(1 0 0 -1 3149.8499 524.8351)" width="300.002" x="-150.001" xlink:href="#c" y="-600"/><use height="750" transform="matrix(1 0 0 -1 3299.8479 599.8348)" width="300.001" x="-150.001" xlink:href="#b" y="-600"/><use height="750" transform="matrix(1 0 0 -1 3449.8484 674.8351)" width="300.002" x="-150.001" xlink:href="#c" y="-600"/><use height="750" transform="matrix(1 0 0 -1 3599.8464 749.8348)" width="300.001" x="-150.001" xlink:href="#b" y="-600"/><use height="750" transform="matrix(1 0 0 -1 1649.8564 -75.165)" width="300.002" x="-150.001" xlink:href="#c" y="-600"/><use height="750" transform="matrix(1 0 0 -1 1499.2209 -.1091)" width="300.001" x="-150.001" xlink:href="#b" y="-600"/><use height="750" transform="matrix(1 0 0 -1 1349.2771 74.8628)" width="300.002" x="-150.001" xlink:href="#c" y="-600"/><use height="750" transform="matrix(1 0 0 -1 1198.6416 149.9187)" width="300.001" x="-150.001" xlink:href="#b" y="-600"/><use height="750" transform="matrix(1 0 0 -1 1048.6978 224.8906)" width="300.002" x="-150.001" xlink:href="#c" y="-600"/><use height="750" transform="matrix(1 0 0 -1 898.6413 299.9183)" width="300.001" x="-150.001" xlink:href="#b" y="-600"/><use height="750" transform="matrix(1 0 0 -1 748.1185 374.9184)" width="300.002" x="-150.001" xlink:href="#c" y="-600"/><use height="750" transform="matrix(1 0 0 -1 598.1172 449.918)" width="300.001" x="-150.001" xlink:href="#b" y="-600"/><use height="750" transform="matrix(1 0 0 -1 447.5391 524.9462)" width="300.002" x="-150.001" xlink:href="#c" y="-600"/><use height="750" transform="matrix(1 0 0 -1 296.9036 600.002)" width="300.001" x="-150.001" xlink:href="#b" y="-600"/><use height="750" transform="matrix(1 0 0 -1 146.9036 675.002)" width="300.002" x="-150.001" xlink:href="#c" y="-600"/><use height="750" transform="matrix(1 0 0 -1 -3.7319 750.0579)" width="300.001" x="-150.001" xlink:href="#b" y="-600"/><use height="100" transform="matrix(1 0 0 -1 -53.0953 575.002)" width="200" x="-100" xlink:href="#g" y="-50"/><use height="100" transform="matrix(1 0 0 -1 1148.6427 -25.0814)" width="200" x="-100" xlink:href="#g" y="-50"/><use height="100" transform="matrix(1 0 0 -1 748.6424 174.9183)" width="200" x="-100" xlink:href="#g" y="-50"/><use height="100" transform="matrix(1 0 0 -1 848.6989 124.8905)" width="200" x="-100" xlink:href="#g" y="-50"/><use height="100" transform="matrix(1 0 0 -1 648.6425 124.9182)" width="200" x="-100" xlink:href="#g" y="-50"/><use height="100" transform="matrix(1 0 0 -1 748.6425 74.9183)" width="200" x="-100" xlink:href="#g" y="-50"/><use height="100" transform="matrix(1 0 0 -1 948.6989 74.8905)" width="200" x="-100" xlink:href="#g" y="-50"/><use height="100" transform="matrix(1 0 0 -1 1048.7555 24.8628)" width="200" x="-100" xlink:href="#g" y="-50"/><use height="100" transform="matrix(1 0 0 -1 848.699 24.8905)" width="200" x="-100" xlink:href="#g" y="-50"/><use height="100" transform="matrix(1 0 0 -1 948.6991 -25.1095)" width="200" x="-100" xlink:href="#g" y="-50"/><use height="100" transform="matrix(1 0 0 -1 648.6414 224.918)" width="200" x="-100" xlink:href="#g" y="-50"/><use height="100" transform="matrix(1 0 0 -1 548.585 174.9457)" width="200" x="-100" xlink:href="#g" y="-50"/><use height="100" transform="matrix(1 0 0 -1 548.1196 274.9183)" width="200" x="-100" xlink:href="#g" y="-50"/><use height="100" transform="matrix(1 0 0 -1 448.1196 224.9183)" width="200" x="-100" xlink:href="#g" y="-50"/><use height="100" transform="matrix(1 0 0 -1 448.1186 324.918)" width="200" x="-100" xlink:href="#g" y="-50"/><use height="100" transform="matrix(1 0 0 -1 348.0622 274.9458)" width="200" x="-100" xlink:href="#g" y="-50"/><use height="100" transform="matrix(1 0 0 -1 347.5403 374.9461)" width="200" x="-100" xlink:href="#g" y="-50"/><use height="100" transform="matrix(1 0 0 -1 247.5403 324.946)" width="200" x="-100" xlink:href="#g" y="-50"/><use height="100" transform="matrix(1 0 0 -1 247.5392 424.9458)" width="200" x="-100" xlink:href="#g" y="-50"/><use height="100" transform="matrix(1 0 0 -1 147.4829 374.9735)" width="200" x="-100" xlink:href="#g" y="-50"/><use height="100" transform="matrix(1 0 0 -1 147.5392 474.9458)" width="200" x="-100" xlink:href="#g" y="-50"/><use height="100" transform="matrix(1 0 0 -1 47.5392 424.9457)" width="200" x="-100" xlink:href="#g" y="-50"/><use height="100" transform="matrix(1 0 0 -1 47.5382 524.9455)" width="200" x="-100" xlink:href="#g" y="-50"/><use height="100" transform="matrix(1 0 0 -1 -52.5182 474.9732)" width="200" x="-100" xlink:href="#g" y="-50"/><use height="100" transform="matrix(1 0 0 -1 3649.8469 574.8347)" width="200" x="-100" xlink:href="#g" y="-50"/><use height="100" transform="matrix(1 0 0 -1 3549.8469 524.8347)" width="200" x="-100" xlink:href="#g" y="-50"/><use height="100" transform="matrix(1 0 0 -1 3449.8469 474.8346)" width="200" x="-100" xlink:href="#g" y="-50"/><use height="100" transform="matrix(1 0 0 -1 3349.8469 424.8346)" width="200" x="-100" xlink:href="#g" y="-50"/><use height="100" transform="matrix(1 0 0 -1 3249.8472 374.8346)" width="200" x="-100" xlink:href="#g" y="-50"/><use height="100" transform="matrix(1 0 0 -1 3149.8472 324.8345)" width="200" x="-100" xlink:href="#g" y="-50"/><use height="100" transform="matrix(1 0 0 -1 3049.8472 274.8345)" width="200" x="-100" xlink:href="#g" y="-50"/><use height="100" transform="matrix(1 0 0 -1 2949.8472 224.8345)" width="200" x="-100" xlink:href="#g" y="-50"/><use height="100" transform="matrix(1 0 0 -1 2849.8474 174.8344)" width="200" x="-100" xlink:href="#g" y="-50"/><use height="100" transform="matrix(1 0 0 -1 2749.8474 124.8344)" width="200" x="-100" xlink:href="#g" y="-50"/><use height="100" transform="matrix(1 0 0 -1 2649.8474 74.8344)" width="200" x="-100" xlink:href="#g" y="-50"/><use height="100" transform="matrix(1 0 0 -1 2549.8474 24.8343)" width="200" x="-100" xlink:href="#g" y="-50"/><use height="100" transform="matrix(1 0 0 -1 2449.8477 -25.1657)" width="200" x="-100" xlink:href="#g" y="-50"/><use height="100" transform="matrix(1 0 0 -1 3649.8469 474.8347)" width="200" x="-100" xlink:href="#g" y="-50"/><use height="100" transform="matrix(1 0 0 -1 3549.8469 424.8346)" width="200" x="-100" xlink:href="#g" y="-50"/><use height="100" transform="matrix(1 0 0 -1 3449.8472 374.8346)" width="200" x="-100" xlink:href="#g" y="-50"/><use height="100" transform="matrix(1 0 0 -1 3349.8472 324.8346)" width="200" x="-100" xlink:href="#g" y="-50"/><use height="100" transform="matrix(1 0 0 -1 3249.8472 274.8345)" width="200" x="-100" xlink:href="#g" y="-50"/><use height="100" transform="matrix(1 0 0 -1 3149.8472 224.8345)" width="200" x="-100" xlink:href="#g" y="-50"/><use height="100" transform="matrix(1 0 0 -1 3049.8474 174.8345)" width="200" x="-100" xlink:href="#g" y="-50"/><use height="100" transform="matrix(1 0 0 -1 2949.8474 124.8344)" width="200" x="-100" xlink:href="#g" y="-50"/><use height="100" transform="matrix(1 0 0 -1 2849.8474 74.8344)" width="200" x="-100" xlink:href="#g" y="-50"/><use height="100" transform="matrix(1 0 0 -1 2749.8474 24.8344)" width="200" x="-100" xlink:href="#g" y="-50"/><use height="100" transform="matrix(1 0 0 -1 2649.8477 -25.1657)" width="200" x="-100" xlink:href="#g" y="-50"/></g><g clip-path="url(#o)"><use height="750" transform="matrix(1 0 0 -1 1749.8749 674.7509)" width="300.002" x="-150.001" xlink:href="#c" y="-600"/><use height="750" transform="matrix(1 0 0 -1 1599.9299 749.7225)" width="300.001" x="-150.001" xlink:href="#b" y="-600"/><use height="750" transform="matrix(1 0 0 -1 1449.9299 824.7224)" width="300.002" x="-150.001" xlink:href="#c" y="-600"/><use height="750" transform="matrix(1 0 0 -1 1899.8741 749.7509)" width="300.001" x="-150.001" xlink:href="#b" y="-600"/><use height="750" transform="matrix(1 0 0 -1 1749.8732 824.7506)" width="300.002" x="-150.001" xlink:href="#c" y="-600"/><use height="750" transform="matrix(1 0 0 -1 1599.7821 899.6103)" width="300.001" x="-150.001" xlink:href="#b" y="-600"/><use height="725" transform="matrix(1 0 0 -1 2024.7458 837.1294)" width="250.002" x="-75.002" xlink:href="#a" y="-562.5"/><use height="750" transform="matrix(1 0 0 -1 1949.7441 874.629)" width="300.002" x="-150.001" xlink:href="#c" y="-600"/><use height="750" transform="matrix(1 0 0 -1 1799.7814 949.6104)" width="300.001" x="-150.001" xlink:href="#b" y="-600"/><use height="750" transform="matrix(1 0 0 -1 1649.8376 1024.5823)" width="300.002" x="-150.001" xlink:href="#c" y="-600"/><use height="750" transform="matrix(1 0 0 -1 1499.7296 1099.6384)" width="300.001" x="-150.001" xlink:href="#b" y="-600"/><use height="725" transform="matrix(1 0 0 -1 1324.7299 1187.1384)" width="250.002" x="-75.002" xlink:href="#a" y="-562.5"/><use height="750" transform="matrix(1 0 0 -1 1549.9292 1224.7225)" width="300.002" x="-150.001" xlink:href="#c" y="-600"/><use height="750" transform="matrix(1 0 0 -1 2099.8728 1149.751)" width="300.001" x="-150.001" xlink:href="#b" y="-600"/><use height="750" transform="matrix(1 0 0 -1 1949.8358 1224.5822)" width="300.002" x="-150.001" xlink:href="#c" y="-600"/><use height="700" transform="matrix(1 0 0 -1 1799.8376 1249.5826)" width="200.002" x="-50.002" xlink:href="#f" y="-600"/><use height="750" transform="matrix(1 0 0 -1 1699.9272 1299.7222)" width="300.001" x="-150.001" xlink:href="#b" y="-600"/><use height="700" transform="matrix(1 0 0 -1 1749.9282 1324.7224)" width="200.002" x="-50.002" xlink:href="#d" y="-600"/></g><use height="700" transform="matrix(1 0 0 -1 2546.7949 924.6964)" width="200.002" x="-50.002" xlink:href="#f" y="-600"/><use height="700" transform="matrix(1 0 0 -1 2346.7371 924.6573)" width="200.002" x="-50.002" xlink:href="#e" y="-600"/><use height="750" transform="matrix(1 0 0 -1 2496.7937 999.8348)" width="300.002" x="-150.001" xlink:href="#c" y="-600"/><use height="100" transform="matrix(1 0 0 -1.0002 2396.7939 899.6902)" width="200" x="-100" xlink:href="#j" y="-50"/><use height="100" transform="matrix(1 0 0 -1.0002 2596.7939 899.6902)" width="200" x="-100" xlink:href="#l" y="-50"/><use height="100" transform="matrix(1 0 0 -1.0002 2496.7937 849.6787)" width="200" x="-100" xlink:href="#i" y="-50"/><use height="100" transform="matrix(1 0 0 -1.0002 2496.7939 949.7018)" width="200" x="-100" xlink:href="#k" y="-50"/><use height="700" transform="matrix(1 0 0 -1 1050.0809 924.6964)" width="200.002" x="-50.002" xlink:href="#f" y="-600"/><use height="700" transform="matrix(1 0 0 -1 850.0231 924.6573)" width="200.002" x="-50.002" xlink:href="#e" y="-600"/><use height="750" transform="matrix(1 0 0 -1 1000.0797 999.8348)" width="300.002" x="-150.001" xlink:href="#c" y="-600"/><use height="100" transform="matrix(1 0 0 -1.0002 900.08 899.6902)" width="200" x="-100" xlink:href="#j" y="-50"/><use height="100" transform="matrix(1 0 0 -1.0002 1100.08 899.6902)" width="200" x="-100" xlink:href="#l" y="-50"/><use height="100" transform="matrix(1 0 0 -1.0002 1000.0798 849.6787)" width="200" x="-100" xlink:href="#i" y="-50"/><use height="100" transform="matrix(1 0 0 -1.0002 1000.0799 949.7018)" width="200" x="-100" xlink:href="#k" y="-50"/><use height="165.104" transform="matrix(.5042 0 0 -.5042 1749.9991 733.6569)" width="138.018" x="-68.932" xlink:href="#h" y="-180.171"/><use height="197.667" transform="matrix(-.5042 0 0 -.5042 1822.9077 748.3972)" width="91.97" x="-61.605" xlink:href="#m" y="-177.076"/><use height="197.667" transform="matrix(-.5042 0 0 -.5042 1875.9388 721.8086)" width="91.97" x="-61.605" xlink:href="#m" y="-177.076"/><use height="197.667" transform="matrix(.5042 0 0 -.5042 1676.8398 748.3972)" width="91.97" x="-61.605" xlink:href="#m" y="-177.076"/><use height="197.667" transform="matrix(.5042 0 0 -.5042 1623.8088 721.8086)" width="91.97" x="-61.605" xlink:href="#m" y="-177.076"/></svg>