<svg enable-background="new 0 0 3600 1800" height="1800" viewBox="0 0 3600 1800" width="3600" xmlns="http://www.w3.org/2000/svg" xmlns:xlink="http://www.w3.org/1999/xlink"><symbol id="a" viewBox="-25.001 -137.5 199.999 300"><path d="m124.999 62.5-.001-200-149.998 75v200z" fill="#b49355"/><path d="m124.999 62.5v-50l-50 25v50z" fill="#b3813b"/><path d="m74.999 37.5v-50l-50 25v50z" fill="#b3813b"/><path d="m124.999-37.5v-50l-50 25v50z" fill="#b3813b"/><path d="m74.999-62.5v-50l-50 25v50z" fill="#b3813b"/><path d="m24.999 112.5.001-50-50 25v50z" fill="#b3813b"/><path d="m24.999 12.5.001-50-50 25v50z" fill="#b3813b"/><path d="m174.998 87.5-49.999-25-149.999 75 50.001 25z" fill="#64d13f"/><path d="m125 62.5-.002-200 50 25v200z" fill="#8f6027"/><path d="m125 112.5-50-25-50 25 50 25z" fill="#7ee05b"/><path d="m124.998 62.5v-50l50 25v50z" fill="#9c7125"/><path d="m124.998-37.5v-50l50 25v50z" fill="#9c7125"/><path d="m24.999 62.5 50-25" fill="#b49355"/></symbol><symbol id="b" viewBox="-75.002 -562.5 250.002 725"><path d="m74.999 37.5-.001-350-149.998 75v350z" fill="#b3813b"/><path d="m74.999 37.5v-50l-50 25v50z" fill="#b49355"/><path d="m24.999 12.5v-50l-50 25v50z" fill="#b49355"/><path d="m74.999-62.5v-50l-50 25v50z" fill="#b49355"/><path d="m24.999-87.5v-50l-50 25v50z" fill="#b49355"/><path d="m-25.001 87.5.001-50-50 25v50z" fill="#b49355"/><path d="m-25.001-12.5.001-50-50 25v50z" fill="#b49355"/><path d="m175 87.5-100.001-50-149.999 75 100.001 50z" fill="#7ee05b"/><path d="m75 37.5-.002-350 100 50 .002 350z" fill="#9c7125"/><path d="m75 87.5-50-25-50 25 50 25z" fill="#64d13f"/><path d="m74.998 37.5v-50l50 25v50z" fill="#8f6027"/><path d="m124.998 12.5v-50l50 25v50z" fill="#8f6027"/><path d="m74.998-62.5v-50l50 25v50z" fill="#8f6027"/><path d="m75.001 137.5-50-25-50 25 50 25z" fill="#64d13f"/><path d="m175 87.5-50-25-50 25 50 25z" fill="#64d13f"/><path d="m124.998-87.5v-50l50 25v50z" fill="#8f6027"/><path d="m-25.001 37.5 50-25" fill="#b3813b"/><path d="m74.999-162.5v-50l-50 25v50z" fill="#b49355"/><path d="m24.999-187.5v-50l-50 25v50z" fill="#b49355"/><path d="m74.999-262.5v-50l-50 25v50z" fill="#b49355"/><path d="m-25.001-112.5.001-50-50 25v50z" fill="#b49355"/><path d="m-25.001-212.5.001-50-50 25v50z" fill="#b49355"/><path d="m74.998-162.5v-50l50 25v50z" fill="#8f6027"/><path d="m124.998-187.5v-50l50 25v50z" fill="#8f6027"/><path d="m74.998-262.5v-50l50 25v50z" fill="#8f6027"/><path d="m-25.001-162.5 50-25" fill="#b3813b"/><path d="m74.998-512.5-150 75v-50l150-75 100.001 50v50z" fill="#4f441d"/><path d="m74.998-462.5-150 75v-50l150-75 100.001 50v50z" fill="#614f1f"/><path d="m74.998-412.5-150 75v-50l150-75 100.001 50v50z" fill="#705821"/><path d="m74.998-362.5-150 75v-50l150-75 100 50v50z" fill="#7e6022"/><path d="m74.998-312.5-150 75v-50l150-75 100 50v50z" fill="#8d6924"/></symbol><symbol id="c" viewBox="-150.001 -600 300.001 750"><path d="m-.001 0v-350l150 75 .001 350z" fill="#9c7125"/><path d="m-.001 0v-350l-149.999 75v350z" fill="#b49355"/><path d="m150 75-150-75-150 75 150.001 75z" fill="#7ee05b"/><path d="m-.001 0v-50l-50 25v50z" fill="#b3813b"/><path d="m-50.001-25v-50l-50 25v50z" fill="#b3813b"/><path d="m-.001-50v-50l50 25v50z" fill="#8f6027"/><path d="m49.999 25v-50l50 25v50z" fill="#8f6027"/><path d="m99.999 0v-50l50 25v50z" fill="#8f6027"/><path d="m-.001-100v-50l-50 25v50z" fill="#b3813b"/><path d="m-50.001-125v-50l-50 25v50z" fill="#b3813b"/><path d="m-.001-150v-50l50 25v50z" fill="#8f6027"/><path d="m49.999-75v-50l50 25v50z" fill="#8f6027"/><path d="m-100 50v-50l-50 25v50z" fill="#b3813b"/><path d="m-100-50v-50l-50 25v50z" fill="#b3813b"/><path d="m99.999-100v-50l50 25v50z" fill="#8f6027"/><path d="m-.001-200v-50l-50 25v50z" fill="#b3813b"/><path d="m-50.001-225v-50l-50 25v50z" fill="#b3813b"/><path d="m-.001-250v-50l50 25v50z" fill="#8f6027"/><path d="m49.999-175v-50l50 25v50z" fill="#8f6027"/><path d="m99.999-200v-50l50 25v50z" fill="#8f6027"/><path d="m-.001-300v-50l-50 25v50z" fill="#b3813b"/><path d="m49.999-275v-50l50 25v50z" fill="#8f6027"/><path d="m-100-150v-50l-50 25v50z" fill="#b3813b"/><path d="m-100-250v-50l-50 25v50z" fill="#b3813b"/><path d="m50 75-50-25-50 25 50 25z" fill="#64d13f"/><path d="m50 25-50-25-50 25 50 25z" fill="#64d13f"/><path d="m-49.999 75-50-25-50 25 50 25z" fill="#64d13f"/><path d="m50.001 125-50-25-50 25 50 25z" fill="#64d13f"/><path d="m150 75-50-25-50 25 50 25z" fill="#64d13f"/><path d="m-.001-550-150 75v-50l150-75 150 75v50z" fill="#4f441d"/><path d="m-.001-500-150 75v-50l150-75 150 75v50z" fill="#614f1f"/><path d="m-.001-450-150 75v-50l150-75 150 75v50z" fill="#705821"/><path d="m-.001-400-150 75v-50l150-75 150 75v50z" fill="#7e6022"/><path d="m-.001-350-150 75v-50l150-75 150 75v50z" fill="#8d6924"/></symbol><symbol id="d" viewBox="-150.001 -600 300.002 750"><path d="m-.001 0v-350l150 75 .001 350z" fill="#8f6027"/><path d="m-.001 0v-350l-149.999 75v350z" fill="#b3813b"/><path d="m150 75-150-75-150 75 150.001 75z" fill="#64d13f"/><path d="m50 75-50-25-50 25 50 25z" fill="#7ee05b"/><path d="m50 25-50-25-50 25 50 25z" fill="#7ee05b"/><path d="m-.001-50v-50l50 25v50z" fill="#9c7125"/><path d="m49.999 25v-50l50 25v50z" fill="#9c7125"/><path d="m99.999 0v-50l50 25v50z" fill="#9c7125"/><path d="m-.001-150v-50l50 25v50z" fill="#9c7125"/><path d="m49.999-75v-50l50 25v50z" fill="#9c7125"/><path d="m-49.999 75-50-25-50 25 50 25z" fill="#7ee05b"/><path d="m50.001 125-50-25-50 25 50 25z" fill="#7ee05b"/><path d="m150 75-50-25-50 25 50 25z" fill="#7ee05b"/><path d="m99.999-100v-50l50 25v50z" fill="#9c7125"/><path d="m-.001 0v-50l-50 25v50z" fill="#b49355"/><path d="m-50.001-25v-50l-50 25v50z" fill="#b49355"/><path d="m-.001-100v-50l-50 25v50z" fill="#b49355"/><path d="m-50.001-125v-50l-50 25v50z" fill="#b49355"/><path d="m-100 50v-50l-50 25v50z" fill="#b49355"/><path d="m-100-50v-50l-50 25v50z" fill="#b49355"/><path d="m-.001-250v-50l50 25v50z" fill="#9c7125"/><path d="m49.999-175v-50l50 25v50z" fill="#9c7125"/><path d="m99.999-200v-50l50 25v50z" fill="#9c7125"/><path d="m49.999-275v-50l50 25v50z" fill="#9c7125"/><path d="m-.001-200v-50l-50 25v50z" fill="#b49355"/><path d="m-50.001-225v-50l-50 25v50z" fill="#b49355"/><path d="m-.001-300v-50l-50 25v50z" fill="#b49355"/><path d="m-100-150v-50l-50 25v50z" fill="#b49355"/><path d="m-100-250v-50l-50 25v50z" fill="#b49355"/><path d="m-.001-550-150 75v-50l150-75 150 75v50z" fill="#4f441d"/><path d="m-.001-500-150 75v-50l150-75 150 75v50z" fill="#614f1f"/><path d="m-.001-450-150 75v-50l150-75 150 75v50z" fill="#705821"/><path d="m-.001-400-150 75v-50l150-75 150 75v50z" fill="#7e6022"/><path d="m-.001-350-150 75v-50l150-75 150 75v50z" fill="#8d6924"/></symbol><symbol id="e" viewBox="-100 -50 200 100"><path d="m100 0-100-50-100 50 100 50z" fill="#7ee05b"/><path d="m100 0-50-25-50 25 50 25z" fill="#64d13f"/><path d="m0 0-50-25-50 25 50 25z" fill="#64d13f"/></symbol><clipPath id="f"><path d="m0 0h3600v1800h-3600z"/></clipPath><clipPath id="g"><path d="m0 0h3600v1800h-3600z"/></clipPath><g clip-path="url(#f)"><path d="m4500.5 899.5-2700 1350-2700-1350 2700-1350z" fill="#473f21"/></g><g clip-path="url(#g)"><use height="750" transform="matrix(1 0 0 -1 1799.8564 -150.165)" width="300.001" x="-150.001" xlink:href="#c" y="-600"/><use height="750" transform="matrix(1 0 0 -1 1949.8567 -75.1647)" width="300.002" x="-150.001" xlink:href="#d" y="-600"/><use height="750" transform="matrix(1 0 0 -1 2099.8547 -.165)" width="300.001" x="-150.001" xlink:href="#c" y="-600"/><use height="750" transform="matrix(1 0 0 -1 2249.855 74.8353)" width="300.002" x="-150.001" xlink:href="#d" y="-600"/><use height="750" transform="matrix(1 0 0 -1 2399.853 149.8349)" width="300.001" x="-150.001" xlink:href="#c" y="-600"/><use height="750" transform="matrix(1 0 0 -1 2549.8533 224.8352)" width="300.002" x="-150.001" xlink:href="#d" y="-600"/><use height="750" transform="matrix(1 0 0 -1 2699.8513 299.8349)" width="300.001" x="-150.001" xlink:href="#c" y="-600"/><use height="750" transform="matrix(1 0 0 -1 2849.8516 374.8352)" width="300.002" x="-150.001" xlink:href="#d" y="-600"/><use height="750" transform="matrix(1 0 0 -1 2999.8496 449.8348)" width="300.001" x="-150.001" xlink:href="#c" y="-600"/><use height="750" transform="matrix(1 0 0 -1 3149.8499 524.8351)" width="300.002" x="-150.001" xlink:href="#d" y="-600"/><use height="750" transform="matrix(1 0 0 -1 3299.8479 599.8348)" width="300.001" x="-150.001" xlink:href="#c" y="-600"/><use height="750" transform="matrix(1 0 0 -1 3449.8484 674.8351)" width="300.002" x="-150.001" xlink:href="#d" y="-600"/><use height="750" transform="matrix(1 0 0 -1 3599.8464 749.8348)" width="300.001" x="-150.001" xlink:href="#c" y="-600"/><use height="750" transform="matrix(1 0 0 -1 1649.8564 -75.165)" width="300.002" x="-150.001" xlink:href="#d" y="-600"/><use height="750" transform="matrix(1 0 0 -1 1499.2209 -.1091)" width="300.001" x="-150.001" xlink:href="#c" y="-600"/><use height="750" transform="matrix(1 0 0 -1 1349.2771 74.8628)" width="300.002" x="-150.001" xlink:href="#d" y="-600"/><use height="750" transform="matrix(1 0 0 -1 1198.6416 149.9187)" width="300.001" x="-150.001" xlink:href="#c" y="-600"/><use height="750" transform="matrix(1 0 0 -1 1048.6978 224.8906)" width="300.002" x="-150.001" xlink:href="#d" y="-600"/><use height="750" transform="matrix(1 0 0 -1 898.6413 299.9183)" width="300.001" x="-150.001" xlink:href="#c" y="-600"/><use height="750" transform="matrix(1 0 0 -1 748.1185 374.9184)" width="300.002" x="-150.001" xlink:href="#d" y="-600"/><use height="750" transform="matrix(1 0 0 -1 598.1172 449.918)" width="300.001" x="-150.001" xlink:href="#c" y="-600"/><use height="750" transform="matrix(1 0 0 -1 447.5391 524.9462)" width="300.002" x="-150.001" xlink:href="#d" y="-600"/><use height="750" transform="matrix(1 0 0 -1 296.9036 600.002)" width="300.001" x="-150.001" xlink:href="#c" y="-600"/><use height="750" transform="matrix(1 0 0 -1 146.9036 675.002)" width="300.002" x="-150.001" xlink:href="#d" y="-600"/><use height="750" transform="matrix(1 0 0 -1 -3.7319 750.0579)" width="300.001" x="-150.001" xlink:href="#c" y="-600"/><use height="100" transform="matrix(1 0 0 -1 -53.0953 575.002)" width="200" x="-100" xlink:href="#e" y="-50"/><use height="100" transform="matrix(1 0 0 -1 1148.6427 -25.0814)" width="200" x="-100" xlink:href="#e" y="-50"/><use height="100" transform="matrix(1 0 0 -1 748.6424 174.9183)" width="200" x="-100" xlink:href="#e" y="-50"/><use height="100" transform="matrix(1 0 0 -1 848.6989 124.8905)" width="200" x="-100" xlink:href="#e" y="-50"/><use height="100" transform="matrix(1 0 0 -1 648.6425 124.9182)" width="200" x="-100" xlink:href="#e" y="-50"/><use height="100" transform="matrix(1 0 0 -1 748.6425 74.9183)" width="200" x="-100" xlink:href="#e" y="-50"/><use height="100" transform="matrix(1 0 0 -1 948.6989 74.8905)" width="200" x="-100" xlink:href="#e" y="-50"/><use height="100" transform="matrix(1 0 0 -1 1048.7555 24.8628)" width="200" x="-100" xlink:href="#e" y="-50"/><use height="100" transform="matrix(1 0 0 -1 848.699 24.8905)" width="200" x="-100" xlink:href="#e" y="-50"/><use height="100" transform="matrix(1 0 0 -1 948.6991 -25.1095)" width="200" x="-100" xlink:href="#e" y="-50"/><use height="100" transform="matrix(1 0 0 -1 648.6414 224.918)" width="200" x="-100" xlink:href="#e" y="-50"/><use height="100" transform="matrix(1 0 0 -1 548.585 174.9457)" width="200" x="-100" xlink:href="#e" y="-50"/><use height="100" transform="matrix(1 0 0 -1 548.1196 274.9183)" width="200" x="-100" xlink:href="#e" y="-50"/><use height="100" transform="matrix(1 0 0 -1 448.1196 224.9183)" width="200" x="-100" xlink:href="#e" y="-50"/><use height="100" transform="matrix(1 0 0 -1 448.1186 324.918)" width="200" x="-100" xlink:href="#e" y="-50"/><use height="100" transform="matrix(1 0 0 -1 348.0622 274.9458)" width="200" x="-100" xlink:href="#e" y="-50"/><use height="100" transform="matrix(1 0 0 -1 347.5403 374.9461)" width="200" x="-100" xlink:href="#e" y="-50"/><use height="100" transform="matrix(1 0 0 -1 247.5403 324.946)" width="200" x="-100" xlink:href="#e" y="-50"/><use height="100" transform="matrix(1 0 0 -1 247.5392 424.9458)" width="200" x="-100" xlink:href="#e" y="-50"/><use height="100" transform="matrix(1 0 0 -1 147.4829 374.9735)" width="200" x="-100" xlink:href="#e" y="-50"/><use height="100" transform="matrix(1 0 0 -1 147.5392 474.9458)" width="200" x="-100" xlink:href="#e" y="-50"/><use height="100" transform="matrix(1 0 0 -1 47.5392 424.9457)" width="200" x="-100" xlink:href="#e" y="-50"/><use height="100" transform="matrix(1 0 0 -1 47.5382 524.9455)" width="200" x="-100" xlink:href="#e" y="-50"/><use height="100" transform="matrix(1 0 0 -1 -52.5182 474.9732)" width="200" x="-100" xlink:href="#e" y="-50"/><use height="100" transform="matrix(1 0 0 -1 3649.8469 574.8347)" width="200" x="-100" xlink:href="#e" y="-50"/><use height="100" transform="matrix(1 0 0 -1 3549.8469 524.8347)" width="200" x="-100" xlink:href="#e" y="-50"/><use height="100" transform="matrix(1 0 0 -1 3449.8469 474.8346)" width="200" x="-100" xlink:href="#e" y="-50"/><use height="100" transform="matrix(1 0 0 -1 3349.8469 424.8346)" width="200" x="-100" xlink:href="#e" y="-50"/><use height="100" transform="matrix(1 0 0 -1 3249.8472 374.8346)" width="200" x="-100" xlink:href="#e" y="-50"/><use height="100" transform="matrix(1 0 0 -1 3149.8472 324.8345)" width="200" x="-100" xlink:href="#e" y="-50"/><use height="100" transform="matrix(1 0 0 -1 3049.8472 274.8345)" width="200" x="-100" xlink:href="#e" y="-50"/><use height="100" transform="matrix(1 0 0 -1 2949.8472 224.8345)" width="200" x="-100" xlink:href="#e" y="-50"/><use height="100" transform="matrix(1 0 0 -1 2849.8474 174.8344)" width="200" x="-100" xlink:href="#e" y="-50"/><use height="100" transform="matrix(1 0 0 -1 2749.8474 124.8344)" width="200" x="-100" xlink:href="#e" y="-50"/><use height="100" transform="matrix(1 0 0 -1 2649.8474 74.8344)" width="200" x="-100" xlink:href="#e" y="-50"/><use height="100" transform="matrix(1 0 0 -1 2549.8474 24.8343)" width="200" x="-100" xlink:href="#e" y="-50"/><use height="100" transform="matrix(1 0 0 -1 2449.8477 -25.1657)" width="200" x="-100" xlink:href="#e" y="-50"/><use height="100" transform="matrix(1 0 0 -1 3649.8469 474.8347)" width="200" x="-100" xlink:href="#e" y="-50"/><use height="100" transform="matrix(1 0 0 -1 3549.8469 424.8346)" width="200" x="-100" xlink:href="#e" y="-50"/><use height="100" transform="matrix(1 0 0 -1 3449.8472 374.8346)" width="200" x="-100" xlink:href="#e" y="-50"/><use height="100" transform="matrix(1 0 0 -1 3349.8472 324.8346)" width="200" x="-100" xlink:href="#e" y="-50"/><use height="100" transform="matrix(1 0 0 -1 3249.8472 274.8345)" width="200" x="-100" xlink:href="#e" y="-50"/><use height="100" transform="matrix(1 0 0 -1 3149.8472 224.8345)" width="200" x="-100" xlink:href="#e" y="-50"/><use height="100" transform="matrix(1 0 0 -1 3049.8474 174.8345)" width="200" x="-100" xlink:href="#e" y="-50"/><use height="100" transform="matrix(1 0 0 -1 2949.8474 124.8344)" width="200" x="-100" xlink:href="#e" y="-50"/><use height="100" transform="matrix(1 0 0 -1 2849.8474 74.8344)" width="200" x="-100" xlink:href="#e" y="-50"/><use height="100" transform="matrix(1 0 0 -1 2749.8474 24.8344)" width="200" x="-100" xlink:href="#e" y="-50"/><use height="100" transform="matrix(1 0 0 -1 2649.8477 -25.1657)" width="200" x="-100" xlink:href="#e" y="-50"/></g><g clip-path="url(#g)"><use height="750" transform="matrix(1 0 0 -1 1949.8552 574.8164)" width="300.002" x="-150.001" xlink:href="#d" y="-600"/><use height="300" transform="matrix(1 0 0 -1 1774.8007 662.2882)" width="199.999" x="-25.001" xlink:href="#a" y="-137.5"/><use height="750" transform="matrix(1 0 0 -1 1749.8749 674.7509)" width="300.002" x="-150.001" xlink:href="#d" y="-600"/><use height="750" transform="matrix(1 0 0 -1 1349.9674 474.8535)" width="300.001" x="-150.001" xlink:href="#c" y="-600"/><use height="750" transform="matrix(1 0 0 -1 1599.9299 749.7225)" width="300.001" x="-150.001" xlink:href="#c" y="-600"/><use height="750" transform="matrix(1 0 0 -1 2249.7429 724.7602)" width="300.002" x="-150.001" xlink:href="#d" y="-600"/><use height="750" transform="matrix(1 0 0 -1 2099.7251 799.6384)" width="300.001" x="-150.001" xlink:href="#c" y="-600"/><use height="750" transform="matrix(1 0 0 -1 1449.9299 824.7224)" width="300.002" x="-150.001" xlink:href="#d" y="-600"/><use height="750" transform="matrix(1 0 0 -1 1599.7821 899.6103)" width="300.001" x="-150.001" xlink:href="#c" y="-600"/><use height="750" transform="matrix(1 0 0 -1 1949.7441 874.629)" width="300.002" x="-150.001" xlink:href="#d" y="-600"/><use height="750" transform="matrix(1 0 0 -1 1799.7814 949.6104)" width="300.001" x="-150.001" xlink:href="#c" y="-600"/><use height="750" transform="matrix(1 0 0 -1 1649.8376 1024.5823)" width="300.002" x="-150.001" xlink:href="#d" y="-600"/><use height="750" transform="matrix(1 0 0 -1 1499.7296 1099.6384)" width="300.001" x="-150.001" xlink:href="#c" y="-600"/><use height="750" transform="matrix(1 0 0 -1 1349.9674 1174.5913)" width="300.002" x="-150.001" xlink:href="#d" y="-600"/><use height="750" transform="matrix(1 0 0 -1 900.1725 999.6943)" width="300.001" x="-150.001" xlink:href="#c" y="-600"/><use height="725" transform="matrix(1 0 0 -1 1174.9664 1262.0909)" width="250.002" x="-75.002" xlink:href="#b" y="-562.5"/><use height="750" transform="matrix(1 0 0 -1 2499.5928 999.6288)" width="300.001" x="-150.001" xlink:href="#c" y="-600"/></g><g clip-path="url(#g)"><use height="750" transform="matrix(1 0 0 -1 1949.7426 1174.5913)" width="300.001" x="-150.001" xlink:href="#c" y="-600"/></g><path d="m1699.893 749.723-50 25-50-25 50-25z" fill="#7ee05b"/><path d="m1749.782 724.61-50 25-50-25 50-25z" fill="#65d13f"/><use height="100" transform="matrix(1 0 0 -1 1749.7826 774.6103)" width="200" x="-100" xlink:href="#e" y="-50"/></svg>