<svg enable-background="new 0 0 3600 1800" height="1800" viewBox="0 0 3600 1800" width="3600" xmlns="http://www.w3.org/2000/svg" xmlns:xlink="http://www.w3.org/1999/xlink"><symbol id="a" viewBox="-100 -50 200 100"><path d="m100 0-100-50-100 50 100 50z" fill="#e9c472"/><path d="m66.663-16.604c-16.668 0-16.668 10-33.336 10-16.666 0-16.666-10-33.332-10-16.667 0-16.667 10-33.333 10s-16.666-10-33.332-10c-.044 0-.085.003-.129.003l49.315-24.657c4.459 2.653 8.608 5.492 17.488 5.492 8.877 0 13.026-2.837 17.484-5.489l49.31 24.655c-.046-.001-.088-.004-.135-.004z" fill="#e6ba63"/><path d="m33.175 33.413c-15.791.346-18.544 9.984-32.463 9.984s-17.495-9.929-33.913-9.997l-49.31-24.655c3.911-2.327 8.06-4.511 15.849-4.511 16.666 0 16.666 10 33.331 10 16.546 0 14.281-9.99 33.709-9.99s17.01 9.99 33.676 9.99c16.667 0 16.667-10 33.333-10 7.569 0 11.699 2.063 15.516 4.315z" fill="#e6ba63"/></symbol><symbol id="b" viewBox="-200.001 -50 400 296.257"><path d="m99.999 0-100-50-100 50 100 50z" fill="none"/><path d="m100 100-100.001-50-99.999 50 100 50z" fill="none"/><path d="m-.001 50-100-50-100 50 100.001 50z" fill="none"/><path d="m199.999 50-100-50-100 50 100.001 50z" fill="none"/><path d="m-.149 246.258c-106.206 0-160.177-108.613-160.177-185.455 0-32.711 58.027-77.756 160.177-77.756s160.475 45.045 160.475 77.756c0 76.842-54.269 185.455-160.475 185.455z" fill="#d7a251"/><path d="m-.149 246.258c-9.295 0-18.183-.849-26.68-2.419 107.523-22.659 144.479-129.755 144.385-234.824 28.082 15.448 42.77 35.202 42.77 51.787 0 76.843-54.269 185.456-160.475 185.456z" fill="#d0984a"/><path d="m151.436 118.181c-8.754-8.265-15.178-21.79-21.071-30.167-8.361-11.15-24.121-6.752-35.875-12.509-8.917-3.059-16.714-10.404-24.523-14.321-11.741-4.953-24.272 2.537-37.179.182-10.222-.727-19.972-6.47-28.998-8.365-12.022-1.596-22.698 7.856-35.386 8.364-9.783 1.376-19.842-1.599-28.701-1.951-12.63-.077-20.975 12.453-33.006 16.09-11.762 5.76-27.507 1.364-35.881 12.508-6.147 8.747-12.773 22.912-22.02 31.056-5.017-16.499-7.966-33.054-8.838-48.612 11.658-17.043 18.024-23.055 52.592-28.113 11.964-4.705 20.173-14.965 35.006-17.948 13.874-3.617 26.285 2.565 38.952.807 10.688-2.571 20.935-8.875 34.086-8.663 13.163-.212 23.393 6.1 34.094 8.666 12.665 1.746 25.083-4.422 38.95-.809 13.396 2.835 21.913 11.396 31.909 16.699 12.278 5.133 26.285 2.863 38.733 11.174 7.461 4.744 12.055 10.333 15.869 16.157-.713 15.866-3.623 32.831-8.713 49.755z" fill="#d0984a"/><path d="m-94.562 113.433c12.581-2.56 18.64-14.034 32.97-16.389 13.508-3.691 24.327 4.945 36.591.726 7.731-2.943 15.516-7.254 25.594-7.09 10.074-.165 17.87 4.15 25.598 7.09 12.265 4.218 23.083-4.418 36.597-.724 14.332 2.356 20.378 13.828 32.963 16.385 8.95 1.285 18.552.685 27.838 6.404 10.566 6.297 14.354 14.51 19.07 22.414-5.118 11.869-11.347 23.432-18.671 34.28-4.646-4.994-9.428-10.289-12.11-16.465-9.729-16.664-33.074-7.12-47.716-22.303-10.864-9.838-23.608-.661-36.629-2.597-12.187-.406-22.1-11.383-34.143-6.21-25.853 14.944-40.248-3.57-56.357 8.802-14.725 15.239-37.903 5.581-47.749 22.32-2.839 6.529-7.974 12.055-12.843 17.285-7.385-10.849-13.665-22.43-18.83-34.327 11.584-19.131 20.812-29.03 47.827-29.601z" fill="#d0984a"/><path d="m-105.075 200.353c13.783-16.053 23.554-21.995 43.666-20.78 21.777.892 21.54-15.081 41.474-6.363 19.934 8.718 21.951-9.81 41.056.002s34.236-4.921 46.183 7.38c12.992 12.312 32.237 7.509 38.049 19.271-6.485 6.858-13.532 13.183-21.153 18.806-2.364-1.635-5.711-2.385-10.563-1.245-20.042 4.712-23.896-14.672-34.074-10.463s-28.185-10.497-39.959-3.51c-11.775 6.988-26.259-6.548-37.988 3.509-11.729 10.058-22.893-4.189-32.969 9.2-2.041 2.711-3.862 5.345-5.519 7.734-10.36-6.7-19.76-14.664-28.203-23.541z" fill="#d0984a"/></symbol><symbol id="c" viewBox="-99.999 -50 200 167.545"><path d="m-.083 117.545c-60.031 0-90.536-61.391-90.536-104.824 0-18.489 32.798-43.95 90.536-43.95s90.704 25.461 90.704 43.95c0 43.433-30.674 104.824-90.704 104.824z" fill="#daad5b"/><path d="m-.083 117.545c-5.254 0-10.277-.48-15.08-1.367 60.775-12.808 81.663-73.341 81.61-132.729 15.873 8.732 24.174 19.897 24.174 29.272 0 43.433-30.674 104.824-90.704 104.824z" fill="#d5a24f"/><path d="m100.001 0-100-50-100 50 100 50z" fill="none"/><path d="m90.5 17.421c-.429 8.779-2.042 18.141-4.833 27.488-5.172-4.543-8.908-12.412-12.33-17.221-4.703-6.201-13.569-3.755-20.181-6.956-5.016-1.701-9.402-5.786-13.795-7.964-6.605-2.755-13.654 1.411-20.915.101-5.75-.405-11.235-3.599-16.312-4.652-6.763-.888-12.769 4.369-19.906 4.651-5.503.765-11.162-.889-16.146-1.085-7.105-.043-11.8 6.925-18.567 8.948-6.617 3.203-15.474.758-20.185 6.956-3.567 5.017-7.415 13.25-12.877 17.697-2.749-9.115-4.382-18.256-4.894-26.865 6.83-9.938 10.147-13.358 29.997-16.229 6.73-2.616 11.348-8.322 19.692-9.981 7.805-2.012 14.787 1.426 21.912.449 6.013-1.43 11.777-4.935 19.175-4.818 7.405-.118 13.16 3.392 19.18 4.819 7.125.971 14.111-2.459 21.911-.45 7.536 1.577 12.327 6.337 17.95 9.286 6.907 2.854 14.786 1.592 21.789 6.214 4.467 2.809 7.107 6.149 9.335 9.612z" fill="#d5a24f"/><path d="m-53.194 41.823c7.078-1.424 10.486-7.805 18.547-9.114 7.599-2.053 13.685 2.75 20.584.404 4.349-1.637 8.729-4.034 14.397-3.943 5.667-.092 10.053 2.308 14.4 3.943 6.899 2.345 12.985-2.457 20.587-.403 8.062 1.31 11.464 7.69 18.543 9.112 5.035.715 10.436.381 15.66 3.561 6.28 3.699 8.303 8.59 11.182 13.209-2.827 6.582-6.256 13.001-10.282 19.036-2.815-2.988-5.849-6.142-7.488-9.873-5.473-9.267-18.606-3.959-26.843-12.403-6.111-5.471-13.281-.368-20.605-1.444-6.855-.226-12.432-6.33-19.207-3.453-14.543 8.31-22.641-1.985-31.703 4.895-8.283 8.475-21.322 3.104-26.861 12.412-1.729 3.931-4.973 7.209-7.902 10.332-4.06-6.036-7.519-12.464-10.372-19.062 6.74-11.131 11.813-16.884 27.363-17.209z" fill="#d5a24f"/><path d="m-34.543 78.604c12.25.496 12.117-8.387 23.331-3.539 11.214 4.848 12.348-5.456 23.096.001 10.747 5.457 19.259-2.737 25.98 4.104 7.62 7.138 19.069 3.925 21.785 11.598.071.075.149.144.222.217-3.51 3.747-7.32 7.211-11.424 10.319-1.328-1.516-3.453-2.48-7.02-1.651-11.274 2.62-13.442-8.159-19.168-5.819-5.726 2.341-15.855-5.838-22.479-1.952s-14.772-3.642-21.37 1.952c-6.598 5.593-12.878-2.329-18.547 5.116-1.513 1.987-2.813 3.901-3.967 5.524-5.802-3.831-11.065-8.362-15.788-13.403 8.178-9.614 13.657-13.166 25.349-12.467z" fill="#d5a24f"/></symbol><symbol id="d" viewBox="-61.605 -89.338 91.97 109.928"><path d="m-25.568 16.671v-87.738l-3.873-1.925-7.839 91.658 3.873 1.925z" fill="#937017"/><path d="m-29.441 14.747v-87.739l-7.839 3.92v87.738z" fill="#b28f34"/><path d="m7.276.325v-87.738l-3.873-1.925-7.838 91.658 3.873 1.925z" fill="#937017"/><path d="m3.403-1.599v-87.739l-7.838 3.92v87.738z" fill="#b28f34"/><path d="m30.364-24.08v-18.016l-3.873-1.925-88.096 62.065 3.873 1.924z" fill="#8e6211"/><path d="m26.491-26.004v-18.017l-88.096 44.049v18.016z" fill="#ad7d2a"/><path d="m30.364-54.235v-18.016l-3.873-1.924-88.096 62.064 3.873 1.925z" fill="#8e6211"/><path d="m26.491-56.159v-18.016l-88.096 44.048v18.016z" fill="#ad7d2a"/><path d="m-2.148-18.762c-1.004.643-1.818.169-1.818-1.058s.814-2.743 1.818-3.386 1.818-.169 1.818 1.058-.814 2.743-1.818 3.386z" fill="#99998c"/><path d="m-34.993-2.416c-1.004.643-1.818.169-1.818-1.058s.814-2.743 1.818-3.386 1.818-.169 1.818 1.058-.814 2.743-1.818 3.386z" fill="#99998c"/><path d="m-2.148-48.917c-1.004.643-1.818.169-1.818-1.058s.814-2.743 1.818-3.386 1.818-.169 1.818 1.058-.814 2.743-1.818 3.386z" fill="#99998c"/><path d="m-34.993-32.571c-1.004.643-1.818.169-1.818-1.058s.814-2.743 1.818-3.386 1.818-.169 1.818 1.058-.814 2.743-1.818 3.386z" fill="#99998c"/></symbol><clipPath id="e"><path d="m0 0h3600v1800h-3600z"/></clipPath><g clip-path="url(#e)"><path d="m4500.5 899.5-2700 1350-2700-1350 2700-1350z" fill="#e9d287"/></g><g clip-path="url(#e)"><use height="100" transform="matrix(1 0 0 -1 1400.5 -200.5002)" width="200" x="-100" xlink:href="#a" y="-50"/><use height="100" transform="matrix(1 0 0 -1 1600.5 -200.5002)" width="200" x="-100" xlink:href="#a" y="-50"/><use height="100" transform="matrix(1 0 0 -1 1400.5 -100.5003)" width="200" x="-100" xlink:href="#a" y="-50"/><use height="100" transform="matrix(1 0 0 -1 1600.5 -100.5003)" width="200" x="-100" xlink:href="#a" y="-50"/><use height="100" transform="matrix(1 0 0 -1 1300.5 -150.5003)" width="200" x="-100" xlink:href="#a" y="-50"/><use height="100" transform="matrix(1 0 0 -1 1500.5 -150.5003)" width="200" x="-100" xlink:href="#a" y="-50"/><use height="100" transform="matrix(1 0 0 -1 1500.5 -250.5003)" width="200" x="-100" xlink:href="#a" y="-50"/><use height="100" transform="matrix(1 0 0 -1 1500.5 -50.5003)" width="200" x="-100" xlink:href="#a" y="-50"/><use height="100" transform="matrix(1 0 0 -1 1700.5 -150.5003)" width="200" x="-100" xlink:href="#a" y="-50"/><use height="100" transform="matrix(1 0 0 -1 1700.5001 -350.5002)" width="200" x="-100" xlink:href="#a" y="-50"/><use height="100" transform="matrix(1 0 0 -1 1900.5001 -350.5002)" width="200" x="-100" xlink:href="#a" y="-50"/><use height="100" transform="matrix(1 0 0 -1 1700.5001 -250.5003)" width="200" x="-100" xlink:href="#a" y="-50"/><use height="100" transform="matrix(1 0 0 -1 1900.5001 -250.5003)" width="200" x="-100" xlink:href="#a" y="-50"/><use height="100" transform="matrix(1 0 0 -1 1600.5 -300.5002)" width="200" x="-100" xlink:href="#a" y="-50"/><use height="100" transform="matrix(1 0 0 -1 1800.5 -300.5002)" width="200" x="-100" xlink:href="#a" y="-50"/><use height="100" transform="matrix(1 0 0 -1 1800.5 -400.5002)" width="200" x="-100" xlink:href="#a" y="-50"/><use height="100" transform="matrix(1 0 0 -1 1800.5 -200.5002)" width="200" x="-100" xlink:href="#a" y="-50"/><use height="100" transform="matrix(1 0 0 -1 2000.5 -300.5002)" width="200" x="-100" xlink:href="#a" y="-50"/><use height="100" transform="matrix(1 0 0 -1 1100.5 -50.5003)" width="200" x="-100" xlink:href="#a" y="-50"/><use height="100" transform="matrix(1 0 0 -1 1300.5 -50.5003)" width="200" x="-100" xlink:href="#a" y="-50"/><use height="100" transform="matrix(1 0 0 -1 1100.5 49.4997)" width="200" x="-100" xlink:href="#a" y="-50"/><use height="100" transform="matrix(1 0 0 -1 1300.5 49.4997)" width="200" x="-100" xlink:href="#a" y="-50"/><use height="100" transform="matrix(1 0 0 -1 1000.4999 -.5003)" width="200" x="-100" xlink:href="#a" y="-50"/><use height="100" transform="matrix(1 0 0 -1 1200.4999 -.5003)" width="200" x="-100" xlink:href="#a" y="-50"/><use height="100" transform="matrix(1 0 0 -1 1200.4999 -100.5003)" width="200" x="-100" xlink:href="#a" y="-50"/><use height="100" transform="matrix(1 0 0 -1 1200.4999 99.4997)" width="200" x="-100" xlink:href="#a" y="-50"/><use height="100" transform="matrix(1 0 0 -1 1400.4999 -.5003)" width="200" x="-100" xlink:href="#a" y="-50"/><use height="100" transform="matrix(1 0 0 -1 1700.5 -50.5002)" width="200" x="-100" xlink:href="#a" y="-50"/><use height="100" transform="matrix(1 0 0 -1 1900.5 -50.5002)" width="200" x="-100" xlink:href="#a" y="-50"/><use height="100" transform="matrix(1 0 0 -1 1700.5 49.4997)" width="200" x="-100" xlink:href="#a" y="-50"/><use height="100" transform="matrix(1 0 0 -1 1900.5 49.4997)" width="200" x="-100" xlink:href="#a" y="-50"/><use height="100" transform="matrix(1 0 0 -1 1600.4999 -.5002)" width="200" x="-100" xlink:href="#a" y="-50"/><use height="100" transform="matrix(1 0 0 -1 1800.4999 -.5002)" width="200" x="-100" xlink:href="#a" y="-50"/><use height="100" transform="matrix(1 0 0 -1 1800.4999 -100.5002)" width="200" x="-100" xlink:href="#a" y="-50"/><use height="100" transform="matrix(1 0 0 -1 1800.4999 99.4998)" width="200" x="-100" xlink:href="#a" y="-50"/><use height="100" transform="matrix(1 0 0 -1 2000.4999 -.5002)" width="200" x="-100" xlink:href="#a" y="-50"/><use height="100" transform="matrix(1 0 0 -1 2000.5 -200.5002)" width="200" x="-100" xlink:href="#a" y="-50"/><use height="100" transform="matrix(1 0 0 -1 2200.5 -200.5002)" width="200" x="-100" xlink:href="#a" y="-50"/><use height="100" transform="matrix(1 0 0 -1 2000.5 -100.5002)" width="200" x="-100" xlink:href="#a" y="-50"/><use height="100" transform="matrix(1 0 0 -1 2200.5 -100.5002)" width="200" x="-100" xlink:href="#a" y="-50"/><use height="100" transform="matrix(1 0 0 -1 1900.5 -150.5002)" width="200" x="-100" xlink:href="#a" y="-50"/><use height="100" transform="matrix(1 0 0 -1 2100.5 -150.5002)" width="200" x="-100" xlink:href="#a" y="-50"/><use height="100" transform="matrix(1 0 0 -1 2100.5 -250.5002)" width="200" x="-100" xlink:href="#a" y="-50"/><use height="100" transform="matrix(1 0 0 -1 2100.5 -50.5002)" width="200" x="-100" xlink:href="#a" y="-50"/><use height="100" transform="matrix(1 0 0 -1 2300.5 -150.5002)" width="200" x="-100" xlink:href="#a" y="-50"/><use height="100" transform="matrix(1 0 0 -1 2000.4999 99.4998)" width="200" x="-100" xlink:href="#a" y="-50"/><use height="100" transform="matrix(1 0 0 -1 2200.5 99.4998)" width="200" x="-100" xlink:href="#a" y="-50"/><use height="100" transform="matrix(1 0 0 -1 2000.4999 199.4998)" width="200" x="-100" xlink:href="#a" y="-50"/><use height="100" transform="matrix(1 0 0 -1 2200.5 199.4998)" width="200" x="-100" xlink:href="#a" y="-50"/><use height="100" transform="matrix(1 0 0 -1 1900.4999 149.4998)" width="200" x="-100" xlink:href="#a" y="-50"/><use height="100" transform="matrix(1 0 0 -1 2100.4998 149.4998)" width="200" x="-100" xlink:href="#a" y="-50"/><use height="100" transform="matrix(1 0 0 -1 2100.4998 49.4998)" width="200" x="-100" xlink:href="#a" y="-50"/><use height="100" transform="matrix(1 0 0 -1 2100.4998 249.4998)" width="200" x="-100" xlink:href="#a" y="-50"/><use height="100" transform="matrix(1 0 0 -1 2300.4998 149.4998)" width="200" x="-100" xlink:href="#a" y="-50"/><use height="100" transform="matrix(1 0 0 -1 2300.5 -50.5001)" width="200" x="-100" xlink:href="#a" y="-50"/><use height="100" transform="matrix(1 0 0 -1 2500.5 -50.5001)" width="200" x="-100" xlink:href="#a" y="-50"/><use height="100" transform="matrix(1 0 0 -1 2300.5 49.4998)" width="200" x="-100" xlink:href="#a" y="-50"/><use height="100" transform="matrix(1 0 0 -1 2500.5 49.4998)" width="200" x="-100" xlink:href="#a" y="-50"/><use height="100" transform="matrix(1 0 0 -1 2200.5 -.5002)" width="200" x="-100" xlink:href="#a" y="-50"/><use height="100" transform="matrix(1 0 0 -1 2400.5 -.5002)" width="200" x="-100" xlink:href="#a" y="-50"/><use height="100" transform="matrix(1 0 0 -1 2400.5 -100.5002)" width="200" x="-100" xlink:href="#a" y="-50"/><use height="100" transform="matrix(1 0 0 -1 2400.5 99.4998)" width="200" x="-100" xlink:href="#a" y="-50"/><use height="100" transform="matrix(1 0 0 -1 2600.5 -.5002)" width="200" x="-100" xlink:href="#a" y="-50"/><use height="100" transform="matrix(1 0 0 -1 1400.4999 99.4998)" width="200" x="-100" xlink:href="#a" y="-50"/><use height="100" transform="matrix(1 0 0 -1 1600.4999 99.4998)" width="200" x="-100" xlink:href="#a" y="-50"/><use height="100" transform="matrix(1 0 0 -1 1400.4999 199.4997)" width="200" x="-100" xlink:href="#a" y="-50"/><use height="100" transform="matrix(1 0 0 -1 1600.4999 199.4997)" width="200" x="-100" xlink:href="#a" y="-50"/><use height="100" transform="matrix(1 0 0 -1 1300.4999 149.4997)" width="200" x="-100" xlink:href="#a" y="-50"/><use height="100" transform="matrix(1 0 0 -1 1500.4999 149.4997)" width="200" x="-100" xlink:href="#a" y="-50"/><use height="100" transform="matrix(1 0 0 -1 1500.4999 49.4997)" width="200" x="-100" xlink:href="#a" y="-50"/><use height="100" transform="matrix(1 0 0 -1 1500.4999 249.4997)" width="200" x="-100" xlink:href="#a" y="-50"/><use height="100" transform="matrix(1 0 0 -1 1700.4999 149.4997)" width="200" x="-100" xlink:href="#a" y="-50"/><use height="100" transform="matrix(1 0 0 -1 1700.4999 249.4998)" width="200" x="-100" xlink:href="#a" y="-50"/><use height="100" transform="matrix(1 0 0 -1 1900.4999 249.4998)" width="200" x="-100" xlink:href="#a" y="-50"/><use height="100" transform="matrix(1 0 0 -1 1700.4999 349.4997)" width="200" x="-100" xlink:href="#a" y="-50"/><use height="100" transform="matrix(1 0 0 -1 1900.4999 349.4997)" width="200" x="-100" xlink:href="#a" y="-50"/><use height="100" transform="matrix(1 0 0 -1 1600.4998 299.4998)" width="200" x="-100" xlink:href="#a" y="-50"/><use height="100" transform="matrix(1 0 0 -1 1800.4998 299.4998)" width="200" x="-100" xlink:href="#a" y="-50"/><use height="100" transform="matrix(1 0 0 -1 1800.4998 199.4998)" width="200" x="-100" xlink:href="#a" y="-50"/><use height="100" transform="matrix(1 0 0 -1 1800.4998 399.4998)" width="200" x="-100" xlink:href="#a" y="-50"/><use height="100" transform="matrix(1 0 0 -1 2000.4998 299.4998)" width="200" x="-100" xlink:href="#a" y="-50"/><use height="100" transform="matrix(1 0 0 -1 2300.4998 249.4999)" width="200" x="-100" xlink:href="#a" y="-50"/><use height="100" transform="matrix(1 0 0 -1 2500.4998 249.4999)" width="200" x="-100" xlink:href="#a" y="-50"/><use height="100" transform="matrix(1 0 0 -1 2300.4998 349.4998)" width="200" x="-100" xlink:href="#a" y="-50"/><use height="100" transform="matrix(1 0 0 -1 2500.4998 349.4998)" width="200" x="-100" xlink:href="#a" y="-50"/><use height="100" transform="matrix(1 0 0 -1 2200.4998 299.4998)" width="200" x="-100" xlink:href="#a" y="-50"/><use height="100" transform="matrix(1 0 0 -1 2400.4998 299.4998)" width="200" x="-100" xlink:href="#a" y="-50"/><use height="100" transform="matrix(1 0 0 -1 2400.4998 199.4998)" width="200" x="-100" xlink:href="#a" y="-50"/><use height="100" transform="matrix(1 0 0 -1 2400.4998 399.4998)" width="200" x="-100" xlink:href="#a" y="-50"/><use height="100" transform="matrix(1 0 0 -1 2600.4998 299.4998)" width="200" x="-100" xlink:href="#a" y="-50"/><use height="100" transform="matrix(1 0 0 -1 2600.5 99.4999)" width="200" x="-100" xlink:href="#a" y="-50"/><use height="100" transform="matrix(1 0 0 -1 2800.5 99.4999)" width="200" x="-100" xlink:href="#a" y="-50"/><use height="100" transform="matrix(1 0 0 -1 2600.5 199.4998)" width="200" x="-100" xlink:href="#a" y="-50"/><use height="100" transform="matrix(1 0 0 -1 2800.5 199.4998)" width="200" x="-100" xlink:href="#a" y="-50"/><use height="100" transform="matrix(1 0 0 -1 2500.4998 149.4999)" width="200" x="-100" xlink:href="#a" y="-50"/><use height="100" transform="matrix(1 0 0 -1 2700.4998 149.4999)" width="200" x="-100" xlink:href="#a" y="-50"/><use height="100" transform="matrix(1 0 0 -1 2700.4998 49.4999)" width="200" x="-100" xlink:href="#a" y="-50"/><use height="100" transform="matrix(1 0 0 -1 2700.4998 249.4999)" width="200" x="-100" xlink:href="#a" y="-50"/><use height="100" transform="matrix(1 0 0 -1 2900.4998 149.4999)" width="200" x="-100" xlink:href="#a" y="-50"/><use height="100" transform="matrix(1 0 0 -1 2600.4998 399.4999)" width="200" x="-100" xlink:href="#a" y="-50"/><use height="100" transform="matrix(1 0 0 -1 2800.4998 399.4999)" width="200" x="-100" xlink:href="#a" y="-50"/><use height="100" transform="matrix(1 0 0 -1 2600.4998 499.4998)" width="200" x="-100" xlink:href="#a" y="-50"/><use height="100" transform="matrix(1 0 0 -1 2800.4998 499.4998)" width="200" x="-100" xlink:href="#a" y="-50"/><use height="100" transform="matrix(1 0 0 -1 2500.4998 449.4998)" width="200" x="-100" xlink:href="#a" y="-50"/><use height="100" transform="matrix(1 0 0 -1 2700.4998 449.4998)" width="200" x="-100" xlink:href="#a" y="-50"/><use height="100" transform="matrix(1 0 0 -1 2700.4998 349.4998)" width="200" x="-100" xlink:href="#a" y="-50"/><use height="100" transform="matrix(1 0 0 -1 2700.4998 549.4999)" width="200" x="-100" xlink:href="#a" y="-50"/><use height="100" transform="matrix(1 0 0 -1 2900.4998 449.4998)" width="200" x="-100" xlink:href="#a" y="-50"/><use height="100" transform="matrix(1 0 0 -1 2900.4998 249.4999)" width="200" x="-100" xlink:href="#a" y="-50"/><use height="100" transform="matrix(1 0 0 -1 3100.4998 249.4999)" width="200" x="-100" xlink:href="#a" y="-50"/><use height="100" transform="matrix(1 0 0 -1 2900.4998 349.4998)" width="200" x="-100" xlink:href="#a" y="-50"/><use height="100" transform="matrix(1 0 0 -1 3100.4998 349.4998)" width="200" x="-100" xlink:href="#a" y="-50"/><use height="100" transform="matrix(1 0 0 -1 2800.4998 299.4999)" width="200" x="-100" xlink:href="#a" y="-50"/><use height="100" transform="matrix(1 0 0 -1 3000.4998 299.4999)" width="200" x="-100" xlink:href="#a" y="-50"/><use height="100" transform="matrix(1 0 0 -1 3000.4998 199.4999)" width="200" x="-100" xlink:href="#a" y="-50"/><use height="100" transform="matrix(1 0 0 -1 3000.4998 399.4999)" width="200" x="-100" xlink:href="#a" y="-50"/><use height="100" transform="matrix(1 0 0 -1 3200.4998 299.4999)" width="200" x="-100" xlink:href="#a" y="-50"/><use height="100" transform="matrix(1 0 0 -1 2000.4998 399.4998)" width="200" x="-100" xlink:href="#a" y="-50"/><use height="100" transform="matrix(1 0 0 -1 2200.4998 399.4998)" width="200" x="-100" xlink:href="#a" y="-50"/><use height="100" transform="matrix(1 0 0 -1 2000.4998 499.4998)" width="200" x="-100" xlink:href="#a" y="-50"/><use height="100" transform="matrix(1 0 0 -1 2200.4998 499.4998)" width="200" x="-100" xlink:href="#a" y="-50"/><use height="100" transform="matrix(1 0 0 -1 1900.4998 449.4998)" width="200" x="-100" xlink:href="#a" y="-50"/><use height="100" transform="matrix(1 0 0 -1 2100.4998 449.4998)" width="200" x="-100" xlink:href="#a" y="-50"/><use height="100" transform="matrix(1 0 0 -1 2100.4998 349.4998)" width="200" x="-100" xlink:href="#a" y="-50"/><use height="100" transform="matrix(1 0 0 -1 2100.4998 549.4998)" width="200" x="-100" xlink:href="#a" y="-50"/><use height="100" transform="matrix(1 0 0 -1 2300.4998 449.4998)" width="200" x="-100" xlink:href="#a" y="-50"/><use height="100" transform="matrix(1 0 0 -1 2300.4998 549.4999)" width="200" x="-100" xlink:href="#a" y="-50"/><use height="100" transform="matrix(1 0 0 -1 2500.4998 549.4999)" width="200" x="-100" xlink:href="#a" y="-50"/><use height="100" transform="matrix(1 0 0 -1 2300.4998 649.4998)" width="200" x="-100" xlink:href="#a" y="-50"/><use height="100" transform="matrix(1 0 0 -1 2500.4998 649.4998)" width="200" x="-100" xlink:href="#a" y="-50"/><use height="100" transform="matrix(1 0 0 -1 2200.4998 599.4998)" width="200" x="-100" xlink:href="#a" y="-50"/><use height="100" transform="matrix(1 0 0 -1 2400.4998 599.4998)" width="200" x="-100" xlink:href="#a" y="-50"/><use height="100" transform="matrix(1 0 0 -1 2400.4998 499.4998)" width="200" x="-100" xlink:href="#a" y="-50"/><use height="100" transform="matrix(1 0 0 -1 2400.4998 699.4998)" width="200" x="-100" xlink:href="#a" y="-50"/><use height="100" transform="matrix(1 0 0 -1 2600.4998 599.4998)" width="200" x="-100" xlink:href="#a" y="-50"/><use height="100" transform="matrix(1 0 0 -1 2900.4998 549.4999)" width="200" x="-100" xlink:href="#a" y="-50"/><use height="100" transform="matrix(1 0 0 -1 3100.4998 549.4999)" width="200" x="-100" xlink:href="#a" y="-50"/><use height="100" transform="matrix(1 0 0 -1 3100.4995 649.4999)" width="200" x="-100" xlink:href="#a" y="-50"/><use height="100" transform="matrix(1 0 0 -1 2900.4998 649.4999)" width="200" x="-100" xlink:href="#a" y="-50"/><use height="100" transform="matrix(1 0 0 -1 2800.4998 599.4999)" width="200" x="-100" xlink:href="#a" y="-50"/><use height="100" transform="matrix(1 0 0 -1 3000.4998 599.4999)" width="200" x="-100" xlink:href="#a" y="-50"/><use height="100" transform="matrix(1 0 0 -1 3000.4998 699.4999)" width="200" x="-100" xlink:href="#a" y="-50"/><use height="100" transform="matrix(1 0 0 -1 3000.4998 499.4999)" width="200" x="-100" xlink:href="#a" y="-50"/><use height="100" transform="matrix(1 0 0 -1 3200.4998 399.5)" width="200" x="-100" xlink:href="#a" y="-50"/><use height="100" transform="matrix(1 0 0 -1 3400.4998 399.5)" width="200" x="-100" xlink:href="#a" y="-50"/><use height="100" transform="matrix(1 0 0 -1 3200.4998 499.4999)" width="200" x="-100" xlink:href="#a" y="-50"/><use height="100" transform="matrix(1 0 0 -1 3400.4998 499.4999)" width="200" x="-100" xlink:href="#a" y="-50"/><use height="100" transform="matrix(1 0 0 -1 3100.4998 449.4999)" width="200" x="-100" xlink:href="#a" y="-50"/><use height="100" transform="matrix(1 0 0 -1 3300.4998 449.4999)" width="200" x="-100" xlink:href="#a" y="-50"/><use height="100" transform="matrix(1 0 0 -1 3200.4998 599.4999)" width="200" x="-100" xlink:href="#a" y="-50"/><use height="100" transform="matrix(1 0 0 -1 3300.4998 549.4999)" width="200" x="-100" xlink:href="#a" y="-50"/><use height="100" transform="matrix(1 0 0 -1 3300.4998 349.4999)" width="200" x="-100" xlink:href="#a" y="-50"/><use height="100" transform="matrix(1 0 0 -1 3500.4998 449.4999)" width="200" x="-100" xlink:href="#a" y="-50"/><use height="100" transform="matrix(1 0 0 -1 2600.4998 699.4999)" width="200" x="-100" xlink:href="#a" y="-50"/><use height="100" transform="matrix(1 0 0 -1 2800.4998 699.4999)" width="200" x="-100" xlink:href="#a" y="-50"/><use height="100" transform="matrix(1 0 0 -1 2600.4998 799.4998)" width="200" x="-100" xlink:href="#a" y="-50"/><use height="100" transform="matrix(1 0 0 -1 2800.4998 799.4998)" width="200" x="-100" xlink:href="#a" y="-50"/><use height="100" transform="matrix(1 0 0 -1 2500.4995 749.4999)" width="200" x="-100" xlink:href="#a" y="-50"/><use height="100" transform="matrix(1 0 0 -1 2700.4995 749.4999)" width="200" x="-100" xlink:href="#a" y="-50"/><use height="100" transform="matrix(1 0 0 -1 2700.4995 649.4999)" width="200" x="-100" xlink:href="#a" y="-50"/><use height="100" transform="matrix(1 0 0 -1 2700.4995 849.4999)" width="200" x="-100" xlink:href="#a" y="-50"/><use height="100" transform="matrix(1 0 0 -1 2900.4995 749.4999)" width="200" x="-100" xlink:href="#a" y="-50"/><use height="100" transform="matrix(1 0 0 -1 800.5003 99.4999)" width="200" x="-100" xlink:href="#a" y="-50"/><use height="100" transform="matrix(1 0 0 -1 1000.5003 99.4999)" width="200" x="-100" xlink:href="#a" y="-50"/><use height="100" transform="matrix(1 0 0 -1 800.5003 199.4998)" width="200" x="-100" xlink:href="#a" y="-50"/><use height="100" transform="matrix(1 0 0 -1 1000.5003 199.4998)" width="200" x="-100" xlink:href="#a" y="-50"/><use height="100" transform="matrix(1 0 0 -1 700.5002 149.4999)" width="200" x="-100" xlink:href="#a" y="-50"/><use height="100" transform="matrix(1 0 0 -1 900.5002 149.4999)" width="200" x="-100" xlink:href="#a" y="-50"/><use height="100" transform="matrix(1 0 0 -1 900.5002 49.4999)" width="200" x="-100" xlink:href="#a" y="-50"/><use height="100" transform="matrix(1 0 0 -1 900.5002 249.4999)" width="200" x="-100" xlink:href="#a" y="-50"/><use height="100" transform="matrix(1 0 0 -1 1100.5002 149.4999)" width="200" x="-100" xlink:href="#a" y="-50"/><use height="100" transform="matrix(1 0 0 -1 200.5002 399.4998)" width="200" x="-100" xlink:href="#a" y="-50"/><use height="100" transform="matrix(1 0 0 -1 400.5002 399.4998)" width="200" x="-100" xlink:href="#a" y="-50"/><use height="100" transform="matrix(1 0 0 -1 200.5002 499.4998)" width="200" x="-100" xlink:href="#a" y="-50"/><use height="100" transform="matrix(1 0 0 -1 400.5002 499.4998)" width="200" x="-100" xlink:href="#a" y="-50"/><use height="100" transform="matrix(1 0 0 -1 100.5001 449.4998)" width="200" x="-100" xlink:href="#a" y="-50"/><use height="100" transform="matrix(1 0 0 -1 300.5001 449.4998)" width="200" x="-100" xlink:href="#a" y="-50"/><use height="100" transform="matrix(1 0 0 -1 300.5001 349.4998)" width="200" x="-100" xlink:href="#a" y="-50"/><use height="100" transform="matrix(1 0 0 -1 300.5001 549.4998)" width="200" x="-100" xlink:href="#a" y="-50"/><use height="100" transform="matrix(1 0 0 -1 500.5001 449.4998)" width="200" x="-100" xlink:href="#a" y="-50"/><use height="100" transform="matrix(1 0 0 -1 500.5002 249.4999)" width="200" x="-100" xlink:href="#a" y="-50"/><use height="100" transform="matrix(1 0 0 -1 700.5002 249.4999)" width="200" x="-100" xlink:href="#a" y="-50"/><use height="100" transform="matrix(1 0 0 -1 500.5002 349.4998)" width="200" x="-100" xlink:href="#a" y="-50"/><use height="100" transform="matrix(1 0 0 -1 700.5002 349.4998)" width="200" x="-100" xlink:href="#a" y="-50"/><use height="100" transform="matrix(1 0 0 -1 400.5002 299.4998)" width="200" x="-100" xlink:href="#a" y="-50"/><use height="100" transform="matrix(1 0 0 -1 600.5002 299.4998)" width="200" x="-100" xlink:href="#a" y="-50"/><use height="100" transform="matrix(1 0 0 -1 600.5002 199.4998)" width="200" x="-100" xlink:href="#a" y="-50"/><use height="100" transform="matrix(1 0 0 -1 600.5002 399.4998)" width="200" x="-100" xlink:href="#a" y="-50"/><use height="100" transform="matrix(1 0 0 -1 800.5002 299.4998)" width="200" x="-100" xlink:href="#a" y="-50"/><use height="100" transform="matrix(1 0 0 -1 1100.5002 249.4999)" width="200" x="-100" xlink:href="#a" y="-50"/><use height="100" transform="matrix(1 0 0 -1 1300.5002 249.4999)" width="200" x="-100" xlink:href="#a" y="-50"/><use height="100" transform="matrix(1 0 0 -1 1300.5001 349.4999)" width="200" x="-100" xlink:href="#a" y="-50"/><use height="100" transform="matrix(1 0 0 -1 1100.5002 349.4998)" width="200" x="-100" xlink:href="#a" y="-50"/><use height="100" transform="matrix(1 0 0 -1 1000.5002 299.4999)" width="200" x="-100" xlink:href="#a" y="-50"/><use height="100" transform="matrix(1 0 0 -1 1200.5001 299.4999)" width="200" x="-100" xlink:href="#a" y="-50"/><use height="100" transform="matrix(1 0 0 -1 1200.5001 199.4999)" width="200" x="-100" xlink:href="#a" y="-50"/><use height="100" transform="matrix(1 0 0 -1 1200.5001 399.4999)" width="200" x="-100" xlink:href="#a" y="-50"/><use height="100" transform="matrix(1 0 0 -1 1400.5001 299.4999)" width="200" x="-100" xlink:href="#a" y="-50"/><use height="100" transform="matrix(1 0 0 -1 1400.5001 399.5)" width="200" x="-100" xlink:href="#a" y="-50"/><use height="100" transform="matrix(1 0 0 -1 1600.5001 399.5)" width="200" x="-100" xlink:href="#a" y="-50"/><use height="100" transform="matrix(1 0 0 -1 1400.5001 499.4999)" width="200" x="-100" xlink:href="#a" y="-50"/><use height="100" transform="matrix(1 0 0 -1 1600.5001 499.4999)" width="200" x="-100" xlink:href="#a" y="-50"/><use height="100" transform="matrix(1 0 0 -1 1300.5001 449.4999)" width="200" x="-100" xlink:href="#a" y="-50"/><use height="100" transform="matrix(1 0 0 -1 1500.5001 449.4999)" width="200" x="-100" xlink:href="#a" y="-50"/><use height="100" transform="matrix(1 0 0 -1 1500.5001 349.4999)" width="200" x="-100" xlink:href="#a" y="-50"/><use height="100" transform="matrix(1 0 0 -1 1500.5001 549.4999)" width="200" x="-100" xlink:href="#a" y="-50"/><use height="100" transform="matrix(1 0 0 -1 1700.5001 449.4999)" width="200" x="-100" xlink:href="#a" y="-50"/><use height="100" transform="matrix(1 0 0 -1 500.5001 549.4999)" width="200" x="-100" xlink:href="#a" y="-50"/><use height="100" transform="matrix(1 0 0 -1 700.5001 549.4999)" width="200" x="-100" xlink:href="#a" y="-50"/><use height="100" transform="matrix(1 0 0 -1 500.5001 649.4998)" width="200" x="-100" xlink:href="#a" y="-50"/><use height="100" transform="matrix(1 0 0 -1 700.5001 649.4998)" width="200" x="-100" xlink:href="#a" y="-50"/><use height="100" transform="matrix(1 0 0 -1 400.5 599.4998)" width="200" x="-100" xlink:href="#a" y="-50"/><use height="100" transform="matrix(1 0 0 -1 600.5001 599.4998)" width="200" x="-100" xlink:href="#a" y="-50"/><use height="100" transform="matrix(1 0 0 -1 600.5001 499.4998)" width="200" x="-100" xlink:href="#a" y="-50"/><use height="100" transform="matrix(1 0 0 -1 600.5001 699.4998)" width="200" x="-100" xlink:href="#a" y="-50"/><use height="100" transform="matrix(1 0 0 -1 800.5001 599.4998)" width="200" x="-100" xlink:href="#a" y="-50"/><use height="100" transform="matrix(1 0 0 -1 800.5002 399.4999)" width="200" x="-100" xlink:href="#a" y="-50"/><use height="100" transform="matrix(1 0 0 -1 1000.5002 399.4999)" width="200" x="-100" xlink:href="#a" y="-50"/><use height="100" transform="matrix(1 0 0 -1 800.5002 499.4998)" width="200" x="-100" xlink:href="#a" y="-50"/><use height="100" transform="matrix(1 0 0 -1 1000.5002 499.4998)" width="200" x="-100" xlink:href="#a" y="-50"/><use height="100" transform="matrix(1 0 0 -1 700.5001 449.4998)" width="200" x="-100" xlink:href="#a" y="-50"/><use height="100" transform="matrix(1 0 0 -1 900.5001 449.4998)" width="200" x="-100" xlink:href="#a" y="-50"/><use height="100" transform="matrix(1 0 0 -1 900.5001 349.4998)" width="200" x="-100" xlink:href="#a" y="-50"/><use height="100" transform="matrix(1 0 0 -1 900.5001 549.4999)" width="200" x="-100" xlink:href="#a" y="-50"/><use height="100" transform="matrix(1 0 0 -1 1100.5001 449.4998)" width="200" x="-100" xlink:href="#a" y="-50"/><use height="100" transform="matrix(1 0 0 -1 800.5001 699.4999)" width="200" x="-100" xlink:href="#a" y="-50"/><use height="100" transform="matrix(1 0 0 -1 1000.5001 699.4999)" width="200" x="-100" xlink:href="#a" y="-50"/><use height="100" transform="matrix(1 0 0 -1 800.5001 799.4998)" width="200" x="-100" xlink:href="#a" y="-50"/><use height="100" transform="matrix(1 0 0 -1 1000.5001 799.4998)" width="200" x="-100" xlink:href="#a" y="-50"/><use height="100" transform="matrix(1 0 0 -1 700.5 749.4999)" width="200" x="-100" xlink:href="#a" y="-50"/><use height="100" transform="matrix(1 0 0 -1 900.5 749.4999)" width="200" x="-100" xlink:href="#a" y="-50"/><use height="100" transform="matrix(1 0 0 -1 900.5 649.4999)" width="200" x="-100" xlink:href="#a" y="-50"/><use height="100" transform="matrix(1 0 0 -1 900.5 849.4999)" width="200" x="-100" xlink:href="#a" y="-50"/><use height="100" transform="matrix(1 0 0 -1 1100.5 749.4999)" width="200" x="-100" xlink:href="#a" y="-50"/><use height="100" transform="matrix(1 0 0 -1 1100.5001 549.4999)" width="200" x="-100" xlink:href="#a" y="-50"/><use height="100" transform="matrix(1 0 0 -1 1300.5001 549.4999)" width="200" x="-100" xlink:href="#a" y="-50"/><use height="100" transform="matrix(1 0 0 -1 1100.5001 649.4999)" width="200" x="-100" xlink:href="#a" y="-50"/><use height="100" transform="matrix(1 0 0 -1 1300.5001 649.4999)" width="200" x="-100" xlink:href="#a" y="-50"/><use height="100" transform="matrix(1 0 0 -1 1000.5001 599.4999)" width="200" x="-100" xlink:href="#a" y="-50"/><use height="100" transform="matrix(1 0 0 -1 1200.5 599.4999)" width="200" x="-100" xlink:href="#a" y="-50"/><use height="100" transform="matrix(1 0 0 -1 1200.5 499.4999)" width="200" x="-100" xlink:href="#a" y="-50"/><use height="100" transform="matrix(1 0 0 -1 1200.5 699.4999)" width="200" x="-100" xlink:href="#a" y="-50"/><use height="100" transform="matrix(1 0 0 -1 1400.5 599.4999)" width="200" x="-100" xlink:href="#a" y="-50"/><use height="100" transform="matrix(1 0 0 -1 -399.5 699.4998)" width="200" x="-100" xlink:href="#a" y="-50"/><use height="100" transform="matrix(1 0 0 -1 -199.5 699.4998)" width="200" x="-100" xlink:href="#a" y="-50"/><use height="100" transform="matrix(1 0 0 -1 -399.5 799.4997)" width="200" x="-100" xlink:href="#a" y="-50"/><use height="100" transform="matrix(1 0 0 -1 -199.5 799.4997)" width="200" x="-100" xlink:href="#a" y="-50"/><use height="100" transform="matrix(1 0 0 -1 -499.5 749.4998)" width="200" x="-100" xlink:href="#a" y="-50"/><use height="100" transform="matrix(1 0 0 -1 -299.5 749.4998)" width="200" x="-100" xlink:href="#a" y="-50"/><use height="100" transform="matrix(1 0 0 -1 -299.5 649.4998)" width="200" x="-100" xlink:href="#a" y="-50"/><use height="100" transform="matrix(1 0 0 -1 -299.5 849.4998)" width="200" x="-100" xlink:href="#a" y="-50"/><use height="100" transform="matrix(1 0 0 -1 -99.5 749.4998)" width="200" x="-100" xlink:href="#a" y="-50"/><use height="100" transform="matrix(1 0 0 -1 -99.4999 549.4998)" width="200" x="-100" xlink:href="#a" y="-50"/><use height="100" transform="matrix(1 0 0 -1 100.5001 549.4998)" width="200" x="-100" xlink:href="#a" y="-50"/><use height="100" transform="matrix(1 0 0 -1 -99.4999 649.4998)" width="200" x="-100" xlink:href="#a" y="-50"/><use height="100" transform="matrix(1 0 0 -1 100.5001 649.4998)" width="200" x="-100" xlink:href="#a" y="-50"/><use height="100" transform="matrix(1 0 0 -1 -199.5 599.4998)" width="200" x="-100" xlink:href="#a" y="-50"/><use height="100" transform="matrix(1 0 0 -1 .5 599.4998)" width="200" x="-100" xlink:href="#a" y="-50"/><use height="100" transform="matrix(1 0 0 -1 .5 499.4998)" width="200" x="-100" xlink:href="#a" y="-50"/><use height="100" transform="matrix(1 0 0 -1 .5 699.4998)" width="200" x="-100" xlink:href="#a" y="-50"/><use height="100" transform="matrix(1 0 0 -1 200.5 599.4998)" width="200" x="-100" xlink:href="#a" y="-50"/><use height="100" transform="matrix(1 0 0 -1 -699.5 849.4998)" width="200" x="-100" xlink:href="#a" y="-50"/><use height="100" transform="matrix(1 0 0 -1 -499.5 849.4998)" width="200" x="-100" xlink:href="#a" y="-50"/><use height="100" transform="matrix(1 0 0 -1 -699.5 949.4997)" width="200" x="-100" xlink:href="#a" y="-50"/><use height="100" transform="matrix(1 0 0 -1 -499.5 949.4997)" width="200" x="-100" xlink:href="#a" y="-50"/><use height="100" transform="matrix(1 0 0 -1 -799.5001 899.4997)" width="200" x="-100" xlink:href="#a" y="-50"/><use height="100" transform="matrix(1 0 0 -1 -599.5001 899.4997)" width="200" x="-100" xlink:href="#a" y="-50"/><use height="100" transform="matrix(1 0 0 -1 -599.5001 799.4997)" width="200" x="-100" xlink:href="#a" y="-50"/><use height="100" transform="matrix(1 0 0 -1 -599.5001 999.4997)" width="200" x="-100" xlink:href="#a" y="-50"/><use height="100" transform="matrix(1 0 0 -1 -399.5001 899.4997)" width="200" x="-100" xlink:href="#a" y="-50"/><use height="100" transform="matrix(1 0 0 -1 -99.5 849.4998)" width="200" x="-100" xlink:href="#a" y="-50"/><use height="100" transform="matrix(1 0 0 -1 100.5 849.4998)" width="200" x="-100" xlink:href="#a" y="-50"/><use height="100" transform="matrix(1 0 0 -1 -99.5 949.4998)" width="200" x="-100" xlink:href="#a" y="-50"/><use height="100" transform="matrix(1 0 0 -1 100.5 949.4998)" width="200" x="-100" xlink:href="#a" y="-50"/><use height="100" transform="matrix(1 0 0 -1 -199.5001 899.4998)" width="200" x="-100" xlink:href="#a" y="-50"/><use height="100" transform="matrix(1 0 0 -1 .4999 899.4998)" width="200" x="-100" xlink:href="#a" y="-50"/><use height="100" transform="matrix(1 0 0 -1 .4999 799.4998)" width="200" x="-100" xlink:href="#a" y="-50"/><use height="100" transform="matrix(1 0 0 -1 .4999 999.4998)" width="200" x="-100" xlink:href="#a" y="-50"/><use height="100" transform="matrix(1 0 0 -1 200.4999 899.4998)" width="200" x="-100" xlink:href="#a" y="-50"/><use height="100" transform="matrix(1 0 0 -1 200.5 699.4998)" width="200" x="-100" xlink:href="#a" y="-50"/><use height="100" transform="matrix(1 0 0 -1 400.5 699.4998)" width="200" x="-100" xlink:href="#a" y="-50"/><use height="100" transform="matrix(1 0 0 -1 200.5 799.4998)" width="200" x="-100" xlink:href="#a" y="-50"/><use height="100" transform="matrix(1 0 0 -1 400.5 799.4998)" width="200" x="-100" xlink:href="#a" y="-50"/><use height="100" transform="matrix(1 0 0 -1 100.5 749.4998)" width="200" x="-100" xlink:href="#a" y="-50"/><use height="100" transform="matrix(1 0 0 -1 300.5 749.4998)" width="200" x="-100" xlink:href="#a" y="-50"/><use height="100" transform="matrix(1 0 0 -1 300.5 649.4998)" width="200" x="-100" xlink:href="#a" y="-50"/><use height="100" transform="matrix(1 0 0 -1 300.5 849.4998)" width="200" x="-100" xlink:href="#a" y="-50"/><use height="100" transform="matrix(1 0 0 -1 500.5 749.4998)" width="200" x="-100" xlink:href="#a" y="-50"/><use height="100" transform="matrix(1 0 0 -1 200.4999 999.4998)" width="200" x="-100" xlink:href="#a" y="-50"/><use height="100" transform="matrix(1 0 0 -1 400.4999 999.4998)" width="200" x="-100" xlink:href="#a" y="-50"/><use height="100" transform="matrix(1 0 0 -1 200.4999 1099.4998)" width="200" x="-100" xlink:href="#a" y="-50"/><use height="100" transform="matrix(1 0 0 -1 400.4999 1099.4998)" width="200" x="-100" xlink:href="#a" y="-50"/><use height="100" transform="matrix(1 0 0 -1 100.4998 1049.4998)" width="200" x="-100" xlink:href="#a" y="-50"/><use height="100" transform="matrix(1 0 0 -1 300.4998 1049.4998)" width="200" x="-100" xlink:href="#a" y="-50"/><use height="100" transform="matrix(1 0 0 -1 300.4998 949.4998)" width="200" x="-100" xlink:href="#a" y="-50"/><use height="100" transform="matrix(1 0 0 -1 300.4998 1149.4998)" width="200" x="-100" xlink:href="#a" y="-50"/><use height="100" transform="matrix(1 0 0 -1 500.4998 1049.4998)" width="200" x="-100" xlink:href="#a" y="-50"/><use height="100" transform="matrix(1 0 0 -1 500.5 849.4999)" width="200" x="-100" xlink:href="#a" y="-50"/><use height="100" transform="matrix(1 0 0 -1 700.5 849.4999)" width="200" x="-100" xlink:href="#a" y="-50"/><use height="100" transform="matrix(1 0 0 -1 500.5 949.4998)" width="200" x="-100" xlink:href="#a" y="-50"/><use height="100" transform="matrix(1 0 0 -1 700.5 949.4998)" width="200" x="-100" xlink:href="#a" y="-50"/><use height="100" transform="matrix(1 0 0 -1 400.4999 899.4998)" width="200" x="-100" xlink:href="#a" y="-50"/><use height="100" transform="matrix(1 0 0 -1 600.4999 899.4998)" width="200" x="-100" xlink:href="#a" y="-50"/><use height="100" transform="matrix(1 0 0 -1 600.4999 799.4998)" width="200" x="-100" xlink:href="#a" y="-50"/><use height="100" transform="matrix(1 0 0 -1 600.4999 999.4998)" width="200" x="-100" xlink:href="#a" y="-50"/><use height="100" transform="matrix(1 0 0 -1 800.4999 899.4998)" width="200" x="-100" xlink:href="#a" y="-50"/><use height="100" transform="matrix(1 0 0 -1 -399.5001 999.4998)" width="200" x="-100" xlink:href="#a" y="-50"/><use height="100" transform="matrix(1 0 0 -1 -199.5001 999.4998)" width="200" x="-100" xlink:href="#a" y="-50"/><use height="100" transform="matrix(1 0 0 -1 -399.5001 1099.4998)" width="200" x="-100" xlink:href="#a" y="-50"/><use height="100" transform="matrix(1 0 0 -1 -199.5001 1099.4998)" width="200" x="-100" xlink:href="#a" y="-50"/><use height="100" transform="matrix(1 0 0 -1 -499.5002 1049.4998)" width="200" x="-100" xlink:href="#a" y="-50"/><use height="100" transform="matrix(1 0 0 -1 -299.5002 1049.4998)" width="200" x="-100" xlink:href="#a" y="-50"/><use height="100" transform="matrix(1 0 0 -1 -299.5002 949.4998)" width="200" x="-100" xlink:href="#a" y="-50"/><use height="100" transform="matrix(1 0 0 -1 -299.5002 1149.4998)" width="200" x="-100" xlink:href="#a" y="-50"/><use height="100" transform="matrix(1 0 0 -1 -99.5002 1049.4998)" width="200" x="-100" xlink:href="#a" y="-50"/><use height="100" transform="matrix(1 0 0 -1 -99.5002 1149.4998)" width="200" x="-100" xlink:href="#a" y="-50"/><use height="100" transform="matrix(1 0 0 -1 100.4998 1149.4998)" width="200" x="-100" xlink:href="#a" y="-50"/><use height="100" transform="matrix(1 0 0 -1 -99.5002 1249.4998)" width="200" x="-100" xlink:href="#a" y="-50"/><use height="100" transform="matrix(1 0 0 -1 100.4998 1249.4998)" width="200" x="-100" xlink:href="#a" y="-50"/><use height="100" transform="matrix(1 0 0 -1 -199.5002 1199.4998)" width="200" x="-100" xlink:href="#a" y="-50"/><use height="100" transform="matrix(1 0 0 -1 .4998 1199.4998)" width="200" x="-100" xlink:href="#a" y="-50"/><use height="100" transform="matrix(1 0 0 -1 .4998 1099.4998)" width="200" x="-100" xlink:href="#a" y="-50"/><use height="100" transform="matrix(1 0 0 -1 .4998 1299.4998)" width="200" x="-100" xlink:href="#a" y="-50"/><use height="100" transform="matrix(1 0 0 -1 200.4998 1199.4998)" width="200" x="-100" xlink:href="#a" y="-50"/><use height="100" transform="matrix(1 0 0 -1 1700.5001 549.5)" width="200" x="-100" xlink:href="#a" y="-50"/><use height="100" transform="matrix(1 0 0 -1 1900.5001 549.5)" width="200" x="-100" xlink:href="#a" y="-50"/><use height="100" transform="matrix(1 0 0 -1 1700.5001 649.4999)" width="200" x="-100" xlink:href="#a" y="-50"/><use height="100" transform="matrix(1 0 0 -1 1900.5001 649.4999)" width="200" x="-100" xlink:href="#a" y="-50"/><use height="100" transform="matrix(1 0 0 -1 1600.5 599.4999)" width="200" x="-100" xlink:href="#a" y="-50"/><use height="100" transform="matrix(1 0 0 -1 1800.5 599.4999)" width="200" x="-100" xlink:href="#a" y="-50"/><use height="100" transform="matrix(1 0 0 -1 1800.5 499.5)" width="200" x="-100" xlink:href="#a" y="-50"/><use height="100" transform="matrix(1 0 0 -1 1800.5 699.4999)" width="200" x="-100" xlink:href="#a" y="-50"/><use height="100" transform="matrix(1 0 0 -1 2000.5 599.4999)" width="200" x="-100" xlink:href="#a" y="-50"/><use height="100" transform="matrix(1 0 0 -1 2000.5 699.5)" width="200" x="-100" xlink:href="#a" y="-50"/><use height="100" transform="matrix(1 0 0 -1 2200.5 699.5)" width="200" x="-100" xlink:href="#a" y="-50"/><use height="100" transform="matrix(1 0 0 -1 2000.5 799.4999)" width="200" x="-100" xlink:href="#a" y="-50"/><use height="100" transform="matrix(1 0 0 -1 2200.5 799.4999)" width="200" x="-100" xlink:href="#a" y="-50"/><use height="100" transform="matrix(1 0 0 -1 1900.5 749.5)" width="200" x="-100" xlink:href="#a" y="-50"/><use height="100" transform="matrix(1 0 0 -1 2100.5 749.5)" width="200" x="-100" xlink:href="#a" y="-50"/><use height="100" transform="matrix(1 0 0 -1 2100.5 649.5)" width="200" x="-100" xlink:href="#a" y="-50"/><use height="100" transform="matrix(1 0 0 -1 2100.5 849.5)" width="200" x="-100" xlink:href="#a" y="-50"/><use height="100" transform="matrix(1 0 0 -1 2300.5 749.5)" width="200" x="-100" xlink:href="#a" y="-50"/><use height="100" transform="matrix(1 0 0 -1 1100.5 849.4999)" width="200" x="-100" xlink:href="#a" y="-50"/><use height="100" transform="matrix(1 0 0 -1 1300.5 849.4999)" width="200" x="-100" xlink:href="#a" y="-50"/><use height="100" transform="matrix(1 0 0 -1 1100.5 949.4999)" width="200" x="-100" xlink:href="#a" y="-50"/><use height="100" transform="matrix(1 0 0 -1 1300.5 949.4999)" width="200" x="-100" xlink:href="#a" y="-50"/><use height="100" transform="matrix(1 0 0 -1 1000.4999 899.4999)" width="200" x="-100" xlink:href="#a" y="-50"/><use height="100" transform="matrix(1 0 0 -1 1200.4999 899.4999)" width="200" x="-100" xlink:href="#a" y="-50"/><use height="100" transform="matrix(1 0 0 -1 1200.4999 799.4999)" width="200" x="-100" xlink:href="#a" y="-50"/><use height="100" transform="matrix(1 0 0 -1 1200.4999 999.4999)" width="200" x="-100" xlink:href="#a" y="-50"/><use height="100" transform="matrix(1 0 0 -1 1400.4999 899.4999)" width="200" x="-100" xlink:href="#a" y="-50"/><use height="100" transform="matrix(1 0 0 -1 1400.5 699.4999)" width="200" x="-100" xlink:href="#a" y="-50"/><use height="100" transform="matrix(1 0 0 -1 1600.5 699.4999)" width="200" x="-100" xlink:href="#a" y="-50"/><use height="100" transform="matrix(1 0 0 -1 1400.5 799.4999)" width="200" x="-100" xlink:href="#a" y="-50"/><use height="100" transform="matrix(1 0 0 -1 1600.5 799.4999)" width="200" x="-100" xlink:href="#a" y="-50"/><use height="100" transform="matrix(1 0 0 -1 1300.5 749.4999)" width="200" x="-100" xlink:href="#a" y="-50"/><use height="100" transform="matrix(1 0 0 -1 1500.5 749.4999)" width="200" x="-100" xlink:href="#a" y="-50"/><use height="100" transform="matrix(1 0 0 -1 1500.5 649.4999)" width="200" x="-100" xlink:href="#a" y="-50"/><use height="100" transform="matrix(1 0 0 -1 1500.5 849.4999)" width="200" x="-100" xlink:href="#a" y="-50"/><use height="100" transform="matrix(1 0 0 -1 1700.5 749.4999)" width="200" x="-100" xlink:href="#a" y="-50"/><use height="100" transform="matrix(1 0 0 -1 1400.4999 999.4999)" width="200" x="-100" xlink:href="#a" y="-50"/><use height="100" transform="matrix(1 0 0 -1 1600.4999 999.4999)" width="200" x="-100" xlink:href="#a" y="-50"/><use height="100" transform="matrix(1 0 0 -1 1400.4999 1099.4999)" width="200" x="-100" xlink:href="#a" y="-50"/><use height="100" transform="matrix(1 0 0 -1 1600.4999 1099.4999)" width="200" x="-100" xlink:href="#a" y="-50"/><use height="100" transform="matrix(1 0 0 -1 1300.4999 1049.4999)" width="200" x="-100" xlink:href="#a" y="-50"/><use height="100" transform="matrix(1 0 0 -1 1500.4999 1049.4999)" width="200" x="-100" xlink:href="#a" y="-50"/><use height="100" transform="matrix(1 0 0 -1 1500.4999 949.4999)" width="200" x="-100" xlink:href="#a" y="-50"/><use height="100" transform="matrix(1 0 0 -1 1500.4999 1149.4999)" width="200" x="-100" xlink:href="#a" y="-50"/><use height="100" transform="matrix(1 0 0 -1 1700.4999 1049.4999)" width="200" x="-100" xlink:href="#a" y="-50"/><use height="100" transform="matrix(1 0 0 -1 1700.5 849.5)" width="200" x="-100" xlink:href="#a" y="-50"/><use height="100" transform="matrix(1 0 0 -1 1900.5 849.5)" width="200" x="-100" xlink:href="#a" y="-50"/><use height="100" transform="matrix(1 0 0 -1 1700.5 949.4999)" width="200" x="-100" xlink:href="#a" y="-50"/><use height="100" transform="matrix(1 0 0 -1 1900.5 949.4999)" width="200" x="-100" xlink:href="#a" y="-50"/><use height="100" transform="matrix(1 0 0 -1 1600.4999 899.4999)" width="200" x="-100" xlink:href="#a" y="-50"/><use height="100" transform="matrix(1 0 0 -1 1800.4999 899.4999)" width="200" x="-100" xlink:href="#a" y="-50"/><use height="100" transform="matrix(1 0 0 -1 1800.4999 799.4999)" width="200" x="-100" xlink:href="#a" y="-50"/><use height="100" transform="matrix(1 0 0 -1 1800.4999 999.4999)" width="200" x="-100" xlink:href="#a" y="-50"/><use height="100" transform="matrix(1 0 0 -1 2000.4999 899.4999)" width="200" x="-100" xlink:href="#a" y="-50"/><use height="100" transform="matrix(1 0 0 -1 2300.5 849.5001)" width="200" x="-100" xlink:href="#a" y="-50"/><use height="100" transform="matrix(1 0 0 -1 2500.5 849.5001)" width="200" x="-100" xlink:href="#a" y="-50"/><use height="100" transform="matrix(1 0 0 -1 2300.5 949.5)" width="200" x="-100" xlink:href="#a" y="-50"/><use height="100" transform="matrix(1 0 0 -1 2500.5 949.5)" width="200" x="-100" xlink:href="#a" y="-50"/><use height="100" transform="matrix(1 0 0 -1 2200.5 899.5)" width="200" x="-100" xlink:href="#a" y="-50"/><use height="100" transform="matrix(1 0 0 -1 2400.5 899.5)" width="200" x="-100" xlink:href="#a" y="-50"/><use height="100" transform="matrix(1 0 0 -1 2400.5 799.5)" width="200" x="-100" xlink:href="#a" y="-50"/><use height="100" transform="matrix(1 0 0 -1 2400.5 999.5)" width="200" x="-100" xlink:href="#a" y="-50"/><use height="100" transform="matrix(1 0 0 -1 2600.5 899.5)" width="200" x="-100" xlink:href="#a" y="-50"/><use height="100" transform="matrix(1 0 0 -1 1700.4999 1149.5)" width="200" x="-100" xlink:href="#a" y="-50"/><use height="100" transform="matrix(1 0 0 -1 1900.4999 1149.5)" width="200" x="-100" xlink:href="#a" y="-50"/><use height="100" transform="matrix(1 0 0 -1 1700.4999 1249.4999)" width="200" x="-100" xlink:href="#a" y="-50"/><use height="100" transform="matrix(1 0 0 -1 1900.4999 1249.4999)" width="200" x="-100" xlink:href="#a" y="-50"/><use height="100" transform="matrix(1 0 0 -1 1600.4998 1199.5)" width="200" x="-100" xlink:href="#a" y="-50"/><use height="100" transform="matrix(1 0 0 -1 1800.4998 1199.5)" width="200" x="-100" xlink:href="#a" y="-50"/><use height="100" transform="matrix(1 0 0 -1 1800.4998 1099.5)" width="200" x="-100" xlink:href="#a" y="-50"/><use height="100" transform="matrix(1 0 0 -1 1800.4998 1299.5)" width="200" x="-100" xlink:href="#a" y="-50"/><use height="100" transform="matrix(1 0 0 -1 2000.4998 1199.5)" width="200" x="-100" xlink:href="#a" y="-50"/><use height="100" transform="matrix(1 0 0 -1 2000.4999 999.5)" width="200" x="-100" xlink:href="#a" y="-50"/><use height="100" transform="matrix(1 0 0 -1 2200.5 999.5)" width="200" x="-100" xlink:href="#a" y="-50"/><use height="100" transform="matrix(1 0 0 -1 2000.4999 1099.5)" width="200" x="-100" xlink:href="#a" y="-50"/><use height="100" transform="matrix(1 0 0 -1 2200.5 1099.5)" width="200" x="-100" xlink:href="#a" y="-50"/><use height="100" transform="matrix(1 0 0 -1 1900.4999 1049.5)" width="200" x="-100" xlink:href="#a" y="-50"/><use height="100" transform="matrix(1 0 0 -1 2100.4998 1049.5)" width="200" x="-100" xlink:href="#a" y="-50"/><use height="100" transform="matrix(1 0 0 -1 2100.4998 949.5)" width="200" x="-100" xlink:href="#a" y="-50"/><use height="100" transform="matrix(1 0 0 -1 2100.4998 1149.5)" width="200" x="-100" xlink:href="#a" y="-50"/><use height="100" transform="matrix(1 0 0 -1 2300.4998 1049.5)" width="200" x="-100" xlink:href="#a" y="-50"/><use height="100" transform="matrix(1 0 0 -1 500.4998 1149.4999)" width="200" x="-100" xlink:href="#a" y="-50"/><use height="100" transform="matrix(1 0 0 -1 700.4998 1149.4999)" width="200" x="-100" xlink:href="#a" y="-50"/><use height="100" transform="matrix(1 0 0 -1 500.4998 1249.4998)" width="200" x="-100" xlink:href="#a" y="-50"/><use height="100" transform="matrix(1 0 0 -1 700.4998 1249.4998)" width="200" x="-100" xlink:href="#a" y="-50"/><use height="100" transform="matrix(1 0 0 -1 400.4998 1199.4999)" width="200" x="-100" xlink:href="#a" y="-50"/><use height="100" transform="matrix(1 0 0 -1 600.4998 1199.4999)" width="200" x="-100" xlink:href="#a" y="-50"/><use height="100" transform="matrix(1 0 0 -1 600.4998 1099.4999)" width="200" x="-100" xlink:href="#a" y="-50"/><use height="100" transform="matrix(1 0 0 -1 600.4998 1299.4999)" width="200" x="-100" xlink:href="#a" y="-50"/><use height="100" transform="matrix(1 0 0 -1 800.4998 1199.4999)" width="200" x="-100" xlink:href="#a" y="-50"/><use height="100" transform="matrix(1 0 0 -1 800.4999 999.4999)" width="200" x="-100" xlink:href="#a" y="-50"/><use height="100" transform="matrix(1 0 0 -1 1000.4999 999.4999)" width="200" x="-100" xlink:href="#a" y="-50"/><use height="100" transform="matrix(1 0 0 -1 800.4999 1099.4999)" width="200" x="-100" xlink:href="#a" y="-50"/><use height="100" transform="matrix(1 0 0 -1 1000.4999 1099.4999)" width="200" x="-100" xlink:href="#a" y="-50"/><use height="100" transform="matrix(1 0 0 -1 700.4998 1049.4999)" width="200" x="-100" xlink:href="#a" y="-50"/><use height="100" transform="matrix(1 0 0 -1 900.4998 1049.4999)" width="200" x="-100" xlink:href="#a" y="-50"/><use height="100" transform="matrix(1 0 0 -1 900.4998 949.4999)" width="200" x="-100" xlink:href="#a" y="-50"/><use height="100" transform="matrix(1 0 0 -1 900.4998 1149.4999)" width="200" x="-100" xlink:href="#a" y="-50"/><use height="100" transform="matrix(1 0 0 -1 1100.4999 1049.4999)" width="200" x="-100" xlink:href="#a" y="-50"/><use height="100" transform="matrix(1 0 0 -1 800.4998 1299.4999)" width="200" x="-100" xlink:href="#a" y="-50"/><use height="100" transform="matrix(1 0 0 -1 1000.4998 1299.4999)" width="200" x="-100" xlink:href="#a" y="-50"/><use height="100" transform="matrix(1 0 0 -1 800.4998 1399.4999)" width="200" x="-100" xlink:href="#a" y="-50"/><use height="100" transform="matrix(1 0 0 -1 1000.4998 1399.4999)" width="200" x="-100" xlink:href="#a" y="-50"/><use height="100" transform="matrix(1 0 0 -1 700.4997 1349.4999)" width="200" x="-100" xlink:href="#a" y="-50"/><use height="100" transform="matrix(1 0 0 -1 900.4997 1349.4999)" width="200" x="-100" xlink:href="#a" y="-50"/><use height="100" transform="matrix(1 0 0 -1 900.4997 1249.4999)" width="200" x="-100" xlink:href="#a" y="-50"/><use height="100" transform="matrix(1 0 0 -1 900.4997 1449.4999)" width="200" x="-100" xlink:href="#a" y="-50"/><use height="100" transform="matrix(1 0 0 -1 1100.4998 1349.4999)" width="200" x="-100" xlink:href="#a" y="-50"/><use height="100" transform="matrix(1 0 0 -1 1100.4999 1149.4999)" width="200" x="-100" xlink:href="#a" y="-50"/><use height="100" transform="matrix(1 0 0 -1 1300.4999 1149.4999)" width="200" x="-100" xlink:href="#a" y="-50"/><use height="100" transform="matrix(1 0 0 -1 1100.4999 1249.4999)" width="200" x="-100" xlink:href="#a" y="-50"/><use height="100" transform="matrix(1 0 0 -1 1300.4999 1249.4999)" width="200" x="-100" xlink:href="#a" y="-50"/><use height="100" transform="matrix(1 0 0 -1 1000.4998 1199.4999)" width="200" x="-100" xlink:href="#a" y="-50"/><use height="100" transform="matrix(1 0 0 -1 1200.4998 1199.4999)" width="200" x="-100" xlink:href="#a" y="-50"/><use height="100" transform="matrix(1 0 0 -1 1200.4998 1099.4999)" width="200" x="-100" xlink:href="#a" y="-50"/><use height="100" transform="matrix(1 0 0 -1 1200.4998 1299.4999)" width="200" x="-100" xlink:href="#a" y="-50"/><use height="100" transform="matrix(1 0 0 -1 1400.4998 1199.4999)" width="200" x="-100" xlink:href="#a" y="-50"/><use height="100" transform="matrix(1 0 0 -1 200.4998 1299.4999)" width="200" x="-100" xlink:href="#a" y="-50"/><use height="100" transform="matrix(1 0 0 -1 400.4998 1299.4999)" width="200" x="-100" xlink:href="#a" y="-50"/><use height="100" transform="matrix(1 0 0 -1 200.4998 1399.4998)" width="200" x="-100" xlink:href="#a" y="-50"/><use height="100" transform="matrix(1 0 0 -1 400.4998 1399.4998)" width="200" x="-100" xlink:href="#a" y="-50"/><use height="100" transform="matrix(1 0 0 -1 100.4997 1349.4998)" width="200" x="-100" xlink:href="#a" y="-50"/><use height="100" transform="matrix(1 0 0 -1 300.4997 1349.4998)" width="200" x="-100" xlink:href="#a" y="-50"/><use height="100" transform="matrix(1 0 0 -1 300.4997 1249.4998)" width="200" x="-100" xlink:href="#a" y="-50"/><use height="100" transform="matrix(1 0 0 -1 300.4997 1449.4998)" width="200" x="-100" xlink:href="#a" y="-50"/><use height="100" transform="matrix(1 0 0 -1 500.4997 1349.4998)" width="200" x="-100" xlink:href="#a" y="-50"/><use height="100" transform="matrix(1 0 0 -1 500.4997 1449.4999)" width="200" x="-100" xlink:href="#a" y="-50"/><use height="100" transform="matrix(1 0 0 -1 700.4997 1449.4999)" width="200" x="-100" xlink:href="#a" y="-50"/><use height="100" transform="matrix(1 0 0 -1 500.4997 1549.4998)" width="200" x="-100" xlink:href="#a" y="-50"/><use height="100" transform="matrix(1 0 0 -1 700.4997 1549.4998)" width="200" x="-100" xlink:href="#a" y="-50"/><use height="100" transform="matrix(1 0 0 -1 400.4997 1499.4999)" width="200" x="-100" xlink:href="#a" y="-50"/><use height="100" transform="matrix(1 0 0 -1 600.4996 1499.4999)" width="200" x="-100" xlink:href="#a" y="-50"/><use height="100" transform="matrix(1 0 0 -1 600.4996 1399.4999)" width="200" x="-100" xlink:href="#a" y="-50"/><use height="100" transform="matrix(1 0 0 -1 600.4996 1599.4999)" width="200" x="-100" xlink:href="#a" y="-50"/><use height="100" transform="matrix(1 0 0 -1 800.4996 1499.4999)" width="200" x="-100" xlink:href="#a" y="-50"/><use height="100" transform="matrix(1 0 0 -1 1100.4998 1449.4999)" width="200" x="-100" xlink:href="#a" y="-50"/><use height="100" transform="matrix(1 0 0 -1 1300.4998 1449.4999)" width="200" x="-100" xlink:href="#a" y="-50"/><use height="100" transform="matrix(1 0 0 -1 1300.4996 1549.5)" width="200" x="-100" xlink:href="#a" y="-50"/><use height="100" transform="matrix(1 0 0 -1 1100.4998 1549.4999)" width="200" x="-100" xlink:href="#a" y="-50"/><use height="100" transform="matrix(1 0 0 -1 1000.4996 1499.4999)" width="200" x="-100" xlink:href="#a" y="-50"/><use height="100" transform="matrix(1 0 0 -1 1200.4996 1499.4999)" width="200" x="-100" xlink:href="#a" y="-50"/><use height="100" transform="matrix(1 0 0 -1 1200.4996 1599.4999)" width="200" x="-100" xlink:href="#a" y="-50"/><use height="100" transform="matrix(1 0 0 -1 1200.4996 1399.4999)" width="200" x="-100" xlink:href="#a" y="-50"/><use height="100" transform="matrix(1 0 0 -1 1400.4998 1299.5)" width="200" x="-100" xlink:href="#a" y="-50"/><use height="100" transform="matrix(1 0 0 -1 1600.4998 1299.5)" width="200" x="-100" xlink:href="#a" y="-50"/><use height="100" transform="matrix(1 0 0 -1 1400.4998 1399.4999)" width="200" x="-100" xlink:href="#a" y="-50"/><use height="100" transform="matrix(1 0 0 -1 1600.4998 1399.4999)" width="200" x="-100" xlink:href="#a" y="-50"/><use height="100" transform="matrix(1 0 0 -1 1300.4998 1349.4999)" width="200" x="-100" xlink:href="#a" y="-50"/><use height="100" transform="matrix(1 0 0 -1 1500.4998 1349.4999)" width="200" x="-100" xlink:href="#a" y="-50"/><use height="100" transform="matrix(1 0 0 -1 1400.4998 1499.4999)" width="200" x="-100" xlink:href="#a" y="-50"/><use height="100" transform="matrix(1 0 0 -1 1500.4998 1449.4999)" width="200" x="-100" xlink:href="#a" y="-50"/><use height="100" transform="matrix(1 0 0 -1 1500.4998 1249.4999)" width="200" x="-100" xlink:href="#a" y="-50"/><use height="100" transform="matrix(1 0 0 -1 1700.4998 1349.4999)" width="200" x="-100" xlink:href="#a" y="-50"/><use height="100" transform="matrix(1 0 0 -1 800.4996 1599.4999)" width="200" x="-100" xlink:href="#a" y="-50"/><use height="100" transform="matrix(1 0 0 -1 1000.4996 1599.4999)" width="200" x="-100" xlink:href="#a" y="-50"/><use height="100" transform="matrix(1 0 0 -1 800.4996 1699.4999)" width="200" x="-100" xlink:href="#a" y="-50"/><use height="100" transform="matrix(1 0 0 -1 1000.4996 1699.4999)" width="200" x="-100" xlink:href="#a" y="-50"/><use height="100" transform="matrix(1 0 0 -1 700.4996 1649.4999)" width="200" x="-100" xlink:href="#a" y="-50"/><use height="100" transform="matrix(1 0 0 -1 900.4996 1649.4999)" width="200" x="-100" xlink:href="#a" y="-50"/><use height="100" transform="matrix(1 0 0 -1 900.4996 1549.4999)" width="200" x="-100" xlink:href="#a" y="-50"/><use height="100" transform="matrix(1 0 0 -1 900.4996 1749.4999)" width="200" x="-100" xlink:href="#a" y="-50"/><use height="100" transform="matrix(1 0 0 -1 1100.4996 1649.4999)" width="200" x="-100" xlink:href="#a" y="-50"/><use height="100" transform="matrix(1 0 0 -1 3200.5 699.4998)" width="200" x="-100" xlink:href="#a" y="-50"/><use height="100" transform="matrix(1 0 0 -1 3400.5 699.4998)" width="200" x="-100" xlink:href="#a" y="-50"/><use height="100" transform="matrix(1 0 0 -1 3200.5 799.4997)" width="200" x="-100" xlink:href="#a" y="-50"/><use height="100" transform="matrix(1 0 0 -1 3400.5 799.4997)" width="200" x="-100" xlink:href="#a" y="-50"/><use height="100" transform="matrix(1 0 0 -1 3100.5 749.4998)" width="200" x="-100" xlink:href="#a" y="-50"/><use height="100" transform="matrix(1 0 0 -1 3300.5 749.4998)" width="200" x="-100" xlink:href="#a" y="-50"/><use height="100" transform="matrix(1 0 0 -1 3300.5 649.4998)" width="200" x="-100" xlink:href="#a" y="-50"/><use height="100" transform="matrix(1 0 0 -1 3300.5 849.4998)" width="200" x="-100" xlink:href="#a" y="-50"/><use height="100" transform="matrix(1 0 0 -1 3500.5 749.4998)" width="200" x="-100" xlink:href="#a" y="-50"/><use height="100" transform="matrix(1 0 0 -1 3500.5 549.4998)" width="200" x="-100" xlink:href="#a" y="-50"/><use height="100" transform="matrix(1 0 0 -1 3700.5 549.4998)" width="200" x="-100" xlink:href="#a" y="-50"/><use height="100" transform="matrix(1 0 0 -1 3500.5 649.4998)" width="200" x="-100" xlink:href="#a" y="-50"/><use height="100" transform="matrix(1 0 0 -1 3700.5 649.4998)" width="200" x="-100" xlink:href="#a" y="-50"/><use height="100" transform="matrix(1 0 0 -1 3400.5 599.4998)" width="200" x="-100" xlink:href="#a" y="-50"/><use height="100" transform="matrix(1 0 0 -1 3600.5 599.4998)" width="200" x="-100" xlink:href="#a" y="-50"/><use height="100" transform="matrix(1 0 0 -1 3600.5 499.4998)" width="200" x="-100" xlink:href="#a" y="-50"/><use height="100" transform="matrix(1 0 0 -1 3600.5 699.4998)" width="200" x="-100" xlink:href="#a" y="-50"/><use height="100" transform="matrix(1 0 0 -1 3800.5 599.4998)" width="200" x="-100" xlink:href="#a" y="-50"/><use height="100" transform="matrix(1 0 0 -1 2900.5 849.4998)" width="200" x="-100" xlink:href="#a" y="-50"/><use height="100" transform="matrix(1 0 0 -1 3100.5 849.4998)" width="200" x="-100" xlink:href="#a" y="-50"/><use height="100" transform="matrix(1 0 0 -1 2900.5 949.4997)" width="200" x="-100" xlink:href="#a" y="-50"/><use height="100" transform="matrix(1 0 0 -1 3100.5 949.4997)" width="200" x="-100" xlink:href="#a" y="-50"/><use height="100" transform="matrix(1 0 0 -1 2800.5 899.4997)" width="200" x="-100" xlink:href="#a" y="-50"/><use height="100" transform="matrix(1 0 0 -1 3000.5 899.4997)" width="200" x="-100" xlink:href="#a" y="-50"/><use height="100" transform="matrix(1 0 0 -1 3000.5 799.4997)" width="200" x="-100" xlink:href="#a" y="-50"/><use height="100" transform="matrix(1 0 0 -1 3000.5 999.4997)" width="200" x="-100" xlink:href="#a" y="-50"/><use height="100" transform="matrix(1 0 0 -1 3200.5 899.4997)" width="200" x="-100" xlink:href="#a" y="-50"/><use height="100" transform="matrix(1 0 0 -1 3500.5 849.4998)" width="200" x="-100" xlink:href="#a" y="-50"/><use height="100" transform="matrix(1 0 0 -1 3700.5 849.4998)" width="200" x="-100" xlink:href="#a" y="-50"/><use height="100" transform="matrix(1 0 0 -1 3500.5 949.4998)" width="200" x="-100" xlink:href="#a" y="-50"/><use height="100" transform="matrix(1 0 0 -1 3700.5 949.4998)" width="200" x="-100" xlink:href="#a" y="-50"/><use height="100" transform="matrix(1 0 0 -1 3400.5 899.4998)" width="200" x="-100" xlink:href="#a" y="-50"/><use height="100" transform="matrix(1 0 0 -1 3600.5 899.4998)" width="200" x="-100" xlink:href="#a" y="-50"/><use height="100" transform="matrix(1 0 0 -1 3600.5 799.4998)" width="200" x="-100" xlink:href="#a" y="-50"/><use height="100" transform="matrix(1 0 0 -1 3600.5 999.4998)" width="200" x="-100" xlink:href="#a" y="-50"/><use height="100" transform="matrix(1 0 0 -1 3800.5 899.4998)" width="200" x="-100" xlink:href="#a" y="-50"/><use height="100" transform="matrix(1 0 0 -1 3800.5 699.4998)" width="200" x="-100" xlink:href="#a" y="-50"/><use height="100" transform="matrix(1 0 0 -1 4000.5 699.4998)" width="200" x="-100" xlink:href="#a" y="-50"/><use height="100" transform="matrix(1 0 0 -1 3800.5 799.4998)" width="200" x="-100" xlink:href="#a" y="-50"/><use height="100" transform="matrix(1 0 0 -1 4000.5 799.4998)" width="200" x="-100" xlink:href="#a" y="-50"/><use height="100" transform="matrix(1 0 0 -1 3700.5 749.4998)" width="200" x="-100" xlink:href="#a" y="-50"/><use height="100" transform="matrix(1 0 0 -1 3900.5 749.4998)" width="200" x="-100" xlink:href="#a" y="-50"/><use height="100" transform="matrix(1 0 0 -1 3900.5 649.4998)" width="200" x="-100" xlink:href="#a" y="-50"/><use height="100" transform="matrix(1 0 0 -1 3900.5 849.4998)" width="200" x="-100" xlink:href="#a" y="-50"/><use height="100" transform="matrix(1 0 0 -1 4100.5 749.4998)" width="200" x="-100" xlink:href="#a" y="-50"/><use height="100" transform="matrix(1 0 0 -1 3800.5 999.4998)" width="200" x="-100" xlink:href="#a" y="-50"/><use height="100" transform="matrix(1 0 0 -1 4000.5 999.4998)" width="200" x="-100" xlink:href="#a" y="-50"/><use height="100" transform="matrix(1 0 0 -1 3800.5 1099.4998)" width="200" x="-100" xlink:href="#a" y="-50"/><use height="100" transform="matrix(1 0 0 -1 4000.5 1099.4998)" width="200" x="-100" xlink:href="#a" y="-50"/><use height="100" transform="matrix(1 0 0 -1 3700.4998 1049.4998)" width="200" x="-100" xlink:href="#a" y="-50"/><use height="100" transform="matrix(1 0 0 -1 3900.4998 1049.4998)" width="200" x="-100" xlink:href="#a" y="-50"/><use height="100" transform="matrix(1 0 0 -1 3900.4998 949.4998)" width="200" x="-100" xlink:href="#a" y="-50"/><use height="100" transform="matrix(1 0 0 -1 3900.4998 1149.4998)" width="200" x="-100" xlink:href="#a" y="-50"/><use height="100" transform="matrix(1 0 0 -1 4100.5 1049.4998)" width="200" x="-100" xlink:href="#a" y="-50"/><use height="100" transform="matrix(1 0 0 -1 4100.5 849.4999)" width="200" x="-100" xlink:href="#a" y="-50"/><use height="100" transform="matrix(1 0 0 -1 4300.5 849.4999)" width="200" x="-100" xlink:href="#a" y="-50"/><use height="100" transform="matrix(1 0 0 -1 4100.5 949.4998)" width="200" x="-100" xlink:href="#a" y="-50"/><use height="100" transform="matrix(1 0 0 -1 4300.5 949.4998)" width="200" x="-100" xlink:href="#a" y="-50"/><use height="100" transform="matrix(1 0 0 -1 4000.5 899.4998)" width="200" x="-100" xlink:href="#a" y="-50"/><use height="100" transform="matrix(1 0 0 -1 4200.5 899.4998)" width="200" x="-100" xlink:href="#a" y="-50"/><use height="100" transform="matrix(1 0 0 -1 4200.5 799.4998)" width="200" x="-100" xlink:href="#a" y="-50"/><use height="100" transform="matrix(1 0 0 -1 4200.5 999.4998)" width="200" x="-100" xlink:href="#a" y="-50"/><use height="100" transform="matrix(1 0 0 -1 4400.5 899.4998)" width="200" x="-100" xlink:href="#a" y="-50"/><use height="100" transform="matrix(1 0 0 -1 3200.5 999.4998)" width="200" x="-100" xlink:href="#a" y="-50"/><use height="100" transform="matrix(1 0 0 -1 3400.5 999.4998)" width="200" x="-100" xlink:href="#a" y="-50"/><use height="100" transform="matrix(1 0 0 -1 3200.5 1099.4998)" width="200" x="-100" xlink:href="#a" y="-50"/><use height="100" transform="matrix(1 0 0 -1 3400.5 1099.4998)" width="200" x="-100" xlink:href="#a" y="-50"/><use height="100" transform="matrix(1 0 0 -1 3100.4998 1049.4998)" width="200" x="-100" xlink:href="#a" y="-50"/><use height="100" transform="matrix(1 0 0 -1 3300.4998 1049.4998)" width="200" x="-100" xlink:href="#a" y="-50"/><use height="100" transform="matrix(1 0 0 -1 3300.4998 949.4998)" width="200" x="-100" xlink:href="#a" y="-50"/><use height="100" transform="matrix(1 0 0 -1 3300.4998 1149.4998)" width="200" x="-100" xlink:href="#a" y="-50"/><use height="100" transform="matrix(1 0 0 -1 3500.4998 1049.4998)" width="200" x="-100" xlink:href="#a" y="-50"/><use height="100" transform="matrix(1 0 0 -1 3500.4998 1149.4998)" width="200" x="-100" xlink:href="#a" y="-50"/><use height="100" transform="matrix(1 0 0 -1 3700.4998 1149.4998)" width="200" x="-100" xlink:href="#a" y="-50"/><use height="100" transform="matrix(1 0 0 -1 3500.4998 1249.4998)" width="200" x="-100" xlink:href="#a" y="-50"/><use height="100" transform="matrix(1 0 0 -1 3700.4998 1249.4998)" width="200" x="-100" xlink:href="#a" y="-50"/><use height="100" transform="matrix(1 0 0 -1 3400.4998 1199.4998)" width="200" x="-100" xlink:href="#a" y="-50"/><use height="100" transform="matrix(1 0 0 -1 3600.4998 1199.4998)" width="200" x="-100" xlink:href="#a" y="-50"/><use height="100" transform="matrix(1 0 0 -1 3600.4998 1099.4998)" width="200" x="-100" xlink:href="#a" y="-50"/><use height="100" transform="matrix(1 0 0 -1 3600.4998 1299.4998)" width="200" x="-100" xlink:href="#a" y="-50"/><use height="100" transform="matrix(1 0 0 -1 3800.4998 1199.4998)" width="200" x="-100" xlink:href="#a" y="-50"/><use height="100" transform="matrix(1 0 0 -1 2600.5002 999.4999)" width="200" x="-100" xlink:href="#a" y="-50"/><use height="100" transform="matrix(1 0 0 -1 2800.5002 999.4999)" width="200" x="-100" xlink:href="#a" y="-50"/><use height="100" transform="matrix(1 0 0 -1 2600.5002 1099.4999)" width="200" x="-100" xlink:href="#a" y="-50"/><use height="100" transform="matrix(1 0 0 -1 2800.5002 1099.4999)" width="200" x="-100" xlink:href="#a" y="-50"/><use height="100" transform="matrix(1 0 0 -1 2500.5002 1049.4999)" width="200" x="-100" xlink:href="#a" y="-50"/><use height="100" transform="matrix(1 0 0 -1 2700.5002 1049.4999)" width="200" x="-100" xlink:href="#a" y="-50"/><use height="100" transform="matrix(1 0 0 -1 2700.5002 949.4999)" width="200" x="-100" xlink:href="#a" y="-50"/><use height="100" transform="matrix(1 0 0 -1 2700.5002 1149.4999)" width="200" x="-100" xlink:href="#a" y="-50"/><use height="100" transform="matrix(1 0 0 -1 2900.5002 1049.4999)" width="200" x="-100" xlink:href="#a" y="-50"/><use height="100" transform="matrix(1 0 0 -1 2000.5001 1299.4999)" width="200" x="-100" xlink:href="#a" y="-50"/><use height="100" transform="matrix(1 0 0 -1 2200.5002 1299.4999)" width="200" x="-100" xlink:href="#a" y="-50"/><use height="100" transform="matrix(1 0 0 -1 2000.5001 1399.4998)" width="200" x="-100" xlink:href="#a" y="-50"/><use height="100" transform="matrix(1 0 0 -1 2200.5002 1399.4998)" width="200" x="-100" xlink:href="#a" y="-50"/><use height="100" transform="matrix(1 0 0 -1 1900.5001 1349.4998)" width="200" x="-100" xlink:href="#a" y="-50"/><use height="100" transform="matrix(1 0 0 -1 2100.5 1349.4998)" width="200" x="-100" xlink:href="#a" y="-50"/><use height="100" transform="matrix(1 0 0 -1 2100.5 1249.4998)" width="200" x="-100" xlink:href="#a" y="-50"/><use height="100" transform="matrix(1 0 0 -1 2100.5 1449.4998)" width="200" x="-100" xlink:href="#a" y="-50"/><use height="100" transform="matrix(1 0 0 -1 2300.5 1349.4998)" width="200" x="-100" xlink:href="#a" y="-50"/><use height="100" transform="matrix(1 0 0 -1 2300.5002 1149.4999)" width="200" x="-100" xlink:href="#a" y="-50"/><use height="100" transform="matrix(1 0 0 -1 2500.5002 1149.4999)" width="200" x="-100" xlink:href="#a" y="-50"/><use height="100" transform="matrix(1 0 0 -1 2300.5002 1249.4998)" width="200" x="-100" xlink:href="#a" y="-50"/><use height="100" transform="matrix(1 0 0 -1 2500.5002 1249.4998)" width="200" x="-100" xlink:href="#a" y="-50"/><use height="100" transform="matrix(1 0 0 -1 2200.5002 1199.4999)" width="200" x="-100" xlink:href="#a" y="-50"/><use height="100" transform="matrix(1 0 0 -1 2400.5002 1199.4999)" width="200" x="-100" xlink:href="#a" y="-50"/><use height="100" transform="matrix(1 0 0 -1 2400.5002 1099.4999)" width="200" x="-100" xlink:href="#a" y="-50"/><use height="100" transform="matrix(1 0 0 -1 2400.5002 1299.4999)" width="200" x="-100" xlink:href="#a" y="-50"/><use height="100" transform="matrix(1 0 0 -1 2600.5002 1199.4999)" width="200" x="-100" xlink:href="#a" y="-50"/><use height="100" transform="matrix(1 0 0 -1 2900.5002 1149.4999)" width="200" x="-100" xlink:href="#a" y="-50"/><use height="100" transform="matrix(1 0 0 -1 3100.5002 1149.4999)" width="200" x="-100" xlink:href="#a" y="-50"/><use height="100" transform="matrix(1 0 0 -1 3100.5 1249.4999)" width="200" x="-100" xlink:href="#a" y="-50"/><use height="100" transform="matrix(1 0 0 -1 2900.5002 1249.4999)" width="200" x="-100" xlink:href="#a" y="-50"/><use height="100" transform="matrix(1 0 0 -1 2800.5002 1199.4999)" width="200" x="-100" xlink:href="#a" y="-50"/><use height="100" transform="matrix(1 0 0 -1 3000.5002 1199.4999)" width="200" x="-100" xlink:href="#a" y="-50"/><use height="100" transform="matrix(1 0 0 -1 3000.5002 1099.4999)" width="200" x="-100" xlink:href="#a" y="-50"/><use height="100" transform="matrix(1 0 0 -1 3000.5002 1299.4999)" width="200" x="-100" xlink:href="#a" y="-50"/><use height="100" transform="matrix(1 0 0 -1 3200.5002 1199.4999)" width="200" x="-100" xlink:href="#a" y="-50"/><use height="100" transform="matrix(1 0 0 -1 3200.5002 1299.5)" width="200" x="-100" xlink:href="#a" y="-50"/><use height="100" transform="matrix(1 0 0 -1 3400.5002 1299.5)" width="200" x="-100" xlink:href="#a" y="-50"/><use height="100" transform="matrix(1 0 0 -1 3200.5002 1399.4999)" width="200" x="-100" xlink:href="#a" y="-50"/><use height="100" transform="matrix(1 0 0 -1 3400.5002 1399.4999)" width="200" x="-100" xlink:href="#a" y="-50"/><use height="100" transform="matrix(1 0 0 -1 3100.5 1349.4999)" width="200" x="-100" xlink:href="#a" y="-50"/><use height="100" transform="matrix(1 0 0 -1 3300.5 1349.4999)" width="200" x="-100" xlink:href="#a" y="-50"/><use height="100" transform="matrix(1 0 0 -1 3300.5 1249.4999)" width="200" x="-100" xlink:href="#a" y="-50"/><use height="100" transform="matrix(1 0 0 -1 3300.5 1449.4999)" width="200" x="-100" xlink:href="#a" y="-50"/><use height="100" transform="matrix(1 0 0 -1 3500.5 1349.4999)" width="200" x="-100" xlink:href="#a" y="-50"/><use height="100" transform="matrix(1 0 0 -1 2300.5 1449.4999)" width="200" x="-100" xlink:href="#a" y="-50"/><use height="100" transform="matrix(1 0 0 -1 2500.5 1449.4999)" width="200" x="-100" xlink:href="#a" y="-50"/><use height="100" transform="matrix(1 0 0 -1 2300.5 1549.4998)" width="200" x="-100" xlink:href="#a" y="-50"/><use height="100" transform="matrix(1 0 0 -1 2500.5 1549.4998)" width="200" x="-100" xlink:href="#a" y="-50"/><use height="100" transform="matrix(1 0 0 -1 2200.5 1499.4999)" width="200" x="-100" xlink:href="#a" y="-50"/><use height="100" transform="matrix(1 0 0 -1 2400.5 1499.4999)" width="200" x="-100" xlink:href="#a" y="-50"/><use height="100" transform="matrix(1 0 0 -1 2400.5 1399.4999)" width="200" x="-100" xlink:href="#a" y="-50"/><use height="100" transform="matrix(1 0 0 -1 2400.5 1599.4999)" width="200" x="-100" xlink:href="#a" y="-50"/><use height="100" transform="matrix(1 0 0 -1 2600.5 1499.4999)" width="200" x="-100" xlink:href="#a" y="-50"/><use height="100" transform="matrix(1 0 0 -1 2600.5002 1299.4999)" width="200" x="-100" xlink:href="#a" y="-50"/><use height="100" transform="matrix(1 0 0 -1 2800.5002 1299.4999)" width="200" x="-100" xlink:href="#a" y="-50"/><use height="100" transform="matrix(1 0 0 -1 2600.5002 1399.4999)" width="200" x="-100" xlink:href="#a" y="-50"/><use height="100" transform="matrix(1 0 0 -1 2800.5002 1399.4999)" width="200" x="-100" xlink:href="#a" y="-50"/><use height="100" transform="matrix(1 0 0 -1 2500.5 1349.4999)" width="200" x="-100" xlink:href="#a" y="-50"/><use height="100" transform="matrix(1 0 0 -1 2700.5 1349.4999)" width="200" x="-100" xlink:href="#a" y="-50"/><use height="100" transform="matrix(1 0 0 -1 2700.5 1249.4999)" width="200" x="-100" xlink:href="#a" y="-50"/><use height="100" transform="matrix(1 0 0 -1 2700.5 1449.4999)" width="200" x="-100" xlink:href="#a" y="-50"/><use height="100" transform="matrix(1 0 0 -1 2900.5 1349.4999)" width="200" x="-100" xlink:href="#a" y="-50"/><use height="100" transform="matrix(1 0 0 -1 2600.5 1599.4999)" width="200" x="-100" xlink:href="#a" y="-50"/><use height="100" transform="matrix(1 0 0 -1 2800.5 1599.4999)" width="200" x="-100" xlink:href="#a" y="-50"/><use height="100" transform="matrix(1 0 0 -1 2600.5 1699.4999)" width="200" x="-100" xlink:href="#a" y="-50"/><use height="100" transform="matrix(1 0 0 -1 2800.5 1699.4999)" width="200" x="-100" xlink:href="#a" y="-50"/><use height="100" transform="matrix(1 0 0 -1 2500.5 1649.4999)" width="200" x="-100" xlink:href="#a" y="-50"/><use height="100" transform="matrix(1 0 0 -1 2700.5 1649.4999)" width="200" x="-100" xlink:href="#a" y="-50"/><use height="100" transform="matrix(1 0 0 -1 2700.5 1549.4999)" width="200" x="-100" xlink:href="#a" y="-50"/><use height="100" transform="matrix(1 0 0 -1 2700.5 1749.4999)" width="200" x="-100" xlink:href="#a" y="-50"/><use height="100" transform="matrix(1 0 0 -1 2900.5 1649.4999)" width="200" x="-100" xlink:href="#a" y="-50"/><use height="100" transform="matrix(1 0 0 -1 2900.5 1449.4999)" width="200" x="-100" xlink:href="#a" y="-50"/><use height="100" transform="matrix(1 0 0 -1 3100.5 1449.4999)" width="200" x="-100" xlink:href="#a" y="-50"/><use height="100" transform="matrix(1 0 0 -1 2900.5 1549.4999)" width="200" x="-100" xlink:href="#a" y="-50"/><use height="100" transform="matrix(1 0 0 -1 3100.5 1549.4999)" width="200" x="-100" xlink:href="#a" y="-50"/><use height="100" transform="matrix(1 0 0 -1 2800.5 1499.4999)" width="200" x="-100" xlink:href="#a" y="-50"/><use height="100" transform="matrix(1 0 0 -1 3000.5 1499.4999)" width="200" x="-100" xlink:href="#a" y="-50"/><use height="100" transform="matrix(1 0 0 -1 3000.5 1399.4999)" width="200" x="-100" xlink:href="#a" y="-50"/><use height="100" transform="matrix(1 0 0 -1 3000.5 1599.4999)" width="200" x="-100" xlink:href="#a" y="-50"/><use height="100" transform="matrix(1 0 0 -1 3200.5 1499.4999)" width="200" x="-100" xlink:href="#a" y="-50"/><use height="100" transform="matrix(1 0 0 -1 1400.5 1599.4998)" width="200" x="-100" xlink:href="#a" y="-50"/><use height="100" transform="matrix(1 0 0 -1 1600.5 1599.4998)" width="200" x="-100" xlink:href="#a" y="-50"/><use height="100" transform="matrix(1 0 0 -1 1400.5 1699.4998)" width="200" x="-100" xlink:href="#a" y="-50"/><use height="100" transform="matrix(1 0 0 -1 1600.5 1699.4998)" width="200" x="-100" xlink:href="#a" y="-50"/><use height="100" transform="matrix(1 0 0 -1 1300.5 1649.4998)" width="200" x="-100" xlink:href="#a" y="-50"/><use height="100" transform="matrix(1 0 0 -1 1500.5 1649.4998)" width="200" x="-100" xlink:href="#a" y="-50"/><use height="100" transform="matrix(1 0 0 -1 1500.5 1549.4998)" width="200" x="-100" xlink:href="#a" y="-50"/><use height="100" transform="matrix(1 0 0 -1 1500.5 1749.4998)" width="200" x="-100" xlink:href="#a" y="-50"/><use height="100" transform="matrix(1 0 0 -1 1700.5 1649.4998)" width="200" x="-100" xlink:href="#a" y="-50"/><use height="100" transform="matrix(1 0 0 -1 1700.5001 1449.4998)" width="200" x="-100" xlink:href="#a" y="-50"/><use height="100" transform="matrix(1 0 0 -1 1900.5001 1449.4998)" width="200" x="-100" xlink:href="#a" y="-50"/><use height="100" transform="matrix(1 0 0 -1 1700.5001 1549.4998)" width="200" x="-100" xlink:href="#a" y="-50"/><use height="100" transform="matrix(1 0 0 -1 1900.5001 1549.4998)" width="200" x="-100" xlink:href="#a" y="-50"/><use height="100" transform="matrix(1 0 0 -1 1600.5 1499.4998)" width="200" x="-100" xlink:href="#a" y="-50"/><use height="100" transform="matrix(1 0 0 -1 1800.5 1499.4998)" width="200" x="-100" xlink:href="#a" y="-50"/><use height="100" transform="matrix(1 0 0 -1 1800.5 1399.4998)" width="200" x="-100" xlink:href="#a" y="-50"/><use height="100" transform="matrix(1 0 0 -1 1800.5 1599.4998)" width="200" x="-100" xlink:href="#a" y="-50"/><use height="100" transform="matrix(1 0 0 -1 2000.5 1499.4998)" width="200" x="-100" xlink:href="#a" y="-50"/><use height="100" transform="matrix(1 0 0 -1 1100.5 1749.4998)" width="200" x="-100" xlink:href="#a" y="-50"/><use height="100" transform="matrix(1 0 0 -1 1300.5 1749.4998)" width="200" x="-100" xlink:href="#a" y="-50"/><use height="100" transform="matrix(1 0 0 -1 1100.5 1849.4996)" width="200" x="-100" xlink:href="#a" y="-50"/><use height="100" transform="matrix(1 0 0 -1 1300.5 1849.4996)" width="200" x="-100" xlink:href="#a" y="-50"/><use height="100" transform="matrix(1 0 0 -1 1000.4999 1799.4998)" width="200" x="-100" xlink:href="#a" y="-50"/><use height="100" transform="matrix(1 0 0 -1 1200.4999 1799.4998)" width="200" x="-100" xlink:href="#a" y="-50"/><use height="100" transform="matrix(1 0 0 -1 1200.4999 1699.4998)" width="200" x="-100" xlink:href="#a" y="-50"/><use height="100" transform="matrix(1 0 0 -1 1200.4999 1899.4998)" width="200" x="-100" xlink:href="#a" y="-50"/><use height="100" transform="matrix(1 0 0 -1 1400.4999 1799.4998)" width="200" x="-100" xlink:href="#a" y="-50"/><use height="100" transform="matrix(1 0 0 -1 1700.5 1749.4998)" width="200" x="-100" xlink:href="#a" y="-50"/><use height="100" transform="matrix(1 0 0 -1 1900.5 1749.4998)" width="200" x="-100" xlink:href="#a" y="-50"/><use height="100" transform="matrix(1 0 0 -1 1700.5 1849.4998)" width="200" x="-100" xlink:href="#a" y="-50"/><use height="100" transform="matrix(1 0 0 -1 1900.5 1849.4998)" width="200" x="-100" xlink:href="#a" y="-50"/><use height="100" transform="matrix(1 0 0 -1 1600.4999 1799.4998)" width="200" x="-100" xlink:href="#a" y="-50"/><use height="100" transform="matrix(1 0 0 -1 1800.4999 1799.4998)" width="200" x="-100" xlink:href="#a" y="-50"/><use height="100" transform="matrix(1 0 0 -1 1800.4999 1699.4998)" width="200" x="-100" xlink:href="#a" y="-50"/><use height="100" transform="matrix(1 0 0 -1 1800.4999 1899.4998)" width="200" x="-100" xlink:href="#a" y="-50"/><use height="100" transform="matrix(1 0 0 -1 2000.4999 1799.4998)" width="200" x="-100" xlink:href="#a" y="-50"/><use height="100" transform="matrix(1 0 0 -1 2000.5 1599.4999)" width="200" x="-100" xlink:href="#a" y="-50"/><use height="100" transform="matrix(1 0 0 -1 2200.5 1599.4999)" width="200" x="-100" xlink:href="#a" y="-50"/><use height="100" transform="matrix(1 0 0 -1 2000.5 1699.4998)" width="200" x="-100" xlink:href="#a" y="-50"/><use height="100" transform="matrix(1 0 0 -1 2200.5 1699.4998)" width="200" x="-100" xlink:href="#a" y="-50"/><use height="100" transform="matrix(1 0 0 -1 1900.5 1649.4998)" width="200" x="-100" xlink:href="#a" y="-50"/><use height="100" transform="matrix(1 0 0 -1 2100.5 1649.4998)" width="200" x="-100" xlink:href="#a" y="-50"/><use height="100" transform="matrix(1 0 0 -1 2100.5 1549.4998)" width="200" x="-100" xlink:href="#a" y="-50"/><use height="100" transform="matrix(1 0 0 -1 2100.5 1749.4998)" width="200" x="-100" xlink:href="#a" y="-50"/><use height="100" transform="matrix(1 0 0 -1 2300.5 1649.4998)" width="200" x="-100" xlink:href="#a" y="-50"/><use height="100" transform="matrix(1 0 0 -1 2000.4999 1899.4999)" width="200" x="-100" xlink:href="#a" y="-50"/><use height="100" transform="matrix(1 0 0 -1 2200.5 1899.4999)" width="200" x="-100" xlink:href="#a" y="-50"/><use height="100" transform="matrix(1 0 0 -1 2000.4999 1999.4998)" width="200" x="-100" xlink:href="#a" y="-50"/><use height="100" transform="matrix(1 0 0 -1 2200.5 1999.4998)" width="200" x="-100" xlink:href="#a" y="-50"/><use height="100" transform="matrix(1 0 0 -1 1900.4999 1949.4998)" width="200" x="-100" xlink:href="#a" y="-50"/><use height="100" transform="matrix(1 0 0 -1 2100.4998 1949.4998)" width="200" x="-100" xlink:href="#a" y="-50"/><use height="100" transform="matrix(1 0 0 -1 2100.4998 1849.4998)" width="200" x="-100" xlink:href="#a" y="-50"/><use height="100" transform="matrix(1 0 0 -1 2100.4998 2049.4998)" width="200" x="-100" xlink:href="#a" y="-50"/><use height="100" transform="matrix(1 0 0 -1 2300.4998 1949.4998)" width="200" x="-100" xlink:href="#a" y="-50"/><use height="100" transform="matrix(1 0 0 -1 2300.5 1749.4999)" width="200" x="-100" xlink:href="#a" y="-50"/><use height="100" transform="matrix(1 0 0 -1 2500.5 1749.4999)" width="200" x="-100" xlink:href="#a" y="-50"/><use height="100" transform="matrix(1 0 0 -1 2300.5 1849.4998)" width="200" x="-100" xlink:href="#a" y="-50"/><use height="100" transform="matrix(1 0 0 -1 2500.5 1849.4998)" width="200" x="-100" xlink:href="#a" y="-50"/><use height="100" transform="matrix(1 0 0 -1 2200.5 1799.4999)" width="200" x="-100" xlink:href="#a" y="-50"/><use height="100" transform="matrix(1 0 0 -1 2400.5 1799.4999)" width="200" x="-100" xlink:href="#a" y="-50"/><use height="100" transform="matrix(1 0 0 -1 2400.5 1699.4999)" width="200" x="-100" xlink:href="#a" y="-50"/><use height="100" transform="matrix(1 0 0 -1 2400.5 1899.4999)" width="200" x="-100" xlink:href="#a" y="-50"/><use height="100" transform="matrix(1 0 0 -1 2600.5 1799.4999)" width="200" x="-100" xlink:href="#a" y="-50"/><use height="100" transform="matrix(1 0 0 -1 1400.4999 1899.4998)" width="200" x="-100" xlink:href="#a" y="-50"/><use height="100" transform="matrix(1 0 0 -1 1600.4999 1899.4998)" width="200" x="-100" xlink:href="#a" y="-50"/><use height="100" transform="matrix(1 0 0 -1 1400.4999 1999.4998)" width="200" x="-100" xlink:href="#a" y="-50"/><use height="100" transform="matrix(1 0 0 -1 1600.4999 1999.4998)" width="200" x="-100" xlink:href="#a" y="-50"/><use height="100" transform="matrix(1 0 0 -1 1300.4999 1949.4998)" width="200" x="-100" xlink:href="#a" y="-50"/><use height="100" transform="matrix(1 0 0 -1 1500.4999 1949.4998)" width="200" x="-100" xlink:href="#a" y="-50"/><use height="100" transform="matrix(1 0 0 -1 1500.4999 1849.4998)" width="200" x="-100" xlink:href="#a" y="-50"/><use height="100" transform="matrix(1 0 0 -1 1500.4999 2049.4998)" width="200" x="-100" xlink:href="#a" y="-50"/><use height="100" transform="matrix(1 0 0 -1 1700.4999 1949.4998)" width="200" x="-100" xlink:href="#a" y="-50"/><use height="100" transform="matrix(1 0 0 -1 1700.4999 2049.4998)" width="200" x="-100" xlink:href="#a" y="-50"/><use height="100" transform="matrix(1 0 0 -1 1900.4999 2049.4998)" width="200" x="-100" xlink:href="#a" y="-50"/><use height="100" transform="matrix(1 0 0 -1 1700.4999 2149.4998)" width="200" x="-100" xlink:href="#a" y="-50"/><use height="100" transform="matrix(1 0 0 -1 1900.4999 2149.4998)" width="200" x="-100" xlink:href="#a" y="-50"/><use height="100" transform="matrix(1 0 0 -1 1600.4998 2099.4998)" width="200" x="-100" xlink:href="#a" y="-50"/><use height="100" transform="matrix(1 0 0 -1 1800.4998 2099.4998)" width="200" x="-100" xlink:href="#a" y="-50"/><use height="100" transform="matrix(1 0 0 -1 1800.4998 1999.4998)" width="200" x="-100" xlink:href="#a" y="-50"/><use height="100" transform="matrix(1 0 0 -1 1800.4998 2199.4998)" width="200" x="-100" xlink:href="#a" y="-50"/><use height="100" transform="matrix(1 0 0 -1 2000.4998 2099.4998)" width="200" x="-100" xlink:href="#a" y="-50"/></g><use height="167.545" transform="matrix(1 0 0 -1 2156.6216 525.3737)" width="200" x="-99.999" xlink:href="#c" y="-50"/><use height="296.257" transform="matrix(1 0 0 -1 2349.5203 671.4661)" width="400" x="-200.001" xlink:href="#b" y="-50"/><use height="167.545" transform="matrix(1 0 0 -1 1596.3165 399.1118)" width="200" x="-99.999" xlink:href="#c" y="-50"/><use height="296.257" transform="matrix(1 0 0 -1 1799.981 502.3296)" width="400" x="-200.001" xlink:href="#b" y="-50"/><use height="167.545" transform="matrix(1 0 0 -1 1449.9478 524.8068)" width="200" x="-99.999" xlink:href="#c" y="-50"/><use height="296.257" transform="matrix(1 0 0 -1 1250.0616 672.9171)" width="400" x="-200.001" xlink:href="#b" y="-50"/><use height="167.545" transform="matrix(1 0 0 -1 1150.0226 824.7131)" width="200" x="-99.999" xlink:href="#c" y="-50"/><use height="109.928" transform="matrix(-.5042 0 0 -.5042 1581.0494 584.7161)" width="91.97" x="-61.605" xlink:href="#d" y="-89.338"/><use height="109.928" transform="matrix(-.5042 0 0 -.5042 1633.0776 558.8279)" width="91.97" x="-61.605" xlink:href="#d" y="-89.338"/></svg>