<svg enable-background="new 0 0 3600 1800" height="1800" viewBox="0 0 3600 1800" width="3600" xmlns="http://www.w3.org/2000/svg" xmlns:xlink="http://www.w3.org/1999/xlink"><symbol id="a" viewBox="-100 -50 200 100"><path d="m100 0-100-50-100 50 100 50z" fill="#afc2e5"/><ellipse cx="3.543" cy="9.511" fill="#a5bbe0" rx="27.207" ry="14.719"/><path d="m65.142 6.163c6.411 0 12.231 1.141 16.539 2.997l-32.259 16.129c-5.083-1.997-8.303-4.944-8.303-8.233 0-6.016 10.755-10.893 24.023-10.893z" fill="#a5bbe0"/><path d="m-10.836-32.944c0 6.016-10.755 10.893-24.023 10.893-6.013 0-11.506-1.004-15.719-2.66l32.258-16.129c4.607 1.984 7.484 4.787 7.484 7.896z" fill="#a5bbe0"/><ellipse cx="47.661" cy="-10.243" fill="#a5bbe0" rx="14.75" ry="7.98"/><path d="m36.958-23.473c-15.138 0-27.41-5.382-27.41-12.02 0-2.653 1.964-5.103 5.283-7.091l35.278 17.639c-3.905.937-8.385 1.472-13.151 1.472z" fill="#a5bbe0"/><path d="m-49.891 25.054-35.278-17.639c4.987-2.987 13.038-4.928 22.127-4.928 15.138 0 27.41 5.381 27.41 12.02-.001 4.548-5.763 8.506-14.259 10.547z" fill="#a5bbe0"/></symbol><symbol id="b" viewBox="-200.001 -50 400 343.781"><path d="m99.999 0-100-50-100 50 100 50z" fill="none"/><path d="m100 100-100.001-50-99.999 50 100 50z" fill="none"/><path d="m-.001 50-100-50-100 50 100.001 50z" fill="none"/><path d="m199.999 50-100-50-100 50 100.001 50z" fill="none"/><path d="m149.698 235.412c-10.73 31.2-296.922-.925-296.922-.925-6.474-33.772-9.852-129.301-9.852-173.569 0-16.189 10.597-51.352 48.257-48.537 11.513.86 19.61-8.015 34.606-15.809s48.111-1.845 59.099 5.266c15.826 10.242 51.253-4.231 71.667 5.536s42.954 1.615 61.899 9.725c32.391 13.865 41.874 26.234 41.874 43.819-.001 76.064-.175 144.102-10.628 174.494z" fill="#a99de1"/><path d="m109.575 210.355c1.6-3.933 6.601-28.724.812-38.509-5.788-9.785 11.207-41.807 2.517-56.219s7.984-44.621 3.173-60.391c-3.825-12.54-2.135-32.03-1.282-39.495 1.232.393 2.451.841 3.655 1.357 32.391 13.865 41.874 26.234 41.874 43.819 0 75.364-.178 142.827-10.348 173.623-12.107-2.651-45.661-11.252-40.401-24.185z" fill="#9b93db"/><path d="m160.213 106.626c-5.768-12.558-19.669-26.156-39.198-34.763-29.827-13.146-46.002.921-61.876-8.196s-36.216-12.213-56.988-5.629-34.528-12.843-58.852-12.759c-24.323.084-32.684 22.289-50.727 17.368-24.053-4.652-41.856 9.173-49.357 24.708-.193-9.92-.291-18.919-.291-26.436 0-2.902.18-5.895.672-8.942 7.712-15.217 25.322-28.511 48.976-23.936 18.043 4.922 26.404-17.284 50.727-17.368s38.079 19.343 58.852 12.759 41.115-3.487 56.989 5.629 32.049-4.951 61.876 8.196c19.655 8.663 33.608 22.381 39.307 35.006-.007 11.724-.032 23.214-.11 34.363z" fill="#9b93db"/><path d="m160.069 121.725c-.148 11.747-.384 23.02-.752 33.69-7.557-9.203-19.165-18.085-33.869-24.334-30.934-13.146-47.709.921-64.172-8.196s-37.561-12.213-59.105-5.629c-21.543 6.583-35.81-12.843-61.036-12.759s-33.897 22.289-52.61 17.368c-18.972-3.538-34.188 3.614-43.813 14.075-.474-11.391-.854-22.679-1.14-33.324 9.54-11.149 25.215-19.038 44.953-15.357 18.713 4.922 27.384-17.284 52.61-17.368 25.225-.084 39.492 19.343 61.035 12.759 21.544-6.583 42.641-3.487 59.105 5.629 16.463 9.116 33.238-4.951 64.172 8.196 15.193 6.457 27.095 15.722 34.622 25.25z" fill="#9b93db"/><path d="m158.393 175.812c-.745 12.831-1.774 24.457-3.203 34.543-5.705-15.112-22.726-22.384-32.777-26.576-18.863-7.868-45.052 3.67-62.512-5.034-17.748-8.848-40.022-8.478-58.92-4.183-20.807 4.729-41.071-11.101-62.213-11.599-17.904-.422-26.126 7.621-43.33 2.881-15.577-1.699-39.059 14.665-47.112 31.355-.954-11.537-1.784-24.325-2.489-37.496 10.666-13.478 31.583-24.399 44.899-23.082 18.442 4.757 26.771-3.567 45.928-3.275 22.149.337 43.357 16.126 65.208 11.071 20.275-4.69 42.412-5.084 61.798 3.6 18.978 8.501 45.646-3.328 65.61 4.323 9.182 3.52 21.678 11.196 29.113 23.472z" fill="#9b93db"/><path d="m149.77 235.188c-35.926 70.226-222.907 74.498-275.176 27.89-13.676-9.993-21.085-20.76-22.266-31.043-4.002-34.837 33.013-41.605 50.311-38.698s22.755-4.921 41.167-4.946 41.352 14.874 58.31 11.483c16.958-3.392 32.108-1.949 52.517 3.638 20.409 5.588 48.366-7.592 73.396-2.605 25.029 4.987 23.535 29.008 21.741 34.281z" fill="#b5a9eb"/></symbol><symbol id="c" viewBox="-99.999 -50 200 196.67"><path d="m100.001 0-100-50-100 50 100 50z" fill="none"/><path d="m84.252 113.459c-6.105 17.752-168.943-.526-168.943-.526-3.683-19.216-5.605-73.57-5.605-98.758 0-9.212 6.03-29.218 27.457-27.617 6.551.49 11.158-4.56 19.69-8.995s27.374-1.05 33.626 2.996c9.005 5.827 29.162-2.408 40.777 3.15s24.44.919 35.219 5.533c18.43 7.89 23.826 14.928 23.826 24.933 0 43.279-.1 81.991-6.047 99.284z" fill="#9b9fe8"/><path d="m61.423 99.202c.91-2.238 3.756-16.343.462-21.911-3.293-5.567 6.376-23.787 1.432-31.987s4.543-25.388 1.806-34.361c-2.177-7.135-1.215-18.225-.729-22.472.701.224 1.395.479 2.08.772 18.429 7.889 23.825 14.927 23.825 24.932 0 42.881-.101 81.266-5.888 98.788-6.89-1.509-25.981-6.403-22.988-13.761z" fill="#8f97e3"/><path d="m84.293 113.332c-20.441 39.958-126.83 42.388-156.57 15.869-7.782-5.686-11.997-11.812-12.669-17.663-2.277-19.821 18.784-23.673 28.626-22.019s12.947-2.8 23.423-2.814 23.528 8.463 33.177 6.533 18.269-1.109 29.881 2.07 27.519-4.32 41.761-1.482 13.392 16.505 12.371 19.506z" fill="#acaff2"/><path d="m90.235 40.182c-3.282-7.145-11.191-14.882-22.303-19.78-16.971-7.48-26.174.524-35.206-4.663s-20.607-6.949-32.426-3.203-19.646-7.308-33.485-7.26c-13.84.048-18.597 12.682-28.863 9.882-13.686-2.647-23.815 5.219-28.083 14.058-.11-5.644-.166-10.764-.166-15.042 0-1.651.102-3.354.382-5.088 4.388-8.658 14.408-16.222 27.866-13.619 10.266 2.8 15.023-9.834 28.863-9.882s21.666 11.006 33.485 7.26 23.394-1.984 32.426 3.203 18.235-2.817 35.206 4.663c11.184 4.931 19.124 12.736 22.366 19.919-.004 6.671-.018 13.208-.062 19.552z" fill="#8f97e3"/><path d="m90.153 48.773c-.084 6.684-.218 13.098-.428 19.169-4.3-5.236-10.904-10.29-19.271-13.846-17.601-7.48-27.146.524-36.513-4.663s-21.372-6.949-33.63-3.203-20.375-7.308-34.728-7.26-19.287 12.682-29.934 9.882c-10.795-2.013-19.452 2.057-24.929 8.008-.27-6.481-.486-12.904-.649-18.961 5.428-6.343 14.347-10.832 25.578-8.738 10.647 2.8 15.581-9.834 29.934-9.882s22.471 11.006 34.728 7.26c12.258-3.746 24.262-1.984 33.629 3.203s18.912-2.817 36.513 4.663c8.645 3.675 15.417 8.947 19.7 14.368z" fill="#8f97e3"/><path d="m89.199 79.548c-.424 7.3-1.01 13.916-1.822 19.654-3.246-8.598-12.931-12.736-18.649-15.121-10.733-4.477-25.634 2.088-35.568-2.864-10.098-5.034-22.772-4.824-33.525-2.38-11.839 2.69-23.369-6.316-35.398-6.6-10.187-.24-14.865 4.336-24.654 1.639-8.863-.967-22.224 8.344-26.806 17.84-.543-6.564-1.015-13.84-1.416-21.335 6.069-7.669 17.97-13.883 25.546-13.133 10.493 2.707 15.232-2.03 26.132-1.864 12.602.192 24.67 9.175 37.102 6.299 11.536-2.669 24.131-2.893 35.162 2.049 10.798 4.837 25.971-1.894 37.331 2.46 5.225 2.003 12.335 6.371 16.565 13.356z" fill="#8f97e3"/></symbol><clipPath id="d"><path d="m0 0h3600v1800h-3600z"/></clipPath><clipPath id="e"><path d="m2164.804 851.235c-36.67-50.005-120.294-38.215-156.618-82.073-14.377-16.074-68.399-18.925-86.982-39.602-20.894-23.246-72.753-41.365-97.857-39.987-25.16 1.381-52.824-33.752-77.813-35.181-25.042-1.432-30.189 16.285-50.298 18.582s-20.109 17.016-49.922 24.722c17.087 4.787 37.044 11.27 49.922 22.761 22.354 19.946 56.146 17.48 78.023 39.712 21.878 22.232 73.272 28.336 89.434 44.651 16.147 16.3 34.282 18.755 40.92 30.268 6.637 11.512 4.494 21.188-12.339 37.061-16.875 15.912-59.596 21.278-68.704 33.379-24.295 31.595-16.13 8.784-52.775 30.202-20.443 14.211-85.826-12.768-100-28.03-14.138-15.224-39.097-14.238-59.746-32.429s-59.477-28.934-68.429-38.574c-14.184-15.274-35.353-9.496-48.067-26.604-9.814-13.207-32.701-12.663-38.803-21.972-7.835 3.673-15.211 15.513-21.688 14.325-23.284-4.271-63.295 20.818-74.283 36.513-11.005 15.718-84.206 30.022-97.295 47.258-13.112 17.266 57.392 25.103 73.519 46.339 16.118 21.223 59.406 23.036 77.406 41.954 16.009 16.825 72.407 25.655 92.894 47.091 20.468 21.416 63.961 8.943 85.368 34.418 15.904 21.006 58.369 22.585 76.11 41.29 17.727 18.69 68.679 43.551 94.269 25.63 45.844-27.068 72.023-1.084 102.415-40.574 11.402-15.126 41.392-7.319 66.966-30.052 25.497-22.664 46.35-14.457 71.29-32.015 44.252-32.122 71.58-15.36 102.309-51.142 11.075-14.857 63.253-21.795 83.8-41.365 20.495-19.521 37.419-18.26 46.155-29.695 8.724-11.42-48.595-23.887-69.181-46.861z"/></clipPath><g clip-path="url(#d)"><path d="m4500.5 899.5-2700 1350-2700-1350 2700-1350z" fill="none"/></g><g clip-path="url(#d)"><use height="100" transform="matrix(1 0 0 -1 1400.5 -200.5002)" width="200" x="-100" xlink:href="#a" y="-50"/><use height="100" transform="matrix(1 0 0 -1 1600.5 -200.5002)" width="200" x="-100" xlink:href="#a" y="-50"/><use height="100" transform="matrix(1 0 0 -1 1400.5 -100.5003)" width="200" x="-100" xlink:href="#a" y="-50"/><use height="100" transform="matrix(1 0 0 -1 1600.5 -100.5003)" width="200" x="-100" xlink:href="#a" y="-50"/><use height="100" transform="matrix(1 0 0 -1 1300.5 -150.5003)" width="200" x="-100" xlink:href="#a" y="-50"/><use height="100" transform="matrix(1 0 0 -1 1500.5 -150.5003)" width="200" x="-100" xlink:href="#a" y="-50"/><use height="100" transform="matrix(1 0 0 -1 1500.5 -250.5003)" width="200" x="-100" xlink:href="#a" y="-50"/><use height="100" transform="matrix(1 0 0 -1 1500.5 -50.5003)" width="200" x="-100" xlink:href="#a" y="-50"/><use height="100" transform="matrix(1 0 0 -1 1700.5 -150.5003)" width="200" x="-100" xlink:href="#a" y="-50"/><use height="100" transform="matrix(1 0 0 -1 1700.5001 -350.5002)" width="200" x="-100" xlink:href="#a" y="-50"/><use height="100" transform="matrix(1 0 0 -1 1900.5001 -350.5002)" width="200" x="-100" xlink:href="#a" y="-50"/><use height="100" transform="matrix(1 0 0 -1 1700.5001 -250.5003)" width="200" x="-100" xlink:href="#a" y="-50"/><use height="100" transform="matrix(1 0 0 -1 1900.5001 -250.5003)" width="200" x="-100" xlink:href="#a" y="-50"/><use height="100" transform="matrix(1 0 0 -1 1600.5 -300.5002)" width="200" x="-100" xlink:href="#a" y="-50"/><use height="100" transform="matrix(1 0 0 -1 1800.5 -300.5002)" width="200" x="-100" xlink:href="#a" y="-50"/><use height="100" transform="matrix(1 0 0 -1 1800.5 -400.5002)" width="200" x="-100" xlink:href="#a" y="-50"/><use height="100" transform="matrix(1 0 0 -1 1800.5 -200.5002)" width="200" x="-100" xlink:href="#a" y="-50"/><use height="100" transform="matrix(1 0 0 -1 2000.5 -300.5002)" width="200" x="-100" xlink:href="#a" y="-50"/><use height="100" transform="matrix(1 0 0 -1 1100.5 -50.5003)" width="200" x="-100" xlink:href="#a" y="-50"/><use height="100" transform="matrix(1 0 0 -1 1300.5 -50.5003)" width="200" x="-100" xlink:href="#a" y="-50"/><use height="100" transform="matrix(1 0 0 -1 1100.5 49.4997)" width="200" x="-100" xlink:href="#a" y="-50"/><use height="100" transform="matrix(1 0 0 -1 1300.5 49.4997)" width="200" x="-100" xlink:href="#a" y="-50"/><use height="100" transform="matrix(1 0 0 -1 1000.4999 -.5003)" width="200" x="-100" xlink:href="#a" y="-50"/><use height="100" transform="matrix(1 0 0 -1 1200.4999 -.5003)" width="200" x="-100" xlink:href="#a" y="-50"/><use height="100" transform="matrix(1 0 0 -1 1200.4999 -100.5003)" width="200" x="-100" xlink:href="#a" y="-50"/><use height="100" transform="matrix(1 0 0 -1 1200.4999 99.4997)" width="200" x="-100" xlink:href="#a" y="-50"/><use height="100" transform="matrix(1 0 0 -1 1400.4999 -.5003)" width="200" x="-100" xlink:href="#a" y="-50"/><use height="100" transform="matrix(1 0 0 -1 1700.5 -50.5002)" width="200" x="-100" xlink:href="#a" y="-50"/><use height="100" transform="matrix(1 0 0 -1 1900.5 -50.5002)" width="200" x="-100" xlink:href="#a" y="-50"/><use height="100" transform="matrix(1 0 0 -1 1700.5 49.4997)" width="200" x="-100" xlink:href="#a" y="-50"/><use height="100" transform="matrix(1 0 0 -1 1900.5 49.4997)" width="200" x="-100" xlink:href="#a" y="-50"/><use height="100" transform="matrix(1 0 0 -1 1600.4999 -.5002)" width="200" x="-100" xlink:href="#a" y="-50"/><use height="100" transform="matrix(1 0 0 -1 1800.4999 -.5002)" width="200" x="-100" xlink:href="#a" y="-50"/><use height="100" transform="matrix(1 0 0 -1 1800.4999 -100.5002)" width="200" x="-100" xlink:href="#a" y="-50"/><use height="100" transform="matrix(1 0 0 -1 1800.4999 99.4998)" width="200" x="-100" xlink:href="#a" y="-50"/><use height="100" transform="matrix(1 0 0 -1 2000.4999 -.5002)" width="200" x="-100" xlink:href="#a" y="-50"/><use height="100" transform="matrix(1 0 0 -1 2000.5 -200.5002)" width="200" x="-100" xlink:href="#a" y="-50"/><use height="100" transform="matrix(1 0 0 -1 2200.5 -200.5002)" width="200" x="-100" xlink:href="#a" y="-50"/><use height="100" transform="matrix(1 0 0 -1 2000.5 -100.5002)" width="200" x="-100" xlink:href="#a" y="-50"/><use height="100" transform="matrix(1 0 0 -1 2200.5 -100.5002)" width="200" x="-100" xlink:href="#a" y="-50"/><use height="100" transform="matrix(1 0 0 -1 1900.5 -150.5002)" width="200" x="-100" xlink:href="#a" y="-50"/><use height="100" transform="matrix(1 0 0 -1 2100.5 -150.5002)" width="200" x="-100" xlink:href="#a" y="-50"/><use height="100" transform="matrix(1 0 0 -1 2100.5 -250.5002)" width="200" x="-100" xlink:href="#a" y="-50"/><use height="100" transform="matrix(1 0 0 -1 2100.5 -50.5002)" width="200" x="-100" xlink:href="#a" y="-50"/><use height="100" transform="matrix(1 0 0 -1 2300.5 -150.5002)" width="200" x="-100" xlink:href="#a" y="-50"/><use height="100" transform="matrix(1 0 0 -1 2000.4999 99.4998)" width="200" x="-100" xlink:href="#a" y="-50"/><use height="100" transform="matrix(1 0 0 -1 2200.5 99.4998)" width="200" x="-100" xlink:href="#a" y="-50"/><use height="100" transform="matrix(1 0 0 -1 2000.4999 199.4998)" width="200" x="-100" xlink:href="#a" y="-50"/><use height="100" transform="matrix(1 0 0 -1 2200.5 199.4998)" width="200" x="-100" xlink:href="#a" y="-50"/><use height="100" transform="matrix(1 0 0 -1 1900.4999 149.4998)" width="200" x="-100" xlink:href="#a" y="-50"/><use height="100" transform="matrix(1 0 0 -1 2100.4998 149.4998)" width="200" x="-100" xlink:href="#a" y="-50"/><use height="100" transform="matrix(1 0 0 -1 2100.4998 49.4998)" width="200" x="-100" xlink:href="#a" y="-50"/><use height="100" transform="matrix(1 0 0 -1 2100.4998 249.4998)" width="200" x="-100" xlink:href="#a" y="-50"/><use height="100" transform="matrix(1 0 0 -1 2300.4998 149.4998)" width="200" x="-100" xlink:href="#a" y="-50"/><use height="100" transform="matrix(1 0 0 -1 2300.5 -50.5001)" width="200" x="-100" xlink:href="#a" y="-50"/><use height="100" transform="matrix(1 0 0 -1 2500.5 -50.5001)" width="200" x="-100" xlink:href="#a" y="-50"/><use height="100" transform="matrix(1 0 0 -1 2300.5 49.4998)" width="200" x="-100" xlink:href="#a" y="-50"/><use height="100" transform="matrix(1 0 0 -1 2500.5 49.4998)" width="200" x="-100" xlink:href="#a" y="-50"/><use height="100" transform="matrix(1 0 0 -1 2200.5 -.5002)" width="200" x="-100" xlink:href="#a" y="-50"/><use height="100" transform="matrix(1 0 0 -1 2400.5 -.5002)" width="200" x="-100" xlink:href="#a" y="-50"/><use height="100" transform="matrix(1 0 0 -1 2400.5 -100.5002)" width="200" x="-100" xlink:href="#a" y="-50"/><use height="100" transform="matrix(1 0 0 -1 2400.5 99.4998)" width="200" x="-100" xlink:href="#a" y="-50"/><use height="100" transform="matrix(1 0 0 -1 2600.5 -.5002)" width="200" x="-100" xlink:href="#a" y="-50"/><use height="100" transform="matrix(1 0 0 -1 1400.4999 99.4998)" width="200" x="-100" xlink:href="#a" y="-50"/><use height="100" transform="matrix(1 0 0 -1 1600.4999 99.4998)" width="200" x="-100" xlink:href="#a" y="-50"/><use height="100" transform="matrix(1 0 0 -1 1400.4999 199.4997)" width="200" x="-100" xlink:href="#a" y="-50"/><use height="100" transform="matrix(1 0 0 -1 1600.4999 199.4997)" width="200" x="-100" xlink:href="#a" y="-50"/><use height="100" transform="matrix(1 0 0 -1 1300.4999 149.4997)" width="200" x="-100" xlink:href="#a" y="-50"/><use height="100" transform="matrix(1 0 0 -1 1500.4999 149.4997)" width="200" x="-100" xlink:href="#a" y="-50"/><use height="100" transform="matrix(1 0 0 -1 1500.4999 49.4997)" width="200" x="-100" xlink:href="#a" y="-50"/><use height="100" transform="matrix(1 0 0 -1 1500.4999 249.4997)" width="200" x="-100" xlink:href="#a" y="-50"/><use height="100" transform="matrix(1 0 0 -1 1700.4999 149.4997)" width="200" x="-100" xlink:href="#a" y="-50"/><use height="100" transform="matrix(1 0 0 -1 1700.4999 249.4998)" width="200" x="-100" xlink:href="#a" y="-50"/><use height="100" transform="matrix(1 0 0 -1 1900.4999 249.4998)" width="200" x="-100" xlink:href="#a" y="-50"/><use height="100" transform="matrix(1 0 0 -1 1700.4999 349.4997)" width="200" x="-100" xlink:href="#a" y="-50"/><use height="100" transform="matrix(1 0 0 -1 1900.4999 349.4997)" width="200" x="-100" xlink:href="#a" y="-50"/><use height="100" transform="matrix(1 0 0 -1 1600.4998 299.4998)" width="200" x="-100" xlink:href="#a" y="-50"/><use height="100" transform="matrix(1 0 0 -1 1800.4998 299.4998)" width="200" x="-100" xlink:href="#a" y="-50"/><use height="100" transform="matrix(1 0 0 -1 1800.4998 199.4998)" width="200" x="-100" xlink:href="#a" y="-50"/><use height="100" transform="matrix(1 0 0 -1 1800.4998 399.4998)" width="200" x="-100" xlink:href="#a" y="-50"/><use height="100" transform="matrix(1 0 0 -1 2000.4998 299.4998)" width="200" x="-100" xlink:href="#a" y="-50"/><use height="100" transform="matrix(1 0 0 -1 2300.4998 249.4999)" width="200" x="-100" xlink:href="#a" y="-50"/><use height="100" transform="matrix(1 0 0 -1 2500.4998 249.4999)" width="200" x="-100" xlink:href="#a" y="-50"/><use height="100" transform="matrix(1 0 0 -1 2300.4998 349.4998)" width="200" x="-100" xlink:href="#a" y="-50"/><use height="100" transform="matrix(1 0 0 -1 2500.4998 349.4998)" width="200" x="-100" xlink:href="#a" y="-50"/><use height="100" transform="matrix(1 0 0 -1 2200.4998 299.4998)" width="200" x="-100" xlink:href="#a" y="-50"/><use height="100" transform="matrix(1 0 0 -1 2400.4998 299.4998)" width="200" x="-100" xlink:href="#a" y="-50"/><use height="100" transform="matrix(1 0 0 -1 2400.4998 199.4998)" width="200" x="-100" xlink:href="#a" y="-50"/><use height="100" transform="matrix(1 0 0 -1 2400.4998 399.4998)" width="200" x="-100" xlink:href="#a" y="-50"/><use height="100" transform="matrix(1 0 0 -1 2600.4998 299.4998)" width="200" x="-100" xlink:href="#a" y="-50"/><use height="100" transform="matrix(1 0 0 -1 2600.5 99.4999)" width="200" x="-100" xlink:href="#a" y="-50"/><use height="100" transform="matrix(1 0 0 -1 2800.5 99.4999)" width="200" x="-100" xlink:href="#a" y="-50"/><use height="100" transform="matrix(1 0 0 -1 2600.5 199.4998)" width="200" x="-100" xlink:href="#a" y="-50"/><use height="100" transform="matrix(1 0 0 -1 2800.5 199.4998)" width="200" x="-100" xlink:href="#a" y="-50"/><use height="100" transform="matrix(1 0 0 -1 2500.4998 149.4999)" width="200" x="-100" xlink:href="#a" y="-50"/><use height="100" transform="matrix(1 0 0 -1 2700.4998 149.4999)" width="200" x="-100" xlink:href="#a" y="-50"/><use height="100" transform="matrix(1 0 0 -1 2700.4998 49.4999)" width="200" x="-100" xlink:href="#a" y="-50"/><use height="100" transform="matrix(1 0 0 -1 2700.4998 249.4999)" width="200" x="-100" xlink:href="#a" y="-50"/><use height="100" transform="matrix(1 0 0 -1 2900.4998 149.4999)" width="200" x="-100" xlink:href="#a" y="-50"/><use height="100" transform="matrix(1 0 0 -1 2600.4998 399.4999)" width="200" x="-100" xlink:href="#a" y="-50"/><use height="100" transform="matrix(1 0 0 -1 2800.4998 399.4999)" width="200" x="-100" xlink:href="#a" y="-50"/><use height="100" transform="matrix(1 0 0 -1 2600.4998 499.4998)" width="200" x="-100" xlink:href="#a" y="-50"/><use height="100" transform="matrix(1 0 0 -1 2800.4998 499.4998)" width="200" x="-100" xlink:href="#a" y="-50"/><use height="100" transform="matrix(1 0 0 -1 2500.4998 449.4998)" width="200" x="-100" xlink:href="#a" y="-50"/><use height="100" transform="matrix(1 0 0 -1 2700.4998 449.4998)" width="200" x="-100" xlink:href="#a" y="-50"/><use height="100" transform="matrix(1 0 0 -1 2700.4998 349.4998)" width="200" x="-100" xlink:href="#a" y="-50"/><use height="100" transform="matrix(1 0 0 -1 2700.4998 549.4999)" width="200" x="-100" xlink:href="#a" y="-50"/><use height="100" transform="matrix(1 0 0 -1 2900.4998 449.4998)" width="200" x="-100" xlink:href="#a" y="-50"/><use height="100" transform="matrix(1 0 0 -1 2900.4998 249.4999)" width="200" x="-100" xlink:href="#a" y="-50"/><use height="100" transform="matrix(1 0 0 -1 3100.4998 249.4999)" width="200" x="-100" xlink:href="#a" y="-50"/><use height="100" transform="matrix(1 0 0 -1 2900.4998 349.4998)" width="200" x="-100" xlink:href="#a" y="-50"/><use height="100" transform="matrix(1 0 0 -1 3100.4998 349.4998)" width="200" x="-100" xlink:href="#a" y="-50"/><use height="100" transform="matrix(1 0 0 -1 2800.4998 299.4999)" width="200" x="-100" xlink:href="#a" y="-50"/><use height="100" transform="matrix(1 0 0 -1 3000.4998 299.4999)" width="200" x="-100" xlink:href="#a" y="-50"/><use height="100" transform="matrix(1 0 0 -1 3000.4998 199.4999)" width="200" x="-100" xlink:href="#a" y="-50"/><use height="100" transform="matrix(1 0 0 -1 3000.4998 399.4999)" width="200" x="-100" xlink:href="#a" y="-50"/><use height="100" transform="matrix(1 0 0 -1 3200.4998 299.4999)" width="200" x="-100" xlink:href="#a" y="-50"/><use height="100" transform="matrix(1 0 0 -1 2000.4998 399.4998)" width="200" x="-100" xlink:href="#a" y="-50"/><use height="100" transform="matrix(1 0 0 -1 2200.4998 399.4998)" width="200" x="-100" xlink:href="#a" y="-50"/><use height="100" transform="matrix(1 0 0 -1 2000.4998 499.4998)" width="200" x="-100" xlink:href="#a" y="-50"/><use height="100" transform="matrix(1 0 0 -1 2200.4998 499.4998)" width="200" x="-100" xlink:href="#a" y="-50"/><use height="100" transform="matrix(1 0 0 -1 1900.4998 449.4998)" width="200" x="-100" xlink:href="#a" y="-50"/><use height="100" transform="matrix(1 0 0 -1 2100.4998 449.4998)" width="200" x="-100" xlink:href="#a" y="-50"/><use height="100" transform="matrix(1 0 0 -1 2100.4998 349.4998)" width="200" x="-100" xlink:href="#a" y="-50"/><use height="100" transform="matrix(1 0 0 -1 2100.4998 549.4998)" width="200" x="-100" xlink:href="#a" y="-50"/><use height="100" transform="matrix(1 0 0 -1 2300.4998 449.4998)" width="200" x="-100" xlink:href="#a" y="-50"/><use height="100" transform="matrix(1 0 0 -1 2300.4998 549.4999)" width="200" x="-100" xlink:href="#a" y="-50"/><use height="100" transform="matrix(1 0 0 -1 2500.4998 549.4999)" width="200" x="-100" xlink:href="#a" y="-50"/><use height="100" transform="matrix(1 0 0 -1 2300.4998 649.4998)" width="200" x="-100" xlink:href="#a" y="-50"/><use height="100" transform="matrix(1 0 0 -1 2500.4998 649.4998)" width="200" x="-100" xlink:href="#a" y="-50"/><use height="100" transform="matrix(1 0 0 -1 2200.4998 599.4998)" width="200" x="-100" xlink:href="#a" y="-50"/><use height="100" transform="matrix(1 0 0 -1 2400.4998 599.4998)" width="200" x="-100" xlink:href="#a" y="-50"/><use height="100" transform="matrix(1 0 0 -1 2400.4998 499.4998)" width="200" x="-100" xlink:href="#a" y="-50"/><use height="100" transform="matrix(1 0 0 -1 2400.4998 699.4998)" width="200" x="-100" xlink:href="#a" y="-50"/><use height="100" transform="matrix(1 0 0 -1 2600.4998 599.4998)" width="200" x="-100" xlink:href="#a" y="-50"/><use height="100" transform="matrix(1 0 0 -1 2900.4998 549.4999)" width="200" x="-100" xlink:href="#a" y="-50"/><use height="100" transform="matrix(1 0 0 -1 3100.4998 549.4999)" width="200" x="-100" xlink:href="#a" y="-50"/><use height="100" transform="matrix(1 0 0 -1 3100.4995 649.4999)" width="200" x="-100" xlink:href="#a" y="-50"/><use height="100" transform="matrix(1 0 0 -1 2900.4998 649.4999)" width="200" x="-100" xlink:href="#a" y="-50"/><use height="100" transform="matrix(1 0 0 -1 2800.4998 599.4999)" width="200" x="-100" xlink:href="#a" y="-50"/><use height="100" transform="matrix(1 0 0 -1 3000.4998 599.4999)" width="200" x="-100" xlink:href="#a" y="-50"/><use height="100" transform="matrix(1 0 0 -1 3000.4998 699.4999)" width="200" x="-100" xlink:href="#a" y="-50"/><use height="100" transform="matrix(1 0 0 -1 3000.4998 499.4999)" width="200" x="-100" xlink:href="#a" y="-50"/><use height="100" transform="matrix(1 0 0 -1 3200.4998 399.5)" width="200" x="-100" xlink:href="#a" y="-50"/><use height="100" transform="matrix(1 0 0 -1 3400.4998 399.5)" width="200" x="-100" xlink:href="#a" y="-50"/><use height="100" transform="matrix(1 0 0 -1 3200.4998 499.4999)" width="200" x="-100" xlink:href="#a" y="-50"/><use height="100" transform="matrix(1 0 0 -1 3400.4998 499.4999)" width="200" x="-100" xlink:href="#a" y="-50"/><use height="100" transform="matrix(1 0 0 -1 3100.4998 449.4999)" width="200" x="-100" xlink:href="#a" y="-50"/><use height="100" transform="matrix(1 0 0 -1 3300.4998 449.4999)" width="200" x="-100" xlink:href="#a" y="-50"/><use height="100" transform="matrix(1 0 0 -1 3200.4998 599.4999)" width="200" x="-100" xlink:href="#a" y="-50"/><use height="100" transform="matrix(1 0 0 -1 3300.4998 549.4999)" width="200" x="-100" xlink:href="#a" y="-50"/><use height="100" transform="matrix(1 0 0 -1 3300.4998 349.4999)" width="200" x="-100" xlink:href="#a" y="-50"/><use height="100" transform="matrix(1 0 0 -1 3500.4998 449.4999)" width="200" x="-100" xlink:href="#a" y="-50"/><use height="100" transform="matrix(1 0 0 -1 2600.4998 699.4999)" width="200" x="-100" xlink:href="#a" y="-50"/><use height="100" transform="matrix(1 0 0 -1 2800.4998 699.4999)" width="200" x="-100" xlink:href="#a" y="-50"/><use height="100" transform="matrix(1 0 0 -1 2600.4998 799.4998)" width="200" x="-100" xlink:href="#a" y="-50"/><use height="100" transform="matrix(1 0 0 -1 2800.4998 799.4998)" width="200" x="-100" xlink:href="#a" y="-50"/><use height="100" transform="matrix(1 0 0 -1 2500.4995 749.4999)" width="200" x="-100" xlink:href="#a" y="-50"/><use height="100" transform="matrix(1 0 0 -1 2700.4995 749.4999)" width="200" x="-100" xlink:href="#a" y="-50"/><use height="100" transform="matrix(1 0 0 -1 2700.4995 649.4999)" width="200" x="-100" xlink:href="#a" y="-50"/><use height="100" transform="matrix(1 0 0 -1 2700.4995 849.4999)" width="200" x="-100" xlink:href="#a" y="-50"/><use height="100" transform="matrix(1 0 0 -1 2900.4995 749.4999)" width="200" x="-100" xlink:href="#a" y="-50"/><use height="100" transform="matrix(1 0 0 -1 800.5003 99.4999)" width="200" x="-100" xlink:href="#a" y="-50"/><use height="100" transform="matrix(1 0 0 -1 1000.5003 99.4999)" width="200" x="-100" xlink:href="#a" y="-50"/><use height="100" transform="matrix(1 0 0 -1 800.5003 199.4998)" width="200" x="-100" xlink:href="#a" y="-50"/><use height="100" transform="matrix(1 0 0 -1 1000.5003 199.4998)" width="200" x="-100" xlink:href="#a" y="-50"/><use height="100" transform="matrix(1 0 0 -1 700.5002 149.4999)" width="200" x="-100" xlink:href="#a" y="-50"/><use height="100" transform="matrix(1 0 0 -1 900.5002 149.4999)" width="200" x="-100" xlink:href="#a" y="-50"/><use height="100" transform="matrix(1 0 0 -1 900.5002 49.4999)" width="200" x="-100" xlink:href="#a" y="-50"/><use height="100" transform="matrix(1 0 0 -1 900.5002 249.4999)" width="200" x="-100" xlink:href="#a" y="-50"/><use height="100" transform="matrix(1 0 0 -1 1100.5002 149.4999)" width="200" x="-100" xlink:href="#a" y="-50"/><use height="100" transform="matrix(1 0 0 -1 200.5002 399.4998)" width="200" x="-100" xlink:href="#a" y="-50"/><use height="100" transform="matrix(1 0 0 -1 400.5002 399.4998)" width="200" x="-100" xlink:href="#a" y="-50"/><use height="100" transform="matrix(1 0 0 -1 200.5002 499.4998)" width="200" x="-100" xlink:href="#a" y="-50"/><use height="100" transform="matrix(1 0 0 -1 400.5002 499.4998)" width="200" x="-100" xlink:href="#a" y="-50"/><use height="100" transform="matrix(1 0 0 -1 100.5001 449.4998)" width="200" x="-100" xlink:href="#a" y="-50"/><use height="100" transform="matrix(1 0 0 -1 300.5001 449.4998)" width="200" x="-100" xlink:href="#a" y="-50"/><use height="100" transform="matrix(1 0 0 -1 300.5001 349.4998)" width="200" x="-100" xlink:href="#a" y="-50"/><use height="100" transform="matrix(1 0 0 -1 300.5001 549.4998)" width="200" x="-100" xlink:href="#a" y="-50"/><use height="100" transform="matrix(1 0 0 -1 500.5001 449.4998)" width="200" x="-100" xlink:href="#a" y="-50"/><use height="100" transform="matrix(1 0 0 -1 500.5002 249.4999)" width="200" x="-100" xlink:href="#a" y="-50"/><use height="100" transform="matrix(1 0 0 -1 700.5002 249.4999)" width="200" x="-100" xlink:href="#a" y="-50"/><use height="100" transform="matrix(1 0 0 -1 500.5002 349.4998)" width="200" x="-100" xlink:href="#a" y="-50"/><use height="100" transform="matrix(1 0 0 -1 700.5002 349.4998)" width="200" x="-100" xlink:href="#a" y="-50"/><use height="100" transform="matrix(1 0 0 -1 400.5002 299.4998)" width="200" x="-100" xlink:href="#a" y="-50"/><use height="100" transform="matrix(1 0 0 -1 600.5002 299.4998)" width="200" x="-100" xlink:href="#a" y="-50"/><use height="100" transform="matrix(1 0 0 -1 600.5002 199.4998)" width="200" x="-100" xlink:href="#a" y="-50"/><use height="100" transform="matrix(1 0 0 -1 600.5002 399.4998)" width="200" x="-100" xlink:href="#a" y="-50"/><use height="100" transform="matrix(1 0 0 -1 800.5002 299.4998)" width="200" x="-100" xlink:href="#a" y="-50"/><use height="100" transform="matrix(1 0 0 -1 1100.5002 249.4999)" width="200" x="-100" xlink:href="#a" y="-50"/><use height="100" transform="matrix(1 0 0 -1 1300.5002 249.4999)" width="200" x="-100" xlink:href="#a" y="-50"/><use height="100" transform="matrix(1 0 0 -1 1300.5001 349.4999)" width="200" x="-100" xlink:href="#a" y="-50"/><use height="100" transform="matrix(1 0 0 -1 1100.5002 349.4998)" width="200" x="-100" xlink:href="#a" y="-50"/><use height="100" transform="matrix(1 0 0 -1 1000.5002 299.4999)" width="200" x="-100" xlink:href="#a" y="-50"/><use height="100" transform="matrix(1 0 0 -1 1200.5001 299.4999)" width="200" x="-100" xlink:href="#a" y="-50"/><use height="100" transform="matrix(1 0 0 -1 1200.5001 199.4999)" width="200" x="-100" xlink:href="#a" y="-50"/><use height="100" transform="matrix(1 0 0 -1 1200.5001 399.4999)" width="200" x="-100" xlink:href="#a" y="-50"/><use height="100" transform="matrix(1 0 0 -1 1400.5001 299.4999)" width="200" x="-100" xlink:href="#a" y="-50"/><use height="100" transform="matrix(1 0 0 -1 1400.5001 399.5)" width="200" x="-100" xlink:href="#a" y="-50"/><use height="100" transform="matrix(1 0 0 -1 1600.5001 399.5)" width="200" x="-100" xlink:href="#a" y="-50"/><use height="100" transform="matrix(1 0 0 -1 1400.5001 499.4999)" width="200" x="-100" xlink:href="#a" y="-50"/><use height="100" transform="matrix(1 0 0 -1 1600.5001 499.4999)" width="200" x="-100" xlink:href="#a" y="-50"/><use height="100" transform="matrix(1 0 0 -1 1300.5001 449.4999)" width="200" x="-100" xlink:href="#a" y="-50"/><use height="100" transform="matrix(1 0 0 -1 1500.5001 449.4999)" width="200" x="-100" xlink:href="#a" y="-50"/><use height="100" transform="matrix(1 0 0 -1 1500.5001 349.4999)" width="200" x="-100" xlink:href="#a" y="-50"/><use height="100" transform="matrix(1 0 0 -1 1500.5001 549.4999)" width="200" x="-100" xlink:href="#a" y="-50"/><use height="100" transform="matrix(1 0 0 -1 1700.5001 449.4999)" width="200" x="-100" xlink:href="#a" y="-50"/><use height="100" transform="matrix(1 0 0 -1 500.5001 549.4999)" width="200" x="-100" xlink:href="#a" y="-50"/><use height="100" transform="matrix(1 0 0 -1 700.5001 549.4999)" width="200" x="-100" xlink:href="#a" y="-50"/><use height="100" transform="matrix(1 0 0 -1 500.5001 649.4998)" width="200" x="-100" xlink:href="#a" y="-50"/><use height="100" transform="matrix(1 0 0 -1 700.5001 649.4998)" width="200" x="-100" xlink:href="#a" y="-50"/><use height="100" transform="matrix(1 0 0 -1 400.5 599.4998)" width="200" x="-100" xlink:href="#a" y="-50"/><use height="100" transform="matrix(1 0 0 -1 600.5001 599.4998)" width="200" x="-100" xlink:href="#a" y="-50"/><use height="100" transform="matrix(1 0 0 -1 600.5001 499.4998)" width="200" x="-100" xlink:href="#a" y="-50"/><use height="100" transform="matrix(1 0 0 -1 600.5001 699.4998)" width="200" x="-100" xlink:href="#a" y="-50"/><use height="100" transform="matrix(1 0 0 -1 800.5001 599.4998)" width="200" x="-100" xlink:href="#a" y="-50"/><use height="100" transform="matrix(1 0 0 -1 800.5002 399.4999)" width="200" x="-100" xlink:href="#a" y="-50"/><use height="100" transform="matrix(1 0 0 -1 1000.5002 399.4999)" width="200" x="-100" xlink:href="#a" y="-50"/><use height="100" transform="matrix(1 0 0 -1 800.5002 499.4998)" width="200" x="-100" xlink:href="#a" y="-50"/><use height="100" transform="matrix(1 0 0 -1 1000.5002 499.4998)" width="200" x="-100" xlink:href="#a" y="-50"/><use height="100" transform="matrix(1 0 0 -1 700.5001 449.4998)" width="200" x="-100" xlink:href="#a" y="-50"/><use height="100" transform="matrix(1 0 0 -1 900.5001 449.4998)" width="200" x="-100" xlink:href="#a" y="-50"/><use height="100" transform="matrix(1 0 0 -1 900.5001 349.4998)" width="200" x="-100" xlink:href="#a" y="-50"/><use height="100" transform="matrix(1 0 0 -1 900.5001 549.4999)" width="200" x="-100" xlink:href="#a" y="-50"/><use height="100" transform="matrix(1 0 0 -1 1100.5001 449.4998)" width="200" x="-100" xlink:href="#a" y="-50"/><use height="100" transform="matrix(1 0 0 -1 800.5001 699.4999)" width="200" x="-100" xlink:href="#a" y="-50"/><use height="100" transform="matrix(1 0 0 -1 1000.5001 699.4999)" width="200" x="-100" xlink:href="#a" y="-50"/><use height="100" transform="matrix(1 0 0 -1 800.5001 799.4998)" width="200" x="-100" xlink:href="#a" y="-50"/><use height="100" transform="matrix(1 0 0 -1 1000.5001 799.4998)" width="200" x="-100" xlink:href="#a" y="-50"/><use height="100" transform="matrix(1 0 0 -1 700.5 749.4999)" width="200" x="-100" xlink:href="#a" y="-50"/><use height="100" transform="matrix(1 0 0 -1 900.5 749.4999)" width="200" x="-100" xlink:href="#a" y="-50"/><use height="100" transform="matrix(1 0 0 -1 900.5 649.4999)" width="200" x="-100" xlink:href="#a" y="-50"/><use height="100" transform="matrix(1 0 0 -1 900.5 849.4999)" width="200" x="-100" xlink:href="#a" y="-50"/><use height="100" transform="matrix(1 0 0 -1 1100.5 749.4999)" width="200" x="-100" xlink:href="#a" y="-50"/><use height="100" transform="matrix(1 0 0 -1 1100.5001 549.4999)" width="200" x="-100" xlink:href="#a" y="-50"/><use height="100" transform="matrix(1 0 0 -1 1300.5001 549.4999)" width="200" x="-100" xlink:href="#a" y="-50"/><use height="100" transform="matrix(1 0 0 -1 1100.5001 649.4999)" width="200" x="-100" xlink:href="#a" y="-50"/><use height="100" transform="matrix(1 0 0 -1 1300.5001 649.4999)" width="200" x="-100" xlink:href="#a" y="-50"/><use height="100" transform="matrix(1 0 0 -1 1000.5001 599.4999)" width="200" x="-100" xlink:href="#a" y="-50"/><use height="100" transform="matrix(1 0 0 -1 1200.5 599.4999)" width="200" x="-100" xlink:href="#a" y="-50"/><use height="100" transform="matrix(1 0 0 -1 1200.5 499.4999)" width="200" x="-100" xlink:href="#a" y="-50"/><use height="100" transform="matrix(1 0 0 -1 1200.5 699.4999)" width="200" x="-100" xlink:href="#a" y="-50"/><use height="100" transform="matrix(1 0 0 -1 1400.5 599.4999)" width="200" x="-100" xlink:href="#a" y="-50"/><use height="100" transform="matrix(1 0 0 -1 -399.5 699.4998)" width="200" x="-100" xlink:href="#a" y="-50"/><use height="100" transform="matrix(1 0 0 -1 -199.5 699.4998)" width="200" x="-100" xlink:href="#a" y="-50"/><use height="100" transform="matrix(1 0 0 -1 -399.5 799.4997)" width="200" x="-100" xlink:href="#a" y="-50"/><use height="100" transform="matrix(1 0 0 -1 -199.5 799.4997)" width="200" x="-100" xlink:href="#a" y="-50"/><use height="100" transform="matrix(1 0 0 -1 -499.5 749.4998)" width="200" x="-100" xlink:href="#a" y="-50"/><use height="100" transform="matrix(1 0 0 -1 -299.5 749.4998)" width="200" x="-100" xlink:href="#a" y="-50"/><use height="100" transform="matrix(1 0 0 -1 -299.5 649.4998)" width="200" x="-100" xlink:href="#a" y="-50"/><use height="100" transform="matrix(1 0 0 -1 -299.5 849.4998)" width="200" x="-100" xlink:href="#a" y="-50"/><use height="100" transform="matrix(1 0 0 -1 -99.5 749.4998)" width="200" x="-100" xlink:href="#a" y="-50"/><use height="100" transform="matrix(1 0 0 -1 -99.4999 549.4998)" width="200" x="-100" xlink:href="#a" y="-50"/><use height="100" transform="matrix(1 0 0 -1 100.5001 549.4998)" width="200" x="-100" xlink:href="#a" y="-50"/><use height="100" transform="matrix(1 0 0 -1 -99.4999 649.4998)" width="200" x="-100" xlink:href="#a" y="-50"/><use height="100" transform="matrix(1 0 0 -1 100.5001 649.4998)" width="200" x="-100" xlink:href="#a" y="-50"/><use height="100" transform="matrix(1 0 0 -1 -199.5 599.4998)" width="200" x="-100" xlink:href="#a" y="-50"/><use height="100" transform="matrix(1 0 0 -1 .5 599.4998)" width="200" x="-100" xlink:href="#a" y="-50"/><use height="100" transform="matrix(1 0 0 -1 .5 499.4998)" width="200" x="-100" xlink:href="#a" y="-50"/><use height="100" transform="matrix(1 0 0 -1 .5 699.4998)" width="200" x="-100" xlink:href="#a" y="-50"/><use height="100" transform="matrix(1 0 0 -1 200.5 599.4998)" width="200" x="-100" xlink:href="#a" y="-50"/><use height="100" transform="matrix(1 0 0 -1 -699.5 849.4998)" width="200" x="-100" xlink:href="#a" y="-50"/><use height="100" transform="matrix(1 0 0 -1 -499.5 849.4998)" width="200" x="-100" xlink:href="#a" y="-50"/><use height="100" transform="matrix(1 0 0 -1 -699.5 949.4997)" width="200" x="-100" xlink:href="#a" y="-50"/><use height="100" transform="matrix(1 0 0 -1 -499.5 949.4997)" width="200" x="-100" xlink:href="#a" y="-50"/><use height="100" transform="matrix(1 0 0 -1 -799.5001 899.4997)" width="200" x="-100" xlink:href="#a" y="-50"/><use height="100" transform="matrix(1 0 0 -1 -599.5001 899.4997)" width="200" x="-100" xlink:href="#a" y="-50"/><use height="100" transform="matrix(1 0 0 -1 -599.5001 799.4997)" width="200" x="-100" xlink:href="#a" y="-50"/><use height="100" transform="matrix(1 0 0 -1 -599.5001 999.4997)" width="200" x="-100" xlink:href="#a" y="-50"/><use height="100" transform="matrix(1 0 0 -1 -399.5001 899.4997)" width="200" x="-100" xlink:href="#a" y="-50"/><use height="100" transform="matrix(1 0 0 -1 -99.5 849.4998)" width="200" x="-100" xlink:href="#a" y="-50"/><use height="100" transform="matrix(1 0 0 -1 100.5 849.4998)" width="200" x="-100" xlink:href="#a" y="-50"/><use height="100" transform="matrix(1 0 0 -1 -99.5 949.4998)" width="200" x="-100" xlink:href="#a" y="-50"/><use height="100" transform="matrix(1 0 0 -1 100.5 949.4998)" width="200" x="-100" xlink:href="#a" y="-50"/><use height="100" transform="matrix(1 0 0 -1 -199.5001 899.4998)" width="200" x="-100" xlink:href="#a" y="-50"/><use height="100" transform="matrix(1 0 0 -1 .4999 899.4998)" width="200" x="-100" xlink:href="#a" y="-50"/><use height="100" transform="matrix(1 0 0 -1 .4999 799.4998)" width="200" x="-100" xlink:href="#a" y="-50"/><use height="100" transform="matrix(1 0 0 -1 .4999 999.4998)" width="200" x="-100" xlink:href="#a" y="-50"/><use height="100" transform="matrix(1 0 0 -1 200.4999 899.4998)" width="200" x="-100" xlink:href="#a" y="-50"/><use height="100" transform="matrix(1 0 0 -1 200.5 699.4998)" width="200" x="-100" xlink:href="#a" y="-50"/><use height="100" transform="matrix(1 0 0 -1 400.5 699.4998)" width="200" x="-100" xlink:href="#a" y="-50"/><use height="100" transform="matrix(1 0 0 -1 200.5 799.4998)" width="200" x="-100" xlink:href="#a" y="-50"/><use height="100" transform="matrix(1 0 0 -1 400.5 799.4998)" width="200" x="-100" xlink:href="#a" y="-50"/><use height="100" transform="matrix(1 0 0 -1 100.5 749.4998)" width="200" x="-100" xlink:href="#a" y="-50"/><use height="100" transform="matrix(1 0 0 -1 300.5 749.4998)" width="200" x="-100" xlink:href="#a" y="-50"/><use height="100" transform="matrix(1 0 0 -1 300.5 649.4998)" width="200" x="-100" xlink:href="#a" y="-50"/><use height="100" transform="matrix(1 0 0 -1 300.5 849.4998)" width="200" x="-100" xlink:href="#a" y="-50"/><use height="100" transform="matrix(1 0 0 -1 500.5 749.4998)" width="200" x="-100" xlink:href="#a" y="-50"/><use height="100" transform="matrix(1 0 0 -1 200.4999 999.4998)" width="200" x="-100" xlink:href="#a" y="-50"/><use height="100" transform="matrix(1 0 0 -1 400.4999 999.4998)" width="200" x="-100" xlink:href="#a" y="-50"/><use height="100" transform="matrix(1 0 0 -1 200.4999 1099.4998)" width="200" x="-100" xlink:href="#a" y="-50"/><use height="100" transform="matrix(1 0 0 -1 400.4999 1099.4998)" width="200" x="-100" xlink:href="#a" y="-50"/><use height="100" transform="matrix(1 0 0 -1 100.4998 1049.4998)" width="200" x="-100" xlink:href="#a" y="-50"/><use height="100" transform="matrix(1 0 0 -1 300.4998 1049.4998)" width="200" x="-100" xlink:href="#a" y="-50"/><use height="100" transform="matrix(1 0 0 -1 300.4998 949.4998)" width="200" x="-100" xlink:href="#a" y="-50"/><use height="100" transform="matrix(1 0 0 -1 300.4998 1149.4998)" width="200" x="-100" xlink:href="#a" y="-50"/><use height="100" transform="matrix(1 0 0 -1 500.4998 1049.4998)" width="200" x="-100" xlink:href="#a" y="-50"/><use height="100" transform="matrix(1 0 0 -1 500.5 849.4999)" width="200" x="-100" xlink:href="#a" y="-50"/><use height="100" transform="matrix(1 0 0 -1 700.5 849.4999)" width="200" x="-100" xlink:href="#a" y="-50"/><use height="100" transform="matrix(1 0 0 -1 500.5 949.4998)" width="200" x="-100" xlink:href="#a" y="-50"/><use height="100" transform="matrix(1 0 0 -1 700.5 949.4998)" width="200" x="-100" xlink:href="#a" y="-50"/><use height="100" transform="matrix(1 0 0 -1 400.4999 899.4998)" width="200" x="-100" xlink:href="#a" y="-50"/><use height="100" transform="matrix(1 0 0 -1 600.4999 899.4998)" width="200" x="-100" xlink:href="#a" y="-50"/><use height="100" transform="matrix(1 0 0 -1 600.4999 799.4998)" width="200" x="-100" xlink:href="#a" y="-50"/><use height="100" transform="matrix(1 0 0 -1 600.4999 999.4998)" width="200" x="-100" xlink:href="#a" y="-50"/><use height="100" transform="matrix(1 0 0 -1 800.4999 899.4998)" width="200" x="-100" xlink:href="#a" y="-50"/><use height="100" transform="matrix(1 0 0 -1 -399.5001 999.4998)" width="200" x="-100" xlink:href="#a" y="-50"/><use height="100" transform="matrix(1 0 0 -1 -199.5001 999.4998)" width="200" x="-100" xlink:href="#a" y="-50"/><use height="100" transform="matrix(1 0 0 -1 -399.5001 1099.4998)" width="200" x="-100" xlink:href="#a" y="-50"/><use height="100" transform="matrix(1 0 0 -1 -199.5001 1099.4998)" width="200" x="-100" xlink:href="#a" y="-50"/><use height="100" transform="matrix(1 0 0 -1 -499.5002 1049.4998)" width="200" x="-100" xlink:href="#a" y="-50"/><use height="100" transform="matrix(1 0 0 -1 -299.5002 1049.4998)" width="200" x="-100" xlink:href="#a" y="-50"/><use height="100" transform="matrix(1 0 0 -1 -299.5002 949.4998)" width="200" x="-100" xlink:href="#a" y="-50"/><use height="100" transform="matrix(1 0 0 -1 -299.5002 1149.4998)" width="200" x="-100" xlink:href="#a" y="-50"/><use height="100" transform="matrix(1 0 0 -1 -99.5002 1049.4998)" width="200" x="-100" xlink:href="#a" y="-50"/><use height="100" transform="matrix(1 0 0 -1 -99.5002 1149.4998)" width="200" x="-100" xlink:href="#a" y="-50"/><use height="100" transform="matrix(1 0 0 -1 100.4998 1149.4998)" width="200" x="-100" xlink:href="#a" y="-50"/><use height="100" transform="matrix(1 0 0 -1 -99.5002 1249.4998)" width="200" x="-100" xlink:href="#a" y="-50"/><use height="100" transform="matrix(1 0 0 -1 100.4998 1249.4998)" width="200" x="-100" xlink:href="#a" y="-50"/><use height="100" transform="matrix(1 0 0 -1 -199.5002 1199.4998)" width="200" x="-100" xlink:href="#a" y="-50"/><use height="100" transform="matrix(1 0 0 -1 .4998 1199.4998)" width="200" x="-100" xlink:href="#a" y="-50"/><use height="100" transform="matrix(1 0 0 -1 .4998 1099.4998)" width="200" x="-100" xlink:href="#a" y="-50"/><use height="100" transform="matrix(1 0 0 -1 .4998 1299.4998)" width="200" x="-100" xlink:href="#a" y="-50"/><use height="100" transform="matrix(1 0 0 -1 200.4998 1199.4998)" width="200" x="-100" xlink:href="#a" y="-50"/><use height="100" transform="matrix(1 0 0 -1 1700.5001 549.5)" width="200" x="-100" xlink:href="#a" y="-50"/><use height="100" transform="matrix(1 0 0 -1 1900.5001 549.5)" width="200" x="-100" xlink:href="#a" y="-50"/><use height="100" transform="matrix(1 0 0 -1 1700.5001 649.4999)" width="200" x="-100" xlink:href="#a" y="-50"/><use height="100" transform="matrix(1 0 0 -1 1900.5001 649.4999)" width="200" x="-100" xlink:href="#a" y="-50"/><use height="100" transform="matrix(1 0 0 -1 1600.5 599.4999)" width="200" x="-100" xlink:href="#a" y="-50"/><use height="100" transform="matrix(1 0 0 -1 1800.5 599.4999)" width="200" x="-100" xlink:href="#a" y="-50"/><use height="100" transform="matrix(1 0 0 -1 1800.5 499.5)" width="200" x="-100" xlink:href="#a" y="-50"/><use height="100" transform="matrix(1 0 0 -1 1800.5 699.4999)" width="200" x="-100" xlink:href="#a" y="-50"/><use height="100" transform="matrix(1 0 0 -1 2000.5 599.4999)" width="200" x="-100" xlink:href="#a" y="-50"/><use height="100" transform="matrix(1 0 0 -1 2000.5 699.5)" width="200" x="-100" xlink:href="#a" y="-50"/><use height="100" transform="matrix(1 0 0 -1 2200.5 699.5)" width="200" x="-100" xlink:href="#a" y="-50"/><use height="100" transform="matrix(1 0 0 -1 2000.5 799.4999)" width="200" x="-100" xlink:href="#a" y="-50"/><use height="100" transform="matrix(1 0 0 -1 2200.5 799.4999)" width="200" x="-100" xlink:href="#a" y="-50"/><use height="100" transform="matrix(1 0 0 -1 1900.5 749.5)" width="200" x="-100" xlink:href="#a" y="-50"/><use height="100" transform="matrix(1 0 0 -1 2100.5 749.5)" width="200" x="-100" xlink:href="#a" y="-50"/><use height="100" transform="matrix(1 0 0 -1 2100.5 649.5)" width="200" x="-100" xlink:href="#a" y="-50"/><use height="100" transform="matrix(1 0 0 -1 2100.5 849.5)" width="200" x="-100" xlink:href="#a" y="-50"/><use height="100" transform="matrix(1 0 0 -1 2300.5 749.5)" width="200" x="-100" xlink:href="#a" y="-50"/><use height="100" transform="matrix(1 0 0 -1 1100.5 849.4999)" width="200" x="-100" xlink:href="#a" y="-50"/><use height="100" transform="matrix(1 0 0 -1 1300.5 849.4999)" width="200" x="-100" xlink:href="#a" y="-50"/><use height="100" transform="matrix(1 0 0 -1 1100.5 949.4999)" width="200" x="-100" xlink:href="#a" y="-50"/><use height="100" transform="matrix(1 0 0 -1 1300.5 949.4999)" width="200" x="-100" xlink:href="#a" y="-50"/><use height="100" transform="matrix(1 0 0 -1 1000.4999 899.4999)" width="200" x="-100" xlink:href="#a" y="-50"/><use height="100" transform="matrix(1 0 0 -1 1200.4999 899.4999)" width="200" x="-100" xlink:href="#a" y="-50"/><use height="100" transform="matrix(1 0 0 -1 1200.4999 799.4999)" width="200" x="-100" xlink:href="#a" y="-50"/><use height="100" transform="matrix(1 0 0 -1 1200.4999 999.4999)" width="200" x="-100" xlink:href="#a" y="-50"/><use height="100" transform="matrix(1 0 0 -1 1400.4999 899.4999)" width="200" x="-100" xlink:href="#a" y="-50"/><use height="100" transform="matrix(1 0 0 -1 1400.5 699.4999)" width="200" x="-100" xlink:href="#a" y="-50"/><use height="100" transform="matrix(1 0 0 -1 1600.5 699.4999)" width="200" x="-100" xlink:href="#a" y="-50"/><use height="100" transform="matrix(1 0 0 -1 1400.5 799.4999)" width="200" x="-100" xlink:href="#a" y="-50"/><use height="100" transform="matrix(1 0 0 -1 1600.5 799.4999)" width="200" x="-100" xlink:href="#a" y="-50"/><use height="100" transform="matrix(1 0 0 -1 1300.5 749.4999)" width="200" x="-100" xlink:href="#a" y="-50"/><use height="100" transform="matrix(1 0 0 -1 1500.5 749.4999)" width="200" x="-100" xlink:href="#a" y="-50"/><use height="100" transform="matrix(1 0 0 -1 1500.5 649.4999)" width="200" x="-100" xlink:href="#a" y="-50"/><use height="100" transform="matrix(1 0 0 -1 1500.5 849.4999)" width="200" x="-100" xlink:href="#a" y="-50"/><use height="100" transform="matrix(1 0 0 -1 1700.5 749.4999)" width="200" x="-100" xlink:href="#a" y="-50"/><use height="100" transform="matrix(1 0 0 -1 1400.4999 999.4999)" width="200" x="-100" xlink:href="#a" y="-50"/><use height="100" transform="matrix(1 0 0 -1 1600.4999 999.4999)" width="200" x="-100" xlink:href="#a" y="-50"/><use height="100" transform="matrix(1 0 0 -1 1400.4999 1099.4999)" width="200" x="-100" xlink:href="#a" y="-50"/><use height="100" transform="matrix(1 0 0 -1 1600.4999 1099.4999)" width="200" x="-100" xlink:href="#a" y="-50"/><use height="100" transform="matrix(1 0 0 -1 1300.4999 1049.4999)" width="200" x="-100" xlink:href="#a" y="-50"/><use height="100" transform="matrix(1 0 0 -1 1500.4999 1049.4999)" width="200" x="-100" xlink:href="#a" y="-50"/><use height="100" transform="matrix(1 0 0 -1 1500.4999 949.4999)" width="200" x="-100" xlink:href="#a" y="-50"/><use height="100" transform="matrix(1 0 0 -1 1500.4999 1149.4999)" width="200" x="-100" xlink:href="#a" y="-50"/><use height="100" transform="matrix(1 0 0 -1 1700.4999 1049.4999)" width="200" x="-100" xlink:href="#a" y="-50"/><use height="100" transform="matrix(1 0 0 -1 1700.5 849.5)" width="200" x="-100" xlink:href="#a" y="-50"/><use height="100" transform="matrix(1 0 0 -1 1900.5 849.5)" width="200" x="-100" xlink:href="#a" y="-50"/><use height="100" transform="matrix(1 0 0 -1 1700.5 949.4999)" width="200" x="-100" xlink:href="#a" y="-50"/><use height="100" transform="matrix(1 0 0 -1 1900.5 949.4999)" width="200" x="-100" xlink:href="#a" y="-50"/><use height="100" transform="matrix(1 0 0 -1 1600.4999 899.4999)" width="200" x="-100" xlink:href="#a" y="-50"/><use height="100" transform="matrix(1 0 0 -1 1800.4999 899.4999)" width="200" x="-100" xlink:href="#a" y="-50"/><use height="100" transform="matrix(1 0 0 -1 1800.4999 799.4999)" width="200" x="-100" xlink:href="#a" y="-50"/><use height="100" transform="matrix(1 0 0 -1 1800.4999 999.4999)" width="200" x="-100" xlink:href="#a" y="-50"/><use height="100" transform="matrix(1 0 0 -1 2000.4999 899.4999)" width="200" x="-100" xlink:href="#a" y="-50"/><use height="100" transform="matrix(1 0 0 -1 2300.5 849.5001)" width="200" x="-100" xlink:href="#a" y="-50"/><use height="100" transform="matrix(1 0 0 -1 2500.5 849.5001)" width="200" x="-100" xlink:href="#a" y="-50"/><use height="100" transform="matrix(1 0 0 -1 2300.5 949.5)" width="200" x="-100" xlink:href="#a" y="-50"/><use height="100" transform="matrix(1 0 0 -1 2500.5 949.5)" width="200" x="-100" xlink:href="#a" y="-50"/><use height="100" transform="matrix(1 0 0 -1 2200.5 899.5)" width="200" x="-100" xlink:href="#a" y="-50"/><use height="100" transform="matrix(1 0 0 -1 2400.5 899.5)" width="200" x="-100" xlink:href="#a" y="-50"/><use height="100" transform="matrix(1 0 0 -1 2400.5 799.5)" width="200" x="-100" xlink:href="#a" y="-50"/><use height="100" transform="matrix(1 0 0 -1 2400.5 999.5)" width="200" x="-100" xlink:href="#a" y="-50"/><use height="100" transform="matrix(1 0 0 -1 2600.5 899.5)" width="200" x="-100" xlink:href="#a" y="-50"/><use height="100" transform="matrix(1 0 0 -1 1700.4999 1149.5)" width="200" x="-100" xlink:href="#a" y="-50"/><use height="100" transform="matrix(1 0 0 -1 1900.4999 1149.5)" width="200" x="-100" xlink:href="#a" y="-50"/><use height="100" transform="matrix(1 0 0 -1 1700.4999 1249.4999)" width="200" x="-100" xlink:href="#a" y="-50"/><use height="100" transform="matrix(1 0 0 -1 1900.4999 1249.4999)" width="200" x="-100" xlink:href="#a" y="-50"/><use height="100" transform="matrix(1 0 0 -1 1600.4998 1199.5)" width="200" x="-100" xlink:href="#a" y="-50"/><use height="100" transform="matrix(1 0 0 -1 1800.4998 1199.5)" width="200" x="-100" xlink:href="#a" y="-50"/><use height="100" transform="matrix(1 0 0 -1 1800.4998 1099.5)" width="200" x="-100" xlink:href="#a" y="-50"/><use height="100" transform="matrix(1 0 0 -1 1800.4998 1299.5)" width="200" x="-100" xlink:href="#a" y="-50"/><use height="100" transform="matrix(1 0 0 -1 2000.4998 1199.5)" width="200" x="-100" xlink:href="#a" y="-50"/><use height="100" transform="matrix(1 0 0 -1 2000.4999 999.5)" width="200" x="-100" xlink:href="#a" y="-50"/><use height="100" transform="matrix(1 0 0 -1 2200.5 999.5)" width="200" x="-100" xlink:href="#a" y="-50"/><use height="100" transform="matrix(1 0 0 -1 2000.4999 1099.5)" width="200" x="-100" xlink:href="#a" y="-50"/><use height="100" transform="matrix(1 0 0 -1 2200.5 1099.5)" width="200" x="-100" xlink:href="#a" y="-50"/><use height="100" transform="matrix(1 0 0 -1 1900.4999 1049.5)" width="200" x="-100" xlink:href="#a" y="-50"/><use height="100" transform="matrix(1 0 0 -1 2100.4998 1049.5)" width="200" x="-100" xlink:href="#a" y="-50"/><use height="100" transform="matrix(1 0 0 -1 2100.4998 949.5)" width="200" x="-100" xlink:href="#a" y="-50"/><use height="100" transform="matrix(1 0 0 -1 2100.4998 1149.5)" width="200" x="-100" xlink:href="#a" y="-50"/><use height="100" transform="matrix(1 0 0 -1 2300.4998 1049.5)" width="200" x="-100" xlink:href="#a" y="-50"/><use height="100" transform="matrix(1 0 0 -1 500.4998 1149.4999)" width="200" x="-100" xlink:href="#a" y="-50"/><use height="100" transform="matrix(1 0 0 -1 700.4998 1149.4999)" width="200" x="-100" xlink:href="#a" y="-50"/><use height="100" transform="matrix(1 0 0 -1 500.4998 1249.4998)" width="200" x="-100" xlink:href="#a" y="-50"/><use height="100" transform="matrix(1 0 0 -1 700.4998 1249.4998)" width="200" x="-100" xlink:href="#a" y="-50"/><use height="100" transform="matrix(1 0 0 -1 400.4998 1199.4999)" width="200" x="-100" xlink:href="#a" y="-50"/><use height="100" transform="matrix(1 0 0 -1 600.4998 1199.4999)" width="200" x="-100" xlink:href="#a" y="-50"/><use height="100" transform="matrix(1 0 0 -1 600.4998 1099.4999)" width="200" x="-100" xlink:href="#a" y="-50"/><use height="100" transform="matrix(1 0 0 -1 600.4998 1299.4999)" width="200" x="-100" xlink:href="#a" y="-50"/><use height="100" transform="matrix(1 0 0 -1 800.4998 1199.4999)" width="200" x="-100" xlink:href="#a" y="-50"/><use height="100" transform="matrix(1 0 0 -1 800.4999 999.4999)" width="200" x="-100" xlink:href="#a" y="-50"/><use height="100" transform="matrix(1 0 0 -1 1000.4999 999.4999)" width="200" x="-100" xlink:href="#a" y="-50"/><use height="100" transform="matrix(1 0 0 -1 800.4999 1099.4999)" width="200" x="-100" xlink:href="#a" y="-50"/><use height="100" transform="matrix(1 0 0 -1 1000.4999 1099.4999)" width="200" x="-100" xlink:href="#a" y="-50"/><use height="100" transform="matrix(1 0 0 -1 700.4998 1049.4999)" width="200" x="-100" xlink:href="#a" y="-50"/><use height="100" transform="matrix(1 0 0 -1 900.4998 1049.4999)" width="200" x="-100" xlink:href="#a" y="-50"/><use height="100" transform="matrix(1 0 0 -1 900.4998 949.4999)" width="200" x="-100" xlink:href="#a" y="-50"/><use height="100" transform="matrix(1 0 0 -1 900.4998 1149.4999)" width="200" x="-100" xlink:href="#a" y="-50"/><use height="100" transform="matrix(1 0 0 -1 1100.4999 1049.4999)" width="200" x="-100" xlink:href="#a" y="-50"/><use height="100" transform="matrix(1 0 0 -1 800.4998 1299.4999)" width="200" x="-100" xlink:href="#a" y="-50"/><use height="100" transform="matrix(1 0 0 -1 1000.4998 1299.4999)" width="200" x="-100" xlink:href="#a" y="-50"/><use height="100" transform="matrix(1 0 0 -1 800.4998 1399.4999)" width="200" x="-100" xlink:href="#a" y="-50"/><use height="100" transform="matrix(1 0 0 -1 1000.4998 1399.4999)" width="200" x="-100" xlink:href="#a" y="-50"/><use height="100" transform="matrix(1 0 0 -1 700.4997 1349.4999)" width="200" x="-100" xlink:href="#a" y="-50"/><use height="100" transform="matrix(1 0 0 -1 900.4997 1349.4999)" width="200" x="-100" xlink:href="#a" y="-50"/><use height="100" transform="matrix(1 0 0 -1 900.4997 1249.4999)" width="200" x="-100" xlink:href="#a" y="-50"/><use height="100" transform="matrix(1 0 0 -1 900.4997 1449.4999)" width="200" x="-100" xlink:href="#a" y="-50"/><use height="100" transform="matrix(1 0 0 -1 1100.4998 1349.4999)" width="200" x="-100" xlink:href="#a" y="-50"/><use height="100" transform="matrix(1 0 0 -1 1100.4999 1149.4999)" width="200" x="-100" xlink:href="#a" y="-50"/><use height="100" transform="matrix(1 0 0 -1 1300.4999 1149.4999)" width="200" x="-100" xlink:href="#a" y="-50"/><use height="100" transform="matrix(1 0 0 -1 1100.4999 1249.4999)" width="200" x="-100" xlink:href="#a" y="-50"/><use height="100" transform="matrix(1 0 0 -1 1300.4999 1249.4999)" width="200" x="-100" xlink:href="#a" y="-50"/><use height="100" transform="matrix(1 0 0 -1 1000.4998 1199.4999)" width="200" x="-100" xlink:href="#a" y="-50"/><use height="100" transform="matrix(1 0 0 -1 1200.4998 1199.4999)" width="200" x="-100" xlink:href="#a" y="-50"/><use height="100" transform="matrix(1 0 0 -1 1200.4998 1099.4999)" width="200" x="-100" xlink:href="#a" y="-50"/><use height="100" transform="matrix(1 0 0 -1 1200.4998 1299.4999)" width="200" x="-100" xlink:href="#a" y="-50"/><use height="100" transform="matrix(1 0 0 -1 1400.4998 1199.4999)" width="200" x="-100" xlink:href="#a" y="-50"/><use height="100" transform="matrix(1 0 0 -1 200.4998 1299.4999)" width="200" x="-100" xlink:href="#a" y="-50"/><use height="100" transform="matrix(1 0 0 -1 400.4998 1299.4999)" width="200" x="-100" xlink:href="#a" y="-50"/><use height="100" transform="matrix(1 0 0 -1 200.4998 1399.4998)" width="200" x="-100" xlink:href="#a" y="-50"/><use height="100" transform="matrix(1 0 0 -1 400.4998 1399.4998)" width="200" x="-100" xlink:href="#a" y="-50"/><use height="100" transform="matrix(1 0 0 -1 100.4997 1349.4998)" width="200" x="-100" xlink:href="#a" y="-50"/><use height="100" transform="matrix(1 0 0 -1 300.4997 1349.4998)" width="200" x="-100" xlink:href="#a" y="-50"/><use height="100" transform="matrix(1 0 0 -1 300.4997 1249.4998)" width="200" x="-100" xlink:href="#a" y="-50"/><use height="100" transform="matrix(1 0 0 -1 300.4997 1449.4998)" width="200" x="-100" xlink:href="#a" y="-50"/><use height="100" transform="matrix(1 0 0 -1 500.4997 1349.4998)" width="200" x="-100" xlink:href="#a" y="-50"/><use height="100" transform="matrix(1 0 0 -1 500.4997 1449.4999)" width="200" x="-100" xlink:href="#a" y="-50"/><use height="100" transform="matrix(1 0 0 -1 700.4997 1449.4999)" width="200" x="-100" xlink:href="#a" y="-50"/><use height="100" transform="matrix(1 0 0 -1 500.4997 1549.4998)" width="200" x="-100" xlink:href="#a" y="-50"/><use height="100" transform="matrix(1 0 0 -1 700.4997 1549.4998)" width="200" x="-100" xlink:href="#a" y="-50"/><use height="100" transform="matrix(1 0 0 -1 400.4997 1499.4999)" width="200" x="-100" xlink:href="#a" y="-50"/><use height="100" transform="matrix(1 0 0 -1 600.4996 1499.4999)" width="200" x="-100" xlink:href="#a" y="-50"/><use height="100" transform="matrix(1 0 0 -1 600.4996 1399.4999)" width="200" x="-100" xlink:href="#a" y="-50"/><use height="100" transform="matrix(1 0 0 -1 600.4996 1599.4999)" width="200" x="-100" xlink:href="#a" y="-50"/><use height="100" transform="matrix(1 0 0 -1 800.4996 1499.4999)" width="200" x="-100" xlink:href="#a" y="-50"/><use height="100" transform="matrix(1 0 0 -1 1100.4998 1449.4999)" width="200" x="-100" xlink:href="#a" y="-50"/><use height="100" transform="matrix(1 0 0 -1 1300.4998 1449.4999)" width="200" x="-100" xlink:href="#a" y="-50"/><use height="100" transform="matrix(1 0 0 -1 1300.4996 1549.5)" width="200" x="-100" xlink:href="#a" y="-50"/><use height="100" transform="matrix(1 0 0 -1 1100.4998 1549.4999)" width="200" x="-100" xlink:href="#a" y="-50"/><use height="100" transform="matrix(1 0 0 -1 1000.4996 1499.4999)" width="200" x="-100" xlink:href="#a" y="-50"/><use height="100" transform="matrix(1 0 0 -1 1200.4996 1499.4999)" width="200" x="-100" xlink:href="#a" y="-50"/><use height="100" transform="matrix(1 0 0 -1 1200.4996 1599.4999)" width="200" x="-100" xlink:href="#a" y="-50"/><use height="100" transform="matrix(1 0 0 -1 1200.4996 1399.4999)" width="200" x="-100" xlink:href="#a" y="-50"/><use height="100" transform="matrix(1 0 0 -1 1400.4998 1299.5)" width="200" x="-100" xlink:href="#a" y="-50"/><use height="100" transform="matrix(1 0 0 -1 1600.4998 1299.5)" width="200" x="-100" xlink:href="#a" y="-50"/><use height="100" transform="matrix(1 0 0 -1 1400.4998 1399.4999)" width="200" x="-100" xlink:href="#a" y="-50"/><use height="100" transform="matrix(1 0 0 -1 1600.4998 1399.4999)" width="200" x="-100" xlink:href="#a" y="-50"/><use height="100" transform="matrix(1 0 0 -1 1300.4998 1349.4999)" width="200" x="-100" xlink:href="#a" y="-50"/><use height="100" transform="matrix(1 0 0 -1 1500.4998 1349.4999)" width="200" x="-100" xlink:href="#a" y="-50"/><use height="100" transform="matrix(1 0 0 -1 1400.4998 1499.4999)" width="200" x="-100" xlink:href="#a" y="-50"/><use height="100" transform="matrix(1 0 0 -1 1500.4998 1449.4999)" width="200" x="-100" xlink:href="#a" y="-50"/><use height="100" transform="matrix(1 0 0 -1 1500.4998 1249.4999)" width="200" x="-100" xlink:href="#a" y="-50"/><use height="100" transform="matrix(1 0 0 -1 1700.4998 1349.4999)" width="200" x="-100" xlink:href="#a" y="-50"/><use height="100" transform="matrix(1 0 0 -1 800.4996 1599.4999)" width="200" x="-100" xlink:href="#a" y="-50"/><use height="100" transform="matrix(1 0 0 -1 1000.4996 1599.4999)" width="200" x="-100" xlink:href="#a" y="-50"/><use height="100" transform="matrix(1 0 0 -1 800.4996 1699.4999)" width="200" x="-100" xlink:href="#a" y="-50"/><use height="100" transform="matrix(1 0 0 -1 1000.4996 1699.4999)" width="200" x="-100" xlink:href="#a" y="-50"/><use height="100" transform="matrix(1 0 0 -1 700.4996 1649.4999)" width="200" x="-100" xlink:href="#a" y="-50"/><use height="100" transform="matrix(1 0 0 -1 900.4996 1649.4999)" width="200" x="-100" xlink:href="#a" y="-50"/><use height="100" transform="matrix(1 0 0 -1 900.4996 1549.4999)" width="200" x="-100" xlink:href="#a" y="-50"/><use height="100" transform="matrix(1 0 0 -1 900.4996 1749.4999)" width="200" x="-100" xlink:href="#a" y="-50"/><use height="100" transform="matrix(1 0 0 -1 1100.4996 1649.4999)" width="200" x="-100" xlink:href="#a" y="-50"/><use height="100" transform="matrix(1 0 0 -1 3200.5 699.4998)" width="200" x="-100" xlink:href="#a" y="-50"/><use height="100" transform="matrix(1 0 0 -1 3400.5 699.4998)" width="200" x="-100" xlink:href="#a" y="-50"/><use height="100" transform="matrix(1 0 0 -1 3200.5 799.4997)" width="200" x="-100" xlink:href="#a" y="-50"/><use height="100" transform="matrix(1 0 0 -1 3400.5 799.4997)" width="200" x="-100" xlink:href="#a" y="-50"/><use height="100" transform="matrix(1 0 0 -1 3100.5 749.4998)" width="200" x="-100" xlink:href="#a" y="-50"/><use height="100" transform="matrix(1 0 0 -1 3300.5 749.4998)" width="200" x="-100" xlink:href="#a" y="-50"/><use height="100" transform="matrix(1 0 0 -1 3300.5 649.4998)" width="200" x="-100" xlink:href="#a" y="-50"/><use height="100" transform="matrix(1 0 0 -1 3300.5 849.4998)" width="200" x="-100" xlink:href="#a" y="-50"/><use height="100" transform="matrix(1 0 0 -1 3500.5 749.4998)" width="200" x="-100" xlink:href="#a" y="-50"/><use height="100" transform="matrix(1 0 0 -1 3500.5 549.4998)" width="200" x="-100" xlink:href="#a" y="-50"/><use height="100" transform="matrix(1 0 0 -1 3700.5 549.4998)" width="200" x="-100" xlink:href="#a" y="-50"/><use height="100" transform="matrix(1 0 0 -1 3500.5 649.4998)" width="200" x="-100" xlink:href="#a" y="-50"/><use height="100" transform="matrix(1 0 0 -1 3700.5 649.4998)" width="200" x="-100" xlink:href="#a" y="-50"/><use height="100" transform="matrix(1 0 0 -1 3400.5 599.4998)" width="200" x="-100" xlink:href="#a" y="-50"/><use height="100" transform="matrix(1 0 0 -1 3600.5 599.4998)" width="200" x="-100" xlink:href="#a" y="-50"/><use height="100" transform="matrix(1 0 0 -1 3600.5 499.4998)" width="200" x="-100" xlink:href="#a" y="-50"/><use height="100" transform="matrix(1 0 0 -1 3600.5 699.4998)" width="200" x="-100" xlink:href="#a" y="-50"/><use height="100" transform="matrix(1 0 0 -1 3800.5 599.4998)" width="200" x="-100" xlink:href="#a" y="-50"/><use height="100" transform="matrix(1 0 0 -1 2900.5 849.4998)" width="200" x="-100" xlink:href="#a" y="-50"/><use height="100" transform="matrix(1 0 0 -1 3100.5 849.4998)" width="200" x="-100" xlink:href="#a" y="-50"/><use height="100" transform="matrix(1 0 0 -1 2900.5 949.4997)" width="200" x="-100" xlink:href="#a" y="-50"/><use height="100" transform="matrix(1 0 0 -1 3100.5 949.4997)" width="200" x="-100" xlink:href="#a" y="-50"/><use height="100" transform="matrix(1 0 0 -1 2800.5 899.4997)" width="200" x="-100" xlink:href="#a" y="-50"/><use height="100" transform="matrix(1 0 0 -1 3000.5 899.4997)" width="200" x="-100" xlink:href="#a" y="-50"/><use height="100" transform="matrix(1 0 0 -1 3000.5 799.4997)" width="200" x="-100" xlink:href="#a" y="-50"/><use height="100" transform="matrix(1 0 0 -1 3000.5 999.4997)" width="200" x="-100" xlink:href="#a" y="-50"/><use height="100" transform="matrix(1 0 0 -1 3200.5 899.4997)" width="200" x="-100" xlink:href="#a" y="-50"/><use height="100" transform="matrix(1 0 0 -1 3500.5 849.4998)" width="200" x="-100" xlink:href="#a" y="-50"/><use height="100" transform="matrix(1 0 0 -1 3700.5 849.4998)" width="200" x="-100" xlink:href="#a" y="-50"/><use height="100" transform="matrix(1 0 0 -1 3500.5 949.4998)" width="200" x="-100" xlink:href="#a" y="-50"/><use height="100" transform="matrix(1 0 0 -1 3700.5 949.4998)" width="200" x="-100" xlink:href="#a" y="-50"/><use height="100" transform="matrix(1 0 0 -1 3400.5 899.4998)" width="200" x="-100" xlink:href="#a" y="-50"/><use height="100" transform="matrix(1 0 0 -1 3600.5 899.4998)" width="200" x="-100" xlink:href="#a" y="-50"/><use height="100" transform="matrix(1 0 0 -1 3600.5 799.4998)" width="200" x="-100" xlink:href="#a" y="-50"/><use height="100" transform="matrix(1 0 0 -1 3600.5 999.4998)" width="200" x="-100" xlink:href="#a" y="-50"/><use height="100" transform="matrix(1 0 0 -1 3800.5 899.4998)" width="200" x="-100" xlink:href="#a" y="-50"/><use height="100" transform="matrix(1 0 0 -1 3800.5 699.4998)" width="200" x="-100" xlink:href="#a" y="-50"/><use height="100" transform="matrix(1 0 0 -1 4000.5 699.4998)" width="200" x="-100" xlink:href="#a" y="-50"/><use height="100" transform="matrix(1 0 0 -1 3800.5 799.4998)" width="200" x="-100" xlink:href="#a" y="-50"/><use height="100" transform="matrix(1 0 0 -1 4000.5 799.4998)" width="200" x="-100" xlink:href="#a" y="-50"/><use height="100" transform="matrix(1 0 0 -1 3700.5 749.4998)" width="200" x="-100" xlink:href="#a" y="-50"/><use height="100" transform="matrix(1 0 0 -1 3900.5 749.4998)" width="200" x="-100" xlink:href="#a" y="-50"/><use height="100" transform="matrix(1 0 0 -1 3900.5 649.4998)" width="200" x="-100" xlink:href="#a" y="-50"/><use height="100" transform="matrix(1 0 0 -1 3900.5 849.4998)" width="200" x="-100" xlink:href="#a" y="-50"/><use height="100" transform="matrix(1 0 0 -1 4100.5 749.4998)" width="200" x="-100" xlink:href="#a" y="-50"/><use height="100" transform="matrix(1 0 0 -1 3800.5 999.4998)" width="200" x="-100" xlink:href="#a" y="-50"/><use height="100" transform="matrix(1 0 0 -1 4000.5 999.4998)" width="200" x="-100" xlink:href="#a" y="-50"/><use height="100" transform="matrix(1 0 0 -1 3800.5 1099.4998)" width="200" x="-100" xlink:href="#a" y="-50"/><use height="100" transform="matrix(1 0 0 -1 4000.5 1099.4998)" width="200" x="-100" xlink:href="#a" y="-50"/><use height="100" transform="matrix(1 0 0 -1 3700.4998 1049.4998)" width="200" x="-100" xlink:href="#a" y="-50"/><use height="100" transform="matrix(1 0 0 -1 3900.4998 1049.4998)" width="200" x="-100" xlink:href="#a" y="-50"/><use height="100" transform="matrix(1 0 0 -1 3900.4998 949.4998)" width="200" x="-100" xlink:href="#a" y="-50"/><use height="100" transform="matrix(1 0 0 -1 3900.4998 1149.4998)" width="200" x="-100" xlink:href="#a" y="-50"/><use height="100" transform="matrix(1 0 0 -1 4100.5 1049.4998)" width="200" x="-100" xlink:href="#a" y="-50"/><use height="100" transform="matrix(1 0 0 -1 4100.5 849.4999)" width="200" x="-100" xlink:href="#a" y="-50"/><use height="100" transform="matrix(1 0 0 -1 4300.5 849.4999)" width="200" x="-100" xlink:href="#a" y="-50"/><use height="100" transform="matrix(1 0 0 -1 4100.5 949.4998)" width="200" x="-100" xlink:href="#a" y="-50"/><use height="100" transform="matrix(1 0 0 -1 4300.5 949.4998)" width="200" x="-100" xlink:href="#a" y="-50"/><use height="100" transform="matrix(1 0 0 -1 4000.5 899.4998)" width="200" x="-100" xlink:href="#a" y="-50"/><use height="100" transform="matrix(1 0 0 -1 4200.5 899.4998)" width="200" x="-100" xlink:href="#a" y="-50"/><use height="100" transform="matrix(1 0 0 -1 4200.5 799.4998)" width="200" x="-100" xlink:href="#a" y="-50"/><use height="100" transform="matrix(1 0 0 -1 4200.5 999.4998)" width="200" x="-100" xlink:href="#a" y="-50"/><use height="100" transform="matrix(1 0 0 -1 4400.5 899.4998)" width="200" x="-100" xlink:href="#a" y="-50"/><use height="100" transform="matrix(1 0 0 -1 3200.5 999.4998)" width="200" x="-100" xlink:href="#a" y="-50"/><use height="100" transform="matrix(1 0 0 -1 3400.5 999.4998)" width="200" x="-100" xlink:href="#a" y="-50"/><use height="100" transform="matrix(1 0 0 -1 3200.5 1099.4998)" width="200" x="-100" xlink:href="#a" y="-50"/><use height="100" transform="matrix(1 0 0 -1 3400.5 1099.4998)" width="200" x="-100" xlink:href="#a" y="-50"/><use height="100" transform="matrix(1 0 0 -1 3100.4998 1049.4998)" width="200" x="-100" xlink:href="#a" y="-50"/><use height="100" transform="matrix(1 0 0 -1 3300.4998 1049.4998)" width="200" x="-100" xlink:href="#a" y="-50"/><use height="100" transform="matrix(1 0 0 -1 3300.4998 949.4998)" width="200" x="-100" xlink:href="#a" y="-50"/><use height="100" transform="matrix(1 0 0 -1 3300.4998 1149.4998)" width="200" x="-100" xlink:href="#a" y="-50"/><use height="100" transform="matrix(1 0 0 -1 3500.4998 1049.4998)" width="200" x="-100" xlink:href="#a" y="-50"/><use height="100" transform="matrix(1 0 0 -1 3500.4998 1149.4998)" width="200" x="-100" xlink:href="#a" y="-50"/><use height="100" transform="matrix(1 0 0 -1 3700.4998 1149.4998)" width="200" x="-100" xlink:href="#a" y="-50"/><use height="100" transform="matrix(1 0 0 -1 3500.4998 1249.4998)" width="200" x="-100" xlink:href="#a" y="-50"/><use height="100" transform="matrix(1 0 0 -1 3700.4998 1249.4998)" width="200" x="-100" xlink:href="#a" y="-50"/><use height="100" transform="matrix(1 0 0 -1 3400.4998 1199.4998)" width="200" x="-100" xlink:href="#a" y="-50"/><use height="100" transform="matrix(1 0 0 -1 3600.4998 1199.4998)" width="200" x="-100" xlink:href="#a" y="-50"/><use height="100" transform="matrix(1 0 0 -1 3600.4998 1099.4998)" width="200" x="-100" xlink:href="#a" y="-50"/><use height="100" transform="matrix(1 0 0 -1 3600.4998 1299.4998)" width="200" x="-100" xlink:href="#a" y="-50"/><use height="100" transform="matrix(1 0 0 -1 3800.4998 1199.4998)" width="200" x="-100" xlink:href="#a" y="-50"/><use height="100" transform="matrix(1 0 0 -1 2600.5002 999.4999)" width="200" x="-100" xlink:href="#a" y="-50"/><use height="100" transform="matrix(1 0 0 -1 2800.5002 999.4999)" width="200" x="-100" xlink:href="#a" y="-50"/><use height="100" transform="matrix(1 0 0 -1 2600.5002 1099.4999)" width="200" x="-100" xlink:href="#a" y="-50"/><use height="100" transform="matrix(1 0 0 -1 2800.5002 1099.4999)" width="200" x="-100" xlink:href="#a" y="-50"/><use height="100" transform="matrix(1 0 0 -1 2500.5002 1049.4999)" width="200" x="-100" xlink:href="#a" y="-50"/><use height="100" transform="matrix(1 0 0 -1 2700.5002 1049.4999)" width="200" x="-100" xlink:href="#a" y="-50"/><use height="100" transform="matrix(1 0 0 -1 2700.5002 949.4999)" width="200" x="-100" xlink:href="#a" y="-50"/><use height="100" transform="matrix(1 0 0 -1 2700.5002 1149.4999)" width="200" x="-100" xlink:href="#a" y="-50"/><use height="100" transform="matrix(1 0 0 -1 2900.5002 1049.4999)" width="200" x="-100" xlink:href="#a" y="-50"/><use height="100" transform="matrix(1 0 0 -1 2000.5001 1299.4999)" width="200" x="-100" xlink:href="#a" y="-50"/><use height="100" transform="matrix(1 0 0 -1 2200.5002 1299.4999)" width="200" x="-100" xlink:href="#a" y="-50"/><use height="100" transform="matrix(1 0 0 -1 2000.5001 1399.4998)" width="200" x="-100" xlink:href="#a" y="-50"/><use height="100" transform="matrix(1 0 0 -1 2200.5002 1399.4998)" width="200" x="-100" xlink:href="#a" y="-50"/><use height="100" transform="matrix(1 0 0 -1 1900.5001 1349.4998)" width="200" x="-100" xlink:href="#a" y="-50"/><use height="100" transform="matrix(1 0 0 -1 2100.5 1349.4998)" width="200" x="-100" xlink:href="#a" y="-50"/><use height="100" transform="matrix(1 0 0 -1 2100.5 1249.4998)" width="200" x="-100" xlink:href="#a" y="-50"/><use height="100" transform="matrix(1 0 0 -1 2100.5 1449.4998)" width="200" x="-100" xlink:href="#a" y="-50"/><use height="100" transform="matrix(1 0 0 -1 2300.5 1349.4998)" width="200" x="-100" xlink:href="#a" y="-50"/><use height="100" transform="matrix(1 0 0 -1 2300.5002 1149.4999)" width="200" x="-100" xlink:href="#a" y="-50"/><use height="100" transform="matrix(1 0 0 -1 2500.5002 1149.4999)" width="200" x="-100" xlink:href="#a" y="-50"/><use height="100" transform="matrix(1 0 0 -1 2300.5002 1249.4998)" width="200" x="-100" xlink:href="#a" y="-50"/><use height="100" transform="matrix(1 0 0 -1 2500.5002 1249.4998)" width="200" x="-100" xlink:href="#a" y="-50"/><use height="100" transform="matrix(1 0 0 -1 2200.5002 1199.4999)" width="200" x="-100" xlink:href="#a" y="-50"/><use height="100" transform="matrix(1 0 0 -1 2400.5002 1199.4999)" width="200" x="-100" xlink:href="#a" y="-50"/><use height="100" transform="matrix(1 0 0 -1 2400.5002 1099.4999)" width="200" x="-100" xlink:href="#a" y="-50"/><use height="100" transform="matrix(1 0 0 -1 2400.5002 1299.4999)" width="200" x="-100" xlink:href="#a" y="-50"/><use height="100" transform="matrix(1 0 0 -1 2600.5002 1199.4999)" width="200" x="-100" xlink:href="#a" y="-50"/><use height="100" transform="matrix(1 0 0 -1 2900.5002 1149.4999)" width="200" x="-100" xlink:href="#a" y="-50"/><use height="100" transform="matrix(1 0 0 -1 3100.5002 1149.4999)" width="200" x="-100" xlink:href="#a" y="-50"/><use height="100" transform="matrix(1 0 0 -1 3100.5 1249.4999)" width="200" x="-100" xlink:href="#a" y="-50"/><use height="100" transform="matrix(1 0 0 -1 2900.5002 1249.4999)" width="200" x="-100" xlink:href="#a" y="-50"/><use height="100" transform="matrix(1 0 0 -1 2800.5002 1199.4999)" width="200" x="-100" xlink:href="#a" y="-50"/><use height="100" transform="matrix(1 0 0 -1 3000.5002 1199.4999)" width="200" x="-100" xlink:href="#a" y="-50"/><use height="100" transform="matrix(1 0 0 -1 3000.5002 1099.4999)" width="200" x="-100" xlink:href="#a" y="-50"/><use height="100" transform="matrix(1 0 0 -1 3000.5002 1299.4999)" width="200" x="-100" xlink:href="#a" y="-50"/><use height="100" transform="matrix(1 0 0 -1 3200.5002 1199.4999)" width="200" x="-100" xlink:href="#a" y="-50"/><use height="100" transform="matrix(1 0 0 -1 3200.5002 1299.5)" width="200" x="-100" xlink:href="#a" y="-50"/><use height="100" transform="matrix(1 0 0 -1 3400.5002 1299.5)" width="200" x="-100" xlink:href="#a" y="-50"/><use height="100" transform="matrix(1 0 0 -1 3200.5002 1399.4999)" width="200" x="-100" xlink:href="#a" y="-50"/><use height="100" transform="matrix(1 0 0 -1 3400.5002 1399.4999)" width="200" x="-100" xlink:href="#a" y="-50"/><use height="100" transform="matrix(1 0 0 -1 3100.5 1349.4999)" width="200" x="-100" xlink:href="#a" y="-50"/><use height="100" transform="matrix(1 0 0 -1 3300.5 1349.4999)" width="200" x="-100" xlink:href="#a" y="-50"/><use height="100" transform="matrix(1 0 0 -1 3300.5 1249.4999)" width="200" x="-100" xlink:href="#a" y="-50"/><use height="100" transform="matrix(1 0 0 -1 3300.5 1449.4999)" width="200" x="-100" xlink:href="#a" y="-50"/><use height="100" transform="matrix(1 0 0 -1 3500.5 1349.4999)" width="200" x="-100" xlink:href="#a" y="-50"/><use height="100" transform="matrix(1 0 0 -1 2300.5 1449.4999)" width="200" x="-100" xlink:href="#a" y="-50"/><use height="100" transform="matrix(1 0 0 -1 2500.5 1449.4999)" width="200" x="-100" xlink:href="#a" y="-50"/><use height="100" transform="matrix(1 0 0 -1 2300.5 1549.4998)" width="200" x="-100" xlink:href="#a" y="-50"/><use height="100" transform="matrix(1 0 0 -1 2500.5 1549.4998)" width="200" x="-100" xlink:href="#a" y="-50"/><use height="100" transform="matrix(1 0 0 -1 2200.5 1499.4999)" width="200" x="-100" xlink:href="#a" y="-50"/><use height="100" transform="matrix(1 0 0 -1 2400.5 1499.4999)" width="200" x="-100" xlink:href="#a" y="-50"/><use height="100" transform="matrix(1 0 0 -1 2400.5 1399.4999)" width="200" x="-100" xlink:href="#a" y="-50"/><use height="100" transform="matrix(1 0 0 -1 2400.5 1599.4999)" width="200" x="-100" xlink:href="#a" y="-50"/><use height="100" transform="matrix(1 0 0 -1 2600.5 1499.4999)" width="200" x="-100" xlink:href="#a" y="-50"/><use height="100" transform="matrix(1 0 0 -1 2600.5002 1299.4999)" width="200" x="-100" xlink:href="#a" y="-50"/><use height="100" transform="matrix(1 0 0 -1 2800.5002 1299.4999)" width="200" x="-100" xlink:href="#a" y="-50"/><use height="100" transform="matrix(1 0 0 -1 2600.5002 1399.4999)" width="200" x="-100" xlink:href="#a" y="-50"/><use height="100" transform="matrix(1 0 0 -1 2800.5002 1399.4999)" width="200" x="-100" xlink:href="#a" y="-50"/><use height="100" transform="matrix(1 0 0 -1 2500.5 1349.4999)" width="200" x="-100" xlink:href="#a" y="-50"/><use height="100" transform="matrix(1 0 0 -1 2700.5 1349.4999)" width="200" x="-100" xlink:href="#a" y="-50"/><use height="100" transform="matrix(1 0 0 -1 2700.5 1249.4999)" width="200" x="-100" xlink:href="#a" y="-50"/><use height="100" transform="matrix(1 0 0 -1 2700.5 1449.4999)" width="200" x="-100" xlink:href="#a" y="-50"/><use height="100" transform="matrix(1 0 0 -1 2900.5 1349.4999)" width="200" x="-100" xlink:href="#a" y="-50"/><use height="100" transform="matrix(1 0 0 -1 2600.5 1599.4999)" width="200" x="-100" xlink:href="#a" y="-50"/><use height="100" transform="matrix(1 0 0 -1 2800.5 1599.4999)" width="200" x="-100" xlink:href="#a" y="-50"/><use height="100" transform="matrix(1 0 0 -1 2600.5 1699.4999)" width="200" x="-100" xlink:href="#a" y="-50"/><use height="100" transform="matrix(1 0 0 -1 2800.5 1699.4999)" width="200" x="-100" xlink:href="#a" y="-50"/><use height="100" transform="matrix(1 0 0 -1 2500.5 1649.4999)" width="200" x="-100" xlink:href="#a" y="-50"/><use height="100" transform="matrix(1 0 0 -1 2700.5 1649.4999)" width="200" x="-100" xlink:href="#a" y="-50"/><use height="100" transform="matrix(1 0 0 -1 2700.5 1549.4999)" width="200" x="-100" xlink:href="#a" y="-50"/><use height="100" transform="matrix(1 0 0 -1 2700.5 1749.4999)" width="200" x="-100" xlink:href="#a" y="-50"/><use height="100" transform="matrix(1 0 0 -1 2900.5 1649.4999)" width="200" x="-100" xlink:href="#a" y="-50"/><use height="100" transform="matrix(1 0 0 -1 2900.5 1449.4999)" width="200" x="-100" xlink:href="#a" y="-50"/><use height="100" transform="matrix(1 0 0 -1 3100.5 1449.4999)" width="200" x="-100" xlink:href="#a" y="-50"/><use height="100" transform="matrix(1 0 0 -1 2900.5 1549.4999)" width="200" x="-100" xlink:href="#a" y="-50"/><use height="100" transform="matrix(1 0 0 -1 3100.5 1549.4999)" width="200" x="-100" xlink:href="#a" y="-50"/><use height="100" transform="matrix(1 0 0 -1 2800.5 1499.4999)" width="200" x="-100" xlink:href="#a" y="-50"/><use height="100" transform="matrix(1 0 0 -1 3000.5 1499.4999)" width="200" x="-100" xlink:href="#a" y="-50"/><use height="100" transform="matrix(1 0 0 -1 3000.5 1399.4999)" width="200" x="-100" xlink:href="#a" y="-50"/><use height="100" transform="matrix(1 0 0 -1 3000.5 1599.4999)" width="200" x="-100" xlink:href="#a" y="-50"/><use height="100" transform="matrix(1 0 0 -1 3200.5 1499.4999)" width="200" x="-100" xlink:href="#a" y="-50"/><use height="100" transform="matrix(1 0 0 -1 1400.5 1599.4998)" width="200" x="-100" xlink:href="#a" y="-50"/><use height="100" transform="matrix(1 0 0 -1 1600.5 1599.4998)" width="200" x="-100" xlink:href="#a" y="-50"/><use height="100" transform="matrix(1 0 0 -1 1400.5 1699.4998)" width="200" x="-100" xlink:href="#a" y="-50"/><use height="100" transform="matrix(1 0 0 -1 1600.5 1699.4998)" width="200" x="-100" xlink:href="#a" y="-50"/><use height="100" transform="matrix(1 0 0 -1 1300.5 1649.4998)" width="200" x="-100" xlink:href="#a" y="-50"/><use height="100" transform="matrix(1 0 0 -1 1500.5 1649.4998)" width="200" x="-100" xlink:href="#a" y="-50"/><use height="100" transform="matrix(1 0 0 -1 1500.5 1549.4998)" width="200" x="-100" xlink:href="#a" y="-50"/><use height="100" transform="matrix(1 0 0 -1 1500.5 1749.4998)" width="200" x="-100" xlink:href="#a" y="-50"/><use height="100" transform="matrix(1 0 0 -1 1700.5 1649.4998)" width="200" x="-100" xlink:href="#a" y="-50"/><use height="100" transform="matrix(1 0 0 -1 1700.5001 1449.4998)" width="200" x="-100" xlink:href="#a" y="-50"/><use height="100" transform="matrix(1 0 0 -1 1900.5001 1449.4998)" width="200" x="-100" xlink:href="#a" y="-50"/><use height="100" transform="matrix(1 0 0 -1 1700.5001 1549.4998)" width="200" x="-100" xlink:href="#a" y="-50"/><use height="100" transform="matrix(1 0 0 -1 1900.5001 1549.4998)" width="200" x="-100" xlink:href="#a" y="-50"/><use height="100" transform="matrix(1 0 0 -1 1600.5 1499.4998)" width="200" x="-100" xlink:href="#a" y="-50"/><use height="100" transform="matrix(1 0 0 -1 1800.5 1499.4998)" width="200" x="-100" xlink:href="#a" y="-50"/><use height="100" transform="matrix(1 0 0 -1 1800.5 1399.4998)" width="200" x="-100" xlink:href="#a" y="-50"/><use height="100" transform="matrix(1 0 0 -1 1800.5 1599.4998)" width="200" x="-100" xlink:href="#a" y="-50"/><use height="100" transform="matrix(1 0 0 -1 2000.5 1499.4998)" width="200" x="-100" xlink:href="#a" y="-50"/><use height="100" transform="matrix(1 0 0 -1 1100.5 1749.4998)" width="200" x="-100" xlink:href="#a" y="-50"/><use height="100" transform="matrix(1 0 0 -1 1300.5 1749.4998)" width="200" x="-100" xlink:href="#a" y="-50"/><use height="100" transform="matrix(1 0 0 -1 1100.5 1849.4996)" width="200" x="-100" xlink:href="#a" y="-50"/><use height="100" transform="matrix(1 0 0 -1 1300.5 1849.4996)" width="200" x="-100" xlink:href="#a" y="-50"/><use height="100" transform="matrix(1 0 0 -1 1000.4999 1799.4998)" width="200" x="-100" xlink:href="#a" y="-50"/><use height="100" transform="matrix(1 0 0 -1 1200.4999 1799.4998)" width="200" x="-100" xlink:href="#a" y="-50"/><use height="100" transform="matrix(1 0 0 -1 1200.4999 1699.4998)" width="200" x="-100" xlink:href="#a" y="-50"/><use height="100" transform="matrix(1 0 0 -1 1200.4999 1899.4998)" width="200" x="-100" xlink:href="#a" y="-50"/><use height="100" transform="matrix(1 0 0 -1 1400.4999 1799.4998)" width="200" x="-100" xlink:href="#a" y="-50"/><use height="100" transform="matrix(1 0 0 -1 1700.5 1749.4998)" width="200" x="-100" xlink:href="#a" y="-50"/><use height="100" transform="matrix(1 0 0 -1 1900.5 1749.4998)" width="200" x="-100" xlink:href="#a" y="-50"/><use height="100" transform="matrix(1 0 0 -1 1700.5 1849.4998)" width="200" x="-100" xlink:href="#a" y="-50"/><use height="100" transform="matrix(1 0 0 -1 1900.5 1849.4998)" width="200" x="-100" xlink:href="#a" y="-50"/><use height="100" transform="matrix(1 0 0 -1 1600.4999 1799.4998)" width="200" x="-100" xlink:href="#a" y="-50"/><use height="100" transform="matrix(1 0 0 -1 1800.4999 1799.4998)" width="200" x="-100" xlink:href="#a" y="-50"/><use height="100" transform="matrix(1 0 0 -1 1800.4999 1699.4998)" width="200" x="-100" xlink:href="#a" y="-50"/><use height="100" transform="matrix(1 0 0 -1 1800.4999 1899.4998)" width="200" x="-100" xlink:href="#a" y="-50"/><use height="100" transform="matrix(1 0 0 -1 2000.4999 1799.4998)" width="200" x="-100" xlink:href="#a" y="-50"/><use height="100" transform="matrix(1 0 0 -1 2000.5 1599.4999)" width="200" x="-100" xlink:href="#a" y="-50"/><use height="100" transform="matrix(1 0 0 -1 2200.5 1599.4999)" width="200" x="-100" xlink:href="#a" y="-50"/><use height="100" transform="matrix(1 0 0 -1 2000.5 1699.4998)" width="200" x="-100" xlink:href="#a" y="-50"/><use height="100" transform="matrix(1 0 0 -1 2200.5 1699.4998)" width="200" x="-100" xlink:href="#a" y="-50"/><use height="100" transform="matrix(1 0 0 -1 1900.5 1649.4998)" width="200" x="-100" xlink:href="#a" y="-50"/><use height="100" transform="matrix(1 0 0 -1 2100.5 1649.4998)" width="200" x="-100" xlink:href="#a" y="-50"/><use height="100" transform="matrix(1 0 0 -1 2100.5 1549.4998)" width="200" x="-100" xlink:href="#a" y="-50"/><use height="100" transform="matrix(1 0 0 -1 2100.5 1749.4998)" width="200" x="-100" xlink:href="#a" y="-50"/><use height="100" transform="matrix(1 0 0 -1 2300.5 1649.4998)" width="200" x="-100" xlink:href="#a" y="-50"/><use height="100" transform="matrix(1 0 0 -1 2000.4999 1899.4999)" width="200" x="-100" xlink:href="#a" y="-50"/><use height="100" transform="matrix(1 0 0 -1 2200.5 1899.4999)" width="200" x="-100" xlink:href="#a" y="-50"/><use height="100" transform="matrix(1 0 0 -1 2000.4999 1999.4998)" width="200" x="-100" xlink:href="#a" y="-50"/><use height="100" transform="matrix(1 0 0 -1 2200.5 1999.4998)" width="200" x="-100" xlink:href="#a" y="-50"/><use height="100" transform="matrix(1 0 0 -1 1900.4999 1949.4998)" width="200" x="-100" xlink:href="#a" y="-50"/><use height="100" transform="matrix(1 0 0 -1 2100.4998 1949.4998)" width="200" x="-100" xlink:href="#a" y="-50"/><use height="100" transform="matrix(1 0 0 -1 2100.4998 1849.4998)" width="200" x="-100" xlink:href="#a" y="-50"/><use height="100" transform="matrix(1 0 0 -1 2100.4998 2049.4998)" width="200" x="-100" xlink:href="#a" y="-50"/><use height="100" transform="matrix(1 0 0 -1 2300.4998 1949.4998)" width="200" x="-100" xlink:href="#a" y="-50"/><use height="100" transform="matrix(1 0 0 -1 2300.5 1749.4999)" width="200" x="-100" xlink:href="#a" y="-50"/><use height="100" transform="matrix(1 0 0 -1 2500.5 1749.4999)" width="200" x="-100" xlink:href="#a" y="-50"/><use height="100" transform="matrix(1 0 0 -1 2300.5 1849.4998)" width="200" x="-100" xlink:href="#a" y="-50"/><use height="100" transform="matrix(1 0 0 -1 2500.5 1849.4998)" width="200" x="-100" xlink:href="#a" y="-50"/><use height="100" transform="matrix(1 0 0 -1 2200.5 1799.4999)" width="200" x="-100" xlink:href="#a" y="-50"/><use height="100" transform="matrix(1 0 0 -1 2400.5 1799.4999)" width="200" x="-100" xlink:href="#a" y="-50"/><use height="100" transform="matrix(1 0 0 -1 2400.5 1699.4999)" width="200" x="-100" xlink:href="#a" y="-50"/><use height="100" transform="matrix(1 0 0 -1 2400.5 1899.4999)" width="200" x="-100" xlink:href="#a" y="-50"/><use height="100" transform="matrix(1 0 0 -1 2600.5 1799.4999)" width="200" x="-100" xlink:href="#a" y="-50"/><use height="100" transform="matrix(1 0 0 -1 1400.4999 1899.4998)" width="200" x="-100" xlink:href="#a" y="-50"/><use height="100" transform="matrix(1 0 0 -1 1600.4999 1899.4998)" width="200" x="-100" xlink:href="#a" y="-50"/><use height="100" transform="matrix(1 0 0 -1 1400.4999 1999.4998)" width="200" x="-100" xlink:href="#a" y="-50"/><use height="100" transform="matrix(1 0 0 -1 1600.4999 1999.4998)" width="200" x="-100" xlink:href="#a" y="-50"/><use height="100" transform="matrix(1 0 0 -1 1300.4999 1949.4998)" width="200" x="-100" xlink:href="#a" y="-50"/><use height="100" transform="matrix(1 0 0 -1 1500.4999 1949.4998)" width="200" x="-100" xlink:href="#a" y="-50"/><use height="100" transform="matrix(1 0 0 -1 1500.4999 1849.4998)" width="200" x="-100" xlink:href="#a" y="-50"/><use height="100" transform="matrix(1 0 0 -1 1500.4999 2049.4998)" width="200" x="-100" xlink:href="#a" y="-50"/><use height="100" transform="matrix(1 0 0 -1 1700.4999 1949.4998)" width="200" x="-100" xlink:href="#a" y="-50"/><use height="100" transform="matrix(1 0 0 -1 1700.4999 2049.4998)" width="200" x="-100" xlink:href="#a" y="-50"/><use height="100" transform="matrix(1 0 0 -1 1900.4999 2049.4998)" width="200" x="-100" xlink:href="#a" y="-50"/><use height="100" transform="matrix(1 0 0 -1 1700.4999 2149.4998)" width="200" x="-100" xlink:href="#a" y="-50"/><use height="100" transform="matrix(1 0 0 -1 1900.4999 2149.4998)" width="200" x="-100" xlink:href="#a" y="-50"/><use height="100" transform="matrix(1 0 0 -1 1600.4998 2099.4998)" width="200" x="-100" xlink:href="#a" y="-50"/><use height="100" transform="matrix(1 0 0 -1 1800.4998 2099.4998)" width="200" x="-100" xlink:href="#a" y="-50"/><use height="100" transform="matrix(1 0 0 -1 1800.4998 1999.4998)" width="200" x="-100" xlink:href="#a" y="-50"/><use height="100" transform="matrix(1 0 0 -1 1800.4998 2199.4998)" width="200" x="-100" xlink:href="#a" y="-50"/><use height="100" transform="matrix(1 0 0 -1 2000.4998 2099.4998)" width="200" x="-100" xlink:href="#a" y="-50"/></g><use height="343.781" transform="matrix(1 0 0 -1 1899.8184 549.7789)" width="400" x="-200.001" xlink:href="#b" y="-50"/><use height="196.67" transform="matrix(1 0 0 -1 2049.7605 624.7506)" width="200" x="-99.999" xlink:href="#c" y="-50"/><use height="196.67" transform="matrix(1 0 0 -1 1649.9104 1424.4509)" width="200" x="-99.999" xlink:href="#c" y="-50"/><use height="196.67" transform="matrix(1 0 0 -1 1000.1538 1049.5914)" width="200" x="-99.999" xlink:href="#c" y="-50"/><use height="196.67" transform="matrix(1 0 0 -1 1350.0227 674.7319)" width="200" x="-99.999" xlink:href="#c" y="-50"/><use height="343.781" transform="matrix(1 0 0 -1 1150.0992 774.6946)" width="400" x="-200.001" xlink:href="#b" y="-50"/><use height="343.781" transform="matrix(1 0 0 -1 2449.6123 824.6759)" width="400" x="-200.001" xlink:href="#b" y="-50"/><g clip-path="url(#e)"><path d="m2164.804 851.235c-36.67-50.004-120.294-38.215-156.618-82.073-14.377-16.074-68.399-18.925-86.982-39.602-20.893-23.246-72.753-41.365-97.857-39.987-25.16 1.381-52.824-41.131-77.813-42.56-25.042-1.432-33.143 17.039-55.868 12.73-59.975-5.53-110.13 103.227-172.446 103.374-26.116 3.533-60.916 43.592-84.157 39.329-23.284-4.271-63.295 20.818-74.283 36.513-11.005 15.718-84.206 30.022-97.295 47.258-13.112 17.266 57.392 25.103 73.519 46.339 16.118 21.223 59.406 23.036 77.406 41.954 16.009 16.825 72.407 25.655 92.894 47.091 20.468 21.416 63.961 8.943 85.368 34.418 15.904 21.006 58.369 22.585 76.11 41.29 17.727 18.691 68.679 43.551 94.269 25.63 45.844-27.068 72.023-1.084 102.415-40.574 11.402-15.126 41.392-7.319 66.966-30.052 25.497-22.664 46.35-14.457 71.29-32.015 44.252-32.122 71.58-15.36 102.309-51.142 11.075-14.857 63.253-21.795 83.8-41.365 20.495-19.521 37.419-18.261 46.155-29.695 8.723-11.42-48.596-23.887-69.182-46.861z" fill="#778ec7"/><path d="m2021.047 853.231c-15.091-17.331-71.764-20.223-91.273-42.517-21.934-25.066-76.363-44.484-102.711-42.909-26.409 1.579-45.893-26.504-72.128-27.966-26.293-1.466-52.179 34.86-76.046 30.275-62.996-5.78-107.864 77.948-173.355 78.329-27.453 3.918-64.045 47.414-88.483 42.883-24.484-4.54-66.573 22.777-78.137 39.816-1.733 2.553-4.943 5.075-9.166 7.582 2.088 1.635 3.872 3.351 5.253 5.169 16.118 21.223 59.406 23.036 77.406 41.954 16.009 16.825 72.407 25.655 92.894 47.091 20.468 21.416 63.962 8.943 85.368 34.418 15.904 21.006 58.369 22.585 76.11 41.29 17.727 18.69 68.679 43.551 94.269 25.63 45.844-27.068 72.023-1.084 102.415-40.573 11.402-15.126 41.392-7.319 66.966-30.052 25.497-22.664 46.35-14.457 71.29-32.015 44.252-32.122 71.58-15.36 102.309-51.142 10.646-14.282 59.268-21.253 81.264-39.156-38.51-53.854-126.132-40.83-164.245-88.107z" fill="#6d80b3"/><path d="m2021.965 920.043c-15.108-17.329-71.848-20.063-91.38-42.356-21.961-25.064-76.454-44.371-102.832-42.716-26.44 1.66-45.948-26.436-72.214-27.826-26.324-1.393-52.241 35.098-76.137 30.571-63.072-5.611-107.994 78.454-173.564 79.027-27.486 4.008-64.123 47.718-88.591 43.247-10.411-1.902-23.987 1.965-37.057 8.351 12.61 4.621 24.648 9.549 32.22 17.506 16.009 16.825 72.407 25.655 92.894 47.091 20.468 21.416 63.962 8.943 85.368 34.418 15.904 21.006 58.369 22.585 76.11 41.29 17.727 18.69 68.679 43.551 94.269 25.63 45.844-27.068 72.023-1.084 102.415-40.573 11.402-15.126 41.392-7.319 66.966-30.052 25.497-22.664 46.35-14.457 71.29-32.015 44.252-32.122 71.58-15.36 102.309-51.142 3.542-4.752 11.307-8.695 20.889-12.502-37.792-12.791-79.651-19.074-102.955-47.949z" fill="#5a6ea5"/><path d="m2001.72 1034.471c27.093-19.667 47.828-21.014 66.892-27.304-18.045-6.74-34.283-15.495-45.899-29.875-15.123-17.328-71.917-19.933-91.468-42.224-21.982-25.063-76.528-44.28-102.932-42.558-26.466 1.725-45.993-26.38-72.284-27.711-26.35-1.333-52.292 35.291-76.211 30.812-63.134-5.473-108.099 78.867-173.735 79.596-17.034 2.526-37.567 20.293-56.56 32.426 20.855 7.83 44.119 15.94 55.778 28.14 20.468 21.416 63.962 8.943 85.368 34.418 15.904 21.006 58.369 22.585 76.11 41.29 17.727 18.691 68.679 43.551 94.269 25.63 45.844-27.068 72.023-1.084 102.415-40.574 11.402-15.126 41.392-7.319 66.966-30.052 25.498-22.662 46.352-14.455 71.291-32.014z" fill="#4a5d92"/><path d="m1736.74 715.302c-1.672-16.692-11.493-42.21-3.901-67.23-15.966 3.728-24.782 15.158-43.174 11.67-59.975-5.53-110.13 103.227-172.446 103.373-26.116 3.533-60.916 43.592-84.158 39.329-23.284-4.271-63.295 20.818-74.283 36.513-11.005 15.718-84.206 30.022-97.295 47.258-13.112 17.266 57.392 25.103 73.519 46.339 16.118 21.223 59.406 23.036 77.406 41.954 16.009 16.825 72.407 25.655 92.894 47.091 20.468 21.416 63.961 8.943 85.368 34.418 15.904 21.006 58.369 22.585 76.11 41.29 12.639 13.327 42.168 29.785 67.353 31.641 1.246-115.014 3.025-269.581 3.51-285.886.871-29.25 2.99-88.901-.903-127.76z" fill="#485885" opacity=".2"/><path d="m1461.415 786.452c-1.386 24.946.826 52.666 1.958 85.099 1.232 35.267-.307 135.567-.307 135.567l270.344 137.463 167.089-55.547s1.543-108.871 3.543-149.045 5.675-87.109-.431-94.521c-16.753-20.337-433.585-72.556-442.196-59.016z" fill="#778ec7"/><path d="m1733.411 1149.737 167.089-55.547s1.543-108.871 3.543-149.045c.282-5.66.597-11.455.913-17.254-4.319 8.208-9.847 18.895-13.401 22.246-16.875 15.912-59.879 21.562-68.988 33.662-24.295 31.595-16.13 8.784-52.775 30.202-20.443 14.211-85.826-12.768-100-28.03-14.138-15.224-39.097-14.238-59.746-32.429-20.648-18.191-59.477-28.934-68.429-38.574-14.184-15.274-35.353-9.496-48.067-26.604-7.391-9.946-21.609-12.361-30.37-16.814.066 1.708.131 3.422.191 5.157 1.232 35.267-.307 135.567-.307 135.567z" fill="#6d80b3"/><path d="m1900.5 1097.585s.637-44.943 1.623-87.733c-4.823 5.743-9.001 10.549-10.851 12.293-16.875 15.912-59.596 21.278-68.704 33.379-24.295 31.595-16.13 8.784-52.775 30.202-20.443 14.211-85.826-12.768-100-28.03-14.138-15.224-39.097-14.238-59.746-32.429-20.648-18.191-59.477-28.934-68.429-38.574-14.184-15.274-35.353-9.496-48.067-26.604-5.44-7.32-19.666-12.161-29.74-20.33-.158 37.595-.746 75.91-.746 75.91l270.344 137.463z" fill="#5a6ea5"/><path d="m1759.508 1138.548 140.992-49.514s1.543-108.871 3.543-149.045 5.675-87.109-.432-94.521c-1.605-1.948-6.953-4.088-15.299-6.353-46.695 26.345-148.449 85.799-161.846 87.373.634 10.211 1.251 18.842 1.567 23.242.908 12.645-1.557 33.028-2.327 54.361-.763 21.166-4.787 32.224-2.366 60.408 1.148 13.358-.983 50.486-2.928 65.812z" fill="#485885" opacity=".2"/></g></svg>